G04 #@! TF.FileFunction,Soldermask,Top*
%FSLAX46Y46*%
G04 Gerber Fmt 4.6, Leading zero omitted, Abs format (unit mm)*
G04 Created by KiCad (PCBNEW 4.0.7) date Friday, July 13, 2018 'AMt' 10:09:28 AM*
%MOMM*%
%LPD*%
G01*
G04 APERTURE LIST*
%ADD10C,0.100000*%
%ADD11C,0.300000*%
%ADD12C,3.100000*%
%ADD13C,4.100000*%
%ADD14C,3.600000*%
G04 APERTURE END LIST*
D10*
D11*
X79410001Y-53514286D02*
X79324287Y-53609524D01*
X79067144Y-53704762D01*
X78895715Y-53704762D01*
X78638572Y-53609524D01*
X78467144Y-53419048D01*
X78381429Y-53228571D01*
X78295715Y-52847619D01*
X78295715Y-52561905D01*
X78381429Y-52180952D01*
X78467144Y-51990476D01*
X78638572Y-51800000D01*
X78895715Y-51704762D01*
X79067144Y-51704762D01*
X79324287Y-51800000D01*
X79410001Y-51895238D01*
X80524287Y-51704762D02*
X80867144Y-51704762D01*
X81038572Y-51800000D01*
X81210001Y-51990476D01*
X81295715Y-52371429D01*
X81295715Y-53038095D01*
X81210001Y-53419048D01*
X81038572Y-53609524D01*
X80867144Y-53704762D01*
X80524287Y-53704762D01*
X80352858Y-53609524D01*
X80181429Y-53419048D01*
X80095715Y-53038095D01*
X80095715Y-52371429D01*
X80181429Y-51990476D01*
X80352858Y-51800000D01*
X80524287Y-51704762D01*
X82067143Y-53704762D02*
X82067143Y-51704762D01*
X83095715Y-53704762D01*
X83095715Y-51704762D01*
X83695715Y-51704762D02*
X84295715Y-53704762D01*
X84895715Y-51704762D01*
X85495714Y-52657143D02*
X86095714Y-52657143D01*
X86352857Y-53704762D02*
X85495714Y-53704762D01*
X85495714Y-51704762D01*
X86352857Y-51704762D01*
X88152857Y-53704762D02*
X87552857Y-52752381D01*
X87124285Y-53704762D02*
X87124285Y-51704762D01*
X87810000Y-51704762D01*
X87981428Y-51800000D01*
X88067143Y-51895238D01*
X88152857Y-52085714D01*
X88152857Y-52371429D01*
X88067143Y-52561905D01*
X87981428Y-52657143D01*
X87810000Y-52752381D01*
X87124285Y-52752381D01*
X88667143Y-51704762D02*
X89695714Y-51704762D01*
X89181428Y-53704762D02*
X89181428Y-51704762D01*
D12*
X143390000Y-146720000D03*
X100000000Y-146720000D03*
X56610000Y-146720000D03*
X143390000Y-100000000D03*
X56610000Y-100000000D03*
X143390000Y-53280000D03*
X100000000Y-53280000D03*
D13*
X82000000Y-136830000D03*
X82000000Y-86830000D03*
X82000000Y-96830000D03*
X82000000Y-106830000D03*
X82000000Y-116830000D03*
X82000000Y-126830000D03*
X106000000Y-131830000D03*
X118000000Y-131830000D03*
X94000000Y-121830000D03*
X106000000Y-121830000D03*
X118000000Y-121830000D03*
X94000000Y-111830000D03*
X106000000Y-111830000D03*
X118000000Y-111830000D03*
X94000000Y-101830000D03*
X106000000Y-101830000D03*
D14*
X61000000Y-73280000D03*
X66200000Y-73280000D03*
X71400000Y-73280000D03*
X76600000Y-73280000D03*
X81800000Y-73280000D03*
X87000000Y-73280000D03*
X92200000Y-73280000D03*
X97400000Y-73280000D03*
X102600000Y-73280000D03*
X107800000Y-73280000D03*
X113000000Y-73280000D03*
X118200000Y-73280000D03*
X123400000Y-73280000D03*
X128600000Y-73280000D03*
X133800000Y-73280000D03*
X139000000Y-73280000D03*
D13*
X118000000Y-101830000D03*
D12*
X56610000Y-53280000D03*
M02*
