G04 #@! TF.FileFunction,Copper,L1,Top,Signal*
%FSLAX46Y46*%
G04 Gerber Fmt 4.6, Leading zero omitted, Abs format (unit mm)*
G04 Created by KiCad (PCBNEW 4.0.7) date Friday, July 13, 2018 'AMt' 10:09:28 AM*
%MOMM*%
%LPD*%
G01*
G04 APERTURE LIST*
%ADD10C,0.100000*%
%ADD11C,0.500000*%
G04 APERTURE END LIST*
D10*
D11*
X76010000Y-141820000D02*
X94980000Y-141820000D01*
X94980000Y-141820000D02*
X94990000Y-141830000D01*
X76010000Y-79840000D02*
X76010000Y-141820000D01*
X88000000Y-79840000D02*
X76010000Y-79840000D01*
X88000000Y-91830000D02*
X88000000Y-79840000D01*
X91010000Y-94840000D02*
X88000000Y-91830000D01*
X124000000Y-94840000D02*
X91010000Y-94840000D01*
X124000000Y-136820000D02*
X124000000Y-94840000D01*
X100000000Y-136820000D02*
X124000000Y-136820000D01*
X94990000Y-141830000D02*
X100000000Y-136820000D01*
X65090000Y-80000000D02*
X64090000Y-79000000D01*
X65090000Y-95000000D02*
X65090000Y-80000000D01*
X64090000Y-96000000D02*
X65090000Y-95000000D01*
X54090000Y-79000000D02*
X64090000Y-79000000D01*
X54090000Y-80000000D02*
X64090000Y-80000000D01*
X54090000Y-81000000D02*
X64090000Y-81000000D01*
X54090000Y-82000000D02*
X64090000Y-82000000D01*
X54090000Y-83000000D02*
X64090000Y-83000000D01*
X54090000Y-84000000D02*
X64090000Y-84000000D01*
X54090000Y-85000000D02*
X64090000Y-85000000D01*
X54090000Y-86000000D02*
X64090000Y-86000000D01*
X54090000Y-87000000D02*
X64090000Y-87000000D01*
X54090000Y-88000000D02*
X64090000Y-88000000D01*
X54090000Y-89000000D02*
X64090000Y-89000000D01*
X54090000Y-90000000D02*
X64090000Y-90000000D01*
X54090000Y-91000000D02*
X64090000Y-91000000D01*
X54090000Y-92000000D02*
X64090000Y-92000000D01*
X54090000Y-93000000D02*
X64090000Y-93000000D01*
X54090000Y-94000000D02*
X64090000Y-94000000D01*
X54090000Y-95000000D02*
X64090000Y-95000000D01*
X54090000Y-96000000D02*
X64090000Y-96000000D01*
X134910000Y-80000000D02*
X135910000Y-79000000D01*
X134910000Y-95000000D02*
X134910000Y-80000000D01*
X135910000Y-96000000D02*
X134910000Y-95000000D01*
X145910000Y-79000000D02*
X135910000Y-79000000D01*
X145910000Y-80000000D02*
X135910000Y-80000000D01*
X145910000Y-81000000D02*
X135910000Y-81000000D01*
X145910000Y-82000000D02*
X135910000Y-82000000D01*
X145910000Y-83000000D02*
X135910000Y-83000000D01*
X145910000Y-84000000D02*
X135910000Y-84000000D01*
X145910000Y-85000000D02*
X135910000Y-85000000D01*
X145910000Y-86000000D02*
X135910000Y-86000000D01*
X145910000Y-87000000D02*
X135910000Y-87000000D01*
X145910000Y-88000000D02*
X135910000Y-88000000D01*
X145910000Y-89000000D02*
X135910000Y-89000000D01*
X145910000Y-90000000D02*
X135910000Y-90000000D01*
X145910000Y-91000000D02*
X135910000Y-91000000D01*
X145910000Y-92000000D02*
X135910000Y-92000000D01*
X145910000Y-93000000D02*
X135910000Y-93000000D01*
X145910000Y-94000000D02*
X135910000Y-94000000D01*
X145910000Y-95000000D02*
X135910000Y-95000000D01*
X145910000Y-96000000D02*
X135910000Y-96000000D01*
X65090000Y-105000000D02*
X64090000Y-104000000D01*
X65090000Y-142000000D02*
X65090000Y-105000000D01*
X64090000Y-143000000D02*
X65090000Y-142000000D01*
X54090000Y-104000000D02*
X64090000Y-104000000D01*
X54090000Y-105000000D02*
X64090000Y-105000000D01*
X54090000Y-106000000D02*
X64090000Y-106000000D01*
X54090000Y-107000000D02*
X64090000Y-107000000D01*
X54090000Y-108000000D02*
X64090000Y-108000000D01*
X54090000Y-109000000D02*
X64090000Y-109000000D01*
X54090000Y-110000000D02*
X64090000Y-110000000D01*
X54090000Y-111000000D02*
X64090000Y-111000000D01*
X54090000Y-112000000D02*
X64090000Y-112000000D01*
X54090000Y-113000000D02*
X64090000Y-113000000D01*
X54090000Y-114000000D02*
X64090000Y-114000000D01*
X54090000Y-115000000D02*
X64090000Y-115000000D01*
X54090000Y-116000000D02*
X64090000Y-116000000D01*
X54090000Y-117000000D02*
X64090000Y-117000000D01*
X54090000Y-118000000D02*
X64090000Y-118000000D01*
X54090000Y-119000000D02*
X64090000Y-119000000D01*
X54090000Y-120000000D02*
X64090000Y-120000000D01*
X54090000Y-121000000D02*
X64090000Y-121000000D01*
X54090000Y-122000000D02*
X64090000Y-122000000D01*
X54090000Y-123000000D02*
X64090000Y-123000000D01*
X54090000Y-124000000D02*
X64090000Y-124000000D01*
X54090000Y-125000000D02*
X64090000Y-125000000D01*
X54090000Y-126000000D02*
X64090000Y-126000000D01*
X54090000Y-127000000D02*
X64090000Y-127000000D01*
X54090000Y-128000000D02*
X64090000Y-128000000D01*
X54090000Y-129000000D02*
X64090000Y-129000000D01*
X54090000Y-130000000D02*
X64090000Y-130000000D01*
X54090000Y-131000000D02*
X64090000Y-131000000D01*
X54090000Y-132000000D02*
X64090000Y-132000000D01*
X54090000Y-133000000D02*
X64090000Y-133000000D01*
X54090000Y-134000000D02*
X64090000Y-134000000D01*
X54090000Y-135000000D02*
X64090000Y-135000000D01*
X54090000Y-136000000D02*
X64090000Y-136000000D01*
X54090000Y-137000000D02*
X64090000Y-137000000D01*
X54090000Y-138000000D02*
X64090000Y-138000000D01*
X54090000Y-139000000D02*
X64090000Y-139000000D01*
X54090000Y-140000000D02*
X64090000Y-140000000D01*
X54090000Y-141000000D02*
X64090000Y-141000000D01*
X54090000Y-142000000D02*
X64090000Y-142000000D01*
X54090000Y-143000000D02*
X64090000Y-143000000D01*
X134910000Y-105000000D02*
X135910000Y-104000000D01*
X134910000Y-142000000D02*
X134910000Y-105000000D01*
X135910000Y-143000000D02*
X134910000Y-142000000D01*
X145910000Y-104000000D02*
X135910000Y-104000000D01*
X145910000Y-105000000D02*
X135910000Y-105000000D01*
X145910000Y-106000000D02*
X135910000Y-106000000D01*
X145910000Y-107000000D02*
X135910000Y-107000000D01*
X145910000Y-108000000D02*
X135910000Y-108000000D01*
X145910000Y-109000000D02*
X135910000Y-109000000D01*
X145910000Y-110000000D02*
X135910000Y-110000000D01*
X145910000Y-111000000D02*
X135910000Y-111000000D01*
X145910000Y-112000000D02*
X135910000Y-112000000D01*
X145910000Y-113000000D02*
X135910000Y-113000000D01*
X145910000Y-114000000D02*
X135910000Y-114000000D01*
X145910000Y-115000000D02*
X135910000Y-115000000D01*
X145910000Y-116000000D02*
X135910000Y-116000000D01*
X145910000Y-117000000D02*
X135910000Y-117000000D01*
X145910000Y-118000000D02*
X135910000Y-118000000D01*
X145910000Y-119000000D02*
X135910000Y-119000000D01*
X145910000Y-120000000D02*
X135910000Y-120000000D01*
X145910000Y-121000000D02*
X135910000Y-121000000D01*
X145910000Y-122000000D02*
X135910000Y-122000000D01*
X145910000Y-123000000D02*
X135910000Y-123000000D01*
X145910000Y-124000000D02*
X135910000Y-124000000D01*
X145910000Y-125000000D02*
X135910000Y-125000000D01*
X145910000Y-126000000D02*
X135910000Y-126000000D01*
X145910000Y-127000000D02*
X135910000Y-127000000D01*
X145910000Y-128000000D02*
X135910000Y-128000000D01*
X145910000Y-129000000D02*
X135910000Y-129000000D01*
X145910000Y-130000000D02*
X135910000Y-130000000D01*
X145910000Y-131000000D02*
X135910000Y-131000000D01*
X145910000Y-132000000D02*
X135910000Y-132000000D01*
X145910000Y-133000000D02*
X135910000Y-133000000D01*
X145910000Y-134000000D02*
X135910000Y-134000000D01*
X145910000Y-135000000D02*
X135910000Y-135000000D01*
X145910000Y-136000000D02*
X135910000Y-136000000D01*
X145910000Y-137000000D02*
X135910000Y-137000000D01*
X145910000Y-138000000D02*
X135910000Y-138000000D01*
X145910000Y-139000000D02*
X135910000Y-139000000D01*
X145910000Y-140000000D02*
X135910000Y-140000000D01*
X145910000Y-141000000D02*
X135910000Y-141000000D01*
X145910000Y-142000000D02*
X135910000Y-142000000D01*
X145910000Y-143000000D02*
X135910000Y-143000000D01*
G36*
X143879741Y-50806640D02*
X144350824Y-50948869D01*
X144785309Y-51179888D01*
X145166651Y-51490904D01*
X145480318Y-51870062D01*
X145714367Y-52302927D01*
X145859881Y-52773006D01*
X145915000Y-53297430D01*
X145915000Y-78000035D01*
X145910000Y-78000000D01*
X135910000Y-78000000D01*
X135818046Y-78009016D01*
X135726049Y-78017065D01*
X135721000Y-78018532D01*
X135715766Y-78019045D01*
X135627333Y-78045745D01*
X135538633Y-78071514D01*
X135533964Y-78073934D01*
X135528930Y-78075454D01*
X135447386Y-78118811D01*
X135365361Y-78161329D01*
X135361250Y-78164611D01*
X135356608Y-78167079D01*
X135285040Y-78225449D01*
X135212835Y-78283089D01*
X135205519Y-78290304D01*
X135205366Y-78290429D01*
X135205249Y-78290571D01*
X135202894Y-78292893D01*
X134202893Y-79292893D01*
X134144242Y-79364297D01*
X134084887Y-79435033D01*
X134082354Y-79439640D01*
X134079016Y-79443704D01*
X134035353Y-79525136D01*
X133990865Y-79606058D01*
X133989276Y-79611068D01*
X133986790Y-79615704D01*
X133959790Y-79704018D01*
X133931852Y-79792088D01*
X133931265Y-79797318D01*
X133929729Y-79802343D01*
X133920399Y-79894195D01*
X133910097Y-79986038D01*
X133910026Y-79996316D01*
X133910006Y-79996509D01*
X133910023Y-79996689D01*
X133910000Y-80000000D01*
X133910000Y-95000000D01*
X133919016Y-95091950D01*
X133927065Y-95183951D01*
X133928532Y-95189000D01*
X133929045Y-95194234D01*
X133955741Y-95282654D01*
X133981514Y-95371368D01*
X133983935Y-95376038D01*
X133985454Y-95381070D01*
X134028802Y-95462595D01*
X134071329Y-95544639D01*
X134074611Y-95548750D01*
X134077079Y-95553392D01*
X134135429Y-95624936D01*
X134193089Y-95697166D01*
X134200309Y-95704487D01*
X134200429Y-95704634D01*
X134200565Y-95704747D01*
X134202893Y-95707107D01*
X135202894Y-96707107D01*
X135274250Y-96765719D01*
X135345033Y-96825113D01*
X135349643Y-96827647D01*
X135353705Y-96830984D01*
X135435096Y-96874626D01*
X135516058Y-96919135D01*
X135521071Y-96920725D01*
X135525705Y-96923210D01*
X135614046Y-96950219D01*
X135702088Y-96978148D01*
X135707313Y-96978734D01*
X135712343Y-96980272D01*
X135804245Y-96989607D01*
X135896038Y-96999903D01*
X135906316Y-96999974D01*
X135906509Y-96999994D01*
X135906689Y-96999977D01*
X135910000Y-97000000D01*
X145910000Y-97000000D01*
X145915000Y-96999510D01*
X145915000Y-103000035D01*
X145910000Y-103000000D01*
X135910000Y-103000000D01*
X135818046Y-103009016D01*
X135726049Y-103017065D01*
X135721000Y-103018532D01*
X135715766Y-103019045D01*
X135627333Y-103045745D01*
X135538633Y-103071514D01*
X135533964Y-103073934D01*
X135528930Y-103075454D01*
X135447386Y-103118811D01*
X135365361Y-103161329D01*
X135361250Y-103164611D01*
X135356608Y-103167079D01*
X135285040Y-103225449D01*
X135212835Y-103283089D01*
X135205519Y-103290304D01*
X135205366Y-103290429D01*
X135205249Y-103290571D01*
X135202894Y-103292893D01*
X134202893Y-104292893D01*
X134144242Y-104364297D01*
X134084887Y-104435033D01*
X134082354Y-104439640D01*
X134079016Y-104443704D01*
X134035353Y-104525136D01*
X133990865Y-104606058D01*
X133989276Y-104611068D01*
X133986790Y-104615704D01*
X133959790Y-104704018D01*
X133931852Y-104792088D01*
X133931265Y-104797318D01*
X133929729Y-104802343D01*
X133920399Y-104894195D01*
X133910097Y-104986038D01*
X133910026Y-104996316D01*
X133910006Y-104996509D01*
X133910023Y-104996689D01*
X133910000Y-105000000D01*
X133910000Y-142000000D01*
X133919016Y-142091950D01*
X133927065Y-142183951D01*
X133928532Y-142189000D01*
X133929045Y-142194234D01*
X133955741Y-142282654D01*
X133981514Y-142371368D01*
X133983935Y-142376038D01*
X133985454Y-142381070D01*
X134028802Y-142462595D01*
X134071329Y-142544639D01*
X134074611Y-142548750D01*
X134077079Y-142553392D01*
X134135429Y-142624936D01*
X134193089Y-142697166D01*
X134200309Y-142704487D01*
X134200429Y-142704634D01*
X134200565Y-142704747D01*
X134202893Y-142707107D01*
X135202894Y-143707107D01*
X135274250Y-143765719D01*
X135345033Y-143825113D01*
X135349643Y-143827647D01*
X135353705Y-143830984D01*
X135435096Y-143874626D01*
X135516058Y-143919135D01*
X135521071Y-143920725D01*
X135525705Y-143923210D01*
X135614046Y-143950219D01*
X135702088Y-143978148D01*
X135707313Y-143978734D01*
X135712343Y-143980272D01*
X135804245Y-143989607D01*
X135896038Y-143999903D01*
X135906316Y-143999974D01*
X135906509Y-143999994D01*
X135906689Y-143999977D01*
X135910000Y-144000000D01*
X145910000Y-144000000D01*
X145915000Y-143999510D01*
X145915000Y-146683071D01*
X145863360Y-147209741D01*
X145721132Y-147680820D01*
X145490111Y-148115309D01*
X145179098Y-148496649D01*
X144799940Y-148810317D01*
X144367073Y-149044367D01*
X143896994Y-149189881D01*
X143372570Y-149245000D01*
X56646929Y-149245000D01*
X56120259Y-149193360D01*
X55649180Y-149051132D01*
X55214691Y-148820111D01*
X54833351Y-148509098D01*
X54519683Y-148129940D01*
X54285633Y-147697073D01*
X54140119Y-147226994D01*
X54105391Y-146896574D01*
X54507240Y-146896574D01*
X54581583Y-147301639D01*
X54733188Y-147684550D01*
X54956281Y-148030722D01*
X55242363Y-148326968D01*
X55580538Y-148562006D01*
X55957924Y-148726882D01*
X56360149Y-148815317D01*
X56771890Y-148823942D01*
X57177464Y-148752428D01*
X57561424Y-148603500D01*
X57909145Y-148382830D01*
X58207381Y-148098823D01*
X58444774Y-147762297D01*
X58612281Y-147386070D01*
X58703522Y-146984473D01*
X58704749Y-146896574D01*
X97897240Y-146896574D01*
X97971583Y-147301639D01*
X98123188Y-147684550D01*
X98346281Y-148030722D01*
X98632363Y-148326968D01*
X98970538Y-148562006D01*
X99347924Y-148726882D01*
X99750149Y-148815317D01*
X100161890Y-148823942D01*
X100567464Y-148752428D01*
X100951424Y-148603500D01*
X101299145Y-148382830D01*
X101597381Y-148098823D01*
X101834774Y-147762297D01*
X102002281Y-147386070D01*
X102093522Y-146984473D01*
X102094749Y-146896574D01*
X141287240Y-146896574D01*
X141361583Y-147301639D01*
X141513188Y-147684550D01*
X141736281Y-148030722D01*
X142022363Y-148326968D01*
X142360538Y-148562006D01*
X142737924Y-148726882D01*
X143140149Y-148815317D01*
X143551890Y-148823942D01*
X143957464Y-148752428D01*
X144341424Y-148603500D01*
X144689145Y-148382830D01*
X144987381Y-148098823D01*
X145224774Y-147762297D01*
X145392281Y-147386070D01*
X145483522Y-146984473D01*
X145490090Y-146514084D01*
X145410098Y-146110096D01*
X145253162Y-145729339D01*
X145025258Y-145386316D01*
X144735067Y-145094093D01*
X144393644Y-144863800D01*
X144013992Y-144704209D01*
X143610572Y-144621399D01*
X143198751Y-144618524D01*
X142794214Y-144695693D01*
X142412371Y-144849968D01*
X142067765Y-145075471D01*
X141773523Y-145363615D01*
X141540852Y-145703422D01*
X141378614Y-146081951D01*
X141292990Y-146484783D01*
X141287240Y-146896574D01*
X102094749Y-146896574D01*
X102100090Y-146514084D01*
X102020098Y-146110096D01*
X101863162Y-145729339D01*
X101635258Y-145386316D01*
X101345067Y-145094093D01*
X101003644Y-144863800D01*
X100623992Y-144704209D01*
X100220572Y-144621399D01*
X99808751Y-144618524D01*
X99404214Y-144695693D01*
X99022371Y-144849968D01*
X98677765Y-145075471D01*
X98383523Y-145363615D01*
X98150852Y-145703422D01*
X97988614Y-146081951D01*
X97902990Y-146484783D01*
X97897240Y-146896574D01*
X58704749Y-146896574D01*
X58710090Y-146514084D01*
X58630098Y-146110096D01*
X58473162Y-145729339D01*
X58245258Y-145386316D01*
X57955067Y-145094093D01*
X57613644Y-144863800D01*
X57233992Y-144704209D01*
X56830572Y-144621399D01*
X56418751Y-144618524D01*
X56014214Y-144695693D01*
X55632371Y-144849968D01*
X55287765Y-145075471D01*
X54993523Y-145363615D01*
X54760852Y-145703422D01*
X54598614Y-146081951D01*
X54512990Y-146484783D01*
X54507240Y-146896574D01*
X54105391Y-146896574D01*
X54085000Y-146702570D01*
X54085000Y-143999965D01*
X54090000Y-144000000D01*
X64090000Y-144000000D01*
X64181950Y-143990984D01*
X64273951Y-143982935D01*
X64279000Y-143981468D01*
X64284234Y-143980955D01*
X64372654Y-143954259D01*
X64461368Y-143928486D01*
X64466038Y-143926065D01*
X64471070Y-143924546D01*
X64552595Y-143881198D01*
X64634639Y-143838671D01*
X64638750Y-143835389D01*
X64643392Y-143832921D01*
X64714936Y-143774571D01*
X64787166Y-143716911D01*
X64794487Y-143709691D01*
X64794634Y-143709571D01*
X64794747Y-143709435D01*
X64797107Y-143707107D01*
X65797107Y-142707106D01*
X65855719Y-142635750D01*
X65915113Y-142564967D01*
X65917647Y-142560357D01*
X65920984Y-142556295D01*
X65964626Y-142474904D01*
X66009135Y-142393942D01*
X66010725Y-142388929D01*
X66013210Y-142384295D01*
X66040219Y-142295954D01*
X66068148Y-142207912D01*
X66068734Y-142202687D01*
X66070272Y-142197657D01*
X66079607Y-142105755D01*
X66089903Y-142013962D01*
X66089974Y-142003684D01*
X66089994Y-142003491D01*
X66089977Y-142003311D01*
X66090000Y-142000000D01*
X66090000Y-105000000D01*
X66080984Y-104908046D01*
X66072935Y-104816049D01*
X66071468Y-104811000D01*
X66070955Y-104805766D01*
X66044255Y-104717333D01*
X66018486Y-104628633D01*
X66016066Y-104623964D01*
X66014546Y-104618930D01*
X65971189Y-104537386D01*
X65928671Y-104455361D01*
X65925389Y-104451250D01*
X65922921Y-104446608D01*
X65864551Y-104375040D01*
X65806911Y-104302835D01*
X65799696Y-104295519D01*
X65799571Y-104295366D01*
X65799429Y-104295249D01*
X65797107Y-104292894D01*
X64797107Y-103292893D01*
X64725703Y-103234242D01*
X64654967Y-103174887D01*
X64650360Y-103172354D01*
X64646296Y-103169016D01*
X64564864Y-103125353D01*
X64483942Y-103080865D01*
X64478932Y-103079276D01*
X64474296Y-103076790D01*
X64385982Y-103049790D01*
X64297912Y-103021852D01*
X64292682Y-103021265D01*
X64287657Y-103019729D01*
X64195805Y-103010399D01*
X64103962Y-103000097D01*
X64093684Y-103000026D01*
X64093491Y-103000006D01*
X64093311Y-103000023D01*
X64090000Y-103000000D01*
X54090000Y-103000000D01*
X54085000Y-103000490D01*
X54085000Y-100176574D01*
X54507240Y-100176574D01*
X54581583Y-100581639D01*
X54733188Y-100964550D01*
X54956281Y-101310722D01*
X55242363Y-101606968D01*
X55580538Y-101842006D01*
X55957924Y-102006882D01*
X56360149Y-102095317D01*
X56771890Y-102103942D01*
X57177464Y-102032428D01*
X57561424Y-101883500D01*
X57909145Y-101662830D01*
X58207381Y-101378823D01*
X58444774Y-101042297D01*
X58612281Y-100666070D01*
X58703522Y-100264473D01*
X58710090Y-99794084D01*
X58630098Y-99390096D01*
X58473162Y-99009339D01*
X58245258Y-98666316D01*
X57955067Y-98374093D01*
X57613644Y-98143800D01*
X57233992Y-97984209D01*
X56830572Y-97901399D01*
X56418751Y-97898524D01*
X56014214Y-97975693D01*
X55632371Y-98129968D01*
X55287765Y-98355471D01*
X54993523Y-98643615D01*
X54760852Y-98983422D01*
X54598614Y-99361951D01*
X54512990Y-99764783D01*
X54507240Y-100176574D01*
X54085000Y-100176574D01*
X54085000Y-96999965D01*
X54090000Y-97000000D01*
X64090000Y-97000000D01*
X64181950Y-96990984D01*
X64273951Y-96982935D01*
X64279000Y-96981468D01*
X64284234Y-96980955D01*
X64372654Y-96954259D01*
X64461368Y-96928486D01*
X64466038Y-96926065D01*
X64471070Y-96924546D01*
X64552595Y-96881198D01*
X64634639Y-96838671D01*
X64638750Y-96835389D01*
X64643392Y-96832921D01*
X64714936Y-96774571D01*
X64787166Y-96716911D01*
X64794487Y-96709691D01*
X64794634Y-96709571D01*
X64794747Y-96709435D01*
X64797107Y-96707107D01*
X65797107Y-95707106D01*
X65855719Y-95635750D01*
X65915113Y-95564967D01*
X65917647Y-95560357D01*
X65920984Y-95556295D01*
X65964626Y-95474904D01*
X66009135Y-95393942D01*
X66010725Y-95388929D01*
X66013210Y-95384295D01*
X66040219Y-95295954D01*
X66068148Y-95207912D01*
X66068734Y-95202687D01*
X66070272Y-95197657D01*
X66079607Y-95105755D01*
X66089903Y-95013962D01*
X66089974Y-95003684D01*
X66089994Y-95003491D01*
X66089977Y-95003311D01*
X66090000Y-95000000D01*
X66090000Y-80000000D01*
X66080984Y-79908046D01*
X66075031Y-79840000D01*
X75010000Y-79840000D01*
X75010000Y-141820000D01*
X75019182Y-141913640D01*
X75027713Y-142007381D01*
X75028703Y-142010744D01*
X75029045Y-142014234D01*
X75056238Y-142104303D01*
X75082816Y-142194607D01*
X75084441Y-142197716D01*
X75085454Y-142201070D01*
X75129631Y-142284156D01*
X75173236Y-142367563D01*
X75175432Y-142370294D01*
X75177079Y-142373392D01*
X75236581Y-142446349D01*
X75295527Y-142519663D01*
X75298213Y-142521917D01*
X75300429Y-142524634D01*
X75372987Y-142584660D01*
X75445033Y-142645113D01*
X75448102Y-142646800D01*
X75450807Y-142649038D01*
X75533664Y-142693839D01*
X75616058Y-142739135D01*
X75619398Y-142740195D01*
X75622484Y-142741863D01*
X75712355Y-142769683D01*
X75802088Y-142798148D01*
X75805576Y-142798539D01*
X75808922Y-142799575D01*
X75902458Y-142809406D01*
X75996038Y-142819903D01*
X76002769Y-142819950D01*
X76003019Y-142819976D01*
X76003269Y-142819953D01*
X76010000Y-142820000D01*
X94887984Y-142820000D01*
X94979528Y-142829945D01*
X94983019Y-142829640D01*
X94986509Y-142829994D01*
X95080233Y-142821134D01*
X95173951Y-142812935D01*
X95177317Y-142811957D01*
X95180809Y-142811627D01*
X95271008Y-142784738D01*
X95361368Y-142758486D01*
X95364481Y-142756872D01*
X95367840Y-142755871D01*
X95451036Y-142712007D01*
X95534639Y-142668671D01*
X95537382Y-142666482D01*
X95540480Y-142664848D01*
X95613526Y-142605697D01*
X95687166Y-142546911D01*
X95691964Y-142542179D01*
X95692153Y-142542026D01*
X95692308Y-142541839D01*
X95697107Y-142537107D01*
X100414214Y-137820000D01*
X124000000Y-137820000D01*
X124093640Y-137810818D01*
X124187381Y-137802287D01*
X124190744Y-137801297D01*
X124194234Y-137800955D01*
X124284303Y-137773762D01*
X124374607Y-137747184D01*
X124377716Y-137745559D01*
X124381070Y-137744546D01*
X124464156Y-137700369D01*
X124547563Y-137656764D01*
X124550294Y-137654568D01*
X124553392Y-137652921D01*
X124626349Y-137593419D01*
X124699663Y-137534473D01*
X124701917Y-137531787D01*
X124704634Y-137529571D01*
X124764660Y-137457013D01*
X124825113Y-137384967D01*
X124826800Y-137381898D01*
X124829038Y-137379193D01*
X124873839Y-137296336D01*
X124919135Y-137213942D01*
X124920195Y-137210602D01*
X124921863Y-137207516D01*
X124949683Y-137117645D01*
X124978148Y-137027912D01*
X124978539Y-137024424D01*
X124979575Y-137021078D01*
X124989406Y-136927542D01*
X124999903Y-136833962D01*
X124999950Y-136827231D01*
X124999976Y-136826981D01*
X124999953Y-136826731D01*
X125000000Y-136820000D01*
X125000000Y-100176574D01*
X141287240Y-100176574D01*
X141361583Y-100581639D01*
X141513188Y-100964550D01*
X141736281Y-101310722D01*
X142022363Y-101606968D01*
X142360538Y-101842006D01*
X142737924Y-102006882D01*
X143140149Y-102095317D01*
X143551890Y-102103942D01*
X143957464Y-102032428D01*
X144341424Y-101883500D01*
X144689145Y-101662830D01*
X144987381Y-101378823D01*
X145224774Y-101042297D01*
X145392281Y-100666070D01*
X145483522Y-100264473D01*
X145490090Y-99794084D01*
X145410098Y-99390096D01*
X145253162Y-99009339D01*
X145025258Y-98666316D01*
X144735067Y-98374093D01*
X144393644Y-98143800D01*
X144013992Y-97984209D01*
X143610572Y-97901399D01*
X143198751Y-97898524D01*
X142794214Y-97975693D01*
X142412371Y-98129968D01*
X142067765Y-98355471D01*
X141773523Y-98643615D01*
X141540852Y-98983422D01*
X141378614Y-99361951D01*
X141292990Y-99764783D01*
X141287240Y-100176574D01*
X125000000Y-100176574D01*
X125000000Y-94840000D01*
X124990818Y-94746360D01*
X124982287Y-94652619D01*
X124981297Y-94649256D01*
X124980955Y-94645766D01*
X124953762Y-94555697D01*
X124927184Y-94465393D01*
X124925559Y-94462284D01*
X124924546Y-94458930D01*
X124880369Y-94375844D01*
X124836764Y-94292437D01*
X124834568Y-94289706D01*
X124832921Y-94286608D01*
X124773419Y-94213651D01*
X124714473Y-94140337D01*
X124711787Y-94138083D01*
X124709571Y-94135366D01*
X124637013Y-94075340D01*
X124564967Y-94014887D01*
X124561898Y-94013200D01*
X124559193Y-94010962D01*
X124476336Y-93966161D01*
X124393942Y-93920865D01*
X124390602Y-93919805D01*
X124387516Y-93918137D01*
X124297645Y-93890317D01*
X124207912Y-93861852D01*
X124204424Y-93861461D01*
X124201078Y-93860425D01*
X124107542Y-93850594D01*
X124013962Y-93840097D01*
X124007231Y-93840050D01*
X124006981Y-93840024D01*
X124006731Y-93840047D01*
X124000000Y-93840000D01*
X91424214Y-93840000D01*
X89000000Y-91415786D01*
X89000000Y-81400000D01*
X96525000Y-81400000D01*
X96525000Y-84260000D01*
X96525014Y-84260140D01*
X96525005Y-84262640D01*
X96525036Y-84271506D01*
X96528369Y-84304321D01*
X96528139Y-84337292D01*
X96529167Y-84347783D01*
X96555075Y-84594287D01*
X96568838Y-84661333D01*
X96581658Y-84728539D01*
X96584704Y-84738630D01*
X96657999Y-84975406D01*
X96684526Y-85038510D01*
X96710150Y-85101933D01*
X96715098Y-85111238D01*
X96715100Y-85111243D01*
X96715103Y-85111248D01*
X96832987Y-85329270D01*
X96871258Y-85386010D01*
X96908723Y-85443262D01*
X96915385Y-85451431D01*
X97073378Y-85642411D01*
X97121942Y-85690637D01*
X97169811Y-85739519D01*
X97177933Y-85746238D01*
X97370011Y-85902893D01*
X97427032Y-85940778D01*
X97483471Y-85979422D01*
X97492743Y-85984436D01*
X97711591Y-86100799D01*
X97774881Y-86126885D01*
X97837750Y-86153831D01*
X97847820Y-86156949D01*
X98085101Y-86228589D01*
X98152255Y-86241886D01*
X98219163Y-86256107D01*
X98229647Y-86257210D01*
X98476325Y-86281397D01*
X98507997Y-86281397D01*
X98539459Y-86284926D01*
X98550000Y-86285000D01*
X113450000Y-86285000D01*
X113450140Y-86284986D01*
X113452640Y-86284995D01*
X113461506Y-86284964D01*
X113494321Y-86281631D01*
X113527292Y-86281861D01*
X113537783Y-86280833D01*
X113784287Y-86254925D01*
X113851333Y-86241162D01*
X113918539Y-86228342D01*
X113928630Y-86225296D01*
X114165406Y-86152001D01*
X114228510Y-86125474D01*
X114291933Y-86099850D01*
X114301238Y-86094902D01*
X114301243Y-86094900D01*
X114301248Y-86094897D01*
X114519270Y-85977013D01*
X114576010Y-85938742D01*
X114633262Y-85901277D01*
X114641431Y-85894615D01*
X114832411Y-85736622D01*
X114880637Y-85688058D01*
X114929519Y-85640189D01*
X114936238Y-85632067D01*
X115092893Y-85439989D01*
X115130778Y-85382968D01*
X115169422Y-85326529D01*
X115174436Y-85317257D01*
X115290799Y-85098409D01*
X115316885Y-85035119D01*
X115343831Y-84972250D01*
X115346949Y-84962180D01*
X115418589Y-84724899D01*
X115431886Y-84657745D01*
X115446107Y-84590837D01*
X115447210Y-84580353D01*
X115471397Y-84333675D01*
X115471397Y-84302003D01*
X115474926Y-84270541D01*
X115475000Y-84260000D01*
X115475000Y-81400000D01*
X115474986Y-81399860D01*
X115474995Y-81397360D01*
X115474964Y-81388494D01*
X115471631Y-81355679D01*
X115471861Y-81322708D01*
X115470833Y-81312217D01*
X115444925Y-81065714D01*
X115431164Y-80998674D01*
X115418342Y-80931461D01*
X115415296Y-80921370D01*
X115342001Y-80684594D01*
X115315474Y-80621490D01*
X115289850Y-80558067D01*
X115284901Y-80548759D01*
X115167013Y-80330730D01*
X115128742Y-80273990D01*
X115091277Y-80216738D01*
X115084615Y-80208569D01*
X114926622Y-80017589D01*
X114878041Y-79969347D01*
X114830189Y-79920481D01*
X114822067Y-79913762D01*
X114629989Y-79757107D01*
X114572968Y-79719222D01*
X114516529Y-79680578D01*
X114507256Y-79675564D01*
X114288409Y-79559201D01*
X114225102Y-79533108D01*
X114162250Y-79506169D01*
X114152180Y-79503051D01*
X113914899Y-79431411D01*
X113847745Y-79418114D01*
X113780837Y-79403893D01*
X113770353Y-79402790D01*
X113523675Y-79378603D01*
X113492003Y-79378603D01*
X113460541Y-79375074D01*
X113450000Y-79375000D01*
X98550000Y-79375000D01*
X98549860Y-79375014D01*
X98547360Y-79375005D01*
X98538494Y-79375036D01*
X98505679Y-79378369D01*
X98472708Y-79378139D01*
X98462217Y-79379167D01*
X98215714Y-79405075D01*
X98148674Y-79418836D01*
X98081461Y-79431658D01*
X98071370Y-79434704D01*
X97834594Y-79507999D01*
X97771490Y-79534526D01*
X97708067Y-79560150D01*
X97698759Y-79565099D01*
X97480730Y-79682987D01*
X97423990Y-79721258D01*
X97366738Y-79758723D01*
X97358569Y-79765385D01*
X97167589Y-79923378D01*
X97119347Y-79971959D01*
X97070481Y-80019811D01*
X97063762Y-80027933D01*
X96907107Y-80220011D01*
X96869222Y-80277032D01*
X96830578Y-80333471D01*
X96825564Y-80342744D01*
X96709201Y-80561591D01*
X96683108Y-80624898D01*
X96656169Y-80687750D01*
X96653051Y-80697820D01*
X96581411Y-80935101D01*
X96568114Y-81002255D01*
X96553893Y-81069163D01*
X96552790Y-81079647D01*
X96528603Y-81326325D01*
X96528603Y-81357997D01*
X96525074Y-81389459D01*
X96525000Y-81400000D01*
X89000000Y-81400000D01*
X89000000Y-79840000D01*
X88990818Y-79746360D01*
X88982287Y-79652619D01*
X88981297Y-79649256D01*
X88980955Y-79645766D01*
X88953762Y-79555697D01*
X88927184Y-79465393D01*
X88925559Y-79462284D01*
X88924546Y-79458930D01*
X88880369Y-79375844D01*
X88836764Y-79292437D01*
X88834568Y-79289706D01*
X88832921Y-79286608D01*
X88773419Y-79213651D01*
X88714473Y-79140337D01*
X88711787Y-79138083D01*
X88709571Y-79135366D01*
X88637013Y-79075340D01*
X88564967Y-79014887D01*
X88561898Y-79013200D01*
X88559193Y-79010962D01*
X88476336Y-78966161D01*
X88393942Y-78920865D01*
X88390602Y-78919805D01*
X88387516Y-78918137D01*
X88297645Y-78890317D01*
X88207912Y-78861852D01*
X88204424Y-78861461D01*
X88201078Y-78860425D01*
X88107542Y-78850594D01*
X88013962Y-78840097D01*
X88007231Y-78840050D01*
X88006981Y-78840024D01*
X88006731Y-78840047D01*
X88000000Y-78840000D01*
X76010000Y-78840000D01*
X75916360Y-78849182D01*
X75822619Y-78857713D01*
X75819256Y-78858703D01*
X75815766Y-78859045D01*
X75725697Y-78886238D01*
X75635393Y-78912816D01*
X75632284Y-78914441D01*
X75628930Y-78915454D01*
X75545844Y-78959631D01*
X75462437Y-79003236D01*
X75459706Y-79005432D01*
X75456608Y-79007079D01*
X75383651Y-79066581D01*
X75310337Y-79125527D01*
X75308083Y-79128213D01*
X75305366Y-79130429D01*
X75245340Y-79202987D01*
X75184887Y-79275033D01*
X75183200Y-79278102D01*
X75180962Y-79280807D01*
X75136161Y-79363664D01*
X75090865Y-79446058D01*
X75089805Y-79449398D01*
X75088137Y-79452484D01*
X75060317Y-79542355D01*
X75031852Y-79632088D01*
X75031461Y-79635576D01*
X75030425Y-79638922D01*
X75020594Y-79732458D01*
X75010097Y-79826038D01*
X75010050Y-79832769D01*
X75010024Y-79833019D01*
X75010047Y-79833269D01*
X75010000Y-79840000D01*
X66075031Y-79840000D01*
X66072935Y-79816049D01*
X66071468Y-79811000D01*
X66070955Y-79805766D01*
X66044255Y-79717333D01*
X66018486Y-79628633D01*
X66016066Y-79623964D01*
X66014546Y-79618930D01*
X65971189Y-79537386D01*
X65928671Y-79455361D01*
X65925389Y-79451250D01*
X65922921Y-79446608D01*
X65864548Y-79375036D01*
X65806911Y-79302835D01*
X65799696Y-79295519D01*
X65799571Y-79295366D01*
X65799429Y-79295249D01*
X65797107Y-79292894D01*
X64797107Y-78292893D01*
X64725703Y-78234242D01*
X64654967Y-78174887D01*
X64650360Y-78172354D01*
X64646296Y-78169016D01*
X64564864Y-78125353D01*
X64483942Y-78080865D01*
X64478932Y-78079276D01*
X64474296Y-78076790D01*
X64385982Y-78049790D01*
X64297912Y-78021852D01*
X64292682Y-78021265D01*
X64287657Y-78019729D01*
X64195805Y-78010399D01*
X64103962Y-78000097D01*
X64093684Y-78000026D01*
X64093491Y-78000006D01*
X64093311Y-78000023D01*
X64090000Y-78000000D01*
X54090000Y-78000000D01*
X54085000Y-78000490D01*
X54085000Y-73477594D01*
X58646911Y-73477594D01*
X58730105Y-73930882D01*
X58899758Y-74359378D01*
X59149409Y-74746760D01*
X59469548Y-75078274D01*
X59847982Y-75341293D01*
X60270296Y-75525797D01*
X60720404Y-75624760D01*
X61181162Y-75634411D01*
X61635019Y-75554384D01*
X62064689Y-75387726D01*
X62453805Y-75140786D01*
X62787546Y-74822968D01*
X63053200Y-74446380D01*
X63240648Y-74025364D01*
X63342751Y-73575958D01*
X63344124Y-73477594D01*
X63846911Y-73477594D01*
X63930105Y-73930882D01*
X64099758Y-74359378D01*
X64349409Y-74746760D01*
X64669548Y-75078274D01*
X65047982Y-75341293D01*
X65470296Y-75525797D01*
X65920404Y-75624760D01*
X66381162Y-75634411D01*
X66835019Y-75554384D01*
X67264689Y-75387726D01*
X67653805Y-75140786D01*
X67987546Y-74822968D01*
X68253200Y-74446380D01*
X68440648Y-74025364D01*
X68542751Y-73575958D01*
X68544124Y-73477594D01*
X69046911Y-73477594D01*
X69130105Y-73930882D01*
X69299758Y-74359378D01*
X69549409Y-74746760D01*
X69869548Y-75078274D01*
X70247982Y-75341293D01*
X70670296Y-75525797D01*
X71120404Y-75624760D01*
X71581162Y-75634411D01*
X72035019Y-75554384D01*
X72464689Y-75387726D01*
X72853805Y-75140786D01*
X73187546Y-74822968D01*
X73453200Y-74446380D01*
X73640648Y-74025364D01*
X73742751Y-73575958D01*
X73744124Y-73477594D01*
X74246911Y-73477594D01*
X74330105Y-73930882D01*
X74499758Y-74359378D01*
X74749409Y-74746760D01*
X75069548Y-75078274D01*
X75447982Y-75341293D01*
X75870296Y-75525797D01*
X76320404Y-75624760D01*
X76781162Y-75634411D01*
X77235019Y-75554384D01*
X77664689Y-75387726D01*
X78053805Y-75140786D01*
X78387546Y-74822968D01*
X78653200Y-74446380D01*
X78840648Y-74025364D01*
X78942751Y-73575958D01*
X78944124Y-73477594D01*
X79446911Y-73477594D01*
X79530105Y-73930882D01*
X79699758Y-74359378D01*
X79949409Y-74746760D01*
X80269548Y-75078274D01*
X80647982Y-75341293D01*
X81070296Y-75525797D01*
X81520404Y-75624760D01*
X81981162Y-75634411D01*
X82435019Y-75554384D01*
X82864689Y-75387726D01*
X83253805Y-75140786D01*
X83587546Y-74822968D01*
X83853200Y-74446380D01*
X84040648Y-74025364D01*
X84142751Y-73575958D01*
X84144124Y-73477594D01*
X84646911Y-73477594D01*
X84730105Y-73930882D01*
X84899758Y-74359378D01*
X85149409Y-74746760D01*
X85469548Y-75078274D01*
X85847982Y-75341293D01*
X86270296Y-75525797D01*
X86720404Y-75624760D01*
X87181162Y-75634411D01*
X87635019Y-75554384D01*
X88064689Y-75387726D01*
X88453805Y-75140786D01*
X88787546Y-74822968D01*
X89053200Y-74446380D01*
X89240648Y-74025364D01*
X89342751Y-73575958D01*
X89344124Y-73477594D01*
X89846911Y-73477594D01*
X89930105Y-73930882D01*
X90099758Y-74359378D01*
X90349409Y-74746760D01*
X90669548Y-75078274D01*
X91047982Y-75341293D01*
X91470296Y-75525797D01*
X91920404Y-75624760D01*
X92381162Y-75634411D01*
X92835019Y-75554384D01*
X93264689Y-75387726D01*
X93653805Y-75140786D01*
X93987546Y-74822968D01*
X94253200Y-74446380D01*
X94440648Y-74025364D01*
X94542751Y-73575958D01*
X94544124Y-73477594D01*
X95046911Y-73477594D01*
X95130105Y-73930882D01*
X95299758Y-74359378D01*
X95549409Y-74746760D01*
X95869548Y-75078274D01*
X96247982Y-75341293D01*
X96670296Y-75525797D01*
X97120404Y-75624760D01*
X97581162Y-75634411D01*
X98035019Y-75554384D01*
X98464689Y-75387726D01*
X98853805Y-75140786D01*
X99187546Y-74822968D01*
X99453200Y-74446380D01*
X99640648Y-74025364D01*
X99742751Y-73575958D01*
X99744124Y-73477594D01*
X100246911Y-73477594D01*
X100330105Y-73930882D01*
X100499758Y-74359378D01*
X100749409Y-74746760D01*
X101069548Y-75078274D01*
X101447982Y-75341293D01*
X101870296Y-75525797D01*
X102320404Y-75624760D01*
X102781162Y-75634411D01*
X103235019Y-75554384D01*
X103664689Y-75387726D01*
X104053805Y-75140786D01*
X104387546Y-74822968D01*
X104653200Y-74446380D01*
X104840648Y-74025364D01*
X104942751Y-73575958D01*
X104944124Y-73477594D01*
X105446911Y-73477594D01*
X105530105Y-73930882D01*
X105699758Y-74359378D01*
X105949409Y-74746760D01*
X106269548Y-75078274D01*
X106647982Y-75341293D01*
X107070296Y-75525797D01*
X107520404Y-75624760D01*
X107981162Y-75634411D01*
X108435019Y-75554384D01*
X108864689Y-75387726D01*
X109253805Y-75140786D01*
X109587546Y-74822968D01*
X109853200Y-74446380D01*
X110040648Y-74025364D01*
X110142751Y-73575958D01*
X110144124Y-73477594D01*
X110646911Y-73477594D01*
X110730105Y-73930882D01*
X110899758Y-74359378D01*
X111149409Y-74746760D01*
X111469548Y-75078274D01*
X111847982Y-75341293D01*
X112270296Y-75525797D01*
X112720404Y-75624760D01*
X113181162Y-75634411D01*
X113635019Y-75554384D01*
X114064689Y-75387726D01*
X114453805Y-75140786D01*
X114787546Y-74822968D01*
X115053200Y-74446380D01*
X115240648Y-74025364D01*
X115342751Y-73575958D01*
X115344124Y-73477594D01*
X115846911Y-73477594D01*
X115930105Y-73930882D01*
X116099758Y-74359378D01*
X116349409Y-74746760D01*
X116669548Y-75078274D01*
X117047982Y-75341293D01*
X117470296Y-75525797D01*
X117920404Y-75624760D01*
X118381162Y-75634411D01*
X118835019Y-75554384D01*
X119264689Y-75387726D01*
X119653805Y-75140786D01*
X119987546Y-74822968D01*
X120253200Y-74446380D01*
X120440648Y-74025364D01*
X120542751Y-73575958D01*
X120544124Y-73477594D01*
X121046911Y-73477594D01*
X121130105Y-73930882D01*
X121299758Y-74359378D01*
X121549409Y-74746760D01*
X121869548Y-75078274D01*
X122247982Y-75341293D01*
X122670296Y-75525797D01*
X123120404Y-75624760D01*
X123581162Y-75634411D01*
X124035019Y-75554384D01*
X124464689Y-75387726D01*
X124853805Y-75140786D01*
X125187546Y-74822968D01*
X125453200Y-74446380D01*
X125640648Y-74025364D01*
X125742751Y-73575958D01*
X125744124Y-73477594D01*
X126246911Y-73477594D01*
X126330105Y-73930882D01*
X126499758Y-74359378D01*
X126749409Y-74746760D01*
X127069548Y-75078274D01*
X127447982Y-75341293D01*
X127870296Y-75525797D01*
X128320404Y-75624760D01*
X128781162Y-75634411D01*
X129235019Y-75554384D01*
X129664689Y-75387726D01*
X130053805Y-75140786D01*
X130387546Y-74822968D01*
X130653200Y-74446380D01*
X130840648Y-74025364D01*
X130942751Y-73575958D01*
X130944124Y-73477594D01*
X131446911Y-73477594D01*
X131530105Y-73930882D01*
X131699758Y-74359378D01*
X131949409Y-74746760D01*
X132269548Y-75078274D01*
X132647982Y-75341293D01*
X133070296Y-75525797D01*
X133520404Y-75624760D01*
X133981162Y-75634411D01*
X134435019Y-75554384D01*
X134864689Y-75387726D01*
X135253805Y-75140786D01*
X135587546Y-74822968D01*
X135853200Y-74446380D01*
X136040648Y-74025364D01*
X136142751Y-73575958D01*
X136144124Y-73477594D01*
X136646911Y-73477594D01*
X136730105Y-73930882D01*
X136899758Y-74359378D01*
X137149409Y-74746760D01*
X137469548Y-75078274D01*
X137847982Y-75341293D01*
X138270296Y-75525797D01*
X138720404Y-75624760D01*
X139181162Y-75634411D01*
X139635019Y-75554384D01*
X140064689Y-75387726D01*
X140453805Y-75140786D01*
X140787546Y-74822968D01*
X141053200Y-74446380D01*
X141240648Y-74025364D01*
X141342751Y-73575958D01*
X141350101Y-73049571D01*
X141260586Y-72597489D01*
X141084967Y-72171403D01*
X140829931Y-71787544D01*
X140505195Y-71460532D01*
X140123125Y-71202823D01*
X139698276Y-71024233D01*
X139246830Y-70931565D01*
X138785983Y-70928347D01*
X138333287Y-71014704D01*
X137905986Y-71187345D01*
X137520356Y-71439694D01*
X137191085Y-71762140D01*
X136930715Y-72142401D01*
X136749163Y-72565993D01*
X136653345Y-73016780D01*
X136646911Y-73477594D01*
X136144124Y-73477594D01*
X136150101Y-73049571D01*
X136060586Y-72597489D01*
X135884967Y-72171403D01*
X135629931Y-71787544D01*
X135305195Y-71460532D01*
X134923125Y-71202823D01*
X134498276Y-71024233D01*
X134046830Y-70931565D01*
X133585983Y-70928347D01*
X133133287Y-71014704D01*
X132705986Y-71187345D01*
X132320356Y-71439694D01*
X131991085Y-71762140D01*
X131730715Y-72142401D01*
X131549163Y-72565993D01*
X131453345Y-73016780D01*
X131446911Y-73477594D01*
X130944124Y-73477594D01*
X130950101Y-73049571D01*
X130860586Y-72597489D01*
X130684967Y-72171403D01*
X130429931Y-71787544D01*
X130105195Y-71460532D01*
X129723125Y-71202823D01*
X129298276Y-71024233D01*
X128846830Y-70931565D01*
X128385983Y-70928347D01*
X127933287Y-71014704D01*
X127505986Y-71187345D01*
X127120356Y-71439694D01*
X126791085Y-71762140D01*
X126530715Y-72142401D01*
X126349163Y-72565993D01*
X126253345Y-73016780D01*
X126246911Y-73477594D01*
X125744124Y-73477594D01*
X125750101Y-73049571D01*
X125660586Y-72597489D01*
X125484967Y-72171403D01*
X125229931Y-71787544D01*
X124905195Y-71460532D01*
X124523125Y-71202823D01*
X124098276Y-71024233D01*
X123646830Y-70931565D01*
X123185983Y-70928347D01*
X122733287Y-71014704D01*
X122305986Y-71187345D01*
X121920356Y-71439694D01*
X121591085Y-71762140D01*
X121330715Y-72142401D01*
X121149163Y-72565993D01*
X121053345Y-73016780D01*
X121046911Y-73477594D01*
X120544124Y-73477594D01*
X120550101Y-73049571D01*
X120460586Y-72597489D01*
X120284967Y-72171403D01*
X120029931Y-71787544D01*
X119705195Y-71460532D01*
X119323125Y-71202823D01*
X118898276Y-71024233D01*
X118446830Y-70931565D01*
X117985983Y-70928347D01*
X117533287Y-71014704D01*
X117105986Y-71187345D01*
X116720356Y-71439694D01*
X116391085Y-71762140D01*
X116130715Y-72142401D01*
X115949163Y-72565993D01*
X115853345Y-73016780D01*
X115846911Y-73477594D01*
X115344124Y-73477594D01*
X115350101Y-73049571D01*
X115260586Y-72597489D01*
X115084967Y-72171403D01*
X114829931Y-71787544D01*
X114505195Y-71460532D01*
X114123125Y-71202823D01*
X113698276Y-71024233D01*
X113246830Y-70931565D01*
X112785983Y-70928347D01*
X112333287Y-71014704D01*
X111905986Y-71187345D01*
X111520356Y-71439694D01*
X111191085Y-71762140D01*
X110930715Y-72142401D01*
X110749163Y-72565993D01*
X110653345Y-73016780D01*
X110646911Y-73477594D01*
X110144124Y-73477594D01*
X110150101Y-73049571D01*
X110060586Y-72597489D01*
X109884967Y-72171403D01*
X109629931Y-71787544D01*
X109305195Y-71460532D01*
X108923125Y-71202823D01*
X108498276Y-71024233D01*
X108046830Y-70931565D01*
X107585983Y-70928347D01*
X107133287Y-71014704D01*
X106705986Y-71187345D01*
X106320356Y-71439694D01*
X105991085Y-71762140D01*
X105730715Y-72142401D01*
X105549163Y-72565993D01*
X105453345Y-73016780D01*
X105446911Y-73477594D01*
X104944124Y-73477594D01*
X104950101Y-73049571D01*
X104860586Y-72597489D01*
X104684967Y-72171403D01*
X104429931Y-71787544D01*
X104105195Y-71460532D01*
X103723125Y-71202823D01*
X103298276Y-71024233D01*
X102846830Y-70931565D01*
X102385983Y-70928347D01*
X101933287Y-71014704D01*
X101505986Y-71187345D01*
X101120356Y-71439694D01*
X100791085Y-71762140D01*
X100530715Y-72142401D01*
X100349163Y-72565993D01*
X100253345Y-73016780D01*
X100246911Y-73477594D01*
X99744124Y-73477594D01*
X99750101Y-73049571D01*
X99660586Y-72597489D01*
X99484967Y-72171403D01*
X99229931Y-71787544D01*
X98905195Y-71460532D01*
X98523125Y-71202823D01*
X98098276Y-71024233D01*
X97646830Y-70931565D01*
X97185983Y-70928347D01*
X96733287Y-71014704D01*
X96305986Y-71187345D01*
X95920356Y-71439694D01*
X95591085Y-71762140D01*
X95330715Y-72142401D01*
X95149163Y-72565993D01*
X95053345Y-73016780D01*
X95046911Y-73477594D01*
X94544124Y-73477594D01*
X94550101Y-73049571D01*
X94460586Y-72597489D01*
X94284967Y-72171403D01*
X94029931Y-71787544D01*
X93705195Y-71460532D01*
X93323125Y-71202823D01*
X92898276Y-71024233D01*
X92446830Y-70931565D01*
X91985983Y-70928347D01*
X91533287Y-71014704D01*
X91105986Y-71187345D01*
X90720356Y-71439694D01*
X90391085Y-71762140D01*
X90130715Y-72142401D01*
X89949163Y-72565993D01*
X89853345Y-73016780D01*
X89846911Y-73477594D01*
X89344124Y-73477594D01*
X89350101Y-73049571D01*
X89260586Y-72597489D01*
X89084967Y-72171403D01*
X88829931Y-71787544D01*
X88505195Y-71460532D01*
X88123125Y-71202823D01*
X87698276Y-71024233D01*
X87246830Y-70931565D01*
X86785983Y-70928347D01*
X86333287Y-71014704D01*
X85905986Y-71187345D01*
X85520356Y-71439694D01*
X85191085Y-71762140D01*
X84930715Y-72142401D01*
X84749163Y-72565993D01*
X84653345Y-73016780D01*
X84646911Y-73477594D01*
X84144124Y-73477594D01*
X84150101Y-73049571D01*
X84060586Y-72597489D01*
X83884967Y-72171403D01*
X83629931Y-71787544D01*
X83305195Y-71460532D01*
X82923125Y-71202823D01*
X82498276Y-71024233D01*
X82046830Y-70931565D01*
X81585983Y-70928347D01*
X81133287Y-71014704D01*
X80705986Y-71187345D01*
X80320356Y-71439694D01*
X79991085Y-71762140D01*
X79730715Y-72142401D01*
X79549163Y-72565993D01*
X79453345Y-73016780D01*
X79446911Y-73477594D01*
X78944124Y-73477594D01*
X78950101Y-73049571D01*
X78860586Y-72597489D01*
X78684967Y-72171403D01*
X78429931Y-71787544D01*
X78105195Y-71460532D01*
X77723125Y-71202823D01*
X77298276Y-71024233D01*
X76846830Y-70931565D01*
X76385983Y-70928347D01*
X75933287Y-71014704D01*
X75505986Y-71187345D01*
X75120356Y-71439694D01*
X74791085Y-71762140D01*
X74530715Y-72142401D01*
X74349163Y-72565993D01*
X74253345Y-73016780D01*
X74246911Y-73477594D01*
X73744124Y-73477594D01*
X73750101Y-73049571D01*
X73660586Y-72597489D01*
X73484967Y-72171403D01*
X73229931Y-71787544D01*
X72905195Y-71460532D01*
X72523125Y-71202823D01*
X72098276Y-71024233D01*
X71646830Y-70931565D01*
X71185983Y-70928347D01*
X70733287Y-71014704D01*
X70305986Y-71187345D01*
X69920356Y-71439694D01*
X69591085Y-71762140D01*
X69330715Y-72142401D01*
X69149163Y-72565993D01*
X69053345Y-73016780D01*
X69046911Y-73477594D01*
X68544124Y-73477594D01*
X68550101Y-73049571D01*
X68460586Y-72597489D01*
X68284967Y-72171403D01*
X68029931Y-71787544D01*
X67705195Y-71460532D01*
X67323125Y-71202823D01*
X66898276Y-71024233D01*
X66446830Y-70931565D01*
X65985983Y-70928347D01*
X65533287Y-71014704D01*
X65105986Y-71187345D01*
X64720356Y-71439694D01*
X64391085Y-71762140D01*
X64130715Y-72142401D01*
X63949163Y-72565993D01*
X63853345Y-73016780D01*
X63846911Y-73477594D01*
X63344124Y-73477594D01*
X63350101Y-73049571D01*
X63260586Y-72597489D01*
X63084967Y-72171403D01*
X62829931Y-71787544D01*
X62505195Y-71460532D01*
X62123125Y-71202823D01*
X61698276Y-71024233D01*
X61246830Y-70931565D01*
X60785983Y-70928347D01*
X60333287Y-71014704D01*
X59905986Y-71187345D01*
X59520356Y-71439694D01*
X59191085Y-71762140D01*
X58930715Y-72142401D01*
X58749163Y-72565993D01*
X58653345Y-73016780D01*
X58646911Y-73477594D01*
X54085000Y-73477594D01*
X54085000Y-59200000D01*
X57735000Y-59200000D01*
X57735000Y-66660000D01*
X57735014Y-66660140D01*
X57735005Y-66662640D01*
X57735036Y-66671506D01*
X57738369Y-66704321D01*
X57738139Y-66737292D01*
X57739167Y-66747783D01*
X57765075Y-66994287D01*
X57778838Y-67061333D01*
X57791658Y-67128539D01*
X57794704Y-67138630D01*
X57867999Y-67375406D01*
X57894526Y-67438510D01*
X57920150Y-67501933D01*
X57925098Y-67511238D01*
X57925100Y-67511243D01*
X57925103Y-67511248D01*
X58042987Y-67729270D01*
X58081258Y-67786010D01*
X58118723Y-67843262D01*
X58125385Y-67851431D01*
X58283378Y-68042411D01*
X58331942Y-68090637D01*
X58379811Y-68139519D01*
X58387933Y-68146238D01*
X58580011Y-68302893D01*
X58637032Y-68340778D01*
X58693471Y-68379422D01*
X58702743Y-68384436D01*
X58921591Y-68500799D01*
X58984881Y-68526885D01*
X59047750Y-68553831D01*
X59057820Y-68556949D01*
X59295101Y-68628589D01*
X59362255Y-68641886D01*
X59429163Y-68656107D01*
X59439647Y-68657210D01*
X59686325Y-68681397D01*
X59717997Y-68681397D01*
X59749459Y-68684926D01*
X59760000Y-68685000D01*
X87910000Y-68685000D01*
X87910140Y-68684986D01*
X87912640Y-68684995D01*
X87921506Y-68684964D01*
X87954321Y-68681631D01*
X87987292Y-68681861D01*
X87997783Y-68680833D01*
X88244287Y-68654925D01*
X88311333Y-68641162D01*
X88378539Y-68628342D01*
X88388630Y-68625296D01*
X88625406Y-68552001D01*
X88688510Y-68525474D01*
X88751933Y-68499850D01*
X88761238Y-68494902D01*
X88761243Y-68494900D01*
X88761248Y-68494897D01*
X88979270Y-68377013D01*
X89036010Y-68338742D01*
X89093262Y-68301277D01*
X89101431Y-68294615D01*
X89292411Y-68136622D01*
X89340637Y-68088058D01*
X89389519Y-68040189D01*
X89396238Y-68032067D01*
X89552893Y-67839989D01*
X89590778Y-67782968D01*
X89629422Y-67726529D01*
X89634436Y-67717257D01*
X89750799Y-67498409D01*
X89776885Y-67435119D01*
X89803831Y-67372250D01*
X89806949Y-67362180D01*
X89878589Y-67124899D01*
X89891886Y-67057745D01*
X89906107Y-66990837D01*
X89907210Y-66980353D01*
X89931397Y-66733675D01*
X89931397Y-66702003D01*
X89934926Y-66670541D01*
X89935000Y-66660000D01*
X89935000Y-59200000D01*
X94395000Y-59200000D01*
X94395000Y-66660000D01*
X94395014Y-66660140D01*
X94395005Y-66662640D01*
X94395036Y-66671506D01*
X94398369Y-66704321D01*
X94398139Y-66737292D01*
X94399167Y-66747783D01*
X94425075Y-66994287D01*
X94438838Y-67061333D01*
X94451658Y-67128539D01*
X94454704Y-67138630D01*
X94527999Y-67375406D01*
X94554526Y-67438510D01*
X94580150Y-67501933D01*
X94585098Y-67511238D01*
X94585100Y-67511243D01*
X94585103Y-67511248D01*
X94702987Y-67729270D01*
X94741258Y-67786010D01*
X94778723Y-67843262D01*
X94785385Y-67851431D01*
X94943378Y-68042411D01*
X94991942Y-68090637D01*
X95039811Y-68139519D01*
X95047933Y-68146238D01*
X95240011Y-68302893D01*
X95297032Y-68340778D01*
X95353471Y-68379422D01*
X95362743Y-68384436D01*
X95581591Y-68500799D01*
X95644881Y-68526885D01*
X95707750Y-68553831D01*
X95717820Y-68556949D01*
X95955101Y-68628589D01*
X96022255Y-68641886D01*
X96089163Y-68656107D01*
X96099647Y-68657210D01*
X96346325Y-68681397D01*
X96377997Y-68681397D01*
X96409459Y-68684926D01*
X96420000Y-68685000D01*
X140240000Y-68685000D01*
X140240140Y-68684986D01*
X140242640Y-68684995D01*
X140251506Y-68684964D01*
X140284321Y-68681631D01*
X140317292Y-68681861D01*
X140327783Y-68680833D01*
X140574287Y-68654925D01*
X140641333Y-68641162D01*
X140708539Y-68628342D01*
X140718630Y-68625296D01*
X140955406Y-68552001D01*
X141018510Y-68525474D01*
X141081933Y-68499850D01*
X141091238Y-68494902D01*
X141091243Y-68494900D01*
X141091248Y-68494897D01*
X141309270Y-68377013D01*
X141366010Y-68338742D01*
X141423262Y-68301277D01*
X141431431Y-68294615D01*
X141622411Y-68136622D01*
X141670637Y-68088058D01*
X141719519Y-68040189D01*
X141726238Y-68032067D01*
X141882893Y-67839989D01*
X141920778Y-67782968D01*
X141959422Y-67726529D01*
X141964436Y-67717257D01*
X142080799Y-67498409D01*
X142106885Y-67435119D01*
X142133831Y-67372250D01*
X142136949Y-67362180D01*
X142208589Y-67124899D01*
X142221886Y-67057745D01*
X142236107Y-66990837D01*
X142237210Y-66980353D01*
X142261397Y-66733675D01*
X142261397Y-66702003D01*
X142264926Y-66670541D01*
X142265000Y-66660000D01*
X142265000Y-59200000D01*
X142264986Y-59199860D01*
X142264995Y-59197360D01*
X142264964Y-59188494D01*
X142261631Y-59155679D01*
X142261861Y-59122708D01*
X142260833Y-59112217D01*
X142234925Y-58865714D01*
X142221164Y-58798674D01*
X142208342Y-58731461D01*
X142205296Y-58721370D01*
X142132001Y-58484594D01*
X142105474Y-58421490D01*
X142079850Y-58358067D01*
X142074901Y-58348759D01*
X141957013Y-58130730D01*
X141918742Y-58073990D01*
X141881277Y-58016738D01*
X141874615Y-58008569D01*
X141716622Y-57817589D01*
X141668041Y-57769347D01*
X141620189Y-57720481D01*
X141612067Y-57713762D01*
X141419989Y-57557107D01*
X141362968Y-57519222D01*
X141306529Y-57480578D01*
X141297256Y-57475564D01*
X141078409Y-57359201D01*
X141015102Y-57333108D01*
X140952250Y-57306169D01*
X140942180Y-57303051D01*
X140704899Y-57231411D01*
X140637745Y-57218114D01*
X140570837Y-57203893D01*
X140560353Y-57202790D01*
X140313675Y-57178603D01*
X140282003Y-57178603D01*
X140250541Y-57175074D01*
X140240000Y-57175000D01*
X96420000Y-57175000D01*
X96419860Y-57175014D01*
X96417360Y-57175005D01*
X96408494Y-57175036D01*
X96375679Y-57178369D01*
X96342708Y-57178139D01*
X96332217Y-57179167D01*
X96085714Y-57205075D01*
X96018674Y-57218836D01*
X95951461Y-57231658D01*
X95941370Y-57234704D01*
X95704594Y-57307999D01*
X95641490Y-57334526D01*
X95578067Y-57360150D01*
X95568759Y-57365099D01*
X95350730Y-57482987D01*
X95293990Y-57521258D01*
X95236738Y-57558723D01*
X95228569Y-57565385D01*
X95037589Y-57723378D01*
X94989347Y-57771959D01*
X94940481Y-57819811D01*
X94933762Y-57827933D01*
X94777107Y-58020011D01*
X94739222Y-58077032D01*
X94700578Y-58133471D01*
X94695564Y-58142744D01*
X94579201Y-58361591D01*
X94553108Y-58424898D01*
X94526169Y-58487750D01*
X94523051Y-58497820D01*
X94451411Y-58735101D01*
X94438114Y-58802255D01*
X94423893Y-58869163D01*
X94422790Y-58879647D01*
X94398603Y-59126325D01*
X94398603Y-59157997D01*
X94395074Y-59189459D01*
X94395000Y-59200000D01*
X89935000Y-59200000D01*
X89934986Y-59199860D01*
X89934995Y-59197360D01*
X89934964Y-59188494D01*
X89931631Y-59155679D01*
X89931861Y-59122708D01*
X89930833Y-59112217D01*
X89904925Y-58865714D01*
X89891164Y-58798674D01*
X89878342Y-58731461D01*
X89875296Y-58721370D01*
X89802001Y-58484594D01*
X89775474Y-58421490D01*
X89749850Y-58358067D01*
X89744901Y-58348759D01*
X89627013Y-58130730D01*
X89588742Y-58073990D01*
X89551277Y-58016738D01*
X89544615Y-58008569D01*
X89386622Y-57817589D01*
X89338041Y-57769347D01*
X89290189Y-57720481D01*
X89282067Y-57713762D01*
X89089989Y-57557107D01*
X89032968Y-57519222D01*
X88976529Y-57480578D01*
X88967256Y-57475564D01*
X88748409Y-57359201D01*
X88685102Y-57333108D01*
X88622250Y-57306169D01*
X88612180Y-57303051D01*
X88374899Y-57231411D01*
X88307745Y-57218114D01*
X88240837Y-57203893D01*
X88230353Y-57202790D01*
X87983675Y-57178603D01*
X87952003Y-57178603D01*
X87920541Y-57175074D01*
X87910000Y-57175000D01*
X59760000Y-57175000D01*
X59759860Y-57175014D01*
X59757360Y-57175005D01*
X59748494Y-57175036D01*
X59715679Y-57178369D01*
X59682708Y-57178139D01*
X59672217Y-57179167D01*
X59425714Y-57205075D01*
X59358674Y-57218836D01*
X59291461Y-57231658D01*
X59281370Y-57234704D01*
X59044594Y-57307999D01*
X58981490Y-57334526D01*
X58918067Y-57360150D01*
X58908759Y-57365099D01*
X58690730Y-57482987D01*
X58633990Y-57521258D01*
X58576738Y-57558723D01*
X58568569Y-57565385D01*
X58377589Y-57723378D01*
X58329347Y-57771959D01*
X58280481Y-57819811D01*
X58273762Y-57827933D01*
X58117107Y-58020011D01*
X58079222Y-58077032D01*
X58040578Y-58133471D01*
X58035564Y-58142744D01*
X57919201Y-58361591D01*
X57893108Y-58424898D01*
X57866169Y-58487750D01*
X57863051Y-58497820D01*
X57791411Y-58735101D01*
X57778114Y-58802255D01*
X57763893Y-58869163D01*
X57762790Y-58879647D01*
X57738603Y-59126325D01*
X57738603Y-59157997D01*
X57735074Y-59189459D01*
X57735000Y-59200000D01*
X54085000Y-59200000D01*
X54085000Y-53456574D01*
X54507240Y-53456574D01*
X54581583Y-53861639D01*
X54733188Y-54244550D01*
X54956281Y-54590722D01*
X55242363Y-54886968D01*
X55580538Y-55122006D01*
X55957924Y-55286882D01*
X56360149Y-55375317D01*
X56771890Y-55383942D01*
X57177464Y-55312428D01*
X57561424Y-55163500D01*
X57909145Y-54942830D01*
X58207381Y-54658823D01*
X58444774Y-54322297D01*
X58612281Y-53946070D01*
X58703522Y-53544473D01*
X58704749Y-53456574D01*
X97897240Y-53456574D01*
X97971583Y-53861639D01*
X98123188Y-54244550D01*
X98346281Y-54590722D01*
X98632363Y-54886968D01*
X98970538Y-55122006D01*
X99347924Y-55286882D01*
X99750149Y-55375317D01*
X100161890Y-55383942D01*
X100567464Y-55312428D01*
X100951424Y-55163500D01*
X101299145Y-54942830D01*
X101597381Y-54658823D01*
X101834774Y-54322297D01*
X102002281Y-53946070D01*
X102093522Y-53544473D01*
X102094749Y-53456574D01*
X141287240Y-53456574D01*
X141361583Y-53861639D01*
X141513188Y-54244550D01*
X141736281Y-54590722D01*
X142022363Y-54886968D01*
X142360538Y-55122006D01*
X142737924Y-55286882D01*
X143140149Y-55375317D01*
X143551890Y-55383942D01*
X143957464Y-55312428D01*
X144341424Y-55163500D01*
X144689145Y-54942830D01*
X144987381Y-54658823D01*
X145224774Y-54322297D01*
X145392281Y-53946070D01*
X145483522Y-53544473D01*
X145490090Y-53074084D01*
X145410098Y-52670096D01*
X145253162Y-52289339D01*
X145025258Y-51946316D01*
X144735067Y-51654093D01*
X144393644Y-51423800D01*
X144013992Y-51264209D01*
X143610572Y-51181399D01*
X143198751Y-51178524D01*
X142794214Y-51255693D01*
X142412371Y-51409968D01*
X142067765Y-51635471D01*
X141773523Y-51923615D01*
X141540852Y-52263422D01*
X141378614Y-52641951D01*
X141292990Y-53044783D01*
X141287240Y-53456574D01*
X102094749Y-53456574D01*
X102100090Y-53074084D01*
X102020098Y-52670096D01*
X101863162Y-52289339D01*
X101635258Y-51946316D01*
X101345067Y-51654093D01*
X101003644Y-51423800D01*
X100623992Y-51264209D01*
X100220572Y-51181399D01*
X99808751Y-51178524D01*
X99404214Y-51255693D01*
X99022371Y-51409968D01*
X98677765Y-51635471D01*
X98383523Y-51923615D01*
X98150852Y-52263422D01*
X97988614Y-52641951D01*
X97902990Y-53044783D01*
X97897240Y-53456574D01*
X58704749Y-53456574D01*
X58710090Y-53074084D01*
X58630098Y-52670096D01*
X58473162Y-52289339D01*
X58245258Y-51946316D01*
X57955067Y-51654093D01*
X57613644Y-51423800D01*
X57233992Y-51264209D01*
X56830572Y-51181399D01*
X56418751Y-51178524D01*
X56014214Y-51255693D01*
X55632371Y-51409968D01*
X55287765Y-51635471D01*
X54993523Y-51923615D01*
X54760852Y-52263422D01*
X54598614Y-52641951D01*
X54512990Y-53044783D01*
X54507240Y-53456574D01*
X54085000Y-53456574D01*
X54085000Y-53316929D01*
X54136640Y-52790259D01*
X54278869Y-52319176D01*
X54509888Y-51884691D01*
X54820904Y-51503349D01*
X55200062Y-51189682D01*
X55632927Y-50955633D01*
X56103006Y-50810119D01*
X56627430Y-50755000D01*
X143353071Y-50755000D01*
X143879741Y-50806640D01*
X143879741Y-50806640D01*
G37*
X143879741Y-50806640D02*
X144350824Y-50948869D01*
X144785309Y-51179888D01*
X145166651Y-51490904D01*
X145480318Y-51870062D01*
X145714367Y-52302927D01*
X145859881Y-52773006D01*
X145915000Y-53297430D01*
X145915000Y-78000035D01*
X145910000Y-78000000D01*
X135910000Y-78000000D01*
X135818046Y-78009016D01*
X135726049Y-78017065D01*
X135721000Y-78018532D01*
X135715766Y-78019045D01*
X135627333Y-78045745D01*
X135538633Y-78071514D01*
X135533964Y-78073934D01*
X135528930Y-78075454D01*
X135447386Y-78118811D01*
X135365361Y-78161329D01*
X135361250Y-78164611D01*
X135356608Y-78167079D01*
X135285040Y-78225449D01*
X135212835Y-78283089D01*
X135205519Y-78290304D01*
X135205366Y-78290429D01*
X135205249Y-78290571D01*
X135202894Y-78292893D01*
X134202893Y-79292893D01*
X134144242Y-79364297D01*
X134084887Y-79435033D01*
X134082354Y-79439640D01*
X134079016Y-79443704D01*
X134035353Y-79525136D01*
X133990865Y-79606058D01*
X133989276Y-79611068D01*
X133986790Y-79615704D01*
X133959790Y-79704018D01*
X133931852Y-79792088D01*
X133931265Y-79797318D01*
X133929729Y-79802343D01*
X133920399Y-79894195D01*
X133910097Y-79986038D01*
X133910026Y-79996316D01*
X133910006Y-79996509D01*
X133910023Y-79996689D01*
X133910000Y-80000000D01*
X133910000Y-95000000D01*
X133919016Y-95091950D01*
X133927065Y-95183951D01*
X133928532Y-95189000D01*
X133929045Y-95194234D01*
X133955741Y-95282654D01*
X133981514Y-95371368D01*
X133983935Y-95376038D01*
X133985454Y-95381070D01*
X134028802Y-95462595D01*
X134071329Y-95544639D01*
X134074611Y-95548750D01*
X134077079Y-95553392D01*
X134135429Y-95624936D01*
X134193089Y-95697166D01*
X134200309Y-95704487D01*
X134200429Y-95704634D01*
X134200565Y-95704747D01*
X134202893Y-95707107D01*
X135202894Y-96707107D01*
X135274250Y-96765719D01*
X135345033Y-96825113D01*
X135349643Y-96827647D01*
X135353705Y-96830984D01*
X135435096Y-96874626D01*
X135516058Y-96919135D01*
X135521071Y-96920725D01*
X135525705Y-96923210D01*
X135614046Y-96950219D01*
X135702088Y-96978148D01*
X135707313Y-96978734D01*
X135712343Y-96980272D01*
X135804245Y-96989607D01*
X135896038Y-96999903D01*
X135906316Y-96999974D01*
X135906509Y-96999994D01*
X135906689Y-96999977D01*
X135910000Y-97000000D01*
X145910000Y-97000000D01*
X145915000Y-96999510D01*
X145915000Y-103000035D01*
X145910000Y-103000000D01*
X135910000Y-103000000D01*
X135818046Y-103009016D01*
X135726049Y-103017065D01*
X135721000Y-103018532D01*
X135715766Y-103019045D01*
X135627333Y-103045745D01*
X135538633Y-103071514D01*
X135533964Y-103073934D01*
X135528930Y-103075454D01*
X135447386Y-103118811D01*
X135365361Y-103161329D01*
X135361250Y-103164611D01*
X135356608Y-103167079D01*
X135285040Y-103225449D01*
X135212835Y-103283089D01*
X135205519Y-103290304D01*
X135205366Y-103290429D01*
X135205249Y-103290571D01*
X135202894Y-103292893D01*
X134202893Y-104292893D01*
X134144242Y-104364297D01*
X134084887Y-104435033D01*
X134082354Y-104439640D01*
X134079016Y-104443704D01*
X134035353Y-104525136D01*
X133990865Y-104606058D01*
X133989276Y-104611068D01*
X133986790Y-104615704D01*
X133959790Y-104704018D01*
X133931852Y-104792088D01*
X133931265Y-104797318D01*
X133929729Y-104802343D01*
X133920399Y-104894195D01*
X133910097Y-104986038D01*
X133910026Y-104996316D01*
X133910006Y-104996509D01*
X133910023Y-104996689D01*
X133910000Y-105000000D01*
X133910000Y-142000000D01*
X133919016Y-142091950D01*
X133927065Y-142183951D01*
X133928532Y-142189000D01*
X133929045Y-142194234D01*
X133955741Y-142282654D01*
X133981514Y-142371368D01*
X133983935Y-142376038D01*
X133985454Y-142381070D01*
X134028802Y-142462595D01*
X134071329Y-142544639D01*
X134074611Y-142548750D01*
X134077079Y-142553392D01*
X134135429Y-142624936D01*
X134193089Y-142697166D01*
X134200309Y-142704487D01*
X134200429Y-142704634D01*
X134200565Y-142704747D01*
X134202893Y-142707107D01*
X135202894Y-143707107D01*
X135274250Y-143765719D01*
X135345033Y-143825113D01*
X135349643Y-143827647D01*
X135353705Y-143830984D01*
X135435096Y-143874626D01*
X135516058Y-143919135D01*
X135521071Y-143920725D01*
X135525705Y-143923210D01*
X135614046Y-143950219D01*
X135702088Y-143978148D01*
X135707313Y-143978734D01*
X135712343Y-143980272D01*
X135804245Y-143989607D01*
X135896038Y-143999903D01*
X135906316Y-143999974D01*
X135906509Y-143999994D01*
X135906689Y-143999977D01*
X135910000Y-144000000D01*
X145910000Y-144000000D01*
X145915000Y-143999510D01*
X145915000Y-146683071D01*
X145863360Y-147209741D01*
X145721132Y-147680820D01*
X145490111Y-148115309D01*
X145179098Y-148496649D01*
X144799940Y-148810317D01*
X144367073Y-149044367D01*
X143896994Y-149189881D01*
X143372570Y-149245000D01*
X56646929Y-149245000D01*
X56120259Y-149193360D01*
X55649180Y-149051132D01*
X55214691Y-148820111D01*
X54833351Y-148509098D01*
X54519683Y-148129940D01*
X54285633Y-147697073D01*
X54140119Y-147226994D01*
X54105391Y-146896574D01*
X54507240Y-146896574D01*
X54581583Y-147301639D01*
X54733188Y-147684550D01*
X54956281Y-148030722D01*
X55242363Y-148326968D01*
X55580538Y-148562006D01*
X55957924Y-148726882D01*
X56360149Y-148815317D01*
X56771890Y-148823942D01*
X57177464Y-148752428D01*
X57561424Y-148603500D01*
X57909145Y-148382830D01*
X58207381Y-148098823D01*
X58444774Y-147762297D01*
X58612281Y-147386070D01*
X58703522Y-146984473D01*
X58704749Y-146896574D01*
X97897240Y-146896574D01*
X97971583Y-147301639D01*
X98123188Y-147684550D01*
X98346281Y-148030722D01*
X98632363Y-148326968D01*
X98970538Y-148562006D01*
X99347924Y-148726882D01*
X99750149Y-148815317D01*
X100161890Y-148823942D01*
X100567464Y-148752428D01*
X100951424Y-148603500D01*
X101299145Y-148382830D01*
X101597381Y-148098823D01*
X101834774Y-147762297D01*
X102002281Y-147386070D01*
X102093522Y-146984473D01*
X102094749Y-146896574D01*
X141287240Y-146896574D01*
X141361583Y-147301639D01*
X141513188Y-147684550D01*
X141736281Y-148030722D01*
X142022363Y-148326968D01*
X142360538Y-148562006D01*
X142737924Y-148726882D01*
X143140149Y-148815317D01*
X143551890Y-148823942D01*
X143957464Y-148752428D01*
X144341424Y-148603500D01*
X144689145Y-148382830D01*
X144987381Y-148098823D01*
X145224774Y-147762297D01*
X145392281Y-147386070D01*
X145483522Y-146984473D01*
X145490090Y-146514084D01*
X145410098Y-146110096D01*
X145253162Y-145729339D01*
X145025258Y-145386316D01*
X144735067Y-145094093D01*
X144393644Y-144863800D01*
X144013992Y-144704209D01*
X143610572Y-144621399D01*
X143198751Y-144618524D01*
X142794214Y-144695693D01*
X142412371Y-144849968D01*
X142067765Y-145075471D01*
X141773523Y-145363615D01*
X141540852Y-145703422D01*
X141378614Y-146081951D01*
X141292990Y-146484783D01*
X141287240Y-146896574D01*
X102094749Y-146896574D01*
X102100090Y-146514084D01*
X102020098Y-146110096D01*
X101863162Y-145729339D01*
X101635258Y-145386316D01*
X101345067Y-145094093D01*
X101003644Y-144863800D01*
X100623992Y-144704209D01*
X100220572Y-144621399D01*
X99808751Y-144618524D01*
X99404214Y-144695693D01*
X99022371Y-144849968D01*
X98677765Y-145075471D01*
X98383523Y-145363615D01*
X98150852Y-145703422D01*
X97988614Y-146081951D01*
X97902990Y-146484783D01*
X97897240Y-146896574D01*
X58704749Y-146896574D01*
X58710090Y-146514084D01*
X58630098Y-146110096D01*
X58473162Y-145729339D01*
X58245258Y-145386316D01*
X57955067Y-145094093D01*
X57613644Y-144863800D01*
X57233992Y-144704209D01*
X56830572Y-144621399D01*
X56418751Y-144618524D01*
X56014214Y-144695693D01*
X55632371Y-144849968D01*
X55287765Y-145075471D01*
X54993523Y-145363615D01*
X54760852Y-145703422D01*
X54598614Y-146081951D01*
X54512990Y-146484783D01*
X54507240Y-146896574D01*
X54105391Y-146896574D01*
X54085000Y-146702570D01*
X54085000Y-143999965D01*
X54090000Y-144000000D01*
X64090000Y-144000000D01*
X64181950Y-143990984D01*
X64273951Y-143982935D01*
X64279000Y-143981468D01*
X64284234Y-143980955D01*
X64372654Y-143954259D01*
X64461368Y-143928486D01*
X64466038Y-143926065D01*
X64471070Y-143924546D01*
X64552595Y-143881198D01*
X64634639Y-143838671D01*
X64638750Y-143835389D01*
X64643392Y-143832921D01*
X64714936Y-143774571D01*
X64787166Y-143716911D01*
X64794487Y-143709691D01*
X64794634Y-143709571D01*
X64794747Y-143709435D01*
X64797107Y-143707107D01*
X65797107Y-142707106D01*
X65855719Y-142635750D01*
X65915113Y-142564967D01*
X65917647Y-142560357D01*
X65920984Y-142556295D01*
X65964626Y-142474904D01*
X66009135Y-142393942D01*
X66010725Y-142388929D01*
X66013210Y-142384295D01*
X66040219Y-142295954D01*
X66068148Y-142207912D01*
X66068734Y-142202687D01*
X66070272Y-142197657D01*
X66079607Y-142105755D01*
X66089903Y-142013962D01*
X66089974Y-142003684D01*
X66089994Y-142003491D01*
X66089977Y-142003311D01*
X66090000Y-142000000D01*
X66090000Y-105000000D01*
X66080984Y-104908046D01*
X66072935Y-104816049D01*
X66071468Y-104811000D01*
X66070955Y-104805766D01*
X66044255Y-104717333D01*
X66018486Y-104628633D01*
X66016066Y-104623964D01*
X66014546Y-104618930D01*
X65971189Y-104537386D01*
X65928671Y-104455361D01*
X65925389Y-104451250D01*
X65922921Y-104446608D01*
X65864551Y-104375040D01*
X65806911Y-104302835D01*
X65799696Y-104295519D01*
X65799571Y-104295366D01*
X65799429Y-104295249D01*
X65797107Y-104292894D01*
X64797107Y-103292893D01*
X64725703Y-103234242D01*
X64654967Y-103174887D01*
X64650360Y-103172354D01*
X64646296Y-103169016D01*
X64564864Y-103125353D01*
X64483942Y-103080865D01*
X64478932Y-103079276D01*
X64474296Y-103076790D01*
X64385982Y-103049790D01*
X64297912Y-103021852D01*
X64292682Y-103021265D01*
X64287657Y-103019729D01*
X64195805Y-103010399D01*
X64103962Y-103000097D01*
X64093684Y-103000026D01*
X64093491Y-103000006D01*
X64093311Y-103000023D01*
X64090000Y-103000000D01*
X54090000Y-103000000D01*
X54085000Y-103000490D01*
X54085000Y-100176574D01*
X54507240Y-100176574D01*
X54581583Y-100581639D01*
X54733188Y-100964550D01*
X54956281Y-101310722D01*
X55242363Y-101606968D01*
X55580538Y-101842006D01*
X55957924Y-102006882D01*
X56360149Y-102095317D01*
X56771890Y-102103942D01*
X57177464Y-102032428D01*
X57561424Y-101883500D01*
X57909145Y-101662830D01*
X58207381Y-101378823D01*
X58444774Y-101042297D01*
X58612281Y-100666070D01*
X58703522Y-100264473D01*
X58710090Y-99794084D01*
X58630098Y-99390096D01*
X58473162Y-99009339D01*
X58245258Y-98666316D01*
X57955067Y-98374093D01*
X57613644Y-98143800D01*
X57233992Y-97984209D01*
X56830572Y-97901399D01*
X56418751Y-97898524D01*
X56014214Y-97975693D01*
X55632371Y-98129968D01*
X55287765Y-98355471D01*
X54993523Y-98643615D01*
X54760852Y-98983422D01*
X54598614Y-99361951D01*
X54512990Y-99764783D01*
X54507240Y-100176574D01*
X54085000Y-100176574D01*
X54085000Y-96999965D01*
X54090000Y-97000000D01*
X64090000Y-97000000D01*
X64181950Y-96990984D01*
X64273951Y-96982935D01*
X64279000Y-96981468D01*
X64284234Y-96980955D01*
X64372654Y-96954259D01*
X64461368Y-96928486D01*
X64466038Y-96926065D01*
X64471070Y-96924546D01*
X64552595Y-96881198D01*
X64634639Y-96838671D01*
X64638750Y-96835389D01*
X64643392Y-96832921D01*
X64714936Y-96774571D01*
X64787166Y-96716911D01*
X64794487Y-96709691D01*
X64794634Y-96709571D01*
X64794747Y-96709435D01*
X64797107Y-96707107D01*
X65797107Y-95707106D01*
X65855719Y-95635750D01*
X65915113Y-95564967D01*
X65917647Y-95560357D01*
X65920984Y-95556295D01*
X65964626Y-95474904D01*
X66009135Y-95393942D01*
X66010725Y-95388929D01*
X66013210Y-95384295D01*
X66040219Y-95295954D01*
X66068148Y-95207912D01*
X66068734Y-95202687D01*
X66070272Y-95197657D01*
X66079607Y-95105755D01*
X66089903Y-95013962D01*
X66089974Y-95003684D01*
X66089994Y-95003491D01*
X66089977Y-95003311D01*
X66090000Y-95000000D01*
X66090000Y-80000000D01*
X66080984Y-79908046D01*
X66075031Y-79840000D01*
X75010000Y-79840000D01*
X75010000Y-141820000D01*
X75019182Y-141913640D01*
X75027713Y-142007381D01*
X75028703Y-142010744D01*
X75029045Y-142014234D01*
X75056238Y-142104303D01*
X75082816Y-142194607D01*
X75084441Y-142197716D01*
X75085454Y-142201070D01*
X75129631Y-142284156D01*
X75173236Y-142367563D01*
X75175432Y-142370294D01*
X75177079Y-142373392D01*
X75236581Y-142446349D01*
X75295527Y-142519663D01*
X75298213Y-142521917D01*
X75300429Y-142524634D01*
X75372987Y-142584660D01*
X75445033Y-142645113D01*
X75448102Y-142646800D01*
X75450807Y-142649038D01*
X75533664Y-142693839D01*
X75616058Y-142739135D01*
X75619398Y-142740195D01*
X75622484Y-142741863D01*
X75712355Y-142769683D01*
X75802088Y-142798148D01*
X75805576Y-142798539D01*
X75808922Y-142799575D01*
X75902458Y-142809406D01*
X75996038Y-142819903D01*
X76002769Y-142819950D01*
X76003019Y-142819976D01*
X76003269Y-142819953D01*
X76010000Y-142820000D01*
X94887984Y-142820000D01*
X94979528Y-142829945D01*
X94983019Y-142829640D01*
X94986509Y-142829994D01*
X95080233Y-142821134D01*
X95173951Y-142812935D01*
X95177317Y-142811957D01*
X95180809Y-142811627D01*
X95271008Y-142784738D01*
X95361368Y-142758486D01*
X95364481Y-142756872D01*
X95367840Y-142755871D01*
X95451036Y-142712007D01*
X95534639Y-142668671D01*
X95537382Y-142666482D01*
X95540480Y-142664848D01*
X95613526Y-142605697D01*
X95687166Y-142546911D01*
X95691964Y-142542179D01*
X95692153Y-142542026D01*
X95692308Y-142541839D01*
X95697107Y-142537107D01*
X100414214Y-137820000D01*
X124000000Y-137820000D01*
X124093640Y-137810818D01*
X124187381Y-137802287D01*
X124190744Y-137801297D01*
X124194234Y-137800955D01*
X124284303Y-137773762D01*
X124374607Y-137747184D01*
X124377716Y-137745559D01*
X124381070Y-137744546D01*
X124464156Y-137700369D01*
X124547563Y-137656764D01*
X124550294Y-137654568D01*
X124553392Y-137652921D01*
X124626349Y-137593419D01*
X124699663Y-137534473D01*
X124701917Y-137531787D01*
X124704634Y-137529571D01*
X124764660Y-137457013D01*
X124825113Y-137384967D01*
X124826800Y-137381898D01*
X124829038Y-137379193D01*
X124873839Y-137296336D01*
X124919135Y-137213942D01*
X124920195Y-137210602D01*
X124921863Y-137207516D01*
X124949683Y-137117645D01*
X124978148Y-137027912D01*
X124978539Y-137024424D01*
X124979575Y-137021078D01*
X124989406Y-136927542D01*
X124999903Y-136833962D01*
X124999950Y-136827231D01*
X124999976Y-136826981D01*
X124999953Y-136826731D01*
X125000000Y-136820000D01*
X125000000Y-100176574D01*
X141287240Y-100176574D01*
X141361583Y-100581639D01*
X141513188Y-100964550D01*
X141736281Y-101310722D01*
X142022363Y-101606968D01*
X142360538Y-101842006D01*
X142737924Y-102006882D01*
X143140149Y-102095317D01*
X143551890Y-102103942D01*
X143957464Y-102032428D01*
X144341424Y-101883500D01*
X144689145Y-101662830D01*
X144987381Y-101378823D01*
X145224774Y-101042297D01*
X145392281Y-100666070D01*
X145483522Y-100264473D01*
X145490090Y-99794084D01*
X145410098Y-99390096D01*
X145253162Y-99009339D01*
X145025258Y-98666316D01*
X144735067Y-98374093D01*
X144393644Y-98143800D01*
X144013992Y-97984209D01*
X143610572Y-97901399D01*
X143198751Y-97898524D01*
X142794214Y-97975693D01*
X142412371Y-98129968D01*
X142067765Y-98355471D01*
X141773523Y-98643615D01*
X141540852Y-98983422D01*
X141378614Y-99361951D01*
X141292990Y-99764783D01*
X141287240Y-100176574D01*
X125000000Y-100176574D01*
X125000000Y-94840000D01*
X124990818Y-94746360D01*
X124982287Y-94652619D01*
X124981297Y-94649256D01*
X124980955Y-94645766D01*
X124953762Y-94555697D01*
X124927184Y-94465393D01*
X124925559Y-94462284D01*
X124924546Y-94458930D01*
X124880369Y-94375844D01*
X124836764Y-94292437D01*
X124834568Y-94289706D01*
X124832921Y-94286608D01*
X124773419Y-94213651D01*
X124714473Y-94140337D01*
X124711787Y-94138083D01*
X124709571Y-94135366D01*
X124637013Y-94075340D01*
X124564967Y-94014887D01*
X124561898Y-94013200D01*
X124559193Y-94010962D01*
X124476336Y-93966161D01*
X124393942Y-93920865D01*
X124390602Y-93919805D01*
X124387516Y-93918137D01*
X124297645Y-93890317D01*
X124207912Y-93861852D01*
X124204424Y-93861461D01*
X124201078Y-93860425D01*
X124107542Y-93850594D01*
X124013962Y-93840097D01*
X124007231Y-93840050D01*
X124006981Y-93840024D01*
X124006731Y-93840047D01*
X124000000Y-93840000D01*
X91424214Y-93840000D01*
X89000000Y-91415786D01*
X89000000Y-81400000D01*
X96525000Y-81400000D01*
X96525000Y-84260000D01*
X96525014Y-84260140D01*
X96525005Y-84262640D01*
X96525036Y-84271506D01*
X96528369Y-84304321D01*
X96528139Y-84337292D01*
X96529167Y-84347783D01*
X96555075Y-84594287D01*
X96568838Y-84661333D01*
X96581658Y-84728539D01*
X96584704Y-84738630D01*
X96657999Y-84975406D01*
X96684526Y-85038510D01*
X96710150Y-85101933D01*
X96715098Y-85111238D01*
X96715100Y-85111243D01*
X96715103Y-85111248D01*
X96832987Y-85329270D01*
X96871258Y-85386010D01*
X96908723Y-85443262D01*
X96915385Y-85451431D01*
X97073378Y-85642411D01*
X97121942Y-85690637D01*
X97169811Y-85739519D01*
X97177933Y-85746238D01*
X97370011Y-85902893D01*
X97427032Y-85940778D01*
X97483471Y-85979422D01*
X97492743Y-85984436D01*
X97711591Y-86100799D01*
X97774881Y-86126885D01*
X97837750Y-86153831D01*
X97847820Y-86156949D01*
X98085101Y-86228589D01*
X98152255Y-86241886D01*
X98219163Y-86256107D01*
X98229647Y-86257210D01*
X98476325Y-86281397D01*
X98507997Y-86281397D01*
X98539459Y-86284926D01*
X98550000Y-86285000D01*
X113450000Y-86285000D01*
X113450140Y-86284986D01*
X113452640Y-86284995D01*
X113461506Y-86284964D01*
X113494321Y-86281631D01*
X113527292Y-86281861D01*
X113537783Y-86280833D01*
X113784287Y-86254925D01*
X113851333Y-86241162D01*
X113918539Y-86228342D01*
X113928630Y-86225296D01*
X114165406Y-86152001D01*
X114228510Y-86125474D01*
X114291933Y-86099850D01*
X114301238Y-86094902D01*
X114301243Y-86094900D01*
X114301248Y-86094897D01*
X114519270Y-85977013D01*
X114576010Y-85938742D01*
X114633262Y-85901277D01*
X114641431Y-85894615D01*
X114832411Y-85736622D01*
X114880637Y-85688058D01*
X114929519Y-85640189D01*
X114936238Y-85632067D01*
X115092893Y-85439989D01*
X115130778Y-85382968D01*
X115169422Y-85326529D01*
X115174436Y-85317257D01*
X115290799Y-85098409D01*
X115316885Y-85035119D01*
X115343831Y-84972250D01*
X115346949Y-84962180D01*
X115418589Y-84724899D01*
X115431886Y-84657745D01*
X115446107Y-84590837D01*
X115447210Y-84580353D01*
X115471397Y-84333675D01*
X115471397Y-84302003D01*
X115474926Y-84270541D01*
X115475000Y-84260000D01*
X115475000Y-81400000D01*
X115474986Y-81399860D01*
X115474995Y-81397360D01*
X115474964Y-81388494D01*
X115471631Y-81355679D01*
X115471861Y-81322708D01*
X115470833Y-81312217D01*
X115444925Y-81065714D01*
X115431164Y-80998674D01*
X115418342Y-80931461D01*
X115415296Y-80921370D01*
X115342001Y-80684594D01*
X115315474Y-80621490D01*
X115289850Y-80558067D01*
X115284901Y-80548759D01*
X115167013Y-80330730D01*
X115128742Y-80273990D01*
X115091277Y-80216738D01*
X115084615Y-80208569D01*
X114926622Y-80017589D01*
X114878041Y-79969347D01*
X114830189Y-79920481D01*
X114822067Y-79913762D01*
X114629989Y-79757107D01*
X114572968Y-79719222D01*
X114516529Y-79680578D01*
X114507256Y-79675564D01*
X114288409Y-79559201D01*
X114225102Y-79533108D01*
X114162250Y-79506169D01*
X114152180Y-79503051D01*
X113914899Y-79431411D01*
X113847745Y-79418114D01*
X113780837Y-79403893D01*
X113770353Y-79402790D01*
X113523675Y-79378603D01*
X113492003Y-79378603D01*
X113460541Y-79375074D01*
X113450000Y-79375000D01*
X98550000Y-79375000D01*
X98549860Y-79375014D01*
X98547360Y-79375005D01*
X98538494Y-79375036D01*
X98505679Y-79378369D01*
X98472708Y-79378139D01*
X98462217Y-79379167D01*
X98215714Y-79405075D01*
X98148674Y-79418836D01*
X98081461Y-79431658D01*
X98071370Y-79434704D01*
X97834594Y-79507999D01*
X97771490Y-79534526D01*
X97708067Y-79560150D01*
X97698759Y-79565099D01*
X97480730Y-79682987D01*
X97423990Y-79721258D01*
X97366738Y-79758723D01*
X97358569Y-79765385D01*
X97167589Y-79923378D01*
X97119347Y-79971959D01*
X97070481Y-80019811D01*
X97063762Y-80027933D01*
X96907107Y-80220011D01*
X96869222Y-80277032D01*
X96830578Y-80333471D01*
X96825564Y-80342744D01*
X96709201Y-80561591D01*
X96683108Y-80624898D01*
X96656169Y-80687750D01*
X96653051Y-80697820D01*
X96581411Y-80935101D01*
X96568114Y-81002255D01*
X96553893Y-81069163D01*
X96552790Y-81079647D01*
X96528603Y-81326325D01*
X96528603Y-81357997D01*
X96525074Y-81389459D01*
X96525000Y-81400000D01*
X89000000Y-81400000D01*
X89000000Y-79840000D01*
X88990818Y-79746360D01*
X88982287Y-79652619D01*
X88981297Y-79649256D01*
X88980955Y-79645766D01*
X88953762Y-79555697D01*
X88927184Y-79465393D01*
X88925559Y-79462284D01*
X88924546Y-79458930D01*
X88880369Y-79375844D01*
X88836764Y-79292437D01*
X88834568Y-79289706D01*
X88832921Y-79286608D01*
X88773419Y-79213651D01*
X88714473Y-79140337D01*
X88711787Y-79138083D01*
X88709571Y-79135366D01*
X88637013Y-79075340D01*
X88564967Y-79014887D01*
X88561898Y-79013200D01*
X88559193Y-79010962D01*
X88476336Y-78966161D01*
X88393942Y-78920865D01*
X88390602Y-78919805D01*
X88387516Y-78918137D01*
X88297645Y-78890317D01*
X88207912Y-78861852D01*
X88204424Y-78861461D01*
X88201078Y-78860425D01*
X88107542Y-78850594D01*
X88013962Y-78840097D01*
X88007231Y-78840050D01*
X88006981Y-78840024D01*
X88006731Y-78840047D01*
X88000000Y-78840000D01*
X76010000Y-78840000D01*
X75916360Y-78849182D01*
X75822619Y-78857713D01*
X75819256Y-78858703D01*
X75815766Y-78859045D01*
X75725697Y-78886238D01*
X75635393Y-78912816D01*
X75632284Y-78914441D01*
X75628930Y-78915454D01*
X75545844Y-78959631D01*
X75462437Y-79003236D01*
X75459706Y-79005432D01*
X75456608Y-79007079D01*
X75383651Y-79066581D01*
X75310337Y-79125527D01*
X75308083Y-79128213D01*
X75305366Y-79130429D01*
X75245340Y-79202987D01*
X75184887Y-79275033D01*
X75183200Y-79278102D01*
X75180962Y-79280807D01*
X75136161Y-79363664D01*
X75090865Y-79446058D01*
X75089805Y-79449398D01*
X75088137Y-79452484D01*
X75060317Y-79542355D01*
X75031852Y-79632088D01*
X75031461Y-79635576D01*
X75030425Y-79638922D01*
X75020594Y-79732458D01*
X75010097Y-79826038D01*
X75010050Y-79832769D01*
X75010024Y-79833019D01*
X75010047Y-79833269D01*
X75010000Y-79840000D01*
X66075031Y-79840000D01*
X66072935Y-79816049D01*
X66071468Y-79811000D01*
X66070955Y-79805766D01*
X66044255Y-79717333D01*
X66018486Y-79628633D01*
X66016066Y-79623964D01*
X66014546Y-79618930D01*
X65971189Y-79537386D01*
X65928671Y-79455361D01*
X65925389Y-79451250D01*
X65922921Y-79446608D01*
X65864548Y-79375036D01*
X65806911Y-79302835D01*
X65799696Y-79295519D01*
X65799571Y-79295366D01*
X65799429Y-79295249D01*
X65797107Y-79292894D01*
X64797107Y-78292893D01*
X64725703Y-78234242D01*
X64654967Y-78174887D01*
X64650360Y-78172354D01*
X64646296Y-78169016D01*
X64564864Y-78125353D01*
X64483942Y-78080865D01*
X64478932Y-78079276D01*
X64474296Y-78076790D01*
X64385982Y-78049790D01*
X64297912Y-78021852D01*
X64292682Y-78021265D01*
X64287657Y-78019729D01*
X64195805Y-78010399D01*
X64103962Y-78000097D01*
X64093684Y-78000026D01*
X64093491Y-78000006D01*
X64093311Y-78000023D01*
X64090000Y-78000000D01*
X54090000Y-78000000D01*
X54085000Y-78000490D01*
X54085000Y-73477594D01*
X58646911Y-73477594D01*
X58730105Y-73930882D01*
X58899758Y-74359378D01*
X59149409Y-74746760D01*
X59469548Y-75078274D01*
X59847982Y-75341293D01*
X60270296Y-75525797D01*
X60720404Y-75624760D01*
X61181162Y-75634411D01*
X61635019Y-75554384D01*
X62064689Y-75387726D01*
X62453805Y-75140786D01*
X62787546Y-74822968D01*
X63053200Y-74446380D01*
X63240648Y-74025364D01*
X63342751Y-73575958D01*
X63344124Y-73477594D01*
X63846911Y-73477594D01*
X63930105Y-73930882D01*
X64099758Y-74359378D01*
X64349409Y-74746760D01*
X64669548Y-75078274D01*
X65047982Y-75341293D01*
X65470296Y-75525797D01*
X65920404Y-75624760D01*
X66381162Y-75634411D01*
X66835019Y-75554384D01*
X67264689Y-75387726D01*
X67653805Y-75140786D01*
X67987546Y-74822968D01*
X68253200Y-74446380D01*
X68440648Y-74025364D01*
X68542751Y-73575958D01*
X68544124Y-73477594D01*
X69046911Y-73477594D01*
X69130105Y-73930882D01*
X69299758Y-74359378D01*
X69549409Y-74746760D01*
X69869548Y-75078274D01*
X70247982Y-75341293D01*
X70670296Y-75525797D01*
X71120404Y-75624760D01*
X71581162Y-75634411D01*
X72035019Y-75554384D01*
X72464689Y-75387726D01*
X72853805Y-75140786D01*
X73187546Y-74822968D01*
X73453200Y-74446380D01*
X73640648Y-74025364D01*
X73742751Y-73575958D01*
X73744124Y-73477594D01*
X74246911Y-73477594D01*
X74330105Y-73930882D01*
X74499758Y-74359378D01*
X74749409Y-74746760D01*
X75069548Y-75078274D01*
X75447982Y-75341293D01*
X75870296Y-75525797D01*
X76320404Y-75624760D01*
X76781162Y-75634411D01*
X77235019Y-75554384D01*
X77664689Y-75387726D01*
X78053805Y-75140786D01*
X78387546Y-74822968D01*
X78653200Y-74446380D01*
X78840648Y-74025364D01*
X78942751Y-73575958D01*
X78944124Y-73477594D01*
X79446911Y-73477594D01*
X79530105Y-73930882D01*
X79699758Y-74359378D01*
X79949409Y-74746760D01*
X80269548Y-75078274D01*
X80647982Y-75341293D01*
X81070296Y-75525797D01*
X81520404Y-75624760D01*
X81981162Y-75634411D01*
X82435019Y-75554384D01*
X82864689Y-75387726D01*
X83253805Y-75140786D01*
X83587546Y-74822968D01*
X83853200Y-74446380D01*
X84040648Y-74025364D01*
X84142751Y-73575958D01*
X84144124Y-73477594D01*
X84646911Y-73477594D01*
X84730105Y-73930882D01*
X84899758Y-74359378D01*
X85149409Y-74746760D01*
X85469548Y-75078274D01*
X85847982Y-75341293D01*
X86270296Y-75525797D01*
X86720404Y-75624760D01*
X87181162Y-75634411D01*
X87635019Y-75554384D01*
X88064689Y-75387726D01*
X88453805Y-75140786D01*
X88787546Y-74822968D01*
X89053200Y-74446380D01*
X89240648Y-74025364D01*
X89342751Y-73575958D01*
X89344124Y-73477594D01*
X89846911Y-73477594D01*
X89930105Y-73930882D01*
X90099758Y-74359378D01*
X90349409Y-74746760D01*
X90669548Y-75078274D01*
X91047982Y-75341293D01*
X91470296Y-75525797D01*
X91920404Y-75624760D01*
X92381162Y-75634411D01*
X92835019Y-75554384D01*
X93264689Y-75387726D01*
X93653805Y-75140786D01*
X93987546Y-74822968D01*
X94253200Y-74446380D01*
X94440648Y-74025364D01*
X94542751Y-73575958D01*
X94544124Y-73477594D01*
X95046911Y-73477594D01*
X95130105Y-73930882D01*
X95299758Y-74359378D01*
X95549409Y-74746760D01*
X95869548Y-75078274D01*
X96247982Y-75341293D01*
X96670296Y-75525797D01*
X97120404Y-75624760D01*
X97581162Y-75634411D01*
X98035019Y-75554384D01*
X98464689Y-75387726D01*
X98853805Y-75140786D01*
X99187546Y-74822968D01*
X99453200Y-74446380D01*
X99640648Y-74025364D01*
X99742751Y-73575958D01*
X99744124Y-73477594D01*
X100246911Y-73477594D01*
X100330105Y-73930882D01*
X100499758Y-74359378D01*
X100749409Y-74746760D01*
X101069548Y-75078274D01*
X101447982Y-75341293D01*
X101870296Y-75525797D01*
X102320404Y-75624760D01*
X102781162Y-75634411D01*
X103235019Y-75554384D01*
X103664689Y-75387726D01*
X104053805Y-75140786D01*
X104387546Y-74822968D01*
X104653200Y-74446380D01*
X104840648Y-74025364D01*
X104942751Y-73575958D01*
X104944124Y-73477594D01*
X105446911Y-73477594D01*
X105530105Y-73930882D01*
X105699758Y-74359378D01*
X105949409Y-74746760D01*
X106269548Y-75078274D01*
X106647982Y-75341293D01*
X107070296Y-75525797D01*
X107520404Y-75624760D01*
X107981162Y-75634411D01*
X108435019Y-75554384D01*
X108864689Y-75387726D01*
X109253805Y-75140786D01*
X109587546Y-74822968D01*
X109853200Y-74446380D01*
X110040648Y-74025364D01*
X110142751Y-73575958D01*
X110144124Y-73477594D01*
X110646911Y-73477594D01*
X110730105Y-73930882D01*
X110899758Y-74359378D01*
X111149409Y-74746760D01*
X111469548Y-75078274D01*
X111847982Y-75341293D01*
X112270296Y-75525797D01*
X112720404Y-75624760D01*
X113181162Y-75634411D01*
X113635019Y-75554384D01*
X114064689Y-75387726D01*
X114453805Y-75140786D01*
X114787546Y-74822968D01*
X115053200Y-74446380D01*
X115240648Y-74025364D01*
X115342751Y-73575958D01*
X115344124Y-73477594D01*
X115846911Y-73477594D01*
X115930105Y-73930882D01*
X116099758Y-74359378D01*
X116349409Y-74746760D01*
X116669548Y-75078274D01*
X117047982Y-75341293D01*
X117470296Y-75525797D01*
X117920404Y-75624760D01*
X118381162Y-75634411D01*
X118835019Y-75554384D01*
X119264689Y-75387726D01*
X119653805Y-75140786D01*
X119987546Y-74822968D01*
X120253200Y-74446380D01*
X120440648Y-74025364D01*
X120542751Y-73575958D01*
X120544124Y-73477594D01*
X121046911Y-73477594D01*
X121130105Y-73930882D01*
X121299758Y-74359378D01*
X121549409Y-74746760D01*
X121869548Y-75078274D01*
X122247982Y-75341293D01*
X122670296Y-75525797D01*
X123120404Y-75624760D01*
X123581162Y-75634411D01*
X124035019Y-75554384D01*
X124464689Y-75387726D01*
X124853805Y-75140786D01*
X125187546Y-74822968D01*
X125453200Y-74446380D01*
X125640648Y-74025364D01*
X125742751Y-73575958D01*
X125744124Y-73477594D01*
X126246911Y-73477594D01*
X126330105Y-73930882D01*
X126499758Y-74359378D01*
X126749409Y-74746760D01*
X127069548Y-75078274D01*
X127447982Y-75341293D01*
X127870296Y-75525797D01*
X128320404Y-75624760D01*
X128781162Y-75634411D01*
X129235019Y-75554384D01*
X129664689Y-75387726D01*
X130053805Y-75140786D01*
X130387546Y-74822968D01*
X130653200Y-74446380D01*
X130840648Y-74025364D01*
X130942751Y-73575958D01*
X130944124Y-73477594D01*
X131446911Y-73477594D01*
X131530105Y-73930882D01*
X131699758Y-74359378D01*
X131949409Y-74746760D01*
X132269548Y-75078274D01*
X132647982Y-75341293D01*
X133070296Y-75525797D01*
X133520404Y-75624760D01*
X133981162Y-75634411D01*
X134435019Y-75554384D01*
X134864689Y-75387726D01*
X135253805Y-75140786D01*
X135587546Y-74822968D01*
X135853200Y-74446380D01*
X136040648Y-74025364D01*
X136142751Y-73575958D01*
X136144124Y-73477594D01*
X136646911Y-73477594D01*
X136730105Y-73930882D01*
X136899758Y-74359378D01*
X137149409Y-74746760D01*
X137469548Y-75078274D01*
X137847982Y-75341293D01*
X138270296Y-75525797D01*
X138720404Y-75624760D01*
X139181162Y-75634411D01*
X139635019Y-75554384D01*
X140064689Y-75387726D01*
X140453805Y-75140786D01*
X140787546Y-74822968D01*
X141053200Y-74446380D01*
X141240648Y-74025364D01*
X141342751Y-73575958D01*
X141350101Y-73049571D01*
X141260586Y-72597489D01*
X141084967Y-72171403D01*
X140829931Y-71787544D01*
X140505195Y-71460532D01*
X140123125Y-71202823D01*
X139698276Y-71024233D01*
X139246830Y-70931565D01*
X138785983Y-70928347D01*
X138333287Y-71014704D01*
X137905986Y-71187345D01*
X137520356Y-71439694D01*
X137191085Y-71762140D01*
X136930715Y-72142401D01*
X136749163Y-72565993D01*
X136653345Y-73016780D01*
X136646911Y-73477594D01*
X136144124Y-73477594D01*
X136150101Y-73049571D01*
X136060586Y-72597489D01*
X135884967Y-72171403D01*
X135629931Y-71787544D01*
X135305195Y-71460532D01*
X134923125Y-71202823D01*
X134498276Y-71024233D01*
X134046830Y-70931565D01*
X133585983Y-70928347D01*
X133133287Y-71014704D01*
X132705986Y-71187345D01*
X132320356Y-71439694D01*
X131991085Y-71762140D01*
X131730715Y-72142401D01*
X131549163Y-72565993D01*
X131453345Y-73016780D01*
X131446911Y-73477594D01*
X130944124Y-73477594D01*
X130950101Y-73049571D01*
X130860586Y-72597489D01*
X130684967Y-72171403D01*
X130429931Y-71787544D01*
X130105195Y-71460532D01*
X129723125Y-71202823D01*
X129298276Y-71024233D01*
X128846830Y-70931565D01*
X128385983Y-70928347D01*
X127933287Y-71014704D01*
X127505986Y-71187345D01*
X127120356Y-71439694D01*
X126791085Y-71762140D01*
X126530715Y-72142401D01*
X126349163Y-72565993D01*
X126253345Y-73016780D01*
X126246911Y-73477594D01*
X125744124Y-73477594D01*
X125750101Y-73049571D01*
X125660586Y-72597489D01*
X125484967Y-72171403D01*
X125229931Y-71787544D01*
X124905195Y-71460532D01*
X124523125Y-71202823D01*
X124098276Y-71024233D01*
X123646830Y-70931565D01*
X123185983Y-70928347D01*
X122733287Y-71014704D01*
X122305986Y-71187345D01*
X121920356Y-71439694D01*
X121591085Y-71762140D01*
X121330715Y-72142401D01*
X121149163Y-72565993D01*
X121053345Y-73016780D01*
X121046911Y-73477594D01*
X120544124Y-73477594D01*
X120550101Y-73049571D01*
X120460586Y-72597489D01*
X120284967Y-72171403D01*
X120029931Y-71787544D01*
X119705195Y-71460532D01*
X119323125Y-71202823D01*
X118898276Y-71024233D01*
X118446830Y-70931565D01*
X117985983Y-70928347D01*
X117533287Y-71014704D01*
X117105986Y-71187345D01*
X116720356Y-71439694D01*
X116391085Y-71762140D01*
X116130715Y-72142401D01*
X115949163Y-72565993D01*
X115853345Y-73016780D01*
X115846911Y-73477594D01*
X115344124Y-73477594D01*
X115350101Y-73049571D01*
X115260586Y-72597489D01*
X115084967Y-72171403D01*
X114829931Y-71787544D01*
X114505195Y-71460532D01*
X114123125Y-71202823D01*
X113698276Y-71024233D01*
X113246830Y-70931565D01*
X112785983Y-70928347D01*
X112333287Y-71014704D01*
X111905986Y-71187345D01*
X111520356Y-71439694D01*
X111191085Y-71762140D01*
X110930715Y-72142401D01*
X110749163Y-72565993D01*
X110653345Y-73016780D01*
X110646911Y-73477594D01*
X110144124Y-73477594D01*
X110150101Y-73049571D01*
X110060586Y-72597489D01*
X109884967Y-72171403D01*
X109629931Y-71787544D01*
X109305195Y-71460532D01*
X108923125Y-71202823D01*
X108498276Y-71024233D01*
X108046830Y-70931565D01*
X107585983Y-70928347D01*
X107133287Y-71014704D01*
X106705986Y-71187345D01*
X106320356Y-71439694D01*
X105991085Y-71762140D01*
X105730715Y-72142401D01*
X105549163Y-72565993D01*
X105453345Y-73016780D01*
X105446911Y-73477594D01*
X104944124Y-73477594D01*
X104950101Y-73049571D01*
X104860586Y-72597489D01*
X104684967Y-72171403D01*
X104429931Y-71787544D01*
X104105195Y-71460532D01*
X103723125Y-71202823D01*
X103298276Y-71024233D01*
X102846830Y-70931565D01*
X102385983Y-70928347D01*
X101933287Y-71014704D01*
X101505986Y-71187345D01*
X101120356Y-71439694D01*
X100791085Y-71762140D01*
X100530715Y-72142401D01*
X100349163Y-72565993D01*
X100253345Y-73016780D01*
X100246911Y-73477594D01*
X99744124Y-73477594D01*
X99750101Y-73049571D01*
X99660586Y-72597489D01*
X99484967Y-72171403D01*
X99229931Y-71787544D01*
X98905195Y-71460532D01*
X98523125Y-71202823D01*
X98098276Y-71024233D01*
X97646830Y-70931565D01*
X97185983Y-70928347D01*
X96733287Y-71014704D01*
X96305986Y-71187345D01*
X95920356Y-71439694D01*
X95591085Y-71762140D01*
X95330715Y-72142401D01*
X95149163Y-72565993D01*
X95053345Y-73016780D01*
X95046911Y-73477594D01*
X94544124Y-73477594D01*
X94550101Y-73049571D01*
X94460586Y-72597489D01*
X94284967Y-72171403D01*
X94029931Y-71787544D01*
X93705195Y-71460532D01*
X93323125Y-71202823D01*
X92898276Y-71024233D01*
X92446830Y-70931565D01*
X91985983Y-70928347D01*
X91533287Y-71014704D01*
X91105986Y-71187345D01*
X90720356Y-71439694D01*
X90391085Y-71762140D01*
X90130715Y-72142401D01*
X89949163Y-72565993D01*
X89853345Y-73016780D01*
X89846911Y-73477594D01*
X89344124Y-73477594D01*
X89350101Y-73049571D01*
X89260586Y-72597489D01*
X89084967Y-72171403D01*
X88829931Y-71787544D01*
X88505195Y-71460532D01*
X88123125Y-71202823D01*
X87698276Y-71024233D01*
X87246830Y-70931565D01*
X86785983Y-70928347D01*
X86333287Y-71014704D01*
X85905986Y-71187345D01*
X85520356Y-71439694D01*
X85191085Y-71762140D01*
X84930715Y-72142401D01*
X84749163Y-72565993D01*
X84653345Y-73016780D01*
X84646911Y-73477594D01*
X84144124Y-73477594D01*
X84150101Y-73049571D01*
X84060586Y-72597489D01*
X83884967Y-72171403D01*
X83629931Y-71787544D01*
X83305195Y-71460532D01*
X82923125Y-71202823D01*
X82498276Y-71024233D01*
X82046830Y-70931565D01*
X81585983Y-70928347D01*
X81133287Y-71014704D01*
X80705986Y-71187345D01*
X80320356Y-71439694D01*
X79991085Y-71762140D01*
X79730715Y-72142401D01*
X79549163Y-72565993D01*
X79453345Y-73016780D01*
X79446911Y-73477594D01*
X78944124Y-73477594D01*
X78950101Y-73049571D01*
X78860586Y-72597489D01*
X78684967Y-72171403D01*
X78429931Y-71787544D01*
X78105195Y-71460532D01*
X77723125Y-71202823D01*
X77298276Y-71024233D01*
X76846830Y-70931565D01*
X76385983Y-70928347D01*
X75933287Y-71014704D01*
X75505986Y-71187345D01*
X75120356Y-71439694D01*
X74791085Y-71762140D01*
X74530715Y-72142401D01*
X74349163Y-72565993D01*
X74253345Y-73016780D01*
X74246911Y-73477594D01*
X73744124Y-73477594D01*
X73750101Y-73049571D01*
X73660586Y-72597489D01*
X73484967Y-72171403D01*
X73229931Y-71787544D01*
X72905195Y-71460532D01*
X72523125Y-71202823D01*
X72098276Y-71024233D01*
X71646830Y-70931565D01*
X71185983Y-70928347D01*
X70733287Y-71014704D01*
X70305986Y-71187345D01*
X69920356Y-71439694D01*
X69591085Y-71762140D01*
X69330715Y-72142401D01*
X69149163Y-72565993D01*
X69053345Y-73016780D01*
X69046911Y-73477594D01*
X68544124Y-73477594D01*
X68550101Y-73049571D01*
X68460586Y-72597489D01*
X68284967Y-72171403D01*
X68029931Y-71787544D01*
X67705195Y-71460532D01*
X67323125Y-71202823D01*
X66898276Y-71024233D01*
X66446830Y-70931565D01*
X65985983Y-70928347D01*
X65533287Y-71014704D01*
X65105986Y-71187345D01*
X64720356Y-71439694D01*
X64391085Y-71762140D01*
X64130715Y-72142401D01*
X63949163Y-72565993D01*
X63853345Y-73016780D01*
X63846911Y-73477594D01*
X63344124Y-73477594D01*
X63350101Y-73049571D01*
X63260586Y-72597489D01*
X63084967Y-72171403D01*
X62829931Y-71787544D01*
X62505195Y-71460532D01*
X62123125Y-71202823D01*
X61698276Y-71024233D01*
X61246830Y-70931565D01*
X60785983Y-70928347D01*
X60333287Y-71014704D01*
X59905986Y-71187345D01*
X59520356Y-71439694D01*
X59191085Y-71762140D01*
X58930715Y-72142401D01*
X58749163Y-72565993D01*
X58653345Y-73016780D01*
X58646911Y-73477594D01*
X54085000Y-73477594D01*
X54085000Y-59200000D01*
X57735000Y-59200000D01*
X57735000Y-66660000D01*
X57735014Y-66660140D01*
X57735005Y-66662640D01*
X57735036Y-66671506D01*
X57738369Y-66704321D01*
X57738139Y-66737292D01*
X57739167Y-66747783D01*
X57765075Y-66994287D01*
X57778838Y-67061333D01*
X57791658Y-67128539D01*
X57794704Y-67138630D01*
X57867999Y-67375406D01*
X57894526Y-67438510D01*
X57920150Y-67501933D01*
X57925098Y-67511238D01*
X57925100Y-67511243D01*
X57925103Y-67511248D01*
X58042987Y-67729270D01*
X58081258Y-67786010D01*
X58118723Y-67843262D01*
X58125385Y-67851431D01*
X58283378Y-68042411D01*
X58331942Y-68090637D01*
X58379811Y-68139519D01*
X58387933Y-68146238D01*
X58580011Y-68302893D01*
X58637032Y-68340778D01*
X58693471Y-68379422D01*
X58702743Y-68384436D01*
X58921591Y-68500799D01*
X58984881Y-68526885D01*
X59047750Y-68553831D01*
X59057820Y-68556949D01*
X59295101Y-68628589D01*
X59362255Y-68641886D01*
X59429163Y-68656107D01*
X59439647Y-68657210D01*
X59686325Y-68681397D01*
X59717997Y-68681397D01*
X59749459Y-68684926D01*
X59760000Y-68685000D01*
X87910000Y-68685000D01*
X87910140Y-68684986D01*
X87912640Y-68684995D01*
X87921506Y-68684964D01*
X87954321Y-68681631D01*
X87987292Y-68681861D01*
X87997783Y-68680833D01*
X88244287Y-68654925D01*
X88311333Y-68641162D01*
X88378539Y-68628342D01*
X88388630Y-68625296D01*
X88625406Y-68552001D01*
X88688510Y-68525474D01*
X88751933Y-68499850D01*
X88761238Y-68494902D01*
X88761243Y-68494900D01*
X88761248Y-68494897D01*
X88979270Y-68377013D01*
X89036010Y-68338742D01*
X89093262Y-68301277D01*
X89101431Y-68294615D01*
X89292411Y-68136622D01*
X89340637Y-68088058D01*
X89389519Y-68040189D01*
X89396238Y-68032067D01*
X89552893Y-67839989D01*
X89590778Y-67782968D01*
X89629422Y-67726529D01*
X89634436Y-67717257D01*
X89750799Y-67498409D01*
X89776885Y-67435119D01*
X89803831Y-67372250D01*
X89806949Y-67362180D01*
X89878589Y-67124899D01*
X89891886Y-67057745D01*
X89906107Y-66990837D01*
X89907210Y-66980353D01*
X89931397Y-66733675D01*
X89931397Y-66702003D01*
X89934926Y-66670541D01*
X89935000Y-66660000D01*
X89935000Y-59200000D01*
X94395000Y-59200000D01*
X94395000Y-66660000D01*
X94395014Y-66660140D01*
X94395005Y-66662640D01*
X94395036Y-66671506D01*
X94398369Y-66704321D01*
X94398139Y-66737292D01*
X94399167Y-66747783D01*
X94425075Y-66994287D01*
X94438838Y-67061333D01*
X94451658Y-67128539D01*
X94454704Y-67138630D01*
X94527999Y-67375406D01*
X94554526Y-67438510D01*
X94580150Y-67501933D01*
X94585098Y-67511238D01*
X94585100Y-67511243D01*
X94585103Y-67511248D01*
X94702987Y-67729270D01*
X94741258Y-67786010D01*
X94778723Y-67843262D01*
X94785385Y-67851431D01*
X94943378Y-68042411D01*
X94991942Y-68090637D01*
X95039811Y-68139519D01*
X95047933Y-68146238D01*
X95240011Y-68302893D01*
X95297032Y-68340778D01*
X95353471Y-68379422D01*
X95362743Y-68384436D01*
X95581591Y-68500799D01*
X95644881Y-68526885D01*
X95707750Y-68553831D01*
X95717820Y-68556949D01*
X95955101Y-68628589D01*
X96022255Y-68641886D01*
X96089163Y-68656107D01*
X96099647Y-68657210D01*
X96346325Y-68681397D01*
X96377997Y-68681397D01*
X96409459Y-68684926D01*
X96420000Y-68685000D01*
X140240000Y-68685000D01*
X140240140Y-68684986D01*
X140242640Y-68684995D01*
X140251506Y-68684964D01*
X140284321Y-68681631D01*
X140317292Y-68681861D01*
X140327783Y-68680833D01*
X140574287Y-68654925D01*
X140641333Y-68641162D01*
X140708539Y-68628342D01*
X140718630Y-68625296D01*
X140955406Y-68552001D01*
X141018510Y-68525474D01*
X141081933Y-68499850D01*
X141091238Y-68494902D01*
X141091243Y-68494900D01*
X141091248Y-68494897D01*
X141309270Y-68377013D01*
X141366010Y-68338742D01*
X141423262Y-68301277D01*
X141431431Y-68294615D01*
X141622411Y-68136622D01*
X141670637Y-68088058D01*
X141719519Y-68040189D01*
X141726238Y-68032067D01*
X141882893Y-67839989D01*
X141920778Y-67782968D01*
X141959422Y-67726529D01*
X141964436Y-67717257D01*
X142080799Y-67498409D01*
X142106885Y-67435119D01*
X142133831Y-67372250D01*
X142136949Y-67362180D01*
X142208589Y-67124899D01*
X142221886Y-67057745D01*
X142236107Y-66990837D01*
X142237210Y-66980353D01*
X142261397Y-66733675D01*
X142261397Y-66702003D01*
X142264926Y-66670541D01*
X142265000Y-66660000D01*
X142265000Y-59200000D01*
X142264986Y-59199860D01*
X142264995Y-59197360D01*
X142264964Y-59188494D01*
X142261631Y-59155679D01*
X142261861Y-59122708D01*
X142260833Y-59112217D01*
X142234925Y-58865714D01*
X142221164Y-58798674D01*
X142208342Y-58731461D01*
X142205296Y-58721370D01*
X142132001Y-58484594D01*
X142105474Y-58421490D01*
X142079850Y-58358067D01*
X142074901Y-58348759D01*
X141957013Y-58130730D01*
X141918742Y-58073990D01*
X141881277Y-58016738D01*
X141874615Y-58008569D01*
X141716622Y-57817589D01*
X141668041Y-57769347D01*
X141620189Y-57720481D01*
X141612067Y-57713762D01*
X141419989Y-57557107D01*
X141362968Y-57519222D01*
X141306529Y-57480578D01*
X141297256Y-57475564D01*
X141078409Y-57359201D01*
X141015102Y-57333108D01*
X140952250Y-57306169D01*
X140942180Y-57303051D01*
X140704899Y-57231411D01*
X140637745Y-57218114D01*
X140570837Y-57203893D01*
X140560353Y-57202790D01*
X140313675Y-57178603D01*
X140282003Y-57178603D01*
X140250541Y-57175074D01*
X140240000Y-57175000D01*
X96420000Y-57175000D01*
X96419860Y-57175014D01*
X96417360Y-57175005D01*
X96408494Y-57175036D01*
X96375679Y-57178369D01*
X96342708Y-57178139D01*
X96332217Y-57179167D01*
X96085714Y-57205075D01*
X96018674Y-57218836D01*
X95951461Y-57231658D01*
X95941370Y-57234704D01*
X95704594Y-57307999D01*
X95641490Y-57334526D01*
X95578067Y-57360150D01*
X95568759Y-57365099D01*
X95350730Y-57482987D01*
X95293990Y-57521258D01*
X95236738Y-57558723D01*
X95228569Y-57565385D01*
X95037589Y-57723378D01*
X94989347Y-57771959D01*
X94940481Y-57819811D01*
X94933762Y-57827933D01*
X94777107Y-58020011D01*
X94739222Y-58077032D01*
X94700578Y-58133471D01*
X94695564Y-58142744D01*
X94579201Y-58361591D01*
X94553108Y-58424898D01*
X94526169Y-58487750D01*
X94523051Y-58497820D01*
X94451411Y-58735101D01*
X94438114Y-58802255D01*
X94423893Y-58869163D01*
X94422790Y-58879647D01*
X94398603Y-59126325D01*
X94398603Y-59157997D01*
X94395074Y-59189459D01*
X94395000Y-59200000D01*
X89935000Y-59200000D01*
X89934986Y-59199860D01*
X89934995Y-59197360D01*
X89934964Y-59188494D01*
X89931631Y-59155679D01*
X89931861Y-59122708D01*
X89930833Y-59112217D01*
X89904925Y-58865714D01*
X89891164Y-58798674D01*
X89878342Y-58731461D01*
X89875296Y-58721370D01*
X89802001Y-58484594D01*
X89775474Y-58421490D01*
X89749850Y-58358067D01*
X89744901Y-58348759D01*
X89627013Y-58130730D01*
X89588742Y-58073990D01*
X89551277Y-58016738D01*
X89544615Y-58008569D01*
X89386622Y-57817589D01*
X89338041Y-57769347D01*
X89290189Y-57720481D01*
X89282067Y-57713762D01*
X89089989Y-57557107D01*
X89032968Y-57519222D01*
X88976529Y-57480578D01*
X88967256Y-57475564D01*
X88748409Y-57359201D01*
X88685102Y-57333108D01*
X88622250Y-57306169D01*
X88612180Y-57303051D01*
X88374899Y-57231411D01*
X88307745Y-57218114D01*
X88240837Y-57203893D01*
X88230353Y-57202790D01*
X87983675Y-57178603D01*
X87952003Y-57178603D01*
X87920541Y-57175074D01*
X87910000Y-57175000D01*
X59760000Y-57175000D01*
X59759860Y-57175014D01*
X59757360Y-57175005D01*
X59748494Y-57175036D01*
X59715679Y-57178369D01*
X59682708Y-57178139D01*
X59672217Y-57179167D01*
X59425714Y-57205075D01*
X59358674Y-57218836D01*
X59291461Y-57231658D01*
X59281370Y-57234704D01*
X59044594Y-57307999D01*
X58981490Y-57334526D01*
X58918067Y-57360150D01*
X58908759Y-57365099D01*
X58690730Y-57482987D01*
X58633990Y-57521258D01*
X58576738Y-57558723D01*
X58568569Y-57565385D01*
X58377589Y-57723378D01*
X58329347Y-57771959D01*
X58280481Y-57819811D01*
X58273762Y-57827933D01*
X58117107Y-58020011D01*
X58079222Y-58077032D01*
X58040578Y-58133471D01*
X58035564Y-58142744D01*
X57919201Y-58361591D01*
X57893108Y-58424898D01*
X57866169Y-58487750D01*
X57863051Y-58497820D01*
X57791411Y-58735101D01*
X57778114Y-58802255D01*
X57763893Y-58869163D01*
X57762790Y-58879647D01*
X57738603Y-59126325D01*
X57738603Y-59157997D01*
X57735074Y-59189459D01*
X57735000Y-59200000D01*
X54085000Y-59200000D01*
X54085000Y-53456574D01*
X54507240Y-53456574D01*
X54581583Y-53861639D01*
X54733188Y-54244550D01*
X54956281Y-54590722D01*
X55242363Y-54886968D01*
X55580538Y-55122006D01*
X55957924Y-55286882D01*
X56360149Y-55375317D01*
X56771890Y-55383942D01*
X57177464Y-55312428D01*
X57561424Y-55163500D01*
X57909145Y-54942830D01*
X58207381Y-54658823D01*
X58444774Y-54322297D01*
X58612281Y-53946070D01*
X58703522Y-53544473D01*
X58704749Y-53456574D01*
X97897240Y-53456574D01*
X97971583Y-53861639D01*
X98123188Y-54244550D01*
X98346281Y-54590722D01*
X98632363Y-54886968D01*
X98970538Y-55122006D01*
X99347924Y-55286882D01*
X99750149Y-55375317D01*
X100161890Y-55383942D01*
X100567464Y-55312428D01*
X100951424Y-55163500D01*
X101299145Y-54942830D01*
X101597381Y-54658823D01*
X101834774Y-54322297D01*
X102002281Y-53946070D01*
X102093522Y-53544473D01*
X102094749Y-53456574D01*
X141287240Y-53456574D01*
X141361583Y-53861639D01*
X141513188Y-54244550D01*
X141736281Y-54590722D01*
X142022363Y-54886968D01*
X142360538Y-55122006D01*
X142737924Y-55286882D01*
X143140149Y-55375317D01*
X143551890Y-55383942D01*
X143957464Y-55312428D01*
X144341424Y-55163500D01*
X144689145Y-54942830D01*
X144987381Y-54658823D01*
X145224774Y-54322297D01*
X145392281Y-53946070D01*
X145483522Y-53544473D01*
X145490090Y-53074084D01*
X145410098Y-52670096D01*
X145253162Y-52289339D01*
X145025258Y-51946316D01*
X144735067Y-51654093D01*
X144393644Y-51423800D01*
X144013992Y-51264209D01*
X143610572Y-51181399D01*
X143198751Y-51178524D01*
X142794214Y-51255693D01*
X142412371Y-51409968D01*
X142067765Y-51635471D01*
X141773523Y-51923615D01*
X141540852Y-52263422D01*
X141378614Y-52641951D01*
X141292990Y-53044783D01*
X141287240Y-53456574D01*
X102094749Y-53456574D01*
X102100090Y-53074084D01*
X102020098Y-52670096D01*
X101863162Y-52289339D01*
X101635258Y-51946316D01*
X101345067Y-51654093D01*
X101003644Y-51423800D01*
X100623992Y-51264209D01*
X100220572Y-51181399D01*
X99808751Y-51178524D01*
X99404214Y-51255693D01*
X99022371Y-51409968D01*
X98677765Y-51635471D01*
X98383523Y-51923615D01*
X98150852Y-52263422D01*
X97988614Y-52641951D01*
X97902990Y-53044783D01*
X97897240Y-53456574D01*
X58704749Y-53456574D01*
X58710090Y-53074084D01*
X58630098Y-52670096D01*
X58473162Y-52289339D01*
X58245258Y-51946316D01*
X57955067Y-51654093D01*
X57613644Y-51423800D01*
X57233992Y-51264209D01*
X56830572Y-51181399D01*
X56418751Y-51178524D01*
X56014214Y-51255693D01*
X55632371Y-51409968D01*
X55287765Y-51635471D01*
X54993523Y-51923615D01*
X54760852Y-52263422D01*
X54598614Y-52641951D01*
X54512990Y-53044783D01*
X54507240Y-53456574D01*
X54085000Y-53456574D01*
X54085000Y-53316929D01*
X54136640Y-52790259D01*
X54278869Y-52319176D01*
X54509888Y-51884691D01*
X54820904Y-51503349D01*
X55200062Y-51189682D01*
X55632927Y-50955633D01*
X56103006Y-50810119D01*
X56627430Y-50755000D01*
X143353071Y-50755000D01*
X143879741Y-50806640D01*
G36*
X87000000Y-91830000D02*
X87009016Y-91921950D01*
X87017065Y-92013951D01*
X87018532Y-92019000D01*
X87019045Y-92024234D01*
X87045741Y-92112654D01*
X87071514Y-92201368D01*
X87073935Y-92206038D01*
X87075454Y-92211070D01*
X87118802Y-92292595D01*
X87161329Y-92374639D01*
X87164611Y-92378750D01*
X87167079Y-92383392D01*
X87225429Y-92454936D01*
X87283089Y-92527166D01*
X87290309Y-92534487D01*
X87290429Y-92534634D01*
X87290565Y-92534747D01*
X87292893Y-92537107D01*
X90302893Y-95547107D01*
X90374297Y-95605758D01*
X90445033Y-95665113D01*
X90449640Y-95667646D01*
X90453704Y-95670984D01*
X90535117Y-95714637D01*
X90616058Y-95759135D01*
X90621071Y-95760725D01*
X90625705Y-95763210D01*
X90714004Y-95790206D01*
X90802088Y-95818148D01*
X90807318Y-95818735D01*
X90812343Y-95820271D01*
X90904195Y-95829601D01*
X90996038Y-95839903D01*
X91006316Y-95839974D01*
X91006509Y-95839994D01*
X91006689Y-95839977D01*
X91010000Y-95840000D01*
X123000000Y-95840000D01*
X123000000Y-135820000D01*
X100000000Y-135820000D01*
X99908050Y-135829016D01*
X99816049Y-135837065D01*
X99811000Y-135838532D01*
X99805766Y-135839045D01*
X99717333Y-135865745D01*
X99628633Y-135891514D01*
X99623964Y-135893934D01*
X99618930Y-135895454D01*
X99537386Y-135938811D01*
X99455361Y-135981329D01*
X99451250Y-135984611D01*
X99446608Y-135987079D01*
X99375064Y-136045429D01*
X99302834Y-136103089D01*
X99295513Y-136110309D01*
X99295366Y-136110429D01*
X99295253Y-136110565D01*
X99292893Y-136112893D01*
X94585786Y-140820000D01*
X77010000Y-140820000D01*
X77010000Y-137048615D01*
X79396583Y-137048615D01*
X79488627Y-137550125D01*
X79676329Y-138024205D01*
X79952538Y-138452798D01*
X80306735Y-138819580D01*
X80725428Y-139110579D01*
X81192668Y-139314711D01*
X81690660Y-139424202D01*
X82200435Y-139434880D01*
X82702575Y-139346339D01*
X83177954Y-139161952D01*
X83608465Y-138888741D01*
X83977710Y-138537114D01*
X84271625Y-138120463D01*
X84479014Y-137654658D01*
X84591979Y-137157443D01*
X84600111Y-136575057D01*
X84501074Y-136074881D01*
X84306771Y-135603468D01*
X84024604Y-135178773D01*
X83665321Y-134816973D01*
X83242606Y-134531848D01*
X82772561Y-134334259D01*
X82273089Y-134231732D01*
X81763215Y-134228172D01*
X81262360Y-134323715D01*
X80789602Y-134514722D01*
X80362947Y-134793917D01*
X79998648Y-135150666D01*
X79710579Y-135571380D01*
X79509713Y-136040034D01*
X79403702Y-136538778D01*
X79396583Y-137048615D01*
X77010000Y-137048615D01*
X77010000Y-132048615D01*
X103396583Y-132048615D01*
X103488627Y-132550125D01*
X103676329Y-133024205D01*
X103952538Y-133452798D01*
X104306735Y-133819580D01*
X104725428Y-134110579D01*
X105192668Y-134314711D01*
X105690660Y-134424202D01*
X106200435Y-134434880D01*
X106702575Y-134346339D01*
X107177954Y-134161952D01*
X107608465Y-133888741D01*
X107977710Y-133537114D01*
X108271625Y-133120463D01*
X108479014Y-132654658D01*
X108591979Y-132157443D01*
X108593498Y-132048615D01*
X115396583Y-132048615D01*
X115488627Y-132550125D01*
X115676329Y-133024205D01*
X115952538Y-133452798D01*
X116306735Y-133819580D01*
X116725428Y-134110579D01*
X117192668Y-134314711D01*
X117690660Y-134424202D01*
X118200435Y-134434880D01*
X118702575Y-134346339D01*
X119177954Y-134161952D01*
X119608465Y-133888741D01*
X119977710Y-133537114D01*
X120271625Y-133120463D01*
X120479014Y-132654658D01*
X120591979Y-132157443D01*
X120600111Y-131575057D01*
X120501074Y-131074881D01*
X120306771Y-130603468D01*
X120024604Y-130178773D01*
X119665321Y-129816973D01*
X119242606Y-129531848D01*
X118772561Y-129334259D01*
X118273089Y-129231732D01*
X117763215Y-129228172D01*
X117262360Y-129323715D01*
X116789602Y-129514722D01*
X116362947Y-129793917D01*
X115998648Y-130150666D01*
X115710579Y-130571380D01*
X115509713Y-131040034D01*
X115403702Y-131538778D01*
X115396583Y-132048615D01*
X108593498Y-132048615D01*
X108600111Y-131575057D01*
X108501074Y-131074881D01*
X108306771Y-130603468D01*
X108024604Y-130178773D01*
X107665321Y-129816973D01*
X107242606Y-129531848D01*
X106772561Y-129334259D01*
X106273089Y-129231732D01*
X105763215Y-129228172D01*
X105262360Y-129323715D01*
X104789602Y-129514722D01*
X104362947Y-129793917D01*
X103998648Y-130150666D01*
X103710579Y-130571380D01*
X103509713Y-131040034D01*
X103403702Y-131538778D01*
X103396583Y-132048615D01*
X77010000Y-132048615D01*
X77010000Y-127048615D01*
X79396583Y-127048615D01*
X79488627Y-127550125D01*
X79676329Y-128024205D01*
X79952538Y-128452798D01*
X80306735Y-128819580D01*
X80725428Y-129110579D01*
X81192668Y-129314711D01*
X81690660Y-129424202D01*
X82200435Y-129434880D01*
X82702575Y-129346339D01*
X83177954Y-129161952D01*
X83608465Y-128888741D01*
X83977710Y-128537114D01*
X84271625Y-128120463D01*
X84479014Y-127654658D01*
X84591979Y-127157443D01*
X84600111Y-126575057D01*
X84501074Y-126074881D01*
X84306771Y-125603468D01*
X84024604Y-125178773D01*
X83665321Y-124816973D01*
X83242606Y-124531848D01*
X82772561Y-124334259D01*
X82273089Y-124231732D01*
X81763215Y-124228172D01*
X81262360Y-124323715D01*
X80789602Y-124514722D01*
X80362947Y-124793917D01*
X79998648Y-125150666D01*
X79710579Y-125571380D01*
X79509713Y-126040034D01*
X79403702Y-126538778D01*
X79396583Y-127048615D01*
X77010000Y-127048615D01*
X77010000Y-122048615D01*
X91396583Y-122048615D01*
X91488627Y-122550125D01*
X91676329Y-123024205D01*
X91952538Y-123452798D01*
X92306735Y-123819580D01*
X92725428Y-124110579D01*
X93192668Y-124314711D01*
X93690660Y-124424202D01*
X94200435Y-124434880D01*
X94702575Y-124346339D01*
X95177954Y-124161952D01*
X95608465Y-123888741D01*
X95977710Y-123537114D01*
X96271625Y-123120463D01*
X96479014Y-122654658D01*
X96591979Y-122157443D01*
X96593498Y-122048615D01*
X103396583Y-122048615D01*
X103488627Y-122550125D01*
X103676329Y-123024205D01*
X103952538Y-123452798D01*
X104306735Y-123819580D01*
X104725428Y-124110579D01*
X105192668Y-124314711D01*
X105690660Y-124424202D01*
X106200435Y-124434880D01*
X106702575Y-124346339D01*
X107177954Y-124161952D01*
X107608465Y-123888741D01*
X107977710Y-123537114D01*
X108271625Y-123120463D01*
X108479014Y-122654658D01*
X108591979Y-122157443D01*
X108593498Y-122048615D01*
X115396583Y-122048615D01*
X115488627Y-122550125D01*
X115676329Y-123024205D01*
X115952538Y-123452798D01*
X116306735Y-123819580D01*
X116725428Y-124110579D01*
X117192668Y-124314711D01*
X117690660Y-124424202D01*
X118200435Y-124434880D01*
X118702575Y-124346339D01*
X119177954Y-124161952D01*
X119608465Y-123888741D01*
X119977710Y-123537114D01*
X120271625Y-123120463D01*
X120479014Y-122654658D01*
X120591979Y-122157443D01*
X120600111Y-121575057D01*
X120501074Y-121074881D01*
X120306771Y-120603468D01*
X120024604Y-120178773D01*
X119665321Y-119816973D01*
X119242606Y-119531848D01*
X118772561Y-119334259D01*
X118273089Y-119231732D01*
X117763215Y-119228172D01*
X117262360Y-119323715D01*
X116789602Y-119514722D01*
X116362947Y-119793917D01*
X115998648Y-120150666D01*
X115710579Y-120571380D01*
X115509713Y-121040034D01*
X115403702Y-121538778D01*
X115396583Y-122048615D01*
X108593498Y-122048615D01*
X108600111Y-121575057D01*
X108501074Y-121074881D01*
X108306771Y-120603468D01*
X108024604Y-120178773D01*
X107665321Y-119816973D01*
X107242606Y-119531848D01*
X106772561Y-119334259D01*
X106273089Y-119231732D01*
X105763215Y-119228172D01*
X105262360Y-119323715D01*
X104789602Y-119514722D01*
X104362947Y-119793917D01*
X103998648Y-120150666D01*
X103710579Y-120571380D01*
X103509713Y-121040034D01*
X103403702Y-121538778D01*
X103396583Y-122048615D01*
X96593498Y-122048615D01*
X96600111Y-121575057D01*
X96501074Y-121074881D01*
X96306771Y-120603468D01*
X96024604Y-120178773D01*
X95665321Y-119816973D01*
X95242606Y-119531848D01*
X94772561Y-119334259D01*
X94273089Y-119231732D01*
X93763215Y-119228172D01*
X93262360Y-119323715D01*
X92789602Y-119514722D01*
X92362947Y-119793917D01*
X91998648Y-120150666D01*
X91710579Y-120571380D01*
X91509713Y-121040034D01*
X91403702Y-121538778D01*
X91396583Y-122048615D01*
X77010000Y-122048615D01*
X77010000Y-117048615D01*
X79396583Y-117048615D01*
X79488627Y-117550125D01*
X79676329Y-118024205D01*
X79952538Y-118452798D01*
X80306735Y-118819580D01*
X80725428Y-119110579D01*
X81192668Y-119314711D01*
X81690660Y-119424202D01*
X82200435Y-119434880D01*
X82702575Y-119346339D01*
X83177954Y-119161952D01*
X83608465Y-118888741D01*
X83977710Y-118537114D01*
X84271625Y-118120463D01*
X84479014Y-117654658D01*
X84591979Y-117157443D01*
X84600111Y-116575057D01*
X84501074Y-116074881D01*
X84306771Y-115603468D01*
X84024604Y-115178773D01*
X83665321Y-114816973D01*
X83242606Y-114531848D01*
X82772561Y-114334259D01*
X82273089Y-114231732D01*
X81763215Y-114228172D01*
X81262360Y-114323715D01*
X80789602Y-114514722D01*
X80362947Y-114793917D01*
X79998648Y-115150666D01*
X79710579Y-115571380D01*
X79509713Y-116040034D01*
X79403702Y-116538778D01*
X79396583Y-117048615D01*
X77010000Y-117048615D01*
X77010000Y-112048615D01*
X91396583Y-112048615D01*
X91488627Y-112550125D01*
X91676329Y-113024205D01*
X91952538Y-113452798D01*
X92306735Y-113819580D01*
X92725428Y-114110579D01*
X93192668Y-114314711D01*
X93690660Y-114424202D01*
X94200435Y-114434880D01*
X94702575Y-114346339D01*
X95177954Y-114161952D01*
X95608465Y-113888741D01*
X95977710Y-113537114D01*
X96271625Y-113120463D01*
X96479014Y-112654658D01*
X96591979Y-112157443D01*
X96593498Y-112048615D01*
X103396583Y-112048615D01*
X103488627Y-112550125D01*
X103676329Y-113024205D01*
X103952538Y-113452798D01*
X104306735Y-113819580D01*
X104725428Y-114110579D01*
X105192668Y-114314711D01*
X105690660Y-114424202D01*
X106200435Y-114434880D01*
X106702575Y-114346339D01*
X107177954Y-114161952D01*
X107608465Y-113888741D01*
X107977710Y-113537114D01*
X108271625Y-113120463D01*
X108479014Y-112654658D01*
X108591979Y-112157443D01*
X108593498Y-112048615D01*
X115396583Y-112048615D01*
X115488627Y-112550125D01*
X115676329Y-113024205D01*
X115952538Y-113452798D01*
X116306735Y-113819580D01*
X116725428Y-114110579D01*
X117192668Y-114314711D01*
X117690660Y-114424202D01*
X118200435Y-114434880D01*
X118702575Y-114346339D01*
X119177954Y-114161952D01*
X119608465Y-113888741D01*
X119977710Y-113537114D01*
X120271625Y-113120463D01*
X120479014Y-112654658D01*
X120591979Y-112157443D01*
X120600111Y-111575057D01*
X120501074Y-111074881D01*
X120306771Y-110603468D01*
X120024604Y-110178773D01*
X119665321Y-109816973D01*
X119242606Y-109531848D01*
X118772561Y-109334259D01*
X118273089Y-109231732D01*
X117763215Y-109228172D01*
X117262360Y-109323715D01*
X116789602Y-109514722D01*
X116362947Y-109793917D01*
X115998648Y-110150666D01*
X115710579Y-110571380D01*
X115509713Y-111040034D01*
X115403702Y-111538778D01*
X115396583Y-112048615D01*
X108593498Y-112048615D01*
X108600111Y-111575057D01*
X108501074Y-111074881D01*
X108306771Y-110603468D01*
X108024604Y-110178773D01*
X107665321Y-109816973D01*
X107242606Y-109531848D01*
X106772561Y-109334259D01*
X106273089Y-109231732D01*
X105763215Y-109228172D01*
X105262360Y-109323715D01*
X104789602Y-109514722D01*
X104362947Y-109793917D01*
X103998648Y-110150666D01*
X103710579Y-110571380D01*
X103509713Y-111040034D01*
X103403702Y-111538778D01*
X103396583Y-112048615D01*
X96593498Y-112048615D01*
X96600111Y-111575057D01*
X96501074Y-111074881D01*
X96306771Y-110603468D01*
X96024604Y-110178773D01*
X95665321Y-109816973D01*
X95242606Y-109531848D01*
X94772561Y-109334259D01*
X94273089Y-109231732D01*
X93763215Y-109228172D01*
X93262360Y-109323715D01*
X92789602Y-109514722D01*
X92362947Y-109793917D01*
X91998648Y-110150666D01*
X91710579Y-110571380D01*
X91509713Y-111040034D01*
X91403702Y-111538778D01*
X91396583Y-112048615D01*
X77010000Y-112048615D01*
X77010000Y-107048615D01*
X79396583Y-107048615D01*
X79488627Y-107550125D01*
X79676329Y-108024205D01*
X79952538Y-108452798D01*
X80306735Y-108819580D01*
X80725428Y-109110579D01*
X81192668Y-109314711D01*
X81690660Y-109424202D01*
X82200435Y-109434880D01*
X82702575Y-109346339D01*
X83177954Y-109161952D01*
X83608465Y-108888741D01*
X83977710Y-108537114D01*
X84271625Y-108120463D01*
X84479014Y-107654658D01*
X84591979Y-107157443D01*
X84600111Y-106575057D01*
X84501074Y-106074881D01*
X84306771Y-105603468D01*
X84024604Y-105178773D01*
X83665321Y-104816973D01*
X83242606Y-104531848D01*
X82772561Y-104334259D01*
X82273089Y-104231732D01*
X81763215Y-104228172D01*
X81262360Y-104323715D01*
X80789602Y-104514722D01*
X80362947Y-104793917D01*
X79998648Y-105150666D01*
X79710579Y-105571380D01*
X79509713Y-106040034D01*
X79403702Y-106538778D01*
X79396583Y-107048615D01*
X77010000Y-107048615D01*
X77010000Y-102048615D01*
X91396583Y-102048615D01*
X91488627Y-102550125D01*
X91676329Y-103024205D01*
X91952538Y-103452798D01*
X92306735Y-103819580D01*
X92725428Y-104110579D01*
X93192668Y-104314711D01*
X93690660Y-104424202D01*
X94200435Y-104434880D01*
X94702575Y-104346339D01*
X95177954Y-104161952D01*
X95608465Y-103888741D01*
X95977710Y-103537114D01*
X96271625Y-103120463D01*
X96479014Y-102654658D01*
X96591979Y-102157443D01*
X96593498Y-102048615D01*
X103396583Y-102048615D01*
X103488627Y-102550125D01*
X103676329Y-103024205D01*
X103952538Y-103452798D01*
X104306735Y-103819580D01*
X104725428Y-104110579D01*
X105192668Y-104314711D01*
X105690660Y-104424202D01*
X106200435Y-104434880D01*
X106702575Y-104346339D01*
X107177954Y-104161952D01*
X107608465Y-103888741D01*
X107977710Y-103537114D01*
X108271625Y-103120463D01*
X108479014Y-102654658D01*
X108591979Y-102157443D01*
X108593498Y-102048615D01*
X115396583Y-102048615D01*
X115488627Y-102550125D01*
X115676329Y-103024205D01*
X115952538Y-103452798D01*
X116306735Y-103819580D01*
X116725428Y-104110579D01*
X117192668Y-104314711D01*
X117690660Y-104424202D01*
X118200435Y-104434880D01*
X118702575Y-104346339D01*
X119177954Y-104161952D01*
X119608465Y-103888741D01*
X119977710Y-103537114D01*
X120271625Y-103120463D01*
X120479014Y-102654658D01*
X120591979Y-102157443D01*
X120600111Y-101575057D01*
X120501074Y-101074881D01*
X120306771Y-100603468D01*
X120024604Y-100178773D01*
X119665321Y-99816973D01*
X119242606Y-99531848D01*
X118772561Y-99334259D01*
X118273089Y-99231732D01*
X117763215Y-99228172D01*
X117262360Y-99323715D01*
X116789602Y-99514722D01*
X116362947Y-99793917D01*
X115998648Y-100150666D01*
X115710579Y-100571380D01*
X115509713Y-101040034D01*
X115403702Y-101538778D01*
X115396583Y-102048615D01*
X108593498Y-102048615D01*
X108600111Y-101575057D01*
X108501074Y-101074881D01*
X108306771Y-100603468D01*
X108024604Y-100178773D01*
X107665321Y-99816973D01*
X107242606Y-99531848D01*
X106772561Y-99334259D01*
X106273089Y-99231732D01*
X105763215Y-99228172D01*
X105262360Y-99323715D01*
X104789602Y-99514722D01*
X104362947Y-99793917D01*
X103998648Y-100150666D01*
X103710579Y-100571380D01*
X103509713Y-101040034D01*
X103403702Y-101538778D01*
X103396583Y-102048615D01*
X96593498Y-102048615D01*
X96600111Y-101575057D01*
X96501074Y-101074881D01*
X96306771Y-100603468D01*
X96024604Y-100178773D01*
X95665321Y-99816973D01*
X95242606Y-99531848D01*
X94772561Y-99334259D01*
X94273089Y-99231732D01*
X93763215Y-99228172D01*
X93262360Y-99323715D01*
X92789602Y-99514722D01*
X92362947Y-99793917D01*
X91998648Y-100150666D01*
X91710579Y-100571380D01*
X91509713Y-101040034D01*
X91403702Y-101538778D01*
X91396583Y-102048615D01*
X77010000Y-102048615D01*
X77010000Y-97048615D01*
X79396583Y-97048615D01*
X79488627Y-97550125D01*
X79676329Y-98024205D01*
X79952538Y-98452798D01*
X80306735Y-98819580D01*
X80725428Y-99110579D01*
X81192668Y-99314711D01*
X81690660Y-99424202D01*
X82200435Y-99434880D01*
X82702575Y-99346339D01*
X83177954Y-99161952D01*
X83608465Y-98888741D01*
X83977710Y-98537114D01*
X84271625Y-98120463D01*
X84479014Y-97654658D01*
X84591979Y-97157443D01*
X84600111Y-96575057D01*
X84501074Y-96074881D01*
X84306771Y-95603468D01*
X84024604Y-95178773D01*
X83665321Y-94816973D01*
X83242606Y-94531848D01*
X82772561Y-94334259D01*
X82273089Y-94231732D01*
X81763215Y-94228172D01*
X81262360Y-94323715D01*
X80789602Y-94514722D01*
X80362947Y-94793917D01*
X79998648Y-95150666D01*
X79710579Y-95571380D01*
X79509713Y-96040034D01*
X79403702Y-96538778D01*
X79396583Y-97048615D01*
X77010000Y-97048615D01*
X77010000Y-87048615D01*
X79396583Y-87048615D01*
X79488627Y-87550125D01*
X79676329Y-88024205D01*
X79952538Y-88452798D01*
X80306735Y-88819580D01*
X80725428Y-89110579D01*
X81192668Y-89314711D01*
X81690660Y-89424202D01*
X82200435Y-89434880D01*
X82702575Y-89346339D01*
X83177954Y-89161952D01*
X83608465Y-88888741D01*
X83977710Y-88537114D01*
X84271625Y-88120463D01*
X84479014Y-87654658D01*
X84591979Y-87157443D01*
X84600111Y-86575057D01*
X84501074Y-86074881D01*
X84306771Y-85603468D01*
X84024604Y-85178773D01*
X83665321Y-84816973D01*
X83242606Y-84531848D01*
X82772561Y-84334259D01*
X82273089Y-84231732D01*
X81763215Y-84228172D01*
X81262360Y-84323715D01*
X80789602Y-84514722D01*
X80362947Y-84793917D01*
X79998648Y-85150666D01*
X79710579Y-85571380D01*
X79509713Y-86040034D01*
X79403702Y-86538778D01*
X79396583Y-87048615D01*
X77010000Y-87048615D01*
X77010000Y-80840000D01*
X87000000Y-80840000D01*
X87000000Y-91830000D01*
X87000000Y-91830000D01*
G37*
X87000000Y-91830000D02*
X87009016Y-91921950D01*
X87017065Y-92013951D01*
X87018532Y-92019000D01*
X87019045Y-92024234D01*
X87045741Y-92112654D01*
X87071514Y-92201368D01*
X87073935Y-92206038D01*
X87075454Y-92211070D01*
X87118802Y-92292595D01*
X87161329Y-92374639D01*
X87164611Y-92378750D01*
X87167079Y-92383392D01*
X87225429Y-92454936D01*
X87283089Y-92527166D01*
X87290309Y-92534487D01*
X87290429Y-92534634D01*
X87290565Y-92534747D01*
X87292893Y-92537107D01*
X90302893Y-95547107D01*
X90374297Y-95605758D01*
X90445033Y-95665113D01*
X90449640Y-95667646D01*
X90453704Y-95670984D01*
X90535117Y-95714637D01*
X90616058Y-95759135D01*
X90621071Y-95760725D01*
X90625705Y-95763210D01*
X90714004Y-95790206D01*
X90802088Y-95818148D01*
X90807318Y-95818735D01*
X90812343Y-95820271D01*
X90904195Y-95829601D01*
X90996038Y-95839903D01*
X91006316Y-95839974D01*
X91006509Y-95839994D01*
X91006689Y-95839977D01*
X91010000Y-95840000D01*
X123000000Y-95840000D01*
X123000000Y-135820000D01*
X100000000Y-135820000D01*
X99908050Y-135829016D01*
X99816049Y-135837065D01*
X99811000Y-135838532D01*
X99805766Y-135839045D01*
X99717333Y-135865745D01*
X99628633Y-135891514D01*
X99623964Y-135893934D01*
X99618930Y-135895454D01*
X99537386Y-135938811D01*
X99455361Y-135981329D01*
X99451250Y-135984611D01*
X99446608Y-135987079D01*
X99375064Y-136045429D01*
X99302834Y-136103089D01*
X99295513Y-136110309D01*
X99295366Y-136110429D01*
X99295253Y-136110565D01*
X99292893Y-136112893D01*
X94585786Y-140820000D01*
X77010000Y-140820000D01*
X77010000Y-137048615D01*
X79396583Y-137048615D01*
X79488627Y-137550125D01*
X79676329Y-138024205D01*
X79952538Y-138452798D01*
X80306735Y-138819580D01*
X80725428Y-139110579D01*
X81192668Y-139314711D01*
X81690660Y-139424202D01*
X82200435Y-139434880D01*
X82702575Y-139346339D01*
X83177954Y-139161952D01*
X83608465Y-138888741D01*
X83977710Y-138537114D01*
X84271625Y-138120463D01*
X84479014Y-137654658D01*
X84591979Y-137157443D01*
X84600111Y-136575057D01*
X84501074Y-136074881D01*
X84306771Y-135603468D01*
X84024604Y-135178773D01*
X83665321Y-134816973D01*
X83242606Y-134531848D01*
X82772561Y-134334259D01*
X82273089Y-134231732D01*
X81763215Y-134228172D01*
X81262360Y-134323715D01*
X80789602Y-134514722D01*
X80362947Y-134793917D01*
X79998648Y-135150666D01*
X79710579Y-135571380D01*
X79509713Y-136040034D01*
X79403702Y-136538778D01*
X79396583Y-137048615D01*
X77010000Y-137048615D01*
X77010000Y-132048615D01*
X103396583Y-132048615D01*
X103488627Y-132550125D01*
X103676329Y-133024205D01*
X103952538Y-133452798D01*
X104306735Y-133819580D01*
X104725428Y-134110579D01*
X105192668Y-134314711D01*
X105690660Y-134424202D01*
X106200435Y-134434880D01*
X106702575Y-134346339D01*
X107177954Y-134161952D01*
X107608465Y-133888741D01*
X107977710Y-133537114D01*
X108271625Y-133120463D01*
X108479014Y-132654658D01*
X108591979Y-132157443D01*
X108593498Y-132048615D01*
X115396583Y-132048615D01*
X115488627Y-132550125D01*
X115676329Y-133024205D01*
X115952538Y-133452798D01*
X116306735Y-133819580D01*
X116725428Y-134110579D01*
X117192668Y-134314711D01*
X117690660Y-134424202D01*
X118200435Y-134434880D01*
X118702575Y-134346339D01*
X119177954Y-134161952D01*
X119608465Y-133888741D01*
X119977710Y-133537114D01*
X120271625Y-133120463D01*
X120479014Y-132654658D01*
X120591979Y-132157443D01*
X120600111Y-131575057D01*
X120501074Y-131074881D01*
X120306771Y-130603468D01*
X120024604Y-130178773D01*
X119665321Y-129816973D01*
X119242606Y-129531848D01*
X118772561Y-129334259D01*
X118273089Y-129231732D01*
X117763215Y-129228172D01*
X117262360Y-129323715D01*
X116789602Y-129514722D01*
X116362947Y-129793917D01*
X115998648Y-130150666D01*
X115710579Y-130571380D01*
X115509713Y-131040034D01*
X115403702Y-131538778D01*
X115396583Y-132048615D01*
X108593498Y-132048615D01*
X108600111Y-131575057D01*
X108501074Y-131074881D01*
X108306771Y-130603468D01*
X108024604Y-130178773D01*
X107665321Y-129816973D01*
X107242606Y-129531848D01*
X106772561Y-129334259D01*
X106273089Y-129231732D01*
X105763215Y-129228172D01*
X105262360Y-129323715D01*
X104789602Y-129514722D01*
X104362947Y-129793917D01*
X103998648Y-130150666D01*
X103710579Y-130571380D01*
X103509713Y-131040034D01*
X103403702Y-131538778D01*
X103396583Y-132048615D01*
X77010000Y-132048615D01*
X77010000Y-127048615D01*
X79396583Y-127048615D01*
X79488627Y-127550125D01*
X79676329Y-128024205D01*
X79952538Y-128452798D01*
X80306735Y-128819580D01*
X80725428Y-129110579D01*
X81192668Y-129314711D01*
X81690660Y-129424202D01*
X82200435Y-129434880D01*
X82702575Y-129346339D01*
X83177954Y-129161952D01*
X83608465Y-128888741D01*
X83977710Y-128537114D01*
X84271625Y-128120463D01*
X84479014Y-127654658D01*
X84591979Y-127157443D01*
X84600111Y-126575057D01*
X84501074Y-126074881D01*
X84306771Y-125603468D01*
X84024604Y-125178773D01*
X83665321Y-124816973D01*
X83242606Y-124531848D01*
X82772561Y-124334259D01*
X82273089Y-124231732D01*
X81763215Y-124228172D01*
X81262360Y-124323715D01*
X80789602Y-124514722D01*
X80362947Y-124793917D01*
X79998648Y-125150666D01*
X79710579Y-125571380D01*
X79509713Y-126040034D01*
X79403702Y-126538778D01*
X79396583Y-127048615D01*
X77010000Y-127048615D01*
X77010000Y-122048615D01*
X91396583Y-122048615D01*
X91488627Y-122550125D01*
X91676329Y-123024205D01*
X91952538Y-123452798D01*
X92306735Y-123819580D01*
X92725428Y-124110579D01*
X93192668Y-124314711D01*
X93690660Y-124424202D01*
X94200435Y-124434880D01*
X94702575Y-124346339D01*
X95177954Y-124161952D01*
X95608465Y-123888741D01*
X95977710Y-123537114D01*
X96271625Y-123120463D01*
X96479014Y-122654658D01*
X96591979Y-122157443D01*
X96593498Y-122048615D01*
X103396583Y-122048615D01*
X103488627Y-122550125D01*
X103676329Y-123024205D01*
X103952538Y-123452798D01*
X104306735Y-123819580D01*
X104725428Y-124110579D01*
X105192668Y-124314711D01*
X105690660Y-124424202D01*
X106200435Y-124434880D01*
X106702575Y-124346339D01*
X107177954Y-124161952D01*
X107608465Y-123888741D01*
X107977710Y-123537114D01*
X108271625Y-123120463D01*
X108479014Y-122654658D01*
X108591979Y-122157443D01*
X108593498Y-122048615D01*
X115396583Y-122048615D01*
X115488627Y-122550125D01*
X115676329Y-123024205D01*
X115952538Y-123452798D01*
X116306735Y-123819580D01*
X116725428Y-124110579D01*
X117192668Y-124314711D01*
X117690660Y-124424202D01*
X118200435Y-124434880D01*
X118702575Y-124346339D01*
X119177954Y-124161952D01*
X119608465Y-123888741D01*
X119977710Y-123537114D01*
X120271625Y-123120463D01*
X120479014Y-122654658D01*
X120591979Y-122157443D01*
X120600111Y-121575057D01*
X120501074Y-121074881D01*
X120306771Y-120603468D01*
X120024604Y-120178773D01*
X119665321Y-119816973D01*
X119242606Y-119531848D01*
X118772561Y-119334259D01*
X118273089Y-119231732D01*
X117763215Y-119228172D01*
X117262360Y-119323715D01*
X116789602Y-119514722D01*
X116362947Y-119793917D01*
X115998648Y-120150666D01*
X115710579Y-120571380D01*
X115509713Y-121040034D01*
X115403702Y-121538778D01*
X115396583Y-122048615D01*
X108593498Y-122048615D01*
X108600111Y-121575057D01*
X108501074Y-121074881D01*
X108306771Y-120603468D01*
X108024604Y-120178773D01*
X107665321Y-119816973D01*
X107242606Y-119531848D01*
X106772561Y-119334259D01*
X106273089Y-119231732D01*
X105763215Y-119228172D01*
X105262360Y-119323715D01*
X104789602Y-119514722D01*
X104362947Y-119793917D01*
X103998648Y-120150666D01*
X103710579Y-120571380D01*
X103509713Y-121040034D01*
X103403702Y-121538778D01*
X103396583Y-122048615D01*
X96593498Y-122048615D01*
X96600111Y-121575057D01*
X96501074Y-121074881D01*
X96306771Y-120603468D01*
X96024604Y-120178773D01*
X95665321Y-119816973D01*
X95242606Y-119531848D01*
X94772561Y-119334259D01*
X94273089Y-119231732D01*
X93763215Y-119228172D01*
X93262360Y-119323715D01*
X92789602Y-119514722D01*
X92362947Y-119793917D01*
X91998648Y-120150666D01*
X91710579Y-120571380D01*
X91509713Y-121040034D01*
X91403702Y-121538778D01*
X91396583Y-122048615D01*
X77010000Y-122048615D01*
X77010000Y-117048615D01*
X79396583Y-117048615D01*
X79488627Y-117550125D01*
X79676329Y-118024205D01*
X79952538Y-118452798D01*
X80306735Y-118819580D01*
X80725428Y-119110579D01*
X81192668Y-119314711D01*
X81690660Y-119424202D01*
X82200435Y-119434880D01*
X82702575Y-119346339D01*
X83177954Y-119161952D01*
X83608465Y-118888741D01*
X83977710Y-118537114D01*
X84271625Y-118120463D01*
X84479014Y-117654658D01*
X84591979Y-117157443D01*
X84600111Y-116575057D01*
X84501074Y-116074881D01*
X84306771Y-115603468D01*
X84024604Y-115178773D01*
X83665321Y-114816973D01*
X83242606Y-114531848D01*
X82772561Y-114334259D01*
X82273089Y-114231732D01*
X81763215Y-114228172D01*
X81262360Y-114323715D01*
X80789602Y-114514722D01*
X80362947Y-114793917D01*
X79998648Y-115150666D01*
X79710579Y-115571380D01*
X79509713Y-116040034D01*
X79403702Y-116538778D01*
X79396583Y-117048615D01*
X77010000Y-117048615D01*
X77010000Y-112048615D01*
X91396583Y-112048615D01*
X91488627Y-112550125D01*
X91676329Y-113024205D01*
X91952538Y-113452798D01*
X92306735Y-113819580D01*
X92725428Y-114110579D01*
X93192668Y-114314711D01*
X93690660Y-114424202D01*
X94200435Y-114434880D01*
X94702575Y-114346339D01*
X95177954Y-114161952D01*
X95608465Y-113888741D01*
X95977710Y-113537114D01*
X96271625Y-113120463D01*
X96479014Y-112654658D01*
X96591979Y-112157443D01*
X96593498Y-112048615D01*
X103396583Y-112048615D01*
X103488627Y-112550125D01*
X103676329Y-113024205D01*
X103952538Y-113452798D01*
X104306735Y-113819580D01*
X104725428Y-114110579D01*
X105192668Y-114314711D01*
X105690660Y-114424202D01*
X106200435Y-114434880D01*
X106702575Y-114346339D01*
X107177954Y-114161952D01*
X107608465Y-113888741D01*
X107977710Y-113537114D01*
X108271625Y-113120463D01*
X108479014Y-112654658D01*
X108591979Y-112157443D01*
X108593498Y-112048615D01*
X115396583Y-112048615D01*
X115488627Y-112550125D01*
X115676329Y-113024205D01*
X115952538Y-113452798D01*
X116306735Y-113819580D01*
X116725428Y-114110579D01*
X117192668Y-114314711D01*
X117690660Y-114424202D01*
X118200435Y-114434880D01*
X118702575Y-114346339D01*
X119177954Y-114161952D01*
X119608465Y-113888741D01*
X119977710Y-113537114D01*
X120271625Y-113120463D01*
X120479014Y-112654658D01*
X120591979Y-112157443D01*
X120600111Y-111575057D01*
X120501074Y-111074881D01*
X120306771Y-110603468D01*
X120024604Y-110178773D01*
X119665321Y-109816973D01*
X119242606Y-109531848D01*
X118772561Y-109334259D01*
X118273089Y-109231732D01*
X117763215Y-109228172D01*
X117262360Y-109323715D01*
X116789602Y-109514722D01*
X116362947Y-109793917D01*
X115998648Y-110150666D01*
X115710579Y-110571380D01*
X115509713Y-111040034D01*
X115403702Y-111538778D01*
X115396583Y-112048615D01*
X108593498Y-112048615D01*
X108600111Y-111575057D01*
X108501074Y-111074881D01*
X108306771Y-110603468D01*
X108024604Y-110178773D01*
X107665321Y-109816973D01*
X107242606Y-109531848D01*
X106772561Y-109334259D01*
X106273089Y-109231732D01*
X105763215Y-109228172D01*
X105262360Y-109323715D01*
X104789602Y-109514722D01*
X104362947Y-109793917D01*
X103998648Y-110150666D01*
X103710579Y-110571380D01*
X103509713Y-111040034D01*
X103403702Y-111538778D01*
X103396583Y-112048615D01*
X96593498Y-112048615D01*
X96600111Y-111575057D01*
X96501074Y-111074881D01*
X96306771Y-110603468D01*
X96024604Y-110178773D01*
X95665321Y-109816973D01*
X95242606Y-109531848D01*
X94772561Y-109334259D01*
X94273089Y-109231732D01*
X93763215Y-109228172D01*
X93262360Y-109323715D01*
X92789602Y-109514722D01*
X92362947Y-109793917D01*
X91998648Y-110150666D01*
X91710579Y-110571380D01*
X91509713Y-111040034D01*
X91403702Y-111538778D01*
X91396583Y-112048615D01*
X77010000Y-112048615D01*
X77010000Y-107048615D01*
X79396583Y-107048615D01*
X79488627Y-107550125D01*
X79676329Y-108024205D01*
X79952538Y-108452798D01*
X80306735Y-108819580D01*
X80725428Y-109110579D01*
X81192668Y-109314711D01*
X81690660Y-109424202D01*
X82200435Y-109434880D01*
X82702575Y-109346339D01*
X83177954Y-109161952D01*
X83608465Y-108888741D01*
X83977710Y-108537114D01*
X84271625Y-108120463D01*
X84479014Y-107654658D01*
X84591979Y-107157443D01*
X84600111Y-106575057D01*
X84501074Y-106074881D01*
X84306771Y-105603468D01*
X84024604Y-105178773D01*
X83665321Y-104816973D01*
X83242606Y-104531848D01*
X82772561Y-104334259D01*
X82273089Y-104231732D01*
X81763215Y-104228172D01*
X81262360Y-104323715D01*
X80789602Y-104514722D01*
X80362947Y-104793917D01*
X79998648Y-105150666D01*
X79710579Y-105571380D01*
X79509713Y-106040034D01*
X79403702Y-106538778D01*
X79396583Y-107048615D01*
X77010000Y-107048615D01*
X77010000Y-102048615D01*
X91396583Y-102048615D01*
X91488627Y-102550125D01*
X91676329Y-103024205D01*
X91952538Y-103452798D01*
X92306735Y-103819580D01*
X92725428Y-104110579D01*
X93192668Y-104314711D01*
X93690660Y-104424202D01*
X94200435Y-104434880D01*
X94702575Y-104346339D01*
X95177954Y-104161952D01*
X95608465Y-103888741D01*
X95977710Y-103537114D01*
X96271625Y-103120463D01*
X96479014Y-102654658D01*
X96591979Y-102157443D01*
X96593498Y-102048615D01*
X103396583Y-102048615D01*
X103488627Y-102550125D01*
X103676329Y-103024205D01*
X103952538Y-103452798D01*
X104306735Y-103819580D01*
X104725428Y-104110579D01*
X105192668Y-104314711D01*
X105690660Y-104424202D01*
X106200435Y-104434880D01*
X106702575Y-104346339D01*
X107177954Y-104161952D01*
X107608465Y-103888741D01*
X107977710Y-103537114D01*
X108271625Y-103120463D01*
X108479014Y-102654658D01*
X108591979Y-102157443D01*
X108593498Y-102048615D01*
X115396583Y-102048615D01*
X115488627Y-102550125D01*
X115676329Y-103024205D01*
X115952538Y-103452798D01*
X116306735Y-103819580D01*
X116725428Y-104110579D01*
X117192668Y-104314711D01*
X117690660Y-104424202D01*
X118200435Y-104434880D01*
X118702575Y-104346339D01*
X119177954Y-104161952D01*
X119608465Y-103888741D01*
X119977710Y-103537114D01*
X120271625Y-103120463D01*
X120479014Y-102654658D01*
X120591979Y-102157443D01*
X120600111Y-101575057D01*
X120501074Y-101074881D01*
X120306771Y-100603468D01*
X120024604Y-100178773D01*
X119665321Y-99816973D01*
X119242606Y-99531848D01*
X118772561Y-99334259D01*
X118273089Y-99231732D01*
X117763215Y-99228172D01*
X117262360Y-99323715D01*
X116789602Y-99514722D01*
X116362947Y-99793917D01*
X115998648Y-100150666D01*
X115710579Y-100571380D01*
X115509713Y-101040034D01*
X115403702Y-101538778D01*
X115396583Y-102048615D01*
X108593498Y-102048615D01*
X108600111Y-101575057D01*
X108501074Y-101074881D01*
X108306771Y-100603468D01*
X108024604Y-100178773D01*
X107665321Y-99816973D01*
X107242606Y-99531848D01*
X106772561Y-99334259D01*
X106273089Y-99231732D01*
X105763215Y-99228172D01*
X105262360Y-99323715D01*
X104789602Y-99514722D01*
X104362947Y-99793917D01*
X103998648Y-100150666D01*
X103710579Y-100571380D01*
X103509713Y-101040034D01*
X103403702Y-101538778D01*
X103396583Y-102048615D01*
X96593498Y-102048615D01*
X96600111Y-101575057D01*
X96501074Y-101074881D01*
X96306771Y-100603468D01*
X96024604Y-100178773D01*
X95665321Y-99816973D01*
X95242606Y-99531848D01*
X94772561Y-99334259D01*
X94273089Y-99231732D01*
X93763215Y-99228172D01*
X93262360Y-99323715D01*
X92789602Y-99514722D01*
X92362947Y-99793917D01*
X91998648Y-100150666D01*
X91710579Y-100571380D01*
X91509713Y-101040034D01*
X91403702Y-101538778D01*
X91396583Y-102048615D01*
X77010000Y-102048615D01*
X77010000Y-97048615D01*
X79396583Y-97048615D01*
X79488627Y-97550125D01*
X79676329Y-98024205D01*
X79952538Y-98452798D01*
X80306735Y-98819580D01*
X80725428Y-99110579D01*
X81192668Y-99314711D01*
X81690660Y-99424202D01*
X82200435Y-99434880D01*
X82702575Y-99346339D01*
X83177954Y-99161952D01*
X83608465Y-98888741D01*
X83977710Y-98537114D01*
X84271625Y-98120463D01*
X84479014Y-97654658D01*
X84591979Y-97157443D01*
X84600111Y-96575057D01*
X84501074Y-96074881D01*
X84306771Y-95603468D01*
X84024604Y-95178773D01*
X83665321Y-94816973D01*
X83242606Y-94531848D01*
X82772561Y-94334259D01*
X82273089Y-94231732D01*
X81763215Y-94228172D01*
X81262360Y-94323715D01*
X80789602Y-94514722D01*
X80362947Y-94793917D01*
X79998648Y-95150666D01*
X79710579Y-95571380D01*
X79509713Y-96040034D01*
X79403702Y-96538778D01*
X79396583Y-97048615D01*
X77010000Y-97048615D01*
X77010000Y-87048615D01*
X79396583Y-87048615D01*
X79488627Y-87550125D01*
X79676329Y-88024205D01*
X79952538Y-88452798D01*
X80306735Y-88819580D01*
X80725428Y-89110579D01*
X81192668Y-89314711D01*
X81690660Y-89424202D01*
X82200435Y-89434880D01*
X82702575Y-89346339D01*
X83177954Y-89161952D01*
X83608465Y-88888741D01*
X83977710Y-88537114D01*
X84271625Y-88120463D01*
X84479014Y-87654658D01*
X84591979Y-87157443D01*
X84600111Y-86575057D01*
X84501074Y-86074881D01*
X84306771Y-85603468D01*
X84024604Y-85178773D01*
X83665321Y-84816973D01*
X83242606Y-84531848D01*
X82772561Y-84334259D01*
X82273089Y-84231732D01*
X81763215Y-84228172D01*
X81262360Y-84323715D01*
X80789602Y-84514722D01*
X80362947Y-84793917D01*
X79998648Y-85150666D01*
X79710579Y-85571380D01*
X79509713Y-86040034D01*
X79403702Y-86538778D01*
X79396583Y-87048615D01*
X77010000Y-87048615D01*
X77010000Y-80840000D01*
X87000000Y-80840000D01*
X87000000Y-91830000D01*
M02*
