M48
;DRILL file {KiCad 4.0.7} date Friday, July 13, 2018 'AMt' 10:16:21 AM
;FORMAT={-:-/ absolute / inch / decimal}
FMAT,2
INCH,TZ
T1C0.106
T2C0.126
T3C0.146
%
G90
G05
M72
T1
X2.2287Y-2.0976
X2.2287Y-3.937
X2.2287Y-5.7764
X3.937Y-2.0976
X3.937Y-5.7764
X5.6453Y-2.0976
X5.6453Y-3.937
X5.6453Y-5.7764
T2
X2.4016Y-2.885
X2.6063Y-2.885
X2.811Y-2.885
X3.0157Y-2.885
X3.2205Y-2.885
X3.4252Y-2.885
X3.6299Y-2.885
X3.8346Y-2.885
X4.0394Y-2.885
X4.2441Y-2.885
X4.4488Y-2.885
X4.6535Y-2.885
X4.8583Y-2.885
X5.063Y-2.885
X5.2677Y-2.885
X5.4724Y-2.885
T3
X3.2283Y-3.4185
X3.2283Y-3.8122
X3.2283Y-4.2059
X3.2283Y-4.5996
X3.2283Y-4.9933
X3.2283Y-5.387
X3.7008Y-4.0091
X3.7008Y-4.4028
X3.7008Y-4.7965
X4.1732Y-4.0091
X4.1732Y-4.4028
X4.1732Y-4.7965
X4.1732Y-5.1902
X4.6457Y-4.0091
X4.6457Y-4.4028
X4.6457Y-4.7965
X4.6457Y-5.1902
T0
M30
