G04 #@! TF.FileFunction,Legend,Top*
%FSLAX46Y46*%
G04 Gerber Fmt 4.6, Leading zero omitted, Abs format (unit mm)*
G04 Created by KiCad (PCBNEW 4.0.7) date Friday, July 13, 2018 'AMt' 10:09:28 AM*
%MOMM*%
%LPD*%
G01*
G04 APERTURE LIST*
%ADD10C,0.100000*%
%ADD11C,0.200000*%
%ADD12C,0.430000*%
%ADD13C,0.400000*%
%ADD14C,0.350000*%
%ADD15C,0.300000*%
%ADD16C,0.340000*%
%ADD17C,0.360000*%
%ADD18C,0.150000*%
%ADD19C,0.010000*%
G04 APERTURE END LIST*
D10*
D11*
X65990000Y-53944046D02*
X60880000Y-53944046D01*
X65990000Y-53494046D02*
X61270000Y-53494046D01*
X65990000Y-52594046D02*
X62040000Y-52594046D01*
X65990000Y-53044046D02*
X61650000Y-53044046D01*
X65990000Y-51244046D02*
X63190000Y-51244046D01*
X65990000Y-51694046D02*
X62810000Y-51694046D01*
X65990000Y-50794046D02*
X63580000Y-50794046D01*
X60490000Y-54394046D02*
X63980000Y-50324046D01*
X65990000Y-52144046D02*
X62420000Y-52144046D01*
X90940000Y-51224046D02*
X95660000Y-51224046D01*
X90940000Y-53924046D02*
X93350000Y-53924046D01*
X90940000Y-50774046D02*
X96050000Y-50774046D01*
X92950000Y-54394046D02*
X60490000Y-54394046D01*
X96440000Y-50324046D02*
X92950000Y-54394046D01*
X96440000Y-50324046D02*
X63980000Y-50324046D01*
X90940000Y-52574046D02*
X94510000Y-52574046D01*
X90940000Y-53024046D02*
X94120000Y-53024046D01*
X90940000Y-53474046D02*
X93740000Y-53474046D01*
X90940000Y-51674046D02*
X95280000Y-51674046D01*
X90940000Y-52124046D02*
X94890000Y-52124046D01*
X134330000Y-50790000D02*
X136740000Y-50790000D01*
X134330000Y-51240000D02*
X137130000Y-51240000D01*
X134330000Y-51690000D02*
X137510000Y-51690000D01*
X134330000Y-52140000D02*
X137900000Y-52140000D01*
X139830000Y-54390000D02*
X136340000Y-50320000D01*
X134330000Y-53040000D02*
X138670000Y-53040000D01*
X134330000Y-53490000D02*
X139050000Y-53490000D01*
X134330000Y-52590000D02*
X138280000Y-52590000D01*
X134330000Y-53940000D02*
X139440000Y-53940000D01*
X139830000Y-54390000D02*
X107370000Y-54390000D01*
X109380000Y-53920000D02*
X106970000Y-53920000D01*
X109380000Y-53470000D02*
X106580000Y-53470000D01*
X109380000Y-53020000D02*
X106200000Y-53020000D01*
X109380000Y-52570000D02*
X105810000Y-52570000D01*
X109380000Y-52120000D02*
X105430000Y-52120000D01*
X109380000Y-51670000D02*
X105040000Y-51670000D01*
X109380000Y-51220000D02*
X104660000Y-51220000D01*
X136340000Y-50320000D02*
X103880000Y-50320000D01*
X57490000Y-55000000D02*
X90180000Y-55000000D01*
X88910000Y-68930000D02*
X58760000Y-68930000D01*
X57490000Y-67660000D02*
G75*
G03X58760000Y-68930000I1270000J0D01*
G01*
X57490000Y-67660000D02*
X57490000Y-55000000D01*
X90180000Y-55000000D02*
X90180000Y-67660000D01*
X88910000Y-68930000D02*
G75*
G03X90180000Y-67660000I0J1270000D01*
G01*
X142510000Y-55000000D02*
X94150000Y-55000000D01*
X142510000Y-55000000D02*
X142510000Y-67660000D01*
X141240000Y-68930000D02*
G75*
G03X142510000Y-67660000I0J1270000D01*
G01*
X141240000Y-68930000D02*
X95420000Y-68930000D01*
X94150000Y-67660000D02*
G75*
G03X95420000Y-68930000I1270000J0D01*
G01*
X94150000Y-67660000D02*
X94150000Y-55000000D01*
X109380000Y-50770000D02*
X104270000Y-50770000D01*
X103880000Y-50320000D02*
X107370000Y-54390000D01*
D12*
X110695000Y-53857143D02*
X110695000Y-50857143D01*
X111837857Y-50857143D01*
X112123571Y-51000000D01*
X112266428Y-51142857D01*
X112409285Y-51428571D01*
X112409285Y-51857143D01*
X112266428Y-52142857D01*
X112123571Y-52285714D01*
X111837857Y-52428571D01*
X110695000Y-52428571D01*
X115123571Y-53857143D02*
X113695000Y-53857143D01*
X113695000Y-50857143D01*
X116123571Y-52714286D02*
X118409285Y-52714286D01*
X121123571Y-51857143D02*
X121123571Y-53857143D01*
X120409285Y-50714286D02*
X119695000Y-52857143D01*
X121552142Y-52857143D01*
X122409285Y-50857143D02*
X124409285Y-50857143D01*
X123123571Y-53857143D01*
X125266428Y-50857143D02*
X127266428Y-50857143D01*
X125980714Y-53857143D01*
X129980714Y-53857143D02*
X128266429Y-53857143D01*
X129123571Y-53857143D02*
X129123571Y-50857143D01*
X128837857Y-51285714D01*
X128552143Y-51571429D01*
X128266429Y-51714286D01*
X131837857Y-50857143D02*
X132123572Y-50857143D01*
X132409286Y-51000000D01*
X132552143Y-51142857D01*
X132695000Y-51428571D01*
X132837857Y-52000000D01*
X132837857Y-52714286D01*
X132695000Y-53285714D01*
X132552143Y-53571429D01*
X132409286Y-53714286D01*
X132123572Y-53857143D01*
X131837857Y-53857143D01*
X131552143Y-53714286D01*
X131409286Y-53571429D01*
X131266429Y-53285714D01*
X131123572Y-52714286D01*
X131123572Y-52000000D01*
X131266429Y-51428571D01*
X131409286Y-51142857D01*
X131552143Y-51000000D01*
X131837857Y-50857143D01*
D11*
X109250000Y-87500000D02*
X107250000Y-86090000D01*
X102750000Y-87500000D02*
X104750000Y-86090000D01*
D13*
X113210000Y-86900000D02*
X109850000Y-86120000D01*
X98750000Y-86910000D02*
X102150000Y-86080000D01*
D14*
X128831427Y-57394762D02*
X128831427Y-55394762D01*
X129307618Y-55394762D01*
X129593332Y-55490000D01*
X129783808Y-55680476D01*
X129879047Y-55870952D01*
X129974285Y-56251905D01*
X129974285Y-56537619D01*
X129879047Y-56918571D01*
X129783808Y-57109048D01*
X129593332Y-57299524D01*
X129307618Y-57394762D01*
X128831427Y-57394762D01*
X131593332Y-57299524D02*
X131402856Y-57394762D01*
X131021904Y-57394762D01*
X130831427Y-57299524D01*
X130736189Y-57109048D01*
X130736189Y-56347143D01*
X130831427Y-56156667D01*
X131021904Y-56061429D01*
X131402856Y-56061429D01*
X131593332Y-56156667D01*
X131688570Y-56347143D01*
X131688570Y-56537619D01*
X130736189Y-56728095D01*
X133402856Y-57299524D02*
X133212380Y-57394762D01*
X132831428Y-57394762D01*
X132640952Y-57299524D01*
X132545713Y-57204286D01*
X132450475Y-57013810D01*
X132450475Y-56442381D01*
X132545713Y-56251905D01*
X132640952Y-56156667D01*
X132831428Y-56061429D01*
X133212380Y-56061429D01*
X133402856Y-56156667D01*
X134259999Y-57394762D02*
X134259999Y-56061429D01*
X134259999Y-55394762D02*
X134164761Y-55490000D01*
X134259999Y-55585238D01*
X134355238Y-55490000D01*
X134259999Y-55394762D01*
X134259999Y-55585238D01*
X135212380Y-57394762D02*
X135212380Y-56061429D01*
X135212380Y-56251905D02*
X135307619Y-56156667D01*
X135498095Y-56061429D01*
X135783809Y-56061429D01*
X135974285Y-56156667D01*
X136069523Y-56347143D01*
X136069523Y-57394762D01*
X136069523Y-56347143D02*
X136164761Y-56156667D01*
X136355238Y-56061429D01*
X136640952Y-56061429D01*
X136831428Y-56156667D01*
X136926666Y-56347143D01*
X136926666Y-57394762D01*
X138736190Y-57394762D02*
X138736190Y-56347143D01*
X138640952Y-56156667D01*
X138450476Y-56061429D01*
X138069524Y-56061429D01*
X137879047Y-56156667D01*
X138736190Y-57299524D02*
X138545714Y-57394762D01*
X138069524Y-57394762D01*
X137879047Y-57299524D01*
X137783809Y-57109048D01*
X137783809Y-56918571D01*
X137879047Y-56728095D01*
X138069524Y-56632857D01*
X138545714Y-56632857D01*
X138736190Y-56537619D01*
X139974286Y-57394762D02*
X139783810Y-57299524D01*
X139688571Y-57109048D01*
X139688571Y-55394762D01*
X69443807Y-57394762D02*
X69443807Y-55394762D01*
X69443807Y-56347143D02*
X70586665Y-56347143D01*
X70586665Y-57394762D02*
X70586665Y-55394762D01*
X72300950Y-57299524D02*
X72110474Y-57394762D01*
X71729522Y-57394762D01*
X71539045Y-57299524D01*
X71443807Y-57109048D01*
X71443807Y-56347143D01*
X71539045Y-56156667D01*
X71729522Y-56061429D01*
X72110474Y-56061429D01*
X72300950Y-56156667D01*
X72396188Y-56347143D01*
X72396188Y-56537619D01*
X71443807Y-56728095D01*
X73062855Y-57394762D02*
X74110474Y-56061429D01*
X73062855Y-56061429D02*
X74110474Y-57394762D01*
X75729522Y-57394762D02*
X75729522Y-56347143D01*
X75634284Y-56156667D01*
X75443808Y-56061429D01*
X75062856Y-56061429D01*
X74872379Y-56156667D01*
X75729522Y-57299524D02*
X75539046Y-57394762D01*
X75062856Y-57394762D01*
X74872379Y-57299524D01*
X74777141Y-57109048D01*
X74777141Y-56918571D01*
X74872379Y-56728095D01*
X75062856Y-56632857D01*
X75539046Y-56632857D01*
X75729522Y-56537619D01*
X77539046Y-57394762D02*
X77539046Y-55394762D01*
X77539046Y-57299524D02*
X77348570Y-57394762D01*
X76967618Y-57394762D01*
X76777142Y-57299524D01*
X76681903Y-57204286D01*
X76586665Y-57013810D01*
X76586665Y-56442381D01*
X76681903Y-56251905D01*
X76777142Y-56156667D01*
X76967618Y-56061429D01*
X77348570Y-56061429D01*
X77539046Y-56156667D01*
X79253332Y-57299524D02*
X79062856Y-57394762D01*
X78681904Y-57394762D01*
X78491427Y-57299524D01*
X78396189Y-57109048D01*
X78396189Y-56347143D01*
X78491427Y-56156667D01*
X78681904Y-56061429D01*
X79062856Y-56061429D01*
X79253332Y-56156667D01*
X79348570Y-56347143D01*
X79348570Y-56537619D01*
X78396189Y-56728095D01*
X81062856Y-57299524D02*
X80872380Y-57394762D01*
X80491428Y-57394762D01*
X80300952Y-57299524D01*
X80205713Y-57204286D01*
X80110475Y-57013810D01*
X80110475Y-56442381D01*
X80205713Y-56251905D01*
X80300952Y-56156667D01*
X80491428Y-56061429D01*
X80872380Y-56061429D01*
X81062856Y-56156667D01*
X81919999Y-57394762D02*
X81919999Y-56061429D01*
X81919999Y-55394762D02*
X81824761Y-55490000D01*
X81919999Y-55585238D01*
X82015238Y-55490000D01*
X81919999Y-55394762D01*
X81919999Y-55585238D01*
X82872380Y-57394762D02*
X82872380Y-56061429D01*
X82872380Y-56251905D02*
X82967619Y-56156667D01*
X83158095Y-56061429D01*
X83443809Y-56061429D01*
X83634285Y-56156667D01*
X83729523Y-56347143D01*
X83729523Y-57394762D01*
X83729523Y-56347143D02*
X83824761Y-56156667D01*
X84015238Y-56061429D01*
X84300952Y-56061429D01*
X84491428Y-56156667D01*
X84586666Y-56347143D01*
X84586666Y-57394762D01*
X86396190Y-57394762D02*
X86396190Y-56347143D01*
X86300952Y-56156667D01*
X86110476Y-56061429D01*
X85729524Y-56061429D01*
X85539047Y-56156667D01*
X86396190Y-57299524D02*
X86205714Y-57394762D01*
X85729524Y-57394762D01*
X85539047Y-57299524D01*
X85443809Y-57109048D01*
X85443809Y-56918571D01*
X85539047Y-56728095D01*
X85729524Y-56632857D01*
X86205714Y-56632857D01*
X86396190Y-56537619D01*
X87634286Y-57394762D02*
X87443810Y-57299524D01*
X87348571Y-57109048D01*
X87348571Y-55394762D01*
D11*
X115750000Y-87500000D02*
X109750000Y-85830000D01*
X107250000Y-85830000D02*
X109250000Y-87500000D01*
X102750000Y-87500000D02*
X104750000Y-85830000D01*
X102250000Y-85830000D02*
X96250000Y-87500000D01*
X96250000Y-87500000D02*
X102250000Y-86330000D01*
X115750000Y-87500000D02*
X109750000Y-86330000D01*
X109250000Y-87500000D02*
X107250000Y-86330000D01*
X109750000Y-85830000D02*
X109750000Y-86330000D01*
X107250000Y-85830000D02*
X107250000Y-86330000D01*
X102250000Y-85830000D02*
X102250000Y-86330000D01*
X104750000Y-86340000D02*
X102750000Y-87500000D01*
X104750000Y-85830000D02*
X104750000Y-86330000D01*
D15*
X94345238Y-87904762D02*
X94726190Y-87904762D01*
X94916666Y-88000000D01*
X95107143Y-88190476D01*
X95202381Y-88571429D01*
X95202381Y-89238095D01*
X95107143Y-89619048D01*
X94916666Y-89809524D01*
X94726190Y-89904762D01*
X94345238Y-89904762D01*
X94154762Y-89809524D01*
X93964285Y-89619048D01*
X93869047Y-89238095D01*
X93869047Y-88571429D01*
X93964285Y-88190476D01*
X94154762Y-88000000D01*
X94345238Y-87904762D01*
X96726190Y-88857143D02*
X96059523Y-88857143D01*
X96059523Y-89904762D02*
X96059523Y-87904762D01*
X97011904Y-87904762D01*
X98440476Y-88857143D02*
X97773809Y-88857143D01*
X97773809Y-89904762D02*
X97773809Y-87904762D01*
X98726190Y-87904762D01*
X106821428Y-89904762D02*
X106821428Y-87904762D01*
X107297619Y-87904762D01*
X107583333Y-88000000D01*
X107773809Y-88190476D01*
X107869048Y-88380952D01*
X107964286Y-88761905D01*
X107964286Y-89047619D01*
X107869048Y-89428571D01*
X107773809Y-89619048D01*
X107583333Y-89809524D01*
X107297619Y-89904762D01*
X106821428Y-89904762D01*
X108821428Y-88857143D02*
X109488095Y-88857143D01*
X109773809Y-89904762D02*
X108821428Y-89904762D01*
X108821428Y-87904762D01*
X109773809Y-87904762D01*
X111773810Y-89714286D02*
X111678572Y-89809524D01*
X111392857Y-89904762D01*
X111202381Y-89904762D01*
X110916667Y-89809524D01*
X110726191Y-89619048D01*
X110630952Y-89428571D01*
X110535714Y-89047619D01*
X110535714Y-88761905D01*
X110630952Y-88380952D01*
X110726191Y-88190476D01*
X110916667Y-88000000D01*
X111202381Y-87904762D01*
X111392857Y-87904762D01*
X111678572Y-88000000D01*
X111773810Y-88095238D01*
X114369048Y-88857143D02*
X114654762Y-88952381D01*
X114750001Y-89047619D01*
X114845239Y-89238095D01*
X114845239Y-89523810D01*
X114750001Y-89714286D01*
X114654762Y-89809524D01*
X114464286Y-89904762D01*
X113702381Y-89904762D01*
X113702381Y-87904762D01*
X114369048Y-87904762D01*
X114559524Y-88000000D01*
X114654762Y-88095238D01*
X114750001Y-88285714D01*
X114750001Y-88476190D01*
X114654762Y-88666667D01*
X114559524Y-88761905D01*
X114369048Y-88857143D01*
X113702381Y-88857143D01*
X115702381Y-89904762D02*
X115702381Y-87904762D01*
X116654762Y-89904762D02*
X116654762Y-87904762D01*
X117797620Y-89904762D01*
X117797620Y-87904762D01*
X100321428Y-89904762D02*
X100321428Y-87904762D01*
X100321428Y-88857143D02*
X101464286Y-88857143D01*
X101464286Y-89904762D02*
X101464286Y-87904762D01*
X102416666Y-88857143D02*
X103083333Y-88857143D01*
X103369047Y-89904762D02*
X102416666Y-89904762D01*
X102416666Y-87904762D01*
X103369047Y-87904762D01*
X104035714Y-87904762D02*
X105369048Y-89904762D01*
X105369048Y-87904762D02*
X104035714Y-89904762D01*
X84402857Y-88674286D02*
X84574286Y-88731429D01*
X84631429Y-88788571D01*
X84688572Y-88902857D01*
X84688572Y-89074286D01*
X84631429Y-89188571D01*
X84574286Y-89245714D01*
X84460000Y-89302857D01*
X84002857Y-89302857D01*
X84002857Y-88102857D01*
X84402857Y-88102857D01*
X84517143Y-88160000D01*
X84574286Y-88217143D01*
X84631429Y-88331429D01*
X84631429Y-88445714D01*
X84574286Y-88560000D01*
X84517143Y-88617143D01*
X84402857Y-88674286D01*
X84002857Y-88674286D01*
X85831429Y-89302857D02*
X85145714Y-89302857D01*
X85488572Y-89302857D02*
X85488572Y-88102857D01*
X85374286Y-88274286D01*
X85260000Y-88388571D01*
X85145714Y-88445714D01*
X86917143Y-88102857D02*
X86345714Y-88102857D01*
X86288571Y-88674286D01*
X86345714Y-88617143D01*
X86460000Y-88560000D01*
X86745714Y-88560000D01*
X86860000Y-88617143D01*
X86917143Y-88674286D01*
X86974286Y-88788571D01*
X86974286Y-89074286D01*
X86917143Y-89188571D01*
X86860000Y-89245714D01*
X86745714Y-89302857D01*
X86460000Y-89302857D01*
X86345714Y-89245714D01*
X86288571Y-89188571D01*
X84402857Y-98674286D02*
X84574286Y-98731429D01*
X84631429Y-98788571D01*
X84688572Y-98902857D01*
X84688572Y-99074286D01*
X84631429Y-99188571D01*
X84574286Y-99245714D01*
X84460000Y-99302857D01*
X84002857Y-99302857D01*
X84002857Y-98102857D01*
X84402857Y-98102857D01*
X84517143Y-98160000D01*
X84574286Y-98217143D01*
X84631429Y-98331429D01*
X84631429Y-98445714D01*
X84574286Y-98560000D01*
X84517143Y-98617143D01*
X84402857Y-98674286D01*
X84002857Y-98674286D01*
X85831429Y-99302857D02*
X85145714Y-99302857D01*
X85488572Y-99302857D02*
X85488572Y-98102857D01*
X85374286Y-98274286D01*
X85260000Y-98388571D01*
X85145714Y-98445714D01*
X86860000Y-98502857D02*
X86860000Y-99302857D01*
X86574286Y-98045714D02*
X86288571Y-98902857D01*
X87031429Y-98902857D01*
X84402857Y-108674286D02*
X84574286Y-108731429D01*
X84631429Y-108788571D01*
X84688572Y-108902857D01*
X84688572Y-109074286D01*
X84631429Y-109188571D01*
X84574286Y-109245714D01*
X84460000Y-109302857D01*
X84002857Y-109302857D01*
X84002857Y-108102857D01*
X84402857Y-108102857D01*
X84517143Y-108160000D01*
X84574286Y-108217143D01*
X84631429Y-108331429D01*
X84631429Y-108445714D01*
X84574286Y-108560000D01*
X84517143Y-108617143D01*
X84402857Y-108674286D01*
X84002857Y-108674286D01*
X85831429Y-109302857D02*
X85145714Y-109302857D01*
X85488572Y-109302857D02*
X85488572Y-108102857D01*
X85374286Y-108274286D01*
X85260000Y-108388571D01*
X85145714Y-108445714D01*
X86231429Y-108102857D02*
X86974286Y-108102857D01*
X86574286Y-108560000D01*
X86745714Y-108560000D01*
X86860000Y-108617143D01*
X86917143Y-108674286D01*
X86974286Y-108788571D01*
X86974286Y-109074286D01*
X86917143Y-109188571D01*
X86860000Y-109245714D01*
X86745714Y-109302857D01*
X86402857Y-109302857D01*
X86288571Y-109245714D01*
X86231429Y-109188571D01*
X84402857Y-118674286D02*
X84574286Y-118731429D01*
X84631429Y-118788571D01*
X84688572Y-118902857D01*
X84688572Y-119074286D01*
X84631429Y-119188571D01*
X84574286Y-119245714D01*
X84460000Y-119302857D01*
X84002857Y-119302857D01*
X84002857Y-118102857D01*
X84402857Y-118102857D01*
X84517143Y-118160000D01*
X84574286Y-118217143D01*
X84631429Y-118331429D01*
X84631429Y-118445714D01*
X84574286Y-118560000D01*
X84517143Y-118617143D01*
X84402857Y-118674286D01*
X84002857Y-118674286D01*
X85831429Y-119302857D02*
X85145714Y-119302857D01*
X85488572Y-119302857D02*
X85488572Y-118102857D01*
X85374286Y-118274286D01*
X85260000Y-118388571D01*
X85145714Y-118445714D01*
X86288571Y-118217143D02*
X86345714Y-118160000D01*
X86460000Y-118102857D01*
X86745714Y-118102857D01*
X86860000Y-118160000D01*
X86917143Y-118217143D01*
X86974286Y-118331429D01*
X86974286Y-118445714D01*
X86917143Y-118617143D01*
X86231429Y-119302857D01*
X86974286Y-119302857D01*
X84402857Y-128674286D02*
X84574286Y-128731429D01*
X84631429Y-128788571D01*
X84688572Y-128902857D01*
X84688572Y-129074286D01*
X84631429Y-129188571D01*
X84574286Y-129245714D01*
X84460000Y-129302857D01*
X84002857Y-129302857D01*
X84002857Y-128102857D01*
X84402857Y-128102857D01*
X84517143Y-128160000D01*
X84574286Y-128217143D01*
X84631429Y-128331429D01*
X84631429Y-128445714D01*
X84574286Y-128560000D01*
X84517143Y-128617143D01*
X84402857Y-128674286D01*
X84002857Y-128674286D01*
X85831429Y-129302857D02*
X85145714Y-129302857D01*
X85488572Y-129302857D02*
X85488572Y-128102857D01*
X85374286Y-128274286D01*
X85260000Y-128388571D01*
X85145714Y-128445714D01*
X86974286Y-129302857D02*
X86288571Y-129302857D01*
X86631429Y-129302857D02*
X86631429Y-128102857D01*
X86517143Y-128274286D01*
X86402857Y-128388571D01*
X86288571Y-128445714D01*
X84402857Y-138674286D02*
X84574286Y-138731429D01*
X84631429Y-138788571D01*
X84688572Y-138902857D01*
X84688572Y-139074286D01*
X84631429Y-139188571D01*
X84574286Y-139245714D01*
X84460000Y-139302857D01*
X84002857Y-139302857D01*
X84002857Y-138102857D01*
X84402857Y-138102857D01*
X84517143Y-138160000D01*
X84574286Y-138217143D01*
X84631429Y-138331429D01*
X84631429Y-138445714D01*
X84574286Y-138560000D01*
X84517143Y-138617143D01*
X84402857Y-138674286D01*
X84002857Y-138674286D01*
X85831429Y-139302857D02*
X85145714Y-139302857D01*
X85488572Y-139302857D02*
X85488572Y-138102857D01*
X85374286Y-138274286D01*
X85260000Y-138388571D01*
X85145714Y-138445714D01*
X86574286Y-138102857D02*
X86688571Y-138102857D01*
X86802857Y-138160000D01*
X86860000Y-138217143D01*
X86917143Y-138331429D01*
X86974286Y-138560000D01*
X86974286Y-138845714D01*
X86917143Y-139074286D01*
X86860000Y-139188571D01*
X86802857Y-139245714D01*
X86688571Y-139302857D01*
X86574286Y-139302857D01*
X86460000Y-139245714D01*
X86402857Y-139188571D01*
X86345714Y-139074286D01*
X86288571Y-138845714D01*
X86288571Y-138560000D01*
X86345714Y-138331429D01*
X86402857Y-138217143D01*
X86460000Y-138160000D01*
X86574286Y-138102857D01*
X108974286Y-133674286D02*
X109145715Y-133731429D01*
X109202858Y-133788571D01*
X109260001Y-133902857D01*
X109260001Y-134074286D01*
X109202858Y-134188571D01*
X109145715Y-134245714D01*
X109031429Y-134302857D01*
X108574286Y-134302857D01*
X108574286Y-133102857D01*
X108974286Y-133102857D01*
X109088572Y-133160000D01*
X109145715Y-133217143D01*
X109202858Y-133331429D01*
X109202858Y-133445714D01*
X109145715Y-133560000D01*
X109088572Y-133617143D01*
X108974286Y-133674286D01*
X108574286Y-133674286D01*
X110002858Y-133102857D02*
X110117143Y-133102857D01*
X110231429Y-133160000D01*
X110288572Y-133217143D01*
X110345715Y-133331429D01*
X110402858Y-133560000D01*
X110402858Y-133845714D01*
X110345715Y-134074286D01*
X110288572Y-134188571D01*
X110231429Y-134245714D01*
X110117143Y-134302857D01*
X110002858Y-134302857D01*
X109888572Y-134245714D01*
X109831429Y-134188571D01*
X109774286Y-134074286D01*
X109717143Y-133845714D01*
X109717143Y-133560000D01*
X109774286Y-133331429D01*
X109831429Y-133217143D01*
X109888572Y-133160000D01*
X110002858Y-133102857D01*
X96974286Y-123674286D02*
X97145715Y-123731429D01*
X97202858Y-123788571D01*
X97260001Y-123902857D01*
X97260001Y-124074286D01*
X97202858Y-124188571D01*
X97145715Y-124245714D01*
X97031429Y-124302857D01*
X96574286Y-124302857D01*
X96574286Y-123102857D01*
X96974286Y-123102857D01*
X97088572Y-123160000D01*
X97145715Y-123217143D01*
X97202858Y-123331429D01*
X97202858Y-123445714D01*
X97145715Y-123560000D01*
X97088572Y-123617143D01*
X96974286Y-123674286D01*
X96574286Y-123674286D01*
X98402858Y-124302857D02*
X97717143Y-124302857D01*
X98060001Y-124302857D02*
X98060001Y-123102857D01*
X97945715Y-123274286D01*
X97831429Y-123388571D01*
X97717143Y-123445714D01*
X108974286Y-123674286D02*
X109145715Y-123731429D01*
X109202858Y-123788571D01*
X109260001Y-123902857D01*
X109260001Y-124074286D01*
X109202858Y-124188571D01*
X109145715Y-124245714D01*
X109031429Y-124302857D01*
X108574286Y-124302857D01*
X108574286Y-123102857D01*
X108974286Y-123102857D01*
X109088572Y-123160000D01*
X109145715Y-123217143D01*
X109202858Y-123331429D01*
X109202858Y-123445714D01*
X109145715Y-123560000D01*
X109088572Y-123617143D01*
X108974286Y-123674286D01*
X108574286Y-123674286D01*
X109717143Y-123217143D02*
X109774286Y-123160000D01*
X109888572Y-123102857D01*
X110174286Y-123102857D01*
X110288572Y-123160000D01*
X110345715Y-123217143D01*
X110402858Y-123331429D01*
X110402858Y-123445714D01*
X110345715Y-123617143D01*
X109660001Y-124302857D01*
X110402858Y-124302857D01*
X120974286Y-123674286D02*
X121145715Y-123731429D01*
X121202858Y-123788571D01*
X121260001Y-123902857D01*
X121260001Y-124074286D01*
X121202858Y-124188571D01*
X121145715Y-124245714D01*
X121031429Y-124302857D01*
X120574286Y-124302857D01*
X120574286Y-123102857D01*
X120974286Y-123102857D01*
X121088572Y-123160000D01*
X121145715Y-123217143D01*
X121202858Y-123331429D01*
X121202858Y-123445714D01*
X121145715Y-123560000D01*
X121088572Y-123617143D01*
X120974286Y-123674286D01*
X120574286Y-123674286D01*
X121660001Y-123102857D02*
X122402858Y-123102857D01*
X122002858Y-123560000D01*
X122174286Y-123560000D01*
X122288572Y-123617143D01*
X122345715Y-123674286D01*
X122402858Y-123788571D01*
X122402858Y-124074286D01*
X122345715Y-124188571D01*
X122288572Y-124245714D01*
X122174286Y-124302857D01*
X121831429Y-124302857D01*
X121717143Y-124245714D01*
X121660001Y-124188571D01*
X96974286Y-113674286D02*
X97145715Y-113731429D01*
X97202858Y-113788571D01*
X97260001Y-113902857D01*
X97260001Y-114074286D01*
X97202858Y-114188571D01*
X97145715Y-114245714D01*
X97031429Y-114302857D01*
X96574286Y-114302857D01*
X96574286Y-113102857D01*
X96974286Y-113102857D01*
X97088572Y-113160000D01*
X97145715Y-113217143D01*
X97202858Y-113331429D01*
X97202858Y-113445714D01*
X97145715Y-113560000D01*
X97088572Y-113617143D01*
X96974286Y-113674286D01*
X96574286Y-113674286D01*
X98288572Y-113502857D02*
X98288572Y-114302857D01*
X98002858Y-113045714D02*
X97717143Y-113902857D01*
X98460001Y-113902857D01*
X108974286Y-113674286D02*
X109145715Y-113731429D01*
X109202858Y-113788571D01*
X109260001Y-113902857D01*
X109260001Y-114074286D01*
X109202858Y-114188571D01*
X109145715Y-114245714D01*
X109031429Y-114302857D01*
X108574286Y-114302857D01*
X108574286Y-113102857D01*
X108974286Y-113102857D01*
X109088572Y-113160000D01*
X109145715Y-113217143D01*
X109202858Y-113331429D01*
X109202858Y-113445714D01*
X109145715Y-113560000D01*
X109088572Y-113617143D01*
X108974286Y-113674286D01*
X108574286Y-113674286D01*
X110345715Y-113102857D02*
X109774286Y-113102857D01*
X109717143Y-113674286D01*
X109774286Y-113617143D01*
X109888572Y-113560000D01*
X110174286Y-113560000D01*
X110288572Y-113617143D01*
X110345715Y-113674286D01*
X110402858Y-113788571D01*
X110402858Y-114074286D01*
X110345715Y-114188571D01*
X110288572Y-114245714D01*
X110174286Y-114302857D01*
X109888572Y-114302857D01*
X109774286Y-114245714D01*
X109717143Y-114188571D01*
X120974286Y-113674286D02*
X121145715Y-113731429D01*
X121202858Y-113788571D01*
X121260001Y-113902857D01*
X121260001Y-114074286D01*
X121202858Y-114188571D01*
X121145715Y-114245714D01*
X121031429Y-114302857D01*
X120574286Y-114302857D01*
X120574286Y-113102857D01*
X120974286Y-113102857D01*
X121088572Y-113160000D01*
X121145715Y-113217143D01*
X121202858Y-113331429D01*
X121202858Y-113445714D01*
X121145715Y-113560000D01*
X121088572Y-113617143D01*
X120974286Y-113674286D01*
X120574286Y-113674286D01*
X122288572Y-113102857D02*
X122060001Y-113102857D01*
X121945715Y-113160000D01*
X121888572Y-113217143D01*
X121774286Y-113388571D01*
X121717143Y-113617143D01*
X121717143Y-114074286D01*
X121774286Y-114188571D01*
X121831429Y-114245714D01*
X121945715Y-114302857D01*
X122174286Y-114302857D01*
X122288572Y-114245714D01*
X122345715Y-114188571D01*
X122402858Y-114074286D01*
X122402858Y-113788571D01*
X122345715Y-113674286D01*
X122288572Y-113617143D01*
X122174286Y-113560000D01*
X121945715Y-113560000D01*
X121831429Y-113617143D01*
X121774286Y-113674286D01*
X121717143Y-113788571D01*
X96974286Y-103674286D02*
X97145715Y-103731429D01*
X97202858Y-103788571D01*
X97260001Y-103902857D01*
X97260001Y-104074286D01*
X97202858Y-104188571D01*
X97145715Y-104245714D01*
X97031429Y-104302857D01*
X96574286Y-104302857D01*
X96574286Y-103102857D01*
X96974286Y-103102857D01*
X97088572Y-103160000D01*
X97145715Y-103217143D01*
X97202858Y-103331429D01*
X97202858Y-103445714D01*
X97145715Y-103560000D01*
X97088572Y-103617143D01*
X96974286Y-103674286D01*
X96574286Y-103674286D01*
X97660001Y-103102857D02*
X98460001Y-103102857D01*
X97945715Y-104302857D01*
X108974286Y-103674286D02*
X109145715Y-103731429D01*
X109202858Y-103788571D01*
X109260001Y-103902857D01*
X109260001Y-104074286D01*
X109202858Y-104188571D01*
X109145715Y-104245714D01*
X109031429Y-104302857D01*
X108574286Y-104302857D01*
X108574286Y-103102857D01*
X108974286Y-103102857D01*
X109088572Y-103160000D01*
X109145715Y-103217143D01*
X109202858Y-103331429D01*
X109202858Y-103445714D01*
X109145715Y-103560000D01*
X109088572Y-103617143D01*
X108974286Y-103674286D01*
X108574286Y-103674286D01*
X109945715Y-103617143D02*
X109831429Y-103560000D01*
X109774286Y-103502857D01*
X109717143Y-103388571D01*
X109717143Y-103331429D01*
X109774286Y-103217143D01*
X109831429Y-103160000D01*
X109945715Y-103102857D01*
X110174286Y-103102857D01*
X110288572Y-103160000D01*
X110345715Y-103217143D01*
X110402858Y-103331429D01*
X110402858Y-103388571D01*
X110345715Y-103502857D01*
X110288572Y-103560000D01*
X110174286Y-103617143D01*
X109945715Y-103617143D01*
X109831429Y-103674286D01*
X109774286Y-103731429D01*
X109717143Y-103845714D01*
X109717143Y-104074286D01*
X109774286Y-104188571D01*
X109831429Y-104245714D01*
X109945715Y-104302857D01*
X110174286Y-104302857D01*
X110288572Y-104245714D01*
X110345715Y-104188571D01*
X110402858Y-104074286D01*
X110402858Y-103845714D01*
X110345715Y-103731429D01*
X110288572Y-103674286D01*
X110174286Y-103617143D01*
X120974286Y-103674286D02*
X121145715Y-103731429D01*
X121202858Y-103788571D01*
X121260001Y-103902857D01*
X121260001Y-104074286D01*
X121202858Y-104188571D01*
X121145715Y-104245714D01*
X121031429Y-104302857D01*
X120574286Y-104302857D01*
X120574286Y-103102857D01*
X120974286Y-103102857D01*
X121088572Y-103160000D01*
X121145715Y-103217143D01*
X121202858Y-103331429D01*
X121202858Y-103445714D01*
X121145715Y-103560000D01*
X121088572Y-103617143D01*
X120974286Y-103674286D01*
X120574286Y-103674286D01*
X121831429Y-104302857D02*
X122060001Y-104302857D01*
X122174286Y-104245714D01*
X122231429Y-104188571D01*
X122345715Y-104017143D01*
X122402858Y-103788571D01*
X122402858Y-103331429D01*
X122345715Y-103217143D01*
X122288572Y-103160000D01*
X122174286Y-103102857D01*
X121945715Y-103102857D01*
X121831429Y-103160000D01*
X121774286Y-103217143D01*
X121717143Y-103331429D01*
X121717143Y-103617143D01*
X121774286Y-103731429D01*
X121831429Y-103788571D01*
X121945715Y-103845714D01*
X122174286Y-103845714D01*
X122288572Y-103788571D01*
X122345715Y-103731429D01*
X122402858Y-103617143D01*
D12*
X82428572Y-82865714D02*
X81428572Y-82865714D01*
X81428572Y-84437143D02*
X81428572Y-81437143D01*
X82857143Y-81437143D01*
X81357143Y-92865714D02*
X82357143Y-92865714D01*
X82785714Y-94437143D02*
X81357143Y-94437143D01*
X81357143Y-91437143D01*
X82785714Y-91437143D01*
X81214286Y-104437143D02*
X81214286Y-101437143D01*
X81928571Y-101437143D01*
X82357143Y-101580000D01*
X82642857Y-101865714D01*
X82785714Y-102151429D01*
X82928571Y-102722857D01*
X82928571Y-103151429D01*
X82785714Y-103722857D01*
X82642857Y-104008571D01*
X82357143Y-104294286D01*
X81928571Y-104437143D01*
X81214286Y-104437143D01*
X82928571Y-114151429D02*
X82785714Y-114294286D01*
X82357143Y-114437143D01*
X82071429Y-114437143D01*
X81642857Y-114294286D01*
X81357143Y-114008571D01*
X81214286Y-113722857D01*
X81071429Y-113151429D01*
X81071429Y-112722857D01*
X81214286Y-112151429D01*
X81357143Y-111865714D01*
X81642857Y-111580000D01*
X82071429Y-111437143D01*
X82357143Y-111437143D01*
X82785714Y-111580000D01*
X82928571Y-111722857D01*
X82214286Y-122865714D02*
X82642857Y-123008571D01*
X82785714Y-123151429D01*
X82928571Y-123437143D01*
X82928571Y-123865714D01*
X82785714Y-124151429D01*
X82642857Y-124294286D01*
X82357143Y-124437143D01*
X81214286Y-124437143D01*
X81214286Y-121437143D01*
X82214286Y-121437143D01*
X82500000Y-121580000D01*
X82642857Y-121722857D01*
X82785714Y-122008571D01*
X82785714Y-122294286D01*
X82642857Y-122580000D01*
X82500000Y-122722857D01*
X82214286Y-122865714D01*
X81214286Y-122865714D01*
X81285715Y-133580000D02*
X82714286Y-133580000D01*
X81000000Y-134437143D02*
X82000000Y-131437143D01*
X83000000Y-134437143D01*
D16*
X114457143Y-128937143D02*
X114342857Y-129051429D01*
X114000000Y-129165714D01*
X113771429Y-129165714D01*
X113428572Y-129051429D01*
X113200000Y-128822857D01*
X113085715Y-128594286D01*
X112971429Y-128137143D01*
X112971429Y-127794286D01*
X113085715Y-127337143D01*
X113200000Y-127108571D01*
X113428572Y-126880000D01*
X113771429Y-126765714D01*
X114000000Y-126765714D01*
X114342857Y-126880000D01*
X114457143Y-126994286D01*
X116628572Y-129165714D02*
X115485715Y-129165714D01*
X115485715Y-126765714D01*
X117428572Y-127908571D02*
X118228572Y-127908571D01*
X118571429Y-129165714D02*
X117428572Y-129165714D01*
X117428572Y-126765714D01*
X118571429Y-126765714D01*
X119485715Y-128480000D02*
X120628572Y-128480000D01*
X119257143Y-129165714D02*
X120057143Y-126765714D01*
X120857143Y-129165714D01*
X123028572Y-129165714D02*
X122228572Y-128022857D01*
X121657144Y-129165714D02*
X121657144Y-126765714D01*
X122571429Y-126765714D01*
X122800001Y-126880000D01*
X122914286Y-126994286D01*
X123028572Y-127222857D01*
X123028572Y-127565714D01*
X122914286Y-127794286D01*
X122800001Y-127908571D01*
X122571429Y-128022857D01*
X121657144Y-128022857D01*
D12*
X94857143Y-119437143D02*
X93142858Y-119437143D01*
X94000000Y-119437143D02*
X94000000Y-116437143D01*
X93714286Y-116865714D01*
X93428572Y-117151429D01*
X93142858Y-117294286D01*
X105142858Y-116722857D02*
X105285715Y-116580000D01*
X105571429Y-116437143D01*
X106285715Y-116437143D01*
X106571429Y-116580000D01*
X106714286Y-116722857D01*
X106857143Y-117008571D01*
X106857143Y-117294286D01*
X106714286Y-117722857D01*
X105000000Y-119437143D01*
X106857143Y-119437143D01*
X117000000Y-116437143D02*
X118857143Y-116437143D01*
X117857143Y-117580000D01*
X118285715Y-117580000D01*
X118571429Y-117722857D01*
X118714286Y-117865714D01*
X118857143Y-118151429D01*
X118857143Y-118865714D01*
X118714286Y-119151429D01*
X118571429Y-119294286D01*
X118285715Y-119437143D01*
X117428572Y-119437143D01*
X117142858Y-119294286D01*
X117000000Y-119151429D01*
X94571429Y-107437143D02*
X94571429Y-109437143D01*
X93857143Y-106294286D02*
X93142858Y-108437143D01*
X95000000Y-108437143D01*
X106714286Y-106437143D02*
X105285715Y-106437143D01*
X105142858Y-107865714D01*
X105285715Y-107722857D01*
X105571429Y-107580000D01*
X106285715Y-107580000D01*
X106571429Y-107722857D01*
X106714286Y-107865714D01*
X106857143Y-108151429D01*
X106857143Y-108865714D01*
X106714286Y-109151429D01*
X106571429Y-109294286D01*
X106285715Y-109437143D01*
X105571429Y-109437143D01*
X105285715Y-109294286D01*
X105142858Y-109151429D01*
X118571429Y-106437143D02*
X118000000Y-106437143D01*
X117714286Y-106580000D01*
X117571429Y-106722857D01*
X117285715Y-107151429D01*
X117142858Y-107722857D01*
X117142858Y-108865714D01*
X117285715Y-109151429D01*
X117428572Y-109294286D01*
X117714286Y-109437143D01*
X118285715Y-109437143D01*
X118571429Y-109294286D01*
X118714286Y-109151429D01*
X118857143Y-108865714D01*
X118857143Y-108151429D01*
X118714286Y-107865714D01*
X118571429Y-107722857D01*
X118285715Y-107580000D01*
X117714286Y-107580000D01*
X117428572Y-107722857D01*
X117285715Y-107865714D01*
X117142858Y-108151429D01*
X93000000Y-96437143D02*
X95000000Y-96437143D01*
X93714286Y-99437143D01*
X105714286Y-97722857D02*
X105428572Y-97580000D01*
X105285715Y-97437143D01*
X105142858Y-97151429D01*
X105142858Y-97008571D01*
X105285715Y-96722857D01*
X105428572Y-96580000D01*
X105714286Y-96437143D01*
X106285715Y-96437143D01*
X106571429Y-96580000D01*
X106714286Y-96722857D01*
X106857143Y-97008571D01*
X106857143Y-97151429D01*
X106714286Y-97437143D01*
X106571429Y-97580000D01*
X106285715Y-97722857D01*
X105714286Y-97722857D01*
X105428572Y-97865714D01*
X105285715Y-98008571D01*
X105142858Y-98294286D01*
X105142858Y-98865714D01*
X105285715Y-99151429D01*
X105428572Y-99294286D01*
X105714286Y-99437143D01*
X106285715Y-99437143D01*
X106571429Y-99294286D01*
X106714286Y-99151429D01*
X106857143Y-98865714D01*
X106857143Y-98294286D01*
X106714286Y-98008571D01*
X106571429Y-97865714D01*
X106285715Y-97722857D01*
X117428572Y-99437143D02*
X118000000Y-99437143D01*
X118285715Y-99294286D01*
X118428572Y-99151429D01*
X118714286Y-98722857D01*
X118857143Y-98151429D01*
X118857143Y-97008571D01*
X118714286Y-96722857D01*
X118571429Y-96580000D01*
X118285715Y-96437143D01*
X117714286Y-96437143D01*
X117428572Y-96580000D01*
X117285715Y-96722857D01*
X117142858Y-97008571D01*
X117142858Y-97722857D01*
X117285715Y-98008571D01*
X117428572Y-98151429D01*
X117714286Y-98294286D01*
X118285715Y-98294286D01*
X118571429Y-98151429D01*
X118714286Y-98008571D01*
X118857143Y-97722857D01*
X105857143Y-126437143D02*
X106142858Y-126437143D01*
X106428572Y-126580000D01*
X106571429Y-126722857D01*
X106714286Y-127008571D01*
X106857143Y-127580000D01*
X106857143Y-128294286D01*
X106714286Y-128865714D01*
X106571429Y-129151429D01*
X106428572Y-129294286D01*
X106142858Y-129437143D01*
X105857143Y-129437143D01*
X105571429Y-129294286D01*
X105428572Y-129151429D01*
X105285715Y-128865714D01*
X105142858Y-128294286D01*
X105142858Y-127580000D01*
X105285715Y-127008571D01*
X105428572Y-126722857D01*
X105571429Y-126580000D01*
X105857143Y-126437143D01*
D11*
X78110000Y-70780000D02*
X59760000Y-70780000D01*
X98920000Y-70780000D02*
X80290000Y-70780000D01*
X119710000Y-70780000D02*
X101090000Y-70780000D01*
X140240000Y-70780000D02*
X121890000Y-70780000D01*
X58750000Y-77480000D02*
X141250000Y-77480000D01*
X58750000Y-71780000D02*
X58750000Y-77480000D01*
D17*
X79200000Y-71810000D02*
X79200000Y-77400000D01*
D11*
X79120000Y-71780000D02*
G75*
G03X78120000Y-70780000I-1000000J0D01*
G01*
X80280000Y-70780000D02*
G75*
G03X79280000Y-71780000I0J-1000000D01*
G01*
D17*
X120800000Y-71810000D02*
X120800000Y-77400000D01*
D11*
X120720000Y-71780000D02*
G75*
G03X119720000Y-70780000I-1000000J0D01*
G01*
X121880000Y-70780000D02*
G75*
G03X120880000Y-71780000I0J-1000000D01*
G01*
D17*
X100000000Y-71810000D02*
X100000000Y-77400000D01*
D15*
X75278572Y-76262857D02*
X75492858Y-76334286D01*
X75564286Y-76405714D01*
X75635715Y-76548571D01*
X75635715Y-76762857D01*
X75564286Y-76905714D01*
X75492858Y-76977143D01*
X75350000Y-77048571D01*
X74778572Y-77048571D01*
X74778572Y-75548571D01*
X75278572Y-75548571D01*
X75421429Y-75620000D01*
X75492858Y-75691429D01*
X75564286Y-75834286D01*
X75564286Y-75977143D01*
X75492858Y-76120000D01*
X75421429Y-76191429D01*
X75278572Y-76262857D01*
X74778572Y-76262857D01*
X77064286Y-77048571D02*
X76207143Y-77048571D01*
X76635715Y-77048571D02*
X76635715Y-75548571D01*
X76492858Y-75762857D01*
X76350000Y-75905714D01*
X76207143Y-75977143D01*
X77635714Y-75691429D02*
X77707143Y-75620000D01*
X77850000Y-75548571D01*
X78207143Y-75548571D01*
X78350000Y-75620000D01*
X78421429Y-75691429D01*
X78492857Y-75834286D01*
X78492857Y-75977143D01*
X78421429Y-76191429D01*
X77564286Y-77048571D01*
X78492857Y-77048571D01*
X80478572Y-76262857D02*
X80692858Y-76334286D01*
X80764286Y-76405714D01*
X80835715Y-76548571D01*
X80835715Y-76762857D01*
X80764286Y-76905714D01*
X80692858Y-76977143D01*
X80550000Y-77048571D01*
X79978572Y-77048571D01*
X79978572Y-75548571D01*
X80478572Y-75548571D01*
X80621429Y-75620000D01*
X80692858Y-75691429D01*
X80764286Y-75834286D01*
X80764286Y-75977143D01*
X80692858Y-76120000D01*
X80621429Y-76191429D01*
X80478572Y-76262857D01*
X79978572Y-76262857D01*
X82264286Y-77048571D02*
X81407143Y-77048571D01*
X81835715Y-77048571D02*
X81835715Y-75548571D01*
X81692858Y-75762857D01*
X81550000Y-75905714D01*
X81407143Y-75977143D01*
X83692857Y-77048571D02*
X82835714Y-77048571D01*
X83264286Y-77048571D02*
X83264286Y-75548571D01*
X83121429Y-75762857D01*
X82978571Y-75905714D01*
X82835714Y-75977143D01*
X96792858Y-76262857D02*
X97007144Y-76334286D01*
X97078572Y-76405714D01*
X97150001Y-76548571D01*
X97150001Y-76762857D01*
X97078572Y-76905714D01*
X97007144Y-76977143D01*
X96864286Y-77048571D01*
X96292858Y-77048571D01*
X96292858Y-75548571D01*
X96792858Y-75548571D01*
X96935715Y-75620000D01*
X97007144Y-75691429D01*
X97078572Y-75834286D01*
X97078572Y-75977143D01*
X97007144Y-76120000D01*
X96935715Y-76191429D01*
X96792858Y-76262857D01*
X96292858Y-76262857D01*
X98007144Y-76191429D02*
X97864286Y-76120000D01*
X97792858Y-76048571D01*
X97721429Y-75905714D01*
X97721429Y-75834286D01*
X97792858Y-75691429D01*
X97864286Y-75620000D01*
X98007144Y-75548571D01*
X98292858Y-75548571D01*
X98435715Y-75620000D01*
X98507144Y-75691429D01*
X98578572Y-75834286D01*
X98578572Y-75905714D01*
X98507144Y-76048571D01*
X98435715Y-76120000D01*
X98292858Y-76191429D01*
X98007144Y-76191429D01*
X97864286Y-76262857D01*
X97792858Y-76334286D01*
X97721429Y-76477143D01*
X97721429Y-76762857D01*
X97792858Y-76905714D01*
X97864286Y-76977143D01*
X98007144Y-77048571D01*
X98292858Y-77048571D01*
X98435715Y-76977143D01*
X98507144Y-76905714D01*
X98578572Y-76762857D01*
X98578572Y-76477143D01*
X98507144Y-76334286D01*
X98435715Y-76262857D01*
X98292858Y-76191429D01*
X101992858Y-76262857D02*
X102207144Y-76334286D01*
X102278572Y-76405714D01*
X102350001Y-76548571D01*
X102350001Y-76762857D01*
X102278572Y-76905714D01*
X102207144Y-76977143D01*
X102064286Y-77048571D01*
X101492858Y-77048571D01*
X101492858Y-75548571D01*
X101992858Y-75548571D01*
X102135715Y-75620000D01*
X102207144Y-75691429D01*
X102278572Y-75834286D01*
X102278572Y-75977143D01*
X102207144Y-76120000D01*
X102135715Y-76191429D01*
X101992858Y-76262857D01*
X101492858Y-76262857D01*
X102850001Y-75548571D02*
X103850001Y-75548571D01*
X103207144Y-77048571D01*
X117592858Y-76262857D02*
X117807144Y-76334286D01*
X117878572Y-76405714D01*
X117950001Y-76548571D01*
X117950001Y-76762857D01*
X117878572Y-76905714D01*
X117807144Y-76977143D01*
X117664286Y-77048571D01*
X117092858Y-77048571D01*
X117092858Y-75548571D01*
X117592858Y-75548571D01*
X117735715Y-75620000D01*
X117807144Y-75691429D01*
X117878572Y-75834286D01*
X117878572Y-75977143D01*
X117807144Y-76120000D01*
X117735715Y-76191429D01*
X117592858Y-76262857D01*
X117092858Y-76262857D01*
X119235715Y-76048571D02*
X119235715Y-77048571D01*
X118878572Y-75477143D02*
X118521429Y-76548571D01*
X119450001Y-76548571D01*
X122792858Y-76262857D02*
X123007144Y-76334286D01*
X123078572Y-76405714D01*
X123150001Y-76548571D01*
X123150001Y-76762857D01*
X123078572Y-76905714D01*
X123007144Y-76977143D01*
X122864286Y-77048571D01*
X122292858Y-77048571D01*
X122292858Y-75548571D01*
X122792858Y-75548571D01*
X122935715Y-75620000D01*
X123007144Y-75691429D01*
X123078572Y-75834286D01*
X123078572Y-75977143D01*
X123007144Y-76120000D01*
X122935715Y-76191429D01*
X122792858Y-76262857D01*
X122292858Y-76262857D01*
X123650001Y-75548571D02*
X124578572Y-75548571D01*
X124078572Y-76120000D01*
X124292858Y-76120000D01*
X124435715Y-76191429D01*
X124507144Y-76262857D01*
X124578572Y-76405714D01*
X124578572Y-76762857D01*
X124507144Y-76905714D01*
X124435715Y-76977143D01*
X124292858Y-77048571D01*
X123864286Y-77048571D01*
X123721429Y-76977143D01*
X123650001Y-76905714D01*
D11*
X59750000Y-70780000D02*
G75*
G03X58750000Y-71780000I0J-1000000D01*
G01*
X101080000Y-70780000D02*
G75*
G03X100080000Y-71780000I0J-1000000D01*
G01*
X99920000Y-71780000D02*
G75*
G03X98920000Y-70780000I-1000000J0D01*
G01*
X141250000Y-71780000D02*
G75*
G03X140250000Y-70780000I-1000000J0D01*
G01*
X141250000Y-71800000D02*
X141250000Y-77480000D01*
D15*
X59678572Y-76262857D02*
X59892858Y-76334286D01*
X59964286Y-76405714D01*
X60035715Y-76548571D01*
X60035715Y-76762857D01*
X59964286Y-76905714D01*
X59892858Y-76977143D01*
X59750000Y-77048571D01*
X59178572Y-77048571D01*
X59178572Y-75548571D01*
X59678572Y-75548571D01*
X59821429Y-75620000D01*
X59892858Y-75691429D01*
X59964286Y-75834286D01*
X59964286Y-75977143D01*
X59892858Y-76120000D01*
X59821429Y-76191429D01*
X59678572Y-76262857D01*
X59178572Y-76262857D01*
X61464286Y-77048571D02*
X60607143Y-77048571D01*
X61035715Y-77048571D02*
X61035715Y-75548571D01*
X60892858Y-75762857D01*
X60750000Y-75905714D01*
X60607143Y-75977143D01*
X62821429Y-75548571D02*
X62107143Y-75548571D01*
X62035714Y-76262857D01*
X62107143Y-76191429D01*
X62250000Y-76120000D01*
X62607143Y-76120000D01*
X62750000Y-76191429D01*
X62821429Y-76262857D01*
X62892857Y-76405714D01*
X62892857Y-76762857D01*
X62821429Y-76905714D01*
X62750000Y-76977143D01*
X62607143Y-77048571D01*
X62250000Y-77048571D01*
X62107143Y-76977143D01*
X62035714Y-76905714D01*
X138392858Y-76262857D02*
X138607144Y-76334286D01*
X138678572Y-76405714D01*
X138750001Y-76548571D01*
X138750001Y-76762857D01*
X138678572Y-76905714D01*
X138607144Y-76977143D01*
X138464286Y-77048571D01*
X137892858Y-77048571D01*
X137892858Y-75548571D01*
X138392858Y-75548571D01*
X138535715Y-75620000D01*
X138607144Y-75691429D01*
X138678572Y-75834286D01*
X138678572Y-75977143D01*
X138607144Y-76120000D01*
X138535715Y-76191429D01*
X138392858Y-76262857D01*
X137892858Y-76262857D01*
X139678572Y-75548571D02*
X139821429Y-75548571D01*
X139964286Y-75620000D01*
X140035715Y-75691429D01*
X140107144Y-75834286D01*
X140178572Y-76120000D01*
X140178572Y-76477143D01*
X140107144Y-76762857D01*
X140035715Y-76905714D01*
X139964286Y-76977143D01*
X139821429Y-77048571D01*
X139678572Y-77048571D01*
X139535715Y-76977143D01*
X139464286Y-76905714D01*
X139392858Y-76762857D01*
X139321429Y-76477143D01*
X139321429Y-76120000D01*
X139392858Y-75834286D01*
X139464286Y-75691429D01*
X139535715Y-75620000D01*
X139678572Y-75548571D01*
D18*
X76500000Y-138830000D02*
G75*
G03X77500000Y-139830000I1000000J0D01*
G01*
X86500000Y-139830000D02*
G75*
G03X87500000Y-138830000I0J1000000D01*
G01*
X77500000Y-130830000D02*
G75*
G03X76500000Y-131830000I0J-1000000D01*
G01*
X87500000Y-131830000D02*
G75*
G03X86500000Y-130830000I-1000000J0D01*
G01*
X76500000Y-138830000D02*
X76500000Y-131830000D01*
X86500000Y-139830000D02*
X77500000Y-139830000D01*
X87500000Y-131830000D02*
X87500000Y-138830000D01*
X77500000Y-130830000D02*
X86500000Y-130830000D01*
X76500000Y-88830000D02*
G75*
G03X77500000Y-89830000I1000000J0D01*
G01*
X86500000Y-89830000D02*
G75*
G03X87500000Y-88830000I0J1000000D01*
G01*
X77500000Y-80830000D02*
G75*
G03X76500000Y-81830000I0J-1000000D01*
G01*
X87500000Y-81830000D02*
G75*
G03X86500000Y-80830000I-1000000J0D01*
G01*
X76500000Y-88830000D02*
X76500000Y-81830000D01*
X86500000Y-89830000D02*
X77500000Y-89830000D01*
X87500000Y-81830000D02*
X87500000Y-88830000D01*
X77500000Y-80830000D02*
X86500000Y-80830000D01*
X76500000Y-98830000D02*
G75*
G03X77500000Y-99830000I1000000J0D01*
G01*
X86500000Y-99830000D02*
G75*
G03X87500000Y-98830000I0J1000000D01*
G01*
X77500000Y-90830000D02*
G75*
G03X76500000Y-91830000I0J-1000000D01*
G01*
X87500000Y-91830000D02*
G75*
G03X86500000Y-90830000I-1000000J0D01*
G01*
X76500000Y-98830000D02*
X76500000Y-91830000D01*
X86500000Y-99830000D02*
X77500000Y-99830000D01*
X87500000Y-91830000D02*
X87500000Y-98830000D01*
X77500000Y-90830000D02*
X86500000Y-90830000D01*
X76500000Y-108830000D02*
G75*
G03X77500000Y-109830000I1000000J0D01*
G01*
X86500000Y-109830000D02*
G75*
G03X87500000Y-108830000I0J1000000D01*
G01*
X77500000Y-100830000D02*
G75*
G03X76500000Y-101830000I0J-1000000D01*
G01*
X87500000Y-101830000D02*
G75*
G03X86500000Y-100830000I-1000000J0D01*
G01*
X76500000Y-108830000D02*
X76500000Y-101830000D01*
X86500000Y-109830000D02*
X77500000Y-109830000D01*
X87500000Y-101830000D02*
X87500000Y-108830000D01*
X77500000Y-100830000D02*
X86500000Y-100830000D01*
X76500000Y-118830000D02*
G75*
G03X77500000Y-119830000I1000000J0D01*
G01*
X86500000Y-119830000D02*
G75*
G03X87500000Y-118830000I0J1000000D01*
G01*
X77500000Y-110830000D02*
G75*
G03X76500000Y-111830000I0J-1000000D01*
G01*
X87500000Y-111830000D02*
G75*
G03X86500000Y-110830000I-1000000J0D01*
G01*
X76500000Y-118830000D02*
X76500000Y-111830000D01*
X86500000Y-119830000D02*
X77500000Y-119830000D01*
X87500000Y-111830000D02*
X87500000Y-118830000D01*
X77500000Y-110830000D02*
X86500000Y-110830000D01*
X76500000Y-128830000D02*
G75*
G03X77500000Y-129830000I1000000J0D01*
G01*
X86500000Y-129830000D02*
G75*
G03X87500000Y-128830000I0J1000000D01*
G01*
X77500000Y-120830000D02*
G75*
G03X76500000Y-121830000I0J-1000000D01*
G01*
X87500000Y-121830000D02*
G75*
G03X86500000Y-120830000I-1000000J0D01*
G01*
X76500000Y-128830000D02*
X76500000Y-121830000D01*
X86500000Y-129830000D02*
X77500000Y-129830000D01*
X87500000Y-121830000D02*
X87500000Y-128830000D01*
X77500000Y-120830000D02*
X86500000Y-120830000D01*
X100500000Y-133830000D02*
G75*
G03X101500000Y-134830000I1000000J0D01*
G01*
X110500000Y-134830000D02*
G75*
G03X111500000Y-133830000I0J1000000D01*
G01*
X101500000Y-125830000D02*
G75*
G03X100500000Y-126830000I0J-1000000D01*
G01*
X111500000Y-126830000D02*
G75*
G03X110500000Y-125830000I-1000000J0D01*
G01*
X100500000Y-133830000D02*
X100500000Y-126830000D01*
X110500000Y-134830000D02*
X101500000Y-134830000D01*
X111500000Y-126830000D02*
X111500000Y-133830000D01*
X101500000Y-125830000D02*
X110500000Y-125830000D01*
X112500000Y-133830000D02*
G75*
G03X113500000Y-134830000I1000000J0D01*
G01*
X122500000Y-134830000D02*
G75*
G03X123500000Y-133830000I0J1000000D01*
G01*
X113500000Y-125830000D02*
G75*
G03X112500000Y-126830000I0J-1000000D01*
G01*
X123500000Y-126830000D02*
G75*
G03X122500000Y-125830000I-1000000J0D01*
G01*
X112500000Y-133830000D02*
X112500000Y-126830000D01*
X122500000Y-134830000D02*
X113500000Y-134830000D01*
X123500000Y-126830000D02*
X123500000Y-133830000D01*
X113500000Y-125830000D02*
X122500000Y-125830000D01*
X88500000Y-123830000D02*
G75*
G03X89500000Y-124830000I1000000J0D01*
G01*
X98500000Y-124830000D02*
G75*
G03X99500000Y-123830000I0J1000000D01*
G01*
X89500000Y-115830000D02*
G75*
G03X88500000Y-116830000I0J-1000000D01*
G01*
X99500000Y-116830000D02*
G75*
G03X98500000Y-115830000I-1000000J0D01*
G01*
X88500000Y-123830000D02*
X88500000Y-116830000D01*
X98500000Y-124830000D02*
X89500000Y-124830000D01*
X99500000Y-116830000D02*
X99500000Y-123830000D01*
X89500000Y-115830000D02*
X98500000Y-115830000D01*
X100500000Y-123830000D02*
G75*
G03X101500000Y-124830000I1000000J0D01*
G01*
X110500000Y-124830000D02*
G75*
G03X111500000Y-123830000I0J1000000D01*
G01*
X101500000Y-115830000D02*
G75*
G03X100500000Y-116830000I0J-1000000D01*
G01*
X111500000Y-116830000D02*
G75*
G03X110500000Y-115830000I-1000000J0D01*
G01*
X100500000Y-123830000D02*
X100500000Y-116830000D01*
X110500000Y-124830000D02*
X101500000Y-124830000D01*
X111500000Y-116830000D02*
X111500000Y-123830000D01*
X101500000Y-115830000D02*
X110500000Y-115830000D01*
X112500000Y-123830000D02*
G75*
G03X113500000Y-124830000I1000000J0D01*
G01*
X122500000Y-124830000D02*
G75*
G03X123500000Y-123830000I0J1000000D01*
G01*
X113500000Y-115830000D02*
G75*
G03X112500000Y-116830000I0J-1000000D01*
G01*
X123500000Y-116830000D02*
G75*
G03X122500000Y-115830000I-1000000J0D01*
G01*
X112500000Y-123830000D02*
X112500000Y-116830000D01*
X122500000Y-124830000D02*
X113500000Y-124830000D01*
X123500000Y-116830000D02*
X123500000Y-123830000D01*
X113500000Y-115830000D02*
X122500000Y-115830000D01*
X88500000Y-113830000D02*
G75*
G03X89500000Y-114830000I1000000J0D01*
G01*
X98500000Y-114830000D02*
G75*
G03X99500000Y-113830000I0J1000000D01*
G01*
X89500000Y-105830000D02*
G75*
G03X88500000Y-106830000I0J-1000000D01*
G01*
X99500000Y-106830000D02*
G75*
G03X98500000Y-105830000I-1000000J0D01*
G01*
X88500000Y-113830000D02*
X88500000Y-106830000D01*
X98500000Y-114830000D02*
X89500000Y-114830000D01*
X99500000Y-106830000D02*
X99500000Y-113830000D01*
X89500000Y-105830000D02*
X98500000Y-105830000D01*
X100500000Y-113830000D02*
G75*
G03X101500000Y-114830000I1000000J0D01*
G01*
X110500000Y-114830000D02*
G75*
G03X111500000Y-113830000I0J1000000D01*
G01*
X101500000Y-105830000D02*
G75*
G03X100500000Y-106830000I0J-1000000D01*
G01*
X111500000Y-106830000D02*
G75*
G03X110500000Y-105830000I-1000000J0D01*
G01*
X100500000Y-113830000D02*
X100500000Y-106830000D01*
X110500000Y-114830000D02*
X101500000Y-114830000D01*
X111500000Y-106830000D02*
X111500000Y-113830000D01*
X101500000Y-105830000D02*
X110500000Y-105830000D01*
X112500000Y-113830000D02*
G75*
G03X113500000Y-114830000I1000000J0D01*
G01*
X122500000Y-114830000D02*
G75*
G03X123500000Y-113830000I0J1000000D01*
G01*
X113500000Y-105830000D02*
G75*
G03X112500000Y-106830000I0J-1000000D01*
G01*
X123500000Y-106830000D02*
G75*
G03X122500000Y-105830000I-1000000J0D01*
G01*
X112500000Y-113830000D02*
X112500000Y-106830000D01*
X122500000Y-114830000D02*
X113500000Y-114830000D01*
X123500000Y-106830000D02*
X123500000Y-113830000D01*
X113500000Y-105830000D02*
X122500000Y-105830000D01*
X88500000Y-103830000D02*
G75*
G03X89500000Y-104830000I1000000J0D01*
G01*
X98500000Y-104830000D02*
G75*
G03X99500000Y-103830000I0J1000000D01*
G01*
X89500000Y-95830000D02*
G75*
G03X88500000Y-96830000I0J-1000000D01*
G01*
X99500000Y-96830000D02*
G75*
G03X98500000Y-95830000I-1000000J0D01*
G01*
X88500000Y-103830000D02*
X88500000Y-96830000D01*
X98500000Y-104830000D02*
X89500000Y-104830000D01*
X99500000Y-96830000D02*
X99500000Y-103830000D01*
X89500000Y-95830000D02*
X98500000Y-95830000D01*
X100500000Y-103830000D02*
G75*
G03X101500000Y-104830000I1000000J0D01*
G01*
X110500000Y-104830000D02*
G75*
G03X111500000Y-103830000I0J1000000D01*
G01*
X101500000Y-95830000D02*
G75*
G03X100500000Y-96830000I0J-1000000D01*
G01*
X111500000Y-96830000D02*
G75*
G03X110500000Y-95830000I-1000000J0D01*
G01*
X100500000Y-103830000D02*
X100500000Y-96830000D01*
X110500000Y-104830000D02*
X101500000Y-104830000D01*
X111500000Y-96830000D02*
X111500000Y-103830000D01*
X101500000Y-95830000D02*
X110500000Y-95830000D01*
X112500000Y-103830000D02*
G75*
G03X113500000Y-104830000I1000000J0D01*
G01*
X122500000Y-104830000D02*
G75*
G03X123500000Y-103830000I0J1000000D01*
G01*
X113500000Y-95830000D02*
G75*
G03X112500000Y-96830000I0J-1000000D01*
G01*
X123500000Y-96830000D02*
G75*
G03X122500000Y-95830000I-1000000J0D01*
G01*
X112500000Y-103830000D02*
X112500000Y-96830000D01*
X122500000Y-104830000D02*
X113500000Y-104830000D01*
X123500000Y-96830000D02*
X123500000Y-103830000D01*
X113500000Y-95830000D02*
X122500000Y-95830000D01*
D19*
G36*
X68834500Y-53612079D02*
X68866622Y-53650913D01*
X68894949Y-53685733D01*
X68918007Y-53714679D01*
X68934319Y-53735892D01*
X68942414Y-53747511D01*
X68943031Y-53749001D01*
X68937101Y-53756501D01*
X68921688Y-53771405D01*
X68899597Y-53791065D01*
X68888252Y-53800734D01*
X68834003Y-53846375D01*
X67390766Y-53846375D01*
X67337145Y-53780891D01*
X67315135Y-53753427D01*
X67297480Y-53730282D01*
X67286289Y-53714293D01*
X67283404Y-53708649D01*
X67289206Y-53701805D01*
X67305510Y-53686446D01*
X67330550Y-53664134D01*
X67362562Y-53636429D01*
X67399781Y-53604894D01*
X67415714Y-53591571D01*
X67548143Y-53481250D01*
X68725437Y-53481250D01*
X68834500Y-53612079D01*
X68834500Y-53612079D01*
G37*
X68834500Y-53612079D02*
X68866622Y-53650913D01*
X68894949Y-53685733D01*
X68918007Y-53714679D01*
X68934319Y-53735892D01*
X68942414Y-53747511D01*
X68943031Y-53749001D01*
X68937101Y-53756501D01*
X68921688Y-53771405D01*
X68899597Y-53791065D01*
X68888252Y-53800734D01*
X68834003Y-53846375D01*
X67390766Y-53846375D01*
X67337145Y-53780891D01*
X67315135Y-53753427D01*
X67297480Y-53730282D01*
X67286289Y-53714293D01*
X67283404Y-53708649D01*
X67289206Y-53701805D01*
X67305510Y-53686446D01*
X67330550Y-53664134D01*
X67362562Y-53636429D01*
X67399781Y-53604894D01*
X67415714Y-53591571D01*
X67548143Y-53481250D01*
X68725437Y-53481250D01*
X68834500Y-53612079D01*
G36*
X73978000Y-53612079D02*
X74010122Y-53650913D01*
X74038449Y-53685733D01*
X74061507Y-53714679D01*
X74077819Y-53735892D01*
X74085914Y-53747511D01*
X74086531Y-53749001D01*
X74080601Y-53756501D01*
X74065188Y-53771405D01*
X74043097Y-53791065D01*
X74031752Y-53800734D01*
X73977503Y-53846375D01*
X72534266Y-53846375D01*
X72480645Y-53780891D01*
X72458635Y-53753427D01*
X72440980Y-53730282D01*
X72429789Y-53714293D01*
X72426904Y-53708649D01*
X72432706Y-53701805D01*
X72449010Y-53686446D01*
X72474050Y-53664134D01*
X72506062Y-53636429D01*
X72543281Y-53604894D01*
X72559214Y-53591571D01*
X72691643Y-53481250D01*
X73868937Y-53481250D01*
X73978000Y-53612079D01*
X73978000Y-53612079D01*
G37*
X73978000Y-53612079D02*
X74010122Y-53650913D01*
X74038449Y-53685733D01*
X74061507Y-53714679D01*
X74077819Y-53735892D01*
X74085914Y-53747511D01*
X74086531Y-53749001D01*
X74080601Y-53756501D01*
X74065188Y-53771405D01*
X74043097Y-53791065D01*
X74031752Y-53800734D01*
X73977503Y-53846375D01*
X72534266Y-53846375D01*
X72480645Y-53780891D01*
X72458635Y-53753427D01*
X72440980Y-53730282D01*
X72429789Y-53714293D01*
X72426904Y-53708649D01*
X72432706Y-53701805D01*
X72449010Y-53686446D01*
X72474050Y-53664134D01*
X72506062Y-53636429D01*
X72543281Y-53604894D01*
X72559214Y-53591571D01*
X72691643Y-53481250D01*
X73868937Y-53481250D01*
X73978000Y-53612079D01*
G36*
X76549750Y-53612079D02*
X76581872Y-53650913D01*
X76610199Y-53685733D01*
X76633257Y-53714679D01*
X76649569Y-53735892D01*
X76657664Y-53747511D01*
X76658281Y-53749001D01*
X76652351Y-53756501D01*
X76636938Y-53771405D01*
X76614847Y-53791065D01*
X76603502Y-53800734D01*
X76549253Y-53846375D01*
X75106016Y-53846375D01*
X75052395Y-53780891D01*
X75030385Y-53753427D01*
X75012730Y-53730282D01*
X75001539Y-53714293D01*
X74998654Y-53708649D01*
X75004456Y-53701805D01*
X75020760Y-53686446D01*
X75045800Y-53664134D01*
X75077812Y-53636429D01*
X75115031Y-53604894D01*
X75130964Y-53591571D01*
X75263393Y-53481250D01*
X76440687Y-53481250D01*
X76549750Y-53612079D01*
X76549750Y-53612079D01*
G37*
X76549750Y-53612079D02*
X76581872Y-53650913D01*
X76610199Y-53685733D01*
X76633257Y-53714679D01*
X76649569Y-53735892D01*
X76657664Y-53747511D01*
X76658281Y-53749001D01*
X76652351Y-53756501D01*
X76636938Y-53771405D01*
X76614847Y-53791065D01*
X76603502Y-53800734D01*
X76549253Y-53846375D01*
X75106016Y-53846375D01*
X75052395Y-53780891D01*
X75030385Y-53753427D01*
X75012730Y-53730282D01*
X75001539Y-53714293D01*
X74998654Y-53708649D01*
X75004456Y-53701805D01*
X75020760Y-53686446D01*
X75045800Y-53664134D01*
X75077812Y-53636429D01*
X75115031Y-53604894D01*
X75130964Y-53591571D01*
X75263393Y-53481250D01*
X76440687Y-53481250D01*
X76549750Y-53612079D01*
G36*
X69344301Y-52451547D02*
X69340940Y-52473679D01*
X69335364Y-52508427D01*
X69327830Y-52554279D01*
X69318598Y-52609725D01*
X69307929Y-52673253D01*
X69296079Y-52743353D01*
X69283310Y-52818513D01*
X69269880Y-52897223D01*
X69256048Y-52977971D01*
X69242073Y-53059247D01*
X69228215Y-53139539D01*
X69214733Y-53217336D01*
X69201886Y-53291128D01*
X69189933Y-53359403D01*
X69179133Y-53420650D01*
X69169745Y-53473358D01*
X69162029Y-53516016D01*
X69156244Y-53547113D01*
X69153514Y-53561041D01*
X69144554Y-53577363D01*
X69123829Y-53600399D01*
X69092974Y-53628349D01*
X69090416Y-53630494D01*
X69065018Y-53651484D01*
X69044611Y-53667964D01*
X69031940Y-53677739D01*
X69029187Y-53679471D01*
X69023673Y-53673586D01*
X69009563Y-53657263D01*
X68988377Y-53632297D01*
X68961637Y-53600484D01*
X68930862Y-53563618D01*
X68920714Y-53551413D01*
X68888713Y-53512460D01*
X68860234Y-53476980D01*
X68836850Y-53447001D01*
X68820135Y-53424548D01*
X68811662Y-53411649D01*
X68810989Y-53410060D01*
X68811772Y-53400537D01*
X68814966Y-53377294D01*
X68820250Y-53342250D01*
X68827301Y-53297323D01*
X68835799Y-53244434D01*
X68845422Y-53185499D01*
X68855849Y-53122438D01*
X68866758Y-53057169D01*
X68877827Y-52991611D01*
X68888736Y-52927682D01*
X68899163Y-52867302D01*
X68908786Y-52812388D01*
X68917285Y-52764860D01*
X68924337Y-52726635D01*
X68929621Y-52699634D01*
X68931379Y-52691469D01*
X68938482Y-52682818D01*
X68957473Y-52668206D01*
X68988817Y-52647333D01*
X69032975Y-52619898D01*
X69090412Y-52585604D01*
X69138203Y-52557682D01*
X69189593Y-52528057D01*
X69236458Y-52501411D01*
X69277075Y-52478694D01*
X69309720Y-52460858D01*
X69332668Y-52448852D01*
X69344195Y-52443628D01*
X69345187Y-52443542D01*
X69344301Y-52451547D01*
X69344301Y-52451547D01*
G37*
X69344301Y-52451547D02*
X69340940Y-52473679D01*
X69335364Y-52508427D01*
X69327830Y-52554279D01*
X69318598Y-52609725D01*
X69307929Y-52673253D01*
X69296079Y-52743353D01*
X69283310Y-52818513D01*
X69269880Y-52897223D01*
X69256048Y-52977971D01*
X69242073Y-53059247D01*
X69228215Y-53139539D01*
X69214733Y-53217336D01*
X69201886Y-53291128D01*
X69189933Y-53359403D01*
X69179133Y-53420650D01*
X69169745Y-53473358D01*
X69162029Y-53516016D01*
X69156244Y-53547113D01*
X69153514Y-53561041D01*
X69144554Y-53577363D01*
X69123829Y-53600399D01*
X69092974Y-53628349D01*
X69090416Y-53630494D01*
X69065018Y-53651484D01*
X69044611Y-53667964D01*
X69031940Y-53677739D01*
X69029187Y-53679471D01*
X69023673Y-53673586D01*
X69009563Y-53657263D01*
X68988377Y-53632297D01*
X68961637Y-53600484D01*
X68930862Y-53563618D01*
X68920714Y-53551413D01*
X68888713Y-53512460D01*
X68860234Y-53476980D01*
X68836850Y-53447001D01*
X68820135Y-53424548D01*
X68811662Y-53411649D01*
X68810989Y-53410060D01*
X68811772Y-53400537D01*
X68814966Y-53377294D01*
X68820250Y-53342250D01*
X68827301Y-53297323D01*
X68835799Y-53244434D01*
X68845422Y-53185499D01*
X68855849Y-53122438D01*
X68866758Y-53057169D01*
X68877827Y-52991611D01*
X68888736Y-52927682D01*
X68899163Y-52867302D01*
X68908786Y-52812388D01*
X68917285Y-52764860D01*
X68924337Y-52726635D01*
X68929621Y-52699634D01*
X68931379Y-52691469D01*
X68938482Y-52682818D01*
X68957473Y-52668206D01*
X68988817Y-52647333D01*
X69032975Y-52619898D01*
X69090412Y-52585604D01*
X69138203Y-52557682D01*
X69189593Y-52528057D01*
X69236458Y-52501411D01*
X69277075Y-52478694D01*
X69309720Y-52460858D01*
X69332668Y-52448852D01*
X69344195Y-52443628D01*
X69345187Y-52443542D01*
X69344301Y-52451547D01*
G36*
X71916051Y-52451547D02*
X71912690Y-52473679D01*
X71907114Y-52508427D01*
X71899580Y-52554279D01*
X71890348Y-52609725D01*
X71879679Y-52673253D01*
X71867829Y-52743353D01*
X71855060Y-52818513D01*
X71841630Y-52897223D01*
X71827798Y-52977971D01*
X71813823Y-53059247D01*
X71799965Y-53139539D01*
X71786483Y-53217336D01*
X71773636Y-53291128D01*
X71761683Y-53359403D01*
X71750883Y-53420650D01*
X71741495Y-53473358D01*
X71733779Y-53516016D01*
X71727994Y-53547113D01*
X71725264Y-53561041D01*
X71716304Y-53577363D01*
X71695579Y-53600399D01*
X71664724Y-53628349D01*
X71662166Y-53630494D01*
X71636768Y-53651484D01*
X71616361Y-53667964D01*
X71603690Y-53677739D01*
X71600937Y-53679471D01*
X71595423Y-53673586D01*
X71581313Y-53657263D01*
X71560127Y-53632297D01*
X71533387Y-53600484D01*
X71502612Y-53563618D01*
X71492464Y-53551413D01*
X71460463Y-53512460D01*
X71431984Y-53476980D01*
X71408600Y-53447001D01*
X71391885Y-53424548D01*
X71383412Y-53411649D01*
X71382739Y-53410060D01*
X71383522Y-53400537D01*
X71386716Y-53377294D01*
X71392000Y-53342250D01*
X71399051Y-53297323D01*
X71407549Y-53244434D01*
X71417172Y-53185499D01*
X71427599Y-53122438D01*
X71438508Y-53057169D01*
X71449577Y-52991611D01*
X71460486Y-52927682D01*
X71470913Y-52867302D01*
X71480536Y-52812388D01*
X71489035Y-52764860D01*
X71496087Y-52726635D01*
X71501371Y-52699634D01*
X71503129Y-52691469D01*
X71510232Y-52682818D01*
X71529223Y-52668206D01*
X71560567Y-52647333D01*
X71604725Y-52619898D01*
X71662162Y-52585604D01*
X71709953Y-52557682D01*
X71761343Y-52528057D01*
X71808208Y-52501411D01*
X71848825Y-52478694D01*
X71881470Y-52460858D01*
X71904418Y-52448852D01*
X71915945Y-52443628D01*
X71916937Y-52443542D01*
X71916051Y-52451547D01*
X71916051Y-52451547D01*
G37*
X71916051Y-52451547D02*
X71912690Y-52473679D01*
X71907114Y-52508427D01*
X71899580Y-52554279D01*
X71890348Y-52609725D01*
X71879679Y-52673253D01*
X71867829Y-52743353D01*
X71855060Y-52818513D01*
X71841630Y-52897223D01*
X71827798Y-52977971D01*
X71813823Y-53059247D01*
X71799965Y-53139539D01*
X71786483Y-53217336D01*
X71773636Y-53291128D01*
X71761683Y-53359403D01*
X71750883Y-53420650D01*
X71741495Y-53473358D01*
X71733779Y-53516016D01*
X71727994Y-53547113D01*
X71725264Y-53561041D01*
X71716304Y-53577363D01*
X71695579Y-53600399D01*
X71664724Y-53628349D01*
X71662166Y-53630494D01*
X71636768Y-53651484D01*
X71616361Y-53667964D01*
X71603690Y-53677739D01*
X71600937Y-53679471D01*
X71595423Y-53673586D01*
X71581313Y-53657263D01*
X71560127Y-53632297D01*
X71533387Y-53600484D01*
X71502612Y-53563618D01*
X71492464Y-53551413D01*
X71460463Y-53512460D01*
X71431984Y-53476980D01*
X71408600Y-53447001D01*
X71391885Y-53424548D01*
X71383412Y-53411649D01*
X71382739Y-53410060D01*
X71383522Y-53400537D01*
X71386716Y-53377294D01*
X71392000Y-53342250D01*
X71399051Y-53297323D01*
X71407549Y-53244434D01*
X71417172Y-53185499D01*
X71427599Y-53122438D01*
X71438508Y-53057169D01*
X71449577Y-52991611D01*
X71460486Y-52927682D01*
X71470913Y-52867302D01*
X71480536Y-52812388D01*
X71489035Y-52764860D01*
X71496087Y-52726635D01*
X71501371Y-52699634D01*
X71503129Y-52691469D01*
X71510232Y-52682818D01*
X71529223Y-52668206D01*
X71560567Y-52647333D01*
X71604725Y-52619898D01*
X71662162Y-52585604D01*
X71709953Y-52557682D01*
X71761343Y-52528057D01*
X71808208Y-52501411D01*
X71848825Y-52478694D01*
X71881470Y-52460858D01*
X71904418Y-52448852D01*
X71915945Y-52443628D01*
X71916937Y-52443542D01*
X71916051Y-52451547D01*
G36*
X74487801Y-52451547D02*
X74484440Y-52473679D01*
X74478864Y-52508427D01*
X74471330Y-52554279D01*
X74462098Y-52609725D01*
X74451429Y-52673253D01*
X74439579Y-52743353D01*
X74426810Y-52818513D01*
X74413380Y-52897223D01*
X74399548Y-52977971D01*
X74385573Y-53059247D01*
X74371715Y-53139539D01*
X74358233Y-53217336D01*
X74345386Y-53291128D01*
X74333433Y-53359403D01*
X74322633Y-53420650D01*
X74313245Y-53473358D01*
X74305529Y-53516016D01*
X74299744Y-53547113D01*
X74297014Y-53561041D01*
X74288054Y-53577363D01*
X74267329Y-53600399D01*
X74236474Y-53628349D01*
X74233916Y-53630494D01*
X74208518Y-53651484D01*
X74188111Y-53667964D01*
X74175440Y-53677739D01*
X74172687Y-53679471D01*
X74167173Y-53673586D01*
X74153063Y-53657263D01*
X74131877Y-53632297D01*
X74105137Y-53600484D01*
X74074362Y-53563618D01*
X74064214Y-53551413D01*
X74032213Y-53512460D01*
X74003734Y-53476980D01*
X73980350Y-53447001D01*
X73963635Y-53424548D01*
X73955162Y-53411649D01*
X73954489Y-53410060D01*
X73955272Y-53400537D01*
X73958466Y-53377294D01*
X73963750Y-53342250D01*
X73970801Y-53297323D01*
X73979299Y-53244434D01*
X73988922Y-53185499D01*
X73999349Y-53122438D01*
X74010258Y-53057169D01*
X74021327Y-52991611D01*
X74032236Y-52927682D01*
X74042663Y-52867302D01*
X74052286Y-52812388D01*
X74060785Y-52764860D01*
X74067837Y-52726635D01*
X74073121Y-52699634D01*
X74074879Y-52691469D01*
X74081982Y-52682818D01*
X74100973Y-52668206D01*
X74132317Y-52647333D01*
X74176475Y-52619898D01*
X74233912Y-52585604D01*
X74281703Y-52557682D01*
X74333093Y-52528057D01*
X74379958Y-52501411D01*
X74420575Y-52478694D01*
X74453220Y-52460858D01*
X74476168Y-52448852D01*
X74487695Y-52443628D01*
X74488687Y-52443542D01*
X74487801Y-52451547D01*
X74487801Y-52451547D01*
G37*
X74487801Y-52451547D02*
X74484440Y-52473679D01*
X74478864Y-52508427D01*
X74471330Y-52554279D01*
X74462098Y-52609725D01*
X74451429Y-52673253D01*
X74439579Y-52743353D01*
X74426810Y-52818513D01*
X74413380Y-52897223D01*
X74399548Y-52977971D01*
X74385573Y-53059247D01*
X74371715Y-53139539D01*
X74358233Y-53217336D01*
X74345386Y-53291128D01*
X74333433Y-53359403D01*
X74322633Y-53420650D01*
X74313245Y-53473358D01*
X74305529Y-53516016D01*
X74299744Y-53547113D01*
X74297014Y-53561041D01*
X74288054Y-53577363D01*
X74267329Y-53600399D01*
X74236474Y-53628349D01*
X74233916Y-53630494D01*
X74208518Y-53651484D01*
X74188111Y-53667964D01*
X74175440Y-53677739D01*
X74172687Y-53679471D01*
X74167173Y-53673586D01*
X74153063Y-53657263D01*
X74131877Y-53632297D01*
X74105137Y-53600484D01*
X74074362Y-53563618D01*
X74064214Y-53551413D01*
X74032213Y-53512460D01*
X74003734Y-53476980D01*
X73980350Y-53447001D01*
X73963635Y-53424548D01*
X73955162Y-53411649D01*
X73954489Y-53410060D01*
X73955272Y-53400537D01*
X73958466Y-53377294D01*
X73963750Y-53342250D01*
X73970801Y-53297323D01*
X73979299Y-53244434D01*
X73988922Y-53185499D01*
X73999349Y-53122438D01*
X74010258Y-53057169D01*
X74021327Y-52991611D01*
X74032236Y-52927682D01*
X74042663Y-52867302D01*
X74052286Y-52812388D01*
X74060785Y-52764860D01*
X74067837Y-52726635D01*
X74073121Y-52699634D01*
X74074879Y-52691469D01*
X74081982Y-52682818D01*
X74100973Y-52668206D01*
X74132317Y-52647333D01*
X74176475Y-52619898D01*
X74233912Y-52585604D01*
X74281703Y-52557682D01*
X74333093Y-52528057D01*
X74379958Y-52501411D01*
X74420575Y-52478694D01*
X74453220Y-52460858D01*
X74476168Y-52448852D01*
X74487695Y-52443628D01*
X74488687Y-52443542D01*
X74487801Y-52451547D01*
G36*
X67286627Y-52431166D02*
X67305213Y-52440939D01*
X67332942Y-52456083D01*
X67367524Y-52475296D01*
X67406667Y-52497275D01*
X67448078Y-52520721D01*
X67489466Y-52544330D01*
X67528540Y-52566802D01*
X67563008Y-52586834D01*
X67590578Y-52603126D01*
X67608959Y-52614375D01*
X67615647Y-52619001D01*
X67614611Y-52626804D01*
X67611136Y-52648423D01*
X67605540Y-52682042D01*
X67598136Y-52725843D01*
X67589240Y-52778008D01*
X67579168Y-52836720D01*
X67568236Y-52900161D01*
X67556758Y-52966514D01*
X67545051Y-53033962D01*
X67533430Y-53100687D01*
X67522211Y-53164871D01*
X67511708Y-53224697D01*
X67502238Y-53278347D01*
X67494116Y-53324005D01*
X67487657Y-53359852D01*
X67483178Y-53384071D01*
X67480993Y-53394845D01*
X67480912Y-53395116D01*
X67474609Y-53401475D01*
X67458267Y-53416107D01*
X67434016Y-53437214D01*
X67403986Y-53462999D01*
X67370307Y-53491663D01*
X67335107Y-53521409D01*
X67300518Y-53550440D01*
X67268669Y-53576958D01*
X67241689Y-53599165D01*
X67221708Y-53615264D01*
X67210857Y-53623457D01*
X67209591Y-53624125D01*
X67203364Y-53618431D01*
X67189216Y-53603002D01*
X67169366Y-53580315D01*
X67150085Y-53557671D01*
X67127316Y-53529658D01*
X67109009Y-53505277D01*
X67097302Y-53487496D01*
X67094124Y-53480009D01*
X67095462Y-53469812D01*
X67099290Y-53445757D01*
X67105333Y-53409408D01*
X67113314Y-53362333D01*
X67122959Y-53306097D01*
X67133990Y-53242267D01*
X67146133Y-53172408D01*
X67159110Y-53098086D01*
X67172647Y-53020867D01*
X67186467Y-52942318D01*
X67200294Y-52864005D01*
X67213852Y-52787493D01*
X67226866Y-52714348D01*
X67239060Y-52646137D01*
X67250156Y-52584426D01*
X67259881Y-52530781D01*
X67267957Y-52486767D01*
X67274109Y-52453950D01*
X67278061Y-52433898D01*
X67279477Y-52428064D01*
X67286627Y-52431166D01*
X67286627Y-52431166D01*
G37*
X67286627Y-52431166D02*
X67305213Y-52440939D01*
X67332942Y-52456083D01*
X67367524Y-52475296D01*
X67406667Y-52497275D01*
X67448078Y-52520721D01*
X67489466Y-52544330D01*
X67528540Y-52566802D01*
X67563008Y-52586834D01*
X67590578Y-52603126D01*
X67608959Y-52614375D01*
X67615647Y-52619001D01*
X67614611Y-52626804D01*
X67611136Y-52648423D01*
X67605540Y-52682042D01*
X67598136Y-52725843D01*
X67589240Y-52778008D01*
X67579168Y-52836720D01*
X67568236Y-52900161D01*
X67556758Y-52966514D01*
X67545051Y-53033962D01*
X67533430Y-53100687D01*
X67522211Y-53164871D01*
X67511708Y-53224697D01*
X67502238Y-53278347D01*
X67494116Y-53324005D01*
X67487657Y-53359852D01*
X67483178Y-53384071D01*
X67480993Y-53394845D01*
X67480912Y-53395116D01*
X67474609Y-53401475D01*
X67458267Y-53416107D01*
X67434016Y-53437214D01*
X67403986Y-53462999D01*
X67370307Y-53491663D01*
X67335107Y-53521409D01*
X67300518Y-53550440D01*
X67268669Y-53576958D01*
X67241689Y-53599165D01*
X67221708Y-53615264D01*
X67210857Y-53623457D01*
X67209591Y-53624125D01*
X67203364Y-53618431D01*
X67189216Y-53603002D01*
X67169366Y-53580315D01*
X67150085Y-53557671D01*
X67127316Y-53529658D01*
X67109009Y-53505277D01*
X67097302Y-53487496D01*
X67094124Y-53480009D01*
X67095462Y-53469812D01*
X67099290Y-53445757D01*
X67105333Y-53409408D01*
X67113314Y-53362333D01*
X67122959Y-53306097D01*
X67133990Y-53242267D01*
X67146133Y-53172408D01*
X67159110Y-53098086D01*
X67172647Y-53020867D01*
X67186467Y-52942318D01*
X67200294Y-52864005D01*
X67213852Y-52787493D01*
X67226866Y-52714348D01*
X67239060Y-52646137D01*
X67250156Y-52584426D01*
X67259881Y-52530781D01*
X67267957Y-52486767D01*
X67274109Y-52453950D01*
X67278061Y-52433898D01*
X67279477Y-52428064D01*
X67286627Y-52431166D01*
G36*
X69858377Y-52431166D02*
X69876963Y-52440939D01*
X69904692Y-52456083D01*
X69939274Y-52475296D01*
X69978417Y-52497275D01*
X70019828Y-52520721D01*
X70061216Y-52544330D01*
X70100290Y-52566802D01*
X70134758Y-52586834D01*
X70162328Y-52603126D01*
X70180709Y-52614375D01*
X70187397Y-52619001D01*
X70186361Y-52626804D01*
X70182886Y-52648423D01*
X70177290Y-52682042D01*
X70169886Y-52725843D01*
X70160990Y-52778008D01*
X70150918Y-52836720D01*
X70139986Y-52900161D01*
X70128508Y-52966514D01*
X70116801Y-53033962D01*
X70105180Y-53100687D01*
X70093961Y-53164871D01*
X70083458Y-53224697D01*
X70073988Y-53278347D01*
X70065866Y-53324005D01*
X70059407Y-53359852D01*
X70054928Y-53384071D01*
X70052743Y-53394845D01*
X70052662Y-53395116D01*
X70046359Y-53401475D01*
X70030017Y-53416107D01*
X70005766Y-53437214D01*
X69975736Y-53462999D01*
X69942057Y-53491663D01*
X69906857Y-53521409D01*
X69872268Y-53550440D01*
X69840419Y-53576958D01*
X69813439Y-53599165D01*
X69793458Y-53615264D01*
X69782607Y-53623457D01*
X69781341Y-53624125D01*
X69775114Y-53618431D01*
X69760966Y-53603002D01*
X69741116Y-53580315D01*
X69721835Y-53557671D01*
X69699066Y-53529658D01*
X69680759Y-53505277D01*
X69669052Y-53487496D01*
X69665875Y-53480009D01*
X69667212Y-53469812D01*
X69671040Y-53445757D01*
X69677083Y-53409408D01*
X69685064Y-53362333D01*
X69694709Y-53306097D01*
X69705740Y-53242267D01*
X69717883Y-53172408D01*
X69730860Y-53098086D01*
X69744397Y-53020867D01*
X69758217Y-52942318D01*
X69772044Y-52864005D01*
X69785602Y-52787493D01*
X69798616Y-52714348D01*
X69810810Y-52646137D01*
X69821906Y-52584426D01*
X69831631Y-52530781D01*
X69839707Y-52486767D01*
X69845859Y-52453950D01*
X69849811Y-52433898D01*
X69851227Y-52428064D01*
X69858377Y-52431166D01*
X69858377Y-52431166D01*
G37*
X69858377Y-52431166D02*
X69876963Y-52440939D01*
X69904692Y-52456083D01*
X69939274Y-52475296D01*
X69978417Y-52497275D01*
X70019828Y-52520721D01*
X70061216Y-52544330D01*
X70100290Y-52566802D01*
X70134758Y-52586834D01*
X70162328Y-52603126D01*
X70180709Y-52614375D01*
X70187397Y-52619001D01*
X70186361Y-52626804D01*
X70182886Y-52648423D01*
X70177290Y-52682042D01*
X70169886Y-52725843D01*
X70160990Y-52778008D01*
X70150918Y-52836720D01*
X70139986Y-52900161D01*
X70128508Y-52966514D01*
X70116801Y-53033962D01*
X70105180Y-53100687D01*
X70093961Y-53164871D01*
X70083458Y-53224697D01*
X70073988Y-53278347D01*
X70065866Y-53324005D01*
X70059407Y-53359852D01*
X70054928Y-53384071D01*
X70052743Y-53394845D01*
X70052662Y-53395116D01*
X70046359Y-53401475D01*
X70030017Y-53416107D01*
X70005766Y-53437214D01*
X69975736Y-53462999D01*
X69942057Y-53491663D01*
X69906857Y-53521409D01*
X69872268Y-53550440D01*
X69840419Y-53576958D01*
X69813439Y-53599165D01*
X69793458Y-53615264D01*
X69782607Y-53623457D01*
X69781341Y-53624125D01*
X69775114Y-53618431D01*
X69760966Y-53603002D01*
X69741116Y-53580315D01*
X69721835Y-53557671D01*
X69699066Y-53529658D01*
X69680759Y-53505277D01*
X69669052Y-53487496D01*
X69665875Y-53480009D01*
X69667212Y-53469812D01*
X69671040Y-53445757D01*
X69677083Y-53409408D01*
X69685064Y-53362333D01*
X69694709Y-53306097D01*
X69705740Y-53242267D01*
X69717883Y-53172408D01*
X69730860Y-53098086D01*
X69744397Y-53020867D01*
X69758217Y-52942318D01*
X69772044Y-52864005D01*
X69785602Y-52787493D01*
X69798616Y-52714348D01*
X69810810Y-52646137D01*
X69821906Y-52584426D01*
X69831631Y-52530781D01*
X69839707Y-52486767D01*
X69845859Y-52453950D01*
X69849811Y-52433898D01*
X69851227Y-52428064D01*
X69858377Y-52431166D01*
G36*
X75001877Y-52431166D02*
X75020463Y-52440939D01*
X75048192Y-52456083D01*
X75082774Y-52475296D01*
X75121917Y-52497275D01*
X75163328Y-52520721D01*
X75204716Y-52544330D01*
X75243790Y-52566802D01*
X75278258Y-52586834D01*
X75305828Y-52603126D01*
X75324209Y-52614375D01*
X75330897Y-52619001D01*
X75329861Y-52626804D01*
X75326386Y-52648423D01*
X75320790Y-52682042D01*
X75313386Y-52725843D01*
X75304490Y-52778008D01*
X75294418Y-52836720D01*
X75283486Y-52900161D01*
X75272008Y-52966514D01*
X75260301Y-53033962D01*
X75248680Y-53100687D01*
X75237461Y-53164871D01*
X75226958Y-53224697D01*
X75217488Y-53278347D01*
X75209366Y-53324005D01*
X75202907Y-53359852D01*
X75198428Y-53384071D01*
X75196243Y-53394845D01*
X75196162Y-53395116D01*
X75189859Y-53401475D01*
X75173517Y-53416107D01*
X75149266Y-53437214D01*
X75119236Y-53462999D01*
X75085557Y-53491663D01*
X75050357Y-53521409D01*
X75015768Y-53550440D01*
X74983919Y-53576958D01*
X74956939Y-53599165D01*
X74936958Y-53615264D01*
X74926107Y-53623457D01*
X74924841Y-53624125D01*
X74918614Y-53618431D01*
X74904466Y-53603002D01*
X74884616Y-53580315D01*
X74865335Y-53557671D01*
X74842566Y-53529658D01*
X74824259Y-53505277D01*
X74812552Y-53487496D01*
X74809375Y-53480009D01*
X74810712Y-53469812D01*
X74814540Y-53445757D01*
X74820583Y-53409408D01*
X74828564Y-53362333D01*
X74838209Y-53306097D01*
X74849240Y-53242267D01*
X74861383Y-53172408D01*
X74874360Y-53098086D01*
X74887897Y-53020867D01*
X74901717Y-52942318D01*
X74915544Y-52864005D01*
X74929102Y-52787493D01*
X74942116Y-52714348D01*
X74954310Y-52646137D01*
X74965406Y-52584426D01*
X74975131Y-52530781D01*
X74983207Y-52486767D01*
X74989359Y-52453950D01*
X74993311Y-52433898D01*
X74994727Y-52428064D01*
X75001877Y-52431166D01*
X75001877Y-52431166D01*
G37*
X75001877Y-52431166D02*
X75020463Y-52440939D01*
X75048192Y-52456083D01*
X75082774Y-52475296D01*
X75121917Y-52497275D01*
X75163328Y-52520721D01*
X75204716Y-52544330D01*
X75243790Y-52566802D01*
X75278258Y-52586834D01*
X75305828Y-52603126D01*
X75324209Y-52614375D01*
X75330897Y-52619001D01*
X75329861Y-52626804D01*
X75326386Y-52648423D01*
X75320790Y-52682042D01*
X75313386Y-52725843D01*
X75304490Y-52778008D01*
X75294418Y-52836720D01*
X75283486Y-52900161D01*
X75272008Y-52966514D01*
X75260301Y-53033962D01*
X75248680Y-53100687D01*
X75237461Y-53164871D01*
X75226958Y-53224697D01*
X75217488Y-53278347D01*
X75209366Y-53324005D01*
X75202907Y-53359852D01*
X75198428Y-53384071D01*
X75196243Y-53394845D01*
X75196162Y-53395116D01*
X75189859Y-53401475D01*
X75173517Y-53416107D01*
X75149266Y-53437214D01*
X75119236Y-53462999D01*
X75085557Y-53491663D01*
X75050357Y-53521409D01*
X75015768Y-53550440D01*
X74983919Y-53576958D01*
X74956939Y-53599165D01*
X74936958Y-53615264D01*
X74926107Y-53623457D01*
X74924841Y-53624125D01*
X74918614Y-53618431D01*
X74904466Y-53603002D01*
X74884616Y-53580315D01*
X74865335Y-53557671D01*
X74842566Y-53529658D01*
X74824259Y-53505277D01*
X74812552Y-53487496D01*
X74809375Y-53480009D01*
X74810712Y-53469812D01*
X74814540Y-53445757D01*
X74820583Y-53409408D01*
X74828564Y-53362333D01*
X74838209Y-53306097D01*
X74849240Y-53242267D01*
X74861383Y-53172408D01*
X74874360Y-53098086D01*
X74887897Y-53020867D01*
X74901717Y-52942318D01*
X74915544Y-52864005D01*
X74929102Y-52787493D01*
X74942116Y-52714348D01*
X74954310Y-52646137D01*
X74965406Y-52584426D01*
X74975131Y-52530781D01*
X74983207Y-52486767D01*
X74989359Y-52453950D01*
X74993311Y-52433898D01*
X74994727Y-52428064D01*
X75001877Y-52431166D01*
G36*
X69091475Y-52276734D02*
X69135758Y-52302669D01*
X69175030Y-52325996D01*
X69207344Y-52345533D01*
X69230751Y-52360093D01*
X69243303Y-52368493D01*
X69244900Y-52370000D01*
X69238322Y-52374944D01*
X69219922Y-52386607D01*
X69191649Y-52403811D01*
X69155453Y-52425377D01*
X69113283Y-52450126D01*
X69090672Y-52463266D01*
X68936502Y-52552563D01*
X68322891Y-52552072D01*
X67709281Y-52551581D01*
X67556639Y-52462775D01*
X67512475Y-52436912D01*
X67473318Y-52413658D01*
X67441124Y-52394202D01*
X67417848Y-52379731D01*
X67405447Y-52371433D01*
X67403930Y-52370000D01*
X67410473Y-52365060D01*
X67428844Y-52353406D01*
X67457096Y-52336215D01*
X67493282Y-52314664D01*
X67535455Y-52289930D01*
X67558184Y-52276734D01*
X67712503Y-52187438D01*
X68937990Y-52187438D01*
X69091475Y-52276734D01*
X69091475Y-52276734D01*
G37*
X69091475Y-52276734D02*
X69135758Y-52302669D01*
X69175030Y-52325996D01*
X69207344Y-52345533D01*
X69230751Y-52360093D01*
X69243303Y-52368493D01*
X69244900Y-52370000D01*
X69238322Y-52374944D01*
X69219922Y-52386607D01*
X69191649Y-52403811D01*
X69155453Y-52425377D01*
X69113283Y-52450126D01*
X69090672Y-52463266D01*
X68936502Y-52552563D01*
X68322891Y-52552072D01*
X67709281Y-52551581D01*
X67556639Y-52462775D01*
X67512475Y-52436912D01*
X67473318Y-52413658D01*
X67441124Y-52394202D01*
X67417848Y-52379731D01*
X67405447Y-52371433D01*
X67403930Y-52370000D01*
X67410473Y-52365060D01*
X67428844Y-52353406D01*
X67457096Y-52336215D01*
X67493282Y-52314664D01*
X67535455Y-52289930D01*
X67558184Y-52276734D01*
X67712503Y-52187438D01*
X68937990Y-52187438D01*
X69091475Y-52276734D01*
G36*
X71663225Y-52276734D02*
X71707508Y-52302669D01*
X71746780Y-52325996D01*
X71779094Y-52345533D01*
X71802501Y-52360093D01*
X71815053Y-52368493D01*
X71816650Y-52370000D01*
X71810072Y-52374944D01*
X71791672Y-52386607D01*
X71763399Y-52403811D01*
X71727203Y-52425377D01*
X71685033Y-52450126D01*
X71662422Y-52463266D01*
X71508252Y-52552563D01*
X70894641Y-52552072D01*
X70281031Y-52551581D01*
X70128389Y-52462775D01*
X70084225Y-52436912D01*
X70045068Y-52413658D01*
X70012874Y-52394202D01*
X69989598Y-52379731D01*
X69977197Y-52371433D01*
X69975680Y-52370000D01*
X69982223Y-52365060D01*
X70000594Y-52353406D01*
X70028846Y-52336215D01*
X70065032Y-52314664D01*
X70107205Y-52289930D01*
X70129934Y-52276734D01*
X70284253Y-52187438D01*
X71509740Y-52187438D01*
X71663225Y-52276734D01*
X71663225Y-52276734D01*
G37*
X71663225Y-52276734D02*
X71707508Y-52302669D01*
X71746780Y-52325996D01*
X71779094Y-52345533D01*
X71802501Y-52360093D01*
X71815053Y-52368493D01*
X71816650Y-52370000D01*
X71810072Y-52374944D01*
X71791672Y-52386607D01*
X71763399Y-52403811D01*
X71727203Y-52425377D01*
X71685033Y-52450126D01*
X71662422Y-52463266D01*
X71508252Y-52552563D01*
X70894641Y-52552072D01*
X70281031Y-52551581D01*
X70128389Y-52462775D01*
X70084225Y-52436912D01*
X70045068Y-52413658D01*
X70012874Y-52394202D01*
X69989598Y-52379731D01*
X69977197Y-52371433D01*
X69975680Y-52370000D01*
X69982223Y-52365060D01*
X70000594Y-52353406D01*
X70028846Y-52336215D01*
X70065032Y-52314664D01*
X70107205Y-52289930D01*
X70129934Y-52276734D01*
X70284253Y-52187438D01*
X71509740Y-52187438D01*
X71663225Y-52276734D01*
G36*
X74234975Y-52276734D02*
X74279258Y-52302669D01*
X74318530Y-52325996D01*
X74350844Y-52345533D01*
X74374251Y-52360093D01*
X74386803Y-52368493D01*
X74388400Y-52370000D01*
X74381822Y-52374944D01*
X74363422Y-52386607D01*
X74335149Y-52403811D01*
X74298953Y-52425377D01*
X74256783Y-52450126D01*
X74234172Y-52463266D01*
X74080002Y-52552563D01*
X73466391Y-52552072D01*
X72852781Y-52551581D01*
X72700139Y-52462775D01*
X72655975Y-52436912D01*
X72616818Y-52413658D01*
X72584624Y-52394202D01*
X72561348Y-52379731D01*
X72548947Y-52371433D01*
X72547430Y-52370000D01*
X72553973Y-52365060D01*
X72572344Y-52353406D01*
X72600596Y-52336215D01*
X72636782Y-52314664D01*
X72678955Y-52289930D01*
X72701684Y-52276734D01*
X72856003Y-52187438D01*
X74081490Y-52187438D01*
X74234975Y-52276734D01*
X74234975Y-52276734D01*
G37*
X74234975Y-52276734D02*
X74279258Y-52302669D01*
X74318530Y-52325996D01*
X74350844Y-52345533D01*
X74374251Y-52360093D01*
X74386803Y-52368493D01*
X74388400Y-52370000D01*
X74381822Y-52374944D01*
X74363422Y-52386607D01*
X74335149Y-52403811D01*
X74298953Y-52425377D01*
X74256783Y-52450126D01*
X74234172Y-52463266D01*
X74080002Y-52552563D01*
X73466391Y-52552072D01*
X72852781Y-52551581D01*
X72700139Y-52462775D01*
X72655975Y-52436912D01*
X72616818Y-52413658D01*
X72584624Y-52394202D01*
X72561348Y-52379731D01*
X72548947Y-52371433D01*
X72547430Y-52370000D01*
X72553973Y-52365060D01*
X72572344Y-52353406D01*
X72600596Y-52336215D01*
X72636782Y-52314664D01*
X72678955Y-52289930D01*
X72701684Y-52276734D01*
X72856003Y-52187438D01*
X74081490Y-52187438D01*
X74234975Y-52276734D01*
G36*
X76806725Y-52276734D02*
X76851008Y-52302669D01*
X76890280Y-52325996D01*
X76922594Y-52345533D01*
X76946001Y-52360093D01*
X76958553Y-52368493D01*
X76960150Y-52370000D01*
X76953572Y-52374944D01*
X76935172Y-52386607D01*
X76906899Y-52403811D01*
X76870703Y-52425377D01*
X76828533Y-52450126D01*
X76805922Y-52463266D01*
X76651752Y-52552563D01*
X76038141Y-52552072D01*
X75424531Y-52551581D01*
X75271889Y-52462775D01*
X75227725Y-52436912D01*
X75188568Y-52413658D01*
X75156374Y-52394202D01*
X75133098Y-52379731D01*
X75120697Y-52371433D01*
X75119180Y-52370000D01*
X75125723Y-52365060D01*
X75144094Y-52353406D01*
X75172346Y-52336215D01*
X75208532Y-52314664D01*
X75250705Y-52289930D01*
X75273434Y-52276734D01*
X75427753Y-52187438D01*
X76653240Y-52187438D01*
X76806725Y-52276734D01*
X76806725Y-52276734D01*
G37*
X76806725Y-52276734D02*
X76851008Y-52302669D01*
X76890280Y-52325996D01*
X76922594Y-52345533D01*
X76946001Y-52360093D01*
X76958553Y-52368493D01*
X76960150Y-52370000D01*
X76953572Y-52374944D01*
X76935172Y-52386607D01*
X76906899Y-52403811D01*
X76870703Y-52425377D01*
X76828533Y-52450126D01*
X76805922Y-52463266D01*
X76651752Y-52552563D01*
X76038141Y-52552072D01*
X75424531Y-52551581D01*
X75271889Y-52462775D01*
X75227725Y-52436912D01*
X75188568Y-52413658D01*
X75156374Y-52394202D01*
X75133098Y-52379731D01*
X75120697Y-52371433D01*
X75119180Y-52370000D01*
X75125723Y-52365060D01*
X75144094Y-52353406D01*
X75172346Y-52336215D01*
X75208532Y-52314664D01*
X75250705Y-52289930D01*
X75273434Y-52276734D01*
X75427753Y-52187438D01*
X76653240Y-52187438D01*
X76806725Y-52276734D01*
G36*
X72063299Y-51081907D02*
X72076664Y-51097138D01*
X72094913Y-51118986D01*
X72101673Y-51127270D01*
X72143119Y-51178353D01*
X72047362Y-51724567D01*
X72028049Y-51834751D01*
X72011293Y-51930332D01*
X71996902Y-52012345D01*
X71984683Y-52081821D01*
X71974443Y-52139795D01*
X71965989Y-52187298D01*
X71959128Y-52225365D01*
X71953668Y-52255027D01*
X71949416Y-52277318D01*
X71946178Y-52293271D01*
X71943762Y-52303919D01*
X71941975Y-52310295D01*
X71940624Y-52313431D01*
X71939516Y-52314361D01*
X71938458Y-52314118D01*
X71937353Y-52313745D01*
X71929263Y-52309687D01*
X71909522Y-52298696D01*
X71880139Y-52281924D01*
X71843125Y-52260523D01*
X71800490Y-52235646D01*
X71777250Y-52222002D01*
X71732185Y-52195494D01*
X71691440Y-52171527D01*
X71657101Y-52151330D01*
X71631253Y-52136129D01*
X71615983Y-52127151D01*
X71612997Y-52125397D01*
X71611465Y-52119741D01*
X71611921Y-52105098D01*
X71614500Y-52080587D01*
X71619333Y-52045328D01*
X71626553Y-51998439D01*
X71636292Y-51939040D01*
X71648684Y-51866251D01*
X71663861Y-51779191D01*
X71672528Y-51730075D01*
X71741531Y-51340307D01*
X71897982Y-51208247D01*
X71940270Y-51172643D01*
X71978446Y-51140674D01*
X72010877Y-51113696D01*
X72035927Y-51093062D01*
X72051962Y-51080127D01*
X72057330Y-51076188D01*
X72063299Y-51081907D01*
X72063299Y-51081907D01*
G37*
X72063299Y-51081907D02*
X72076664Y-51097138D01*
X72094913Y-51118986D01*
X72101673Y-51127270D01*
X72143119Y-51178353D01*
X72047362Y-51724567D01*
X72028049Y-51834751D01*
X72011293Y-51930332D01*
X71996902Y-52012345D01*
X71984683Y-52081821D01*
X71974443Y-52139795D01*
X71965989Y-52187298D01*
X71959128Y-52225365D01*
X71953668Y-52255027D01*
X71949416Y-52277318D01*
X71946178Y-52293271D01*
X71943762Y-52303919D01*
X71941975Y-52310295D01*
X71940624Y-52313431D01*
X71939516Y-52314361D01*
X71938458Y-52314118D01*
X71937353Y-52313745D01*
X71929263Y-52309687D01*
X71909522Y-52298696D01*
X71880139Y-52281924D01*
X71843125Y-52260523D01*
X71800490Y-52235646D01*
X71777250Y-52222002D01*
X71732185Y-52195494D01*
X71691440Y-52171527D01*
X71657101Y-52151330D01*
X71631253Y-52136129D01*
X71615983Y-52127151D01*
X71612997Y-52125397D01*
X71611465Y-52119741D01*
X71611921Y-52105098D01*
X71614500Y-52080587D01*
X71619333Y-52045328D01*
X71626553Y-51998439D01*
X71636292Y-51939040D01*
X71648684Y-51866251D01*
X71663861Y-51779191D01*
X71672528Y-51730075D01*
X71741531Y-51340307D01*
X71897982Y-51208247D01*
X71940270Y-51172643D01*
X71978446Y-51140674D01*
X72010877Y-51113696D01*
X72035927Y-51093062D01*
X72051962Y-51080127D01*
X72057330Y-51076188D01*
X72063299Y-51081907D01*
G36*
X67639902Y-51082015D02*
X67663730Y-51110047D01*
X67691198Y-51143232D01*
X67720578Y-51179393D01*
X67750142Y-51216353D01*
X67778161Y-51251935D01*
X67802907Y-51283963D01*
X67822652Y-51310258D01*
X67835668Y-51328646D01*
X67840228Y-51336883D01*
X67838907Y-51346723D01*
X67835174Y-51370256D01*
X67829365Y-51405543D01*
X67821814Y-51450639D01*
X67812855Y-51503605D01*
X67802824Y-51562499D01*
X67792055Y-51625378D01*
X67780883Y-51690301D01*
X67769643Y-51755327D01*
X67758669Y-51818513D01*
X67748297Y-51877919D01*
X67738860Y-51931603D01*
X67730694Y-51977622D01*
X67724133Y-52014035D01*
X67719512Y-52038902D01*
X67717412Y-52049286D01*
X67711234Y-52057586D01*
X67694962Y-52070747D01*
X67667789Y-52089296D01*
X67628912Y-52113760D01*
X67577526Y-52144665D01*
X67520922Y-52177839D01*
X67459385Y-52213521D01*
X67410201Y-52241846D01*
X67372053Y-52263521D01*
X67343621Y-52279252D01*
X67323585Y-52289746D01*
X67310626Y-52295711D01*
X67303425Y-52297854D01*
X67300662Y-52296882D01*
X67300500Y-52295968D01*
X67301826Y-52287607D01*
X67305627Y-52265130D01*
X67311638Y-52230059D01*
X67319593Y-52183916D01*
X67329228Y-52128221D01*
X67340277Y-52064497D01*
X67352475Y-51994264D01*
X67365555Y-51919043D01*
X67379254Y-51840358D01*
X67393306Y-51759727D01*
X67407445Y-51678674D01*
X67421406Y-51598719D01*
X67434924Y-51521383D01*
X67447734Y-51448189D01*
X67459570Y-51380656D01*
X67470166Y-51320308D01*
X67479259Y-51268665D01*
X67486581Y-51227248D01*
X67491869Y-51197579D01*
X67494856Y-51181179D01*
X67495304Y-51178878D01*
X67504225Y-51162652D01*
X67524766Y-51139644D01*
X67555236Y-51111723D01*
X67559111Y-51108441D01*
X67584610Y-51087497D01*
X67605252Y-51071488D01*
X67618317Y-51062470D01*
X67621443Y-51061313D01*
X67639902Y-51082015D01*
X67639902Y-51082015D01*
G37*
X67639902Y-51082015D02*
X67663730Y-51110047D01*
X67691198Y-51143232D01*
X67720578Y-51179393D01*
X67750142Y-51216353D01*
X67778161Y-51251935D01*
X67802907Y-51283963D01*
X67822652Y-51310258D01*
X67835668Y-51328646D01*
X67840228Y-51336883D01*
X67838907Y-51346723D01*
X67835174Y-51370256D01*
X67829365Y-51405543D01*
X67821814Y-51450639D01*
X67812855Y-51503605D01*
X67802824Y-51562499D01*
X67792055Y-51625378D01*
X67780883Y-51690301D01*
X67769643Y-51755327D01*
X67758669Y-51818513D01*
X67748297Y-51877919D01*
X67738860Y-51931603D01*
X67730694Y-51977622D01*
X67724133Y-52014035D01*
X67719512Y-52038902D01*
X67717412Y-52049286D01*
X67711234Y-52057586D01*
X67694962Y-52070747D01*
X67667789Y-52089296D01*
X67628912Y-52113760D01*
X67577526Y-52144665D01*
X67520922Y-52177839D01*
X67459385Y-52213521D01*
X67410201Y-52241846D01*
X67372053Y-52263521D01*
X67343621Y-52279252D01*
X67323585Y-52289746D01*
X67310626Y-52295711D01*
X67303425Y-52297854D01*
X67300662Y-52296882D01*
X67300500Y-52295968D01*
X67301826Y-52287607D01*
X67305627Y-52265130D01*
X67311638Y-52230059D01*
X67319593Y-52183916D01*
X67329228Y-52128221D01*
X67340277Y-52064497D01*
X67352475Y-51994264D01*
X67365555Y-51919043D01*
X67379254Y-51840358D01*
X67393306Y-51759727D01*
X67407445Y-51678674D01*
X67421406Y-51598719D01*
X67434924Y-51521383D01*
X67447734Y-51448189D01*
X67459570Y-51380656D01*
X67470166Y-51320308D01*
X67479259Y-51268665D01*
X67486581Y-51227248D01*
X67491869Y-51197579D01*
X67494856Y-51181179D01*
X67495304Y-51178878D01*
X67504225Y-51162652D01*
X67524766Y-51139644D01*
X67555236Y-51111723D01*
X67559111Y-51108441D01*
X67584610Y-51087497D01*
X67605252Y-51071488D01*
X67618317Y-51062470D01*
X67621443Y-51061313D01*
X67639902Y-51082015D01*
G36*
X70211472Y-51081874D02*
X70234973Y-51109562D01*
X70262212Y-51142450D01*
X70291455Y-51178365D01*
X70320971Y-51215133D01*
X70349027Y-51250581D01*
X70373890Y-51282536D01*
X70393828Y-51308824D01*
X70407109Y-51327272D01*
X70411999Y-51335706D01*
X70412000Y-51335737D01*
X70410686Y-51345316D01*
X70406967Y-51368597D01*
X70401176Y-51403645D01*
X70393646Y-51448525D01*
X70384711Y-51501301D01*
X70374704Y-51560039D01*
X70363958Y-51622804D01*
X70352807Y-51687659D01*
X70341583Y-51752671D01*
X70330621Y-51815904D01*
X70320253Y-51875423D01*
X70310813Y-51929293D01*
X70302633Y-51975579D01*
X70296048Y-52012345D01*
X70291390Y-52037657D01*
X70289206Y-52048677D01*
X70282252Y-52057400D01*
X70263700Y-52071896D01*
X70233015Y-52092515D01*
X70189663Y-52119607D01*
X70133109Y-52153522D01*
X70092825Y-52177170D01*
X70031532Y-52212922D01*
X69982619Y-52241331D01*
X69944734Y-52263025D01*
X69916527Y-52278628D01*
X69896646Y-52288766D01*
X69883740Y-52294064D01*
X69876457Y-52295147D01*
X69873447Y-52292641D01*
X69873358Y-52287172D01*
X69874839Y-52279364D01*
X69875134Y-52277926D01*
X69877261Y-52266331D01*
X69881862Y-52240444D01*
X69888702Y-52201615D01*
X69897543Y-52151193D01*
X69908152Y-52090527D01*
X69920291Y-52020968D01*
X69933724Y-51943866D01*
X69948217Y-51860569D01*
X69963532Y-51772429D01*
X69971408Y-51727063D01*
X69987029Y-51637102D01*
X70001931Y-51551381D01*
X70015879Y-51471243D01*
X70028639Y-51398026D01*
X70039978Y-51333073D01*
X70049662Y-51277722D01*
X70057455Y-51233315D01*
X70063124Y-51201193D01*
X70066434Y-51182696D01*
X70067136Y-51178959D01*
X70076114Y-51162606D01*
X70096985Y-51139453D01*
X70128220Y-51111178D01*
X70131091Y-51108770D01*
X70156663Y-51087885D01*
X70177324Y-51071873D01*
X70190357Y-51062789D01*
X70193441Y-51061560D01*
X70211472Y-51081874D01*
X70211472Y-51081874D01*
G37*
X70211472Y-51081874D02*
X70234973Y-51109562D01*
X70262212Y-51142450D01*
X70291455Y-51178365D01*
X70320971Y-51215133D01*
X70349027Y-51250581D01*
X70373890Y-51282536D01*
X70393828Y-51308824D01*
X70407109Y-51327272D01*
X70411999Y-51335706D01*
X70412000Y-51335737D01*
X70410686Y-51345316D01*
X70406967Y-51368597D01*
X70401176Y-51403645D01*
X70393646Y-51448525D01*
X70384711Y-51501301D01*
X70374704Y-51560039D01*
X70363958Y-51622804D01*
X70352807Y-51687659D01*
X70341583Y-51752671D01*
X70330621Y-51815904D01*
X70320253Y-51875423D01*
X70310813Y-51929293D01*
X70302633Y-51975579D01*
X70296048Y-52012345D01*
X70291390Y-52037657D01*
X70289206Y-52048677D01*
X70282252Y-52057400D01*
X70263700Y-52071896D01*
X70233015Y-52092515D01*
X70189663Y-52119607D01*
X70133109Y-52153522D01*
X70092825Y-52177170D01*
X70031532Y-52212922D01*
X69982619Y-52241331D01*
X69944734Y-52263025D01*
X69916527Y-52278628D01*
X69896646Y-52288766D01*
X69883740Y-52294064D01*
X69876457Y-52295147D01*
X69873447Y-52292641D01*
X69873358Y-52287172D01*
X69874839Y-52279364D01*
X69875134Y-52277926D01*
X69877261Y-52266331D01*
X69881862Y-52240444D01*
X69888702Y-52201615D01*
X69897543Y-52151193D01*
X69908152Y-52090527D01*
X69920291Y-52020968D01*
X69933724Y-51943866D01*
X69948217Y-51860569D01*
X69963532Y-51772429D01*
X69971408Y-51727063D01*
X69987029Y-51637102D01*
X70001931Y-51551381D01*
X70015879Y-51471243D01*
X70028639Y-51398026D01*
X70039978Y-51333073D01*
X70049662Y-51277722D01*
X70057455Y-51233315D01*
X70063124Y-51201193D01*
X70066434Y-51182696D01*
X70067136Y-51178959D01*
X70076114Y-51162606D01*
X70096985Y-51139453D01*
X70128220Y-51111178D01*
X70131091Y-51108770D01*
X70156663Y-51087885D01*
X70177324Y-51071873D01*
X70190357Y-51062789D01*
X70193441Y-51061560D01*
X70211472Y-51081874D01*
G36*
X72783222Y-51081874D02*
X72806723Y-51109562D01*
X72833962Y-51142450D01*
X72863205Y-51178365D01*
X72892721Y-51215133D01*
X72920777Y-51250581D01*
X72945640Y-51282536D01*
X72965578Y-51308824D01*
X72978859Y-51327272D01*
X72983749Y-51335706D01*
X72983750Y-51335737D01*
X72982436Y-51345316D01*
X72978717Y-51368597D01*
X72972926Y-51403645D01*
X72965396Y-51448525D01*
X72956461Y-51501301D01*
X72946454Y-51560039D01*
X72935708Y-51622804D01*
X72924557Y-51687659D01*
X72913333Y-51752671D01*
X72902371Y-51815904D01*
X72892003Y-51875423D01*
X72882563Y-51929293D01*
X72874383Y-51975579D01*
X72867798Y-52012345D01*
X72863140Y-52037657D01*
X72860956Y-52048677D01*
X72854002Y-52057400D01*
X72835450Y-52071896D01*
X72804765Y-52092515D01*
X72761413Y-52119607D01*
X72704859Y-52153522D01*
X72664575Y-52177170D01*
X72603282Y-52212922D01*
X72554369Y-52241331D01*
X72516484Y-52263025D01*
X72488277Y-52278628D01*
X72468396Y-52288766D01*
X72455490Y-52294064D01*
X72448207Y-52295147D01*
X72445197Y-52292641D01*
X72445108Y-52287172D01*
X72446589Y-52279364D01*
X72446884Y-52277926D01*
X72449011Y-52266331D01*
X72453612Y-52240444D01*
X72460452Y-52201615D01*
X72469293Y-52151193D01*
X72479902Y-52090527D01*
X72492041Y-52020968D01*
X72505474Y-51943866D01*
X72519967Y-51860569D01*
X72535282Y-51772429D01*
X72543158Y-51727063D01*
X72558779Y-51637102D01*
X72573681Y-51551381D01*
X72587629Y-51471243D01*
X72600389Y-51398026D01*
X72611728Y-51333073D01*
X72621412Y-51277722D01*
X72629205Y-51233315D01*
X72634874Y-51201193D01*
X72638184Y-51182696D01*
X72638886Y-51178959D01*
X72647864Y-51162606D01*
X72668735Y-51139453D01*
X72699970Y-51111178D01*
X72702841Y-51108770D01*
X72728413Y-51087885D01*
X72749074Y-51071873D01*
X72762107Y-51062789D01*
X72765191Y-51061560D01*
X72783222Y-51081874D01*
X72783222Y-51081874D01*
G37*
X72783222Y-51081874D02*
X72806723Y-51109562D01*
X72833962Y-51142450D01*
X72863205Y-51178365D01*
X72892721Y-51215133D01*
X72920777Y-51250581D01*
X72945640Y-51282536D01*
X72965578Y-51308824D01*
X72978859Y-51327272D01*
X72983749Y-51335706D01*
X72983750Y-51335737D01*
X72982436Y-51345316D01*
X72978717Y-51368597D01*
X72972926Y-51403645D01*
X72965396Y-51448525D01*
X72956461Y-51501301D01*
X72946454Y-51560039D01*
X72935708Y-51622804D01*
X72924557Y-51687659D01*
X72913333Y-51752671D01*
X72902371Y-51815904D01*
X72892003Y-51875423D01*
X72882563Y-51929293D01*
X72874383Y-51975579D01*
X72867798Y-52012345D01*
X72863140Y-52037657D01*
X72860956Y-52048677D01*
X72854002Y-52057400D01*
X72835450Y-52071896D01*
X72804765Y-52092515D01*
X72761413Y-52119607D01*
X72704859Y-52153522D01*
X72664575Y-52177170D01*
X72603282Y-52212922D01*
X72554369Y-52241331D01*
X72516484Y-52263025D01*
X72488277Y-52278628D01*
X72468396Y-52288766D01*
X72455490Y-52294064D01*
X72448207Y-52295147D01*
X72445197Y-52292641D01*
X72445108Y-52287172D01*
X72446589Y-52279364D01*
X72446884Y-52277926D01*
X72449011Y-52266331D01*
X72453612Y-52240444D01*
X72460452Y-52201615D01*
X72469293Y-52151193D01*
X72479902Y-52090527D01*
X72492041Y-52020968D01*
X72505474Y-51943866D01*
X72519967Y-51860569D01*
X72535282Y-51772429D01*
X72543158Y-51727063D01*
X72558779Y-51637102D01*
X72573681Y-51551381D01*
X72587629Y-51471243D01*
X72600389Y-51398026D01*
X72611728Y-51333073D01*
X72621412Y-51277722D01*
X72629205Y-51233315D01*
X72634874Y-51201193D01*
X72638184Y-51182696D01*
X72638886Y-51178959D01*
X72647864Y-51162606D01*
X72668735Y-51139453D01*
X72699970Y-51111178D01*
X72702841Y-51108770D01*
X72728413Y-51087885D01*
X72749074Y-51071873D01*
X72762107Y-51062789D01*
X72765191Y-51061560D01*
X72783222Y-51081874D01*
G36*
X75354972Y-51081874D02*
X75378473Y-51109562D01*
X75405712Y-51142450D01*
X75434955Y-51178365D01*
X75464471Y-51215133D01*
X75492527Y-51250581D01*
X75517390Y-51282536D01*
X75537328Y-51308824D01*
X75550609Y-51327272D01*
X75555499Y-51335706D01*
X75555500Y-51335737D01*
X75554186Y-51345316D01*
X75550467Y-51368597D01*
X75544676Y-51403645D01*
X75537146Y-51448525D01*
X75528211Y-51501301D01*
X75518204Y-51560039D01*
X75507458Y-51622804D01*
X75496307Y-51687659D01*
X75485083Y-51752671D01*
X75474121Y-51815904D01*
X75463753Y-51875423D01*
X75454313Y-51929293D01*
X75446133Y-51975579D01*
X75439548Y-52012345D01*
X75434890Y-52037657D01*
X75432706Y-52048677D01*
X75425752Y-52057400D01*
X75407200Y-52071896D01*
X75376515Y-52092515D01*
X75333163Y-52119607D01*
X75276609Y-52153522D01*
X75236325Y-52177170D01*
X75175032Y-52212922D01*
X75126119Y-52241331D01*
X75088234Y-52263025D01*
X75060027Y-52278628D01*
X75040146Y-52288766D01*
X75027240Y-52294064D01*
X75019957Y-52295147D01*
X75016947Y-52292641D01*
X75016858Y-52287172D01*
X75018339Y-52279364D01*
X75018634Y-52277926D01*
X75020761Y-52266331D01*
X75025362Y-52240444D01*
X75032202Y-52201615D01*
X75041043Y-52151193D01*
X75051652Y-52090527D01*
X75063791Y-52020968D01*
X75077224Y-51943866D01*
X75091717Y-51860569D01*
X75107032Y-51772429D01*
X75114908Y-51727063D01*
X75130529Y-51637102D01*
X75145431Y-51551381D01*
X75159379Y-51471243D01*
X75172139Y-51398026D01*
X75183478Y-51333073D01*
X75193162Y-51277722D01*
X75200955Y-51233315D01*
X75206624Y-51201193D01*
X75209934Y-51182696D01*
X75210636Y-51178959D01*
X75219614Y-51162606D01*
X75240485Y-51139453D01*
X75271720Y-51111178D01*
X75274591Y-51108770D01*
X75300163Y-51087885D01*
X75320824Y-51071873D01*
X75333857Y-51062789D01*
X75336941Y-51061560D01*
X75354972Y-51081874D01*
X75354972Y-51081874D01*
G37*
X75354972Y-51081874D02*
X75378473Y-51109562D01*
X75405712Y-51142450D01*
X75434955Y-51178365D01*
X75464471Y-51215133D01*
X75492527Y-51250581D01*
X75517390Y-51282536D01*
X75537328Y-51308824D01*
X75550609Y-51327272D01*
X75555499Y-51335706D01*
X75555500Y-51335737D01*
X75554186Y-51345316D01*
X75550467Y-51368597D01*
X75544676Y-51403645D01*
X75537146Y-51448525D01*
X75528211Y-51501301D01*
X75518204Y-51560039D01*
X75507458Y-51622804D01*
X75496307Y-51687659D01*
X75485083Y-51752671D01*
X75474121Y-51815904D01*
X75463753Y-51875423D01*
X75454313Y-51929293D01*
X75446133Y-51975579D01*
X75439548Y-52012345D01*
X75434890Y-52037657D01*
X75432706Y-52048677D01*
X75425752Y-52057400D01*
X75407200Y-52071896D01*
X75376515Y-52092515D01*
X75333163Y-52119607D01*
X75276609Y-52153522D01*
X75236325Y-52177170D01*
X75175032Y-52212922D01*
X75126119Y-52241331D01*
X75088234Y-52263025D01*
X75060027Y-52278628D01*
X75040146Y-52288766D01*
X75027240Y-52294064D01*
X75019957Y-52295147D01*
X75016947Y-52292641D01*
X75016858Y-52287172D01*
X75018339Y-52279364D01*
X75018634Y-52277926D01*
X75020761Y-52266331D01*
X75025362Y-52240444D01*
X75032202Y-52201615D01*
X75041043Y-52151193D01*
X75051652Y-52090527D01*
X75063791Y-52020968D01*
X75077224Y-51943866D01*
X75091717Y-51860569D01*
X75107032Y-51772429D01*
X75114908Y-51727063D01*
X75130529Y-51637102D01*
X75145431Y-51551381D01*
X75159379Y-51471243D01*
X75172139Y-51398026D01*
X75183478Y-51333073D01*
X75193162Y-51277722D01*
X75200955Y-51233315D01*
X75206624Y-51201193D01*
X75209934Y-51182696D01*
X75210636Y-51178959D01*
X75219614Y-51162606D01*
X75240485Y-51139453D01*
X75271720Y-51111178D01*
X75274591Y-51108770D01*
X75300163Y-51087885D01*
X75320824Y-51071873D01*
X75333857Y-51062789D01*
X75336941Y-51061560D01*
X75354972Y-51081874D01*
G36*
X71147786Y-50893655D02*
X71908218Y-50893684D01*
X71946517Y-50941073D01*
X71964140Y-50964544D01*
X71976111Y-50983767D01*
X71980288Y-50995211D01*
X71979995Y-50996264D01*
X71972827Y-51003366D01*
X71955225Y-51019212D01*
X71928891Y-51042313D01*
X71895532Y-51071184D01*
X71856852Y-51104337D01*
X71825034Y-51131408D01*
X71674896Y-51258750D01*
X70495187Y-51258750D01*
X70386124Y-51127921D01*
X70354007Y-51089089D01*
X70325691Y-51054269D01*
X70302651Y-51025324D01*
X70286359Y-51004111D01*
X70278288Y-50992490D01*
X70277680Y-50990999D01*
X70283661Y-50983516D01*
X70299143Y-50968647D01*
X70321314Y-50949027D01*
X70332826Y-50939266D01*
X70387355Y-50893625D01*
X71147786Y-50893655D01*
X71147786Y-50893655D01*
G37*
X71147786Y-50893655D02*
X71908218Y-50893684D01*
X71946517Y-50941073D01*
X71964140Y-50964544D01*
X71976111Y-50983767D01*
X71980288Y-50995211D01*
X71979995Y-50996264D01*
X71972827Y-51003366D01*
X71955225Y-51019212D01*
X71928891Y-51042313D01*
X71895532Y-51071184D01*
X71856852Y-51104337D01*
X71825034Y-51131408D01*
X71674896Y-51258750D01*
X70495187Y-51258750D01*
X70386124Y-51127921D01*
X70354007Y-51089089D01*
X70325691Y-51054269D01*
X70302651Y-51025324D01*
X70286359Y-51004111D01*
X70278288Y-50992490D01*
X70277680Y-50990999D01*
X70283661Y-50983516D01*
X70299143Y-50968647D01*
X70321314Y-50949027D01*
X70332826Y-50939266D01*
X70387355Y-50893625D01*
X71147786Y-50893655D01*
G36*
X73719536Y-50893655D02*
X74479968Y-50893684D01*
X74518267Y-50941073D01*
X74535890Y-50964544D01*
X74547861Y-50983767D01*
X74552038Y-50995211D01*
X74551745Y-50996264D01*
X74544577Y-51003366D01*
X74526975Y-51019212D01*
X74500641Y-51042313D01*
X74467282Y-51071184D01*
X74428602Y-51104337D01*
X74396784Y-51131408D01*
X74246646Y-51258750D01*
X73066937Y-51258750D01*
X72957874Y-51127921D01*
X72925757Y-51089089D01*
X72897441Y-51054269D01*
X72874401Y-51025324D01*
X72858109Y-51004111D01*
X72850038Y-50992490D01*
X72849430Y-50990999D01*
X72855411Y-50983516D01*
X72870893Y-50968647D01*
X72893064Y-50949027D01*
X72904576Y-50939266D01*
X72959105Y-50893625D01*
X73719536Y-50893655D01*
X73719536Y-50893655D01*
G37*
X73719536Y-50893655D02*
X74479968Y-50893684D01*
X74518267Y-50941073D01*
X74535890Y-50964544D01*
X74547861Y-50983767D01*
X74552038Y-50995211D01*
X74551745Y-50996264D01*
X74544577Y-51003366D01*
X74526975Y-51019212D01*
X74500641Y-51042313D01*
X74467282Y-51071184D01*
X74428602Y-51104337D01*
X74396784Y-51131408D01*
X74246646Y-51258750D01*
X73066937Y-51258750D01*
X72957874Y-51127921D01*
X72925757Y-51089089D01*
X72897441Y-51054269D01*
X72874401Y-51025324D01*
X72858109Y-51004111D01*
X72850038Y-50992490D01*
X72849430Y-50990999D01*
X72855411Y-50983516D01*
X72870893Y-50968647D01*
X72893064Y-50949027D01*
X72904576Y-50939266D01*
X72959105Y-50893625D01*
X73719536Y-50893655D01*
G36*
X76291286Y-50893655D02*
X77051718Y-50893684D01*
X77090017Y-50941073D01*
X77107640Y-50964544D01*
X77119611Y-50983767D01*
X77123788Y-50995211D01*
X77123495Y-50996264D01*
X77116327Y-51003366D01*
X77098725Y-51019212D01*
X77072391Y-51042313D01*
X77039032Y-51071184D01*
X77000352Y-51104337D01*
X76968534Y-51131408D01*
X76818396Y-51258750D01*
X75638687Y-51258750D01*
X75529624Y-51127921D01*
X75497507Y-51089089D01*
X75469191Y-51054269D01*
X75446151Y-51025324D01*
X75429859Y-51004111D01*
X75421788Y-50992490D01*
X75421180Y-50990999D01*
X75427161Y-50983516D01*
X75442643Y-50968647D01*
X75464814Y-50949027D01*
X75476326Y-50939266D01*
X75530855Y-50893625D01*
X76291286Y-50893655D01*
X76291286Y-50893655D01*
G37*
X76291286Y-50893655D02*
X77051718Y-50893684D01*
X77090017Y-50941073D01*
X77107640Y-50964544D01*
X77119611Y-50983767D01*
X77123788Y-50995211D01*
X77123495Y-50996264D01*
X77116327Y-51003366D01*
X77098725Y-51019212D01*
X77072391Y-51042313D01*
X77039032Y-51071184D01*
X77000352Y-51104337D01*
X76968534Y-51131408D01*
X76818396Y-51258750D01*
X75638687Y-51258750D01*
X75529624Y-51127921D01*
X75497507Y-51089089D01*
X75469191Y-51054269D01*
X75446151Y-51025324D01*
X75429859Y-51004111D01*
X75421788Y-50992490D01*
X75421180Y-50990999D01*
X75427161Y-50983516D01*
X75442643Y-50968647D01*
X75464814Y-50949027D01*
X75476326Y-50939266D01*
X75530855Y-50893625D01*
X76291286Y-50893655D01*
G36*
X136693704Y-145273664D02*
X136734528Y-145299956D01*
X136779443Y-145339756D01*
X136824785Y-145389783D01*
X136866889Y-145446757D01*
X136870058Y-145451596D01*
X136922076Y-145546413D01*
X136957796Y-145647216D01*
X136978696Y-145759045D01*
X136985226Y-145844681D01*
X136984069Y-145959248D01*
X136970649Y-146071581D01*
X136943918Y-146185794D01*
X136902825Y-146305997D01*
X136846319Y-146436303D01*
X136820601Y-146489296D01*
X136756858Y-146609769D01*
X136690342Y-146718976D01*
X136616957Y-146822659D01*
X136532612Y-146926559D01*
X136433211Y-147036419D01*
X136422285Y-147047955D01*
X136367231Y-147108485D01*
X136322930Y-147164305D01*
X136284073Y-147223053D01*
X136245349Y-147292367D01*
X136225753Y-147330633D01*
X136202378Y-147374872D01*
X136180710Y-147411823D01*
X136164022Y-147436075D01*
X136158505Y-147441794D01*
X136150974Y-147451978D01*
X136144961Y-147472308D01*
X136140004Y-147505972D01*
X136135643Y-147556161D01*
X136131416Y-147626065D01*
X136131166Y-147630773D01*
X136126312Y-147698189D01*
X136118309Y-147781408D01*
X136107942Y-147873477D01*
X136096000Y-147967445D01*
X136083266Y-148056362D01*
X136082361Y-148062248D01*
X136069852Y-148143988D01*
X136057684Y-148225023D01*
X136046619Y-148300149D01*
X136037422Y-148364168D01*
X136030857Y-148411879D01*
X136029715Y-148420658D01*
X136016911Y-148501564D01*
X135998498Y-148591748D01*
X135975972Y-148685662D01*
X135950829Y-148777758D01*
X135924564Y-148862490D01*
X135898673Y-148934307D01*
X135879287Y-148978632D01*
X135849591Y-149033915D01*
X135820734Y-149075083D01*
X135786708Y-149110074D01*
X135767370Y-149126523D01*
X135730360Y-149155430D01*
X135696061Y-149180118D01*
X135672132Y-149195106D01*
X135629432Y-149211064D01*
X135584206Y-149218573D01*
X135546332Y-149216261D01*
X135538443Y-149213689D01*
X135516679Y-149198701D01*
X135485003Y-149169703D01*
X135447447Y-149131086D01*
X135408045Y-149087245D01*
X135370830Y-149042573D01*
X135339834Y-149001462D01*
X135329475Y-148986057D01*
X135311174Y-148954654D01*
X135285844Y-148907334D01*
X135256093Y-148849162D01*
X135224529Y-148785206D01*
X135204090Y-148742537D01*
X135143486Y-148604433D01*
X135097630Y-148475957D01*
X135064681Y-148350669D01*
X135042802Y-148222130D01*
X135035071Y-148150546D01*
X135031167Y-148088905D01*
X135028893Y-148014076D01*
X135028167Y-147931398D01*
X135028907Y-147846210D01*
X135031031Y-147763852D01*
X135033538Y-147709565D01*
X135246766Y-147709565D01*
X135246792Y-147806142D01*
X135248075Y-147890773D01*
X135249967Y-147977831D01*
X135252049Y-148046215D01*
X135254766Y-148100342D01*
X135258563Y-148144627D01*
X135263886Y-148183487D01*
X135271179Y-148221336D01*
X135280887Y-148262592D01*
X135288628Y-148293030D01*
X135309874Y-148362845D01*
X135340445Y-148446534D01*
X135377743Y-148538201D01*
X135419166Y-148631947D01*
X135462114Y-148721875D01*
X135503988Y-148802088D01*
X135540166Y-148863548D01*
X135569074Y-148905324D01*
X135600832Y-148945820D01*
X135631923Y-148981180D01*
X135658831Y-149007548D01*
X135678039Y-149021067D01*
X135684227Y-149021525D01*
X135691898Y-149008303D01*
X135703693Y-148978401D01*
X135717497Y-148937372D01*
X135722641Y-148920648D01*
X135753127Y-148811729D01*
X135779248Y-148701428D01*
X135802471Y-148582846D01*
X135824262Y-148449086D01*
X135827433Y-148427725D01*
X135839671Y-148344307D01*
X135853700Y-148248512D01*
X135867990Y-148150816D01*
X135881007Y-148061693D01*
X135884045Y-148040864D01*
X135899312Y-147923613D01*
X135911776Y-147799301D01*
X135921579Y-147665177D01*
X135928866Y-147518486D01*
X135933778Y-147356478D01*
X135936458Y-147176400D01*
X135937091Y-147018873D01*
X135937091Y-146632626D01*
X135894457Y-146695972D01*
X135871083Y-146726592D01*
X135834113Y-146770034D01*
X135786561Y-146823081D01*
X135731441Y-146882516D01*
X135671767Y-146945120D01*
X135610553Y-147007676D01*
X135550812Y-147066966D01*
X135511746Y-147104555D01*
X135478397Y-147138368D01*
X135436855Y-147183721D01*
X135393120Y-147233936D01*
X135363127Y-147269983D01*
X135276172Y-147376994D01*
X135259483Y-147501111D01*
X135252997Y-147560978D01*
X135248797Y-147629153D01*
X135246766Y-147709565D01*
X135033538Y-147709565D01*
X135034458Y-147689661D01*
X135039107Y-147628979D01*
X135043590Y-147594095D01*
X135050912Y-147551416D01*
X134931161Y-147602065D01*
X134868469Y-147627191D01*
X134799704Y-147652548D01*
X134735602Y-147674258D01*
X134707500Y-147682869D01*
X134656324Y-147696287D01*
X134596845Y-147709645D01*
X134534246Y-147722038D01*
X134473710Y-147732562D01*
X134420419Y-147740310D01*
X134379556Y-147744378D01*
X134357216Y-147744057D01*
X134356586Y-147736766D01*
X134371647Y-147720651D01*
X134398220Y-147698653D01*
X134432125Y-147673711D01*
X134469182Y-147648764D01*
X134505212Y-147626753D01*
X134536035Y-147610617D01*
X134557327Y-147603314D01*
X134683055Y-147584676D01*
X134792874Y-147564241D01*
X134885323Y-147542396D01*
X134958945Y-147519531D01*
X135012282Y-147496034D01*
X135042260Y-147474108D01*
X135053997Y-147457511D01*
X135064147Y-147432916D01*
X135073787Y-147396394D01*
X135083991Y-147344018D01*
X135093381Y-147287451D01*
X135113925Y-147174955D01*
X135312480Y-147174955D01*
X135475376Y-147009745D01*
X135557585Y-146923881D01*
X135624940Y-146847309D01*
X135680926Y-146775293D01*
X135729031Y-146703098D01*
X135772742Y-146625988D01*
X135804276Y-146563046D01*
X135831055Y-146500524D01*
X135859866Y-146421902D01*
X135888619Y-146333799D01*
X135915222Y-146242834D01*
X135937585Y-146155625D01*
X135948111Y-146107787D01*
X135960705Y-146058591D01*
X135975445Y-146029135D01*
X135994406Y-146016070D01*
X136005864Y-146014636D01*
X136024858Y-146008305D01*
X136055652Y-145991708D01*
X136091554Y-145968455D01*
X136126230Y-145945357D01*
X136154341Y-145928795D01*
X136169925Y-145922277D01*
X136170096Y-145922273D01*
X136173691Y-145933291D01*
X136175908Y-145964331D01*
X136176819Y-146012366D01*
X136176494Y-146074372D01*
X136175004Y-146147324D01*
X136172421Y-146228198D01*
X136168815Y-146313969D01*
X136164256Y-146401612D01*
X136158816Y-146488101D01*
X136155905Y-146528409D01*
X136153051Y-146576180D01*
X136150602Y-146636519D01*
X136148582Y-146705994D01*
X136147012Y-146781175D01*
X136145916Y-146858630D01*
X136145317Y-146934930D01*
X136145236Y-147006642D01*
X136145697Y-147070336D01*
X136146722Y-147122581D01*
X136148334Y-147159946D01*
X136150555Y-147179000D01*
X136151594Y-147180727D01*
X136162609Y-147173132D01*
X136184369Y-147153431D01*
X136206435Y-147131659D01*
X136278018Y-147055072D01*
X136351044Y-146970520D01*
X136418331Y-146886524D01*
X136456670Y-146834740D01*
X136504431Y-146761275D01*
X136555272Y-146672413D01*
X136605814Y-146574925D01*
X136652679Y-146475584D01*
X136692489Y-146381162D01*
X136717679Y-146311598D01*
X136735366Y-146255449D01*
X136747631Y-146209551D01*
X136755694Y-146166515D01*
X136760776Y-146118954D01*
X136764096Y-146059481D01*
X136765512Y-146021943D01*
X136766713Y-145929639D01*
X136762401Y-145853403D01*
X136751366Y-145786614D01*
X136732394Y-145722653D01*
X136704274Y-145654901D01*
X136694501Y-145634153D01*
X136665722Y-145583671D01*
X136628509Y-145531643D01*
X136587370Y-145483267D01*
X136546815Y-145443738D01*
X136511354Y-145418254D01*
X136504174Y-145414834D01*
X136487547Y-145410408D01*
X136466884Y-145410476D01*
X136439780Y-145415909D01*
X136403826Y-145427577D01*
X136356615Y-145446351D01*
X136295740Y-145473098D01*
X136218793Y-145508691D01*
X136136670Y-145547640D01*
X136061599Y-145584465D01*
X136003707Y-145615382D01*
X135958701Y-145642984D01*
X135922291Y-145669863D01*
X135896073Y-145692961D01*
X135822508Y-145774182D01*
X135750356Y-145876850D01*
X135680542Y-145999326D01*
X135613992Y-146139972D01*
X135551632Y-146297148D01*
X135545962Y-146312872D01*
X135515323Y-146401982D01*
X135483415Y-146500903D01*
X135451363Y-146605606D01*
X135420290Y-146712065D01*
X135391321Y-146816251D01*
X135365580Y-146914138D01*
X135344190Y-147001699D01*
X135328275Y-147074905D01*
X135319869Y-147123000D01*
X135312480Y-147174955D01*
X135113925Y-147174955D01*
X135115985Y-147163679D01*
X135145979Y-147027895D01*
X135182013Y-146884579D01*
X135222737Y-146738214D01*
X135266801Y-146593280D01*
X135312855Y-146454259D01*
X135359549Y-146325634D01*
X135405533Y-146211884D01*
X135440287Y-146135864D01*
X135501941Y-146017946D01*
X135563277Y-145918982D01*
X135627629Y-145835122D01*
X135698330Y-145762519D01*
X135778716Y-145697326D01*
X135872121Y-145635694D01*
X135875531Y-145633636D01*
X135951859Y-145589197D01*
X136035873Y-145542892D01*
X136124708Y-145496070D01*
X136215501Y-145450078D01*
X136305388Y-145406264D01*
X136391506Y-145365976D01*
X136470990Y-145330561D01*
X136540978Y-145301367D01*
X136598605Y-145279741D01*
X136641008Y-145267032D01*
X136660638Y-145264159D01*
X136693704Y-145273664D01*
X136693704Y-145273664D01*
G37*
X136693704Y-145273664D02*
X136734528Y-145299956D01*
X136779443Y-145339756D01*
X136824785Y-145389783D01*
X136866889Y-145446757D01*
X136870058Y-145451596D01*
X136922076Y-145546413D01*
X136957796Y-145647216D01*
X136978696Y-145759045D01*
X136985226Y-145844681D01*
X136984069Y-145959248D01*
X136970649Y-146071581D01*
X136943918Y-146185794D01*
X136902825Y-146305997D01*
X136846319Y-146436303D01*
X136820601Y-146489296D01*
X136756858Y-146609769D01*
X136690342Y-146718976D01*
X136616957Y-146822659D01*
X136532612Y-146926559D01*
X136433211Y-147036419D01*
X136422285Y-147047955D01*
X136367231Y-147108485D01*
X136322930Y-147164305D01*
X136284073Y-147223053D01*
X136245349Y-147292367D01*
X136225753Y-147330633D01*
X136202378Y-147374872D01*
X136180710Y-147411823D01*
X136164022Y-147436075D01*
X136158505Y-147441794D01*
X136150974Y-147451978D01*
X136144961Y-147472308D01*
X136140004Y-147505972D01*
X136135643Y-147556161D01*
X136131416Y-147626065D01*
X136131166Y-147630773D01*
X136126312Y-147698189D01*
X136118309Y-147781408D01*
X136107942Y-147873477D01*
X136096000Y-147967445D01*
X136083266Y-148056362D01*
X136082361Y-148062248D01*
X136069852Y-148143988D01*
X136057684Y-148225023D01*
X136046619Y-148300149D01*
X136037422Y-148364168D01*
X136030857Y-148411879D01*
X136029715Y-148420658D01*
X136016911Y-148501564D01*
X135998498Y-148591748D01*
X135975972Y-148685662D01*
X135950829Y-148777758D01*
X135924564Y-148862490D01*
X135898673Y-148934307D01*
X135879287Y-148978632D01*
X135849591Y-149033915D01*
X135820734Y-149075083D01*
X135786708Y-149110074D01*
X135767370Y-149126523D01*
X135730360Y-149155430D01*
X135696061Y-149180118D01*
X135672132Y-149195106D01*
X135629432Y-149211064D01*
X135584206Y-149218573D01*
X135546332Y-149216261D01*
X135538443Y-149213689D01*
X135516679Y-149198701D01*
X135485003Y-149169703D01*
X135447447Y-149131086D01*
X135408045Y-149087245D01*
X135370830Y-149042573D01*
X135339834Y-149001462D01*
X135329475Y-148986057D01*
X135311174Y-148954654D01*
X135285844Y-148907334D01*
X135256093Y-148849162D01*
X135224529Y-148785206D01*
X135204090Y-148742537D01*
X135143486Y-148604433D01*
X135097630Y-148475957D01*
X135064681Y-148350669D01*
X135042802Y-148222130D01*
X135035071Y-148150546D01*
X135031167Y-148088905D01*
X135028893Y-148014076D01*
X135028167Y-147931398D01*
X135028907Y-147846210D01*
X135031031Y-147763852D01*
X135033538Y-147709565D01*
X135246766Y-147709565D01*
X135246792Y-147806142D01*
X135248075Y-147890773D01*
X135249967Y-147977831D01*
X135252049Y-148046215D01*
X135254766Y-148100342D01*
X135258563Y-148144627D01*
X135263886Y-148183487D01*
X135271179Y-148221336D01*
X135280887Y-148262592D01*
X135288628Y-148293030D01*
X135309874Y-148362845D01*
X135340445Y-148446534D01*
X135377743Y-148538201D01*
X135419166Y-148631947D01*
X135462114Y-148721875D01*
X135503988Y-148802088D01*
X135540166Y-148863548D01*
X135569074Y-148905324D01*
X135600832Y-148945820D01*
X135631923Y-148981180D01*
X135658831Y-149007548D01*
X135678039Y-149021067D01*
X135684227Y-149021525D01*
X135691898Y-149008303D01*
X135703693Y-148978401D01*
X135717497Y-148937372D01*
X135722641Y-148920648D01*
X135753127Y-148811729D01*
X135779248Y-148701428D01*
X135802471Y-148582846D01*
X135824262Y-148449086D01*
X135827433Y-148427725D01*
X135839671Y-148344307D01*
X135853700Y-148248512D01*
X135867990Y-148150816D01*
X135881007Y-148061693D01*
X135884045Y-148040864D01*
X135899312Y-147923613D01*
X135911776Y-147799301D01*
X135921579Y-147665177D01*
X135928866Y-147518486D01*
X135933778Y-147356478D01*
X135936458Y-147176400D01*
X135937091Y-147018873D01*
X135937091Y-146632626D01*
X135894457Y-146695972D01*
X135871083Y-146726592D01*
X135834113Y-146770034D01*
X135786561Y-146823081D01*
X135731441Y-146882516D01*
X135671767Y-146945120D01*
X135610553Y-147007676D01*
X135550812Y-147066966D01*
X135511746Y-147104555D01*
X135478397Y-147138368D01*
X135436855Y-147183721D01*
X135393120Y-147233936D01*
X135363127Y-147269983D01*
X135276172Y-147376994D01*
X135259483Y-147501111D01*
X135252997Y-147560978D01*
X135248797Y-147629153D01*
X135246766Y-147709565D01*
X135033538Y-147709565D01*
X135034458Y-147689661D01*
X135039107Y-147628979D01*
X135043590Y-147594095D01*
X135050912Y-147551416D01*
X134931161Y-147602065D01*
X134868469Y-147627191D01*
X134799704Y-147652548D01*
X134735602Y-147674258D01*
X134707500Y-147682869D01*
X134656324Y-147696287D01*
X134596845Y-147709645D01*
X134534246Y-147722038D01*
X134473710Y-147732562D01*
X134420419Y-147740310D01*
X134379556Y-147744378D01*
X134357216Y-147744057D01*
X134356586Y-147736766D01*
X134371647Y-147720651D01*
X134398220Y-147698653D01*
X134432125Y-147673711D01*
X134469182Y-147648764D01*
X134505212Y-147626753D01*
X134536035Y-147610617D01*
X134557327Y-147603314D01*
X134683055Y-147584676D01*
X134792874Y-147564241D01*
X134885323Y-147542396D01*
X134958945Y-147519531D01*
X135012282Y-147496034D01*
X135042260Y-147474108D01*
X135053997Y-147457511D01*
X135064147Y-147432916D01*
X135073787Y-147396394D01*
X135083991Y-147344018D01*
X135093381Y-147287451D01*
X135113925Y-147174955D01*
X135312480Y-147174955D01*
X135475376Y-147009745D01*
X135557585Y-146923881D01*
X135624940Y-146847309D01*
X135680926Y-146775293D01*
X135729031Y-146703098D01*
X135772742Y-146625988D01*
X135804276Y-146563046D01*
X135831055Y-146500524D01*
X135859866Y-146421902D01*
X135888619Y-146333799D01*
X135915222Y-146242834D01*
X135937585Y-146155625D01*
X135948111Y-146107787D01*
X135960705Y-146058591D01*
X135975445Y-146029135D01*
X135994406Y-146016070D01*
X136005864Y-146014636D01*
X136024858Y-146008305D01*
X136055652Y-145991708D01*
X136091554Y-145968455D01*
X136126230Y-145945357D01*
X136154341Y-145928795D01*
X136169925Y-145922277D01*
X136170096Y-145922273D01*
X136173691Y-145933291D01*
X136175908Y-145964331D01*
X136176819Y-146012366D01*
X136176494Y-146074372D01*
X136175004Y-146147324D01*
X136172421Y-146228198D01*
X136168815Y-146313969D01*
X136164256Y-146401612D01*
X136158816Y-146488101D01*
X136155905Y-146528409D01*
X136153051Y-146576180D01*
X136150602Y-146636519D01*
X136148582Y-146705994D01*
X136147012Y-146781175D01*
X136145916Y-146858630D01*
X136145317Y-146934930D01*
X136145236Y-147006642D01*
X136145697Y-147070336D01*
X136146722Y-147122581D01*
X136148334Y-147159946D01*
X136150555Y-147179000D01*
X136151594Y-147180727D01*
X136162609Y-147173132D01*
X136184369Y-147153431D01*
X136206435Y-147131659D01*
X136278018Y-147055072D01*
X136351044Y-146970520D01*
X136418331Y-146886524D01*
X136456670Y-146834740D01*
X136504431Y-146761275D01*
X136555272Y-146672413D01*
X136605814Y-146574925D01*
X136652679Y-146475584D01*
X136692489Y-146381162D01*
X136717679Y-146311598D01*
X136735366Y-146255449D01*
X136747631Y-146209551D01*
X136755694Y-146166515D01*
X136760776Y-146118954D01*
X136764096Y-146059481D01*
X136765512Y-146021943D01*
X136766713Y-145929639D01*
X136762401Y-145853403D01*
X136751366Y-145786614D01*
X136732394Y-145722653D01*
X136704274Y-145654901D01*
X136694501Y-145634153D01*
X136665722Y-145583671D01*
X136628509Y-145531643D01*
X136587370Y-145483267D01*
X136546815Y-145443738D01*
X136511354Y-145418254D01*
X136504174Y-145414834D01*
X136487547Y-145410408D01*
X136466884Y-145410476D01*
X136439780Y-145415909D01*
X136403826Y-145427577D01*
X136356615Y-145446351D01*
X136295740Y-145473098D01*
X136218793Y-145508691D01*
X136136670Y-145547640D01*
X136061599Y-145584465D01*
X136003707Y-145615382D01*
X135958701Y-145642984D01*
X135922291Y-145669863D01*
X135896073Y-145692961D01*
X135822508Y-145774182D01*
X135750356Y-145876850D01*
X135680542Y-145999326D01*
X135613992Y-146139972D01*
X135551632Y-146297148D01*
X135545962Y-146312872D01*
X135515323Y-146401982D01*
X135483415Y-146500903D01*
X135451363Y-146605606D01*
X135420290Y-146712065D01*
X135391321Y-146816251D01*
X135365580Y-146914138D01*
X135344190Y-147001699D01*
X135328275Y-147074905D01*
X135319869Y-147123000D01*
X135312480Y-147174955D01*
X135113925Y-147174955D01*
X135115985Y-147163679D01*
X135145979Y-147027895D01*
X135182013Y-146884579D01*
X135222737Y-146738214D01*
X135266801Y-146593280D01*
X135312855Y-146454259D01*
X135359549Y-146325634D01*
X135405533Y-146211884D01*
X135440287Y-146135864D01*
X135501941Y-146017946D01*
X135563277Y-145918982D01*
X135627629Y-145835122D01*
X135698330Y-145762519D01*
X135778716Y-145697326D01*
X135872121Y-145635694D01*
X135875531Y-145633636D01*
X135951859Y-145589197D01*
X136035873Y-145542892D01*
X136124708Y-145496070D01*
X136215501Y-145450078D01*
X136305388Y-145406264D01*
X136391506Y-145365976D01*
X136470990Y-145330561D01*
X136540978Y-145301367D01*
X136598605Y-145279741D01*
X136641008Y-145267032D01*
X136660638Y-145264159D01*
X136693704Y-145273664D01*
M02*
