G04 #@! TF.FileFunction,Profile,NP*
%FSLAX46Y46*%
G04 Gerber Fmt 4.6, Leading zero omitted, Abs format (unit mm)*
G04 Created by KiCad (PCBNEW 4.0.7) date Friday, July 13, 2018 'AMt' 10:09:28 AM*
%MOMM*%
%LPD*%
G01*
G04 APERTURE LIST*
%ADD10C,0.100000*%
%ADD11C,0.010000*%
G04 APERTURE END LIST*
D10*
D11*
X140240000Y-67930000D02*
G75*
G03X141510000Y-66660000I0J1270000D01*
G01*
X141510000Y-59200000D02*
X141510000Y-66660000D01*
X96420000Y-57930000D02*
G75*
G03X95150000Y-59200000I0J-1270000D01*
G01*
X95150000Y-66660000D02*
X95150000Y-59200000D01*
X95150000Y-66660000D02*
G75*
G03X96420000Y-67930000I1270000J0D01*
G01*
X96420000Y-57930000D02*
X140240000Y-57930000D01*
X140240000Y-67930000D02*
X96420000Y-67930000D01*
X141510000Y-59200000D02*
G75*
G03X140240000Y-57930000I-1270000J0D01*
G01*
X89180000Y-59200000D02*
G75*
G03X87910000Y-57930000I-1270000J0D01*
G01*
X87910000Y-67930000D02*
G75*
G03X89180000Y-66660000I0J1270000D01*
G01*
X58490000Y-66660000D02*
G75*
G03X59760000Y-67930000I1270000J0D01*
G01*
X59760000Y-57930000D02*
G75*
G03X58490000Y-59200000I0J-1270000D01*
G01*
X58490000Y-66660000D02*
X58490000Y-59200000D01*
X87910000Y-67930000D02*
X59760000Y-67930000D01*
X89180000Y-59200000D02*
X89180000Y-66660000D01*
X59760000Y-57930000D02*
X87910000Y-57930000D01*
X98550000Y-80130000D02*
G75*
G03X97280000Y-81400000I0J-1270000D01*
G01*
X97280000Y-84260000D02*
X97280000Y-81400000D01*
X97280000Y-84260000D02*
G75*
G03X98550000Y-85530000I1270000J0D01*
G01*
X114720000Y-81400000D02*
G75*
G03X113450000Y-80130000I-1270000J0D01*
G01*
X113450000Y-85530000D02*
G75*
G03X114720000Y-84260000I0J1270000D01*
G01*
X113450000Y-85530000D02*
X98550000Y-85530000D01*
X114720000Y-81400000D02*
X114720000Y-84260000D01*
X98550000Y-80130000D02*
X113450000Y-80130000D01*
X143390000Y-150000000D02*
G75*
G03X146670000Y-146720000I0J3280000D01*
G01*
X53330000Y-146720000D02*
G75*
G03X56610000Y-150000000I3280000J0D01*
G01*
X56610000Y-50000000D02*
G75*
G03X53330000Y-53280000I0J-3280000D01*
G01*
X146670000Y-53280000D02*
G75*
G03X143390000Y-50000000I-3280000J0D01*
G01*
X53330000Y-146720000D02*
X53330000Y-53280000D01*
X143390000Y-150000000D02*
X56610000Y-150000000D01*
X146670000Y-53280000D02*
X146670000Y-146720000D01*
X56610000Y-50000000D02*
X143390000Y-50000000D01*
M02*
