G04 #@! TF.FileFunction,Soldermask,Bot*
%FSLAX46Y46*%
G04 Gerber Fmt 4.6, Leading zero omitted, Abs format (unit mm)*
G04 Created by KiCad (PCBNEW 4.0.7) date Friday, July 13, 2018 'AMt' 10:09:28 AM*
%MOMM*%
%LPD*%
G01*
G04 APERTURE LIST*
%ADD10C,0.100000*%
%ADD11C,3.100000*%
%ADD12C,4.100000*%
%ADD13C,3.600000*%
G04 APERTURE END LIST*
D10*
D11*
X143390000Y-146720000D03*
X100000000Y-146720000D03*
X56610000Y-146720000D03*
X143390000Y-100000000D03*
X56610000Y-100000000D03*
X143390000Y-53280000D03*
X100000000Y-53280000D03*
D12*
X82000000Y-136830000D03*
X82000000Y-86830000D03*
X82000000Y-96830000D03*
X82000000Y-106830000D03*
X82000000Y-116830000D03*
X82000000Y-126830000D03*
X106000000Y-131830000D03*
X118000000Y-131830000D03*
X94000000Y-121830000D03*
X106000000Y-121830000D03*
X118000000Y-121830000D03*
X94000000Y-111830000D03*
X106000000Y-111830000D03*
X118000000Y-111830000D03*
X94000000Y-101830000D03*
X106000000Y-101830000D03*
D13*
X61000000Y-73280000D03*
X66200000Y-73280000D03*
X71400000Y-73280000D03*
X76600000Y-73280000D03*
X81800000Y-73280000D03*
X87000000Y-73280000D03*
X92200000Y-73280000D03*
X97400000Y-73280000D03*
X102600000Y-73280000D03*
X107800000Y-73280000D03*
X113000000Y-73280000D03*
X118200000Y-73280000D03*
X123400000Y-73280000D03*
X128600000Y-73280000D03*
X133800000Y-73280000D03*
X139000000Y-73280000D03*
D12*
X118000000Y-101830000D03*
D11*
X56610000Y-53280000D03*
M02*
