G04 #@! TF.FileFunction,Legend,Top*
%FSLAX46Y46*%
G04 Gerber Fmt 4.6, Leading zero omitted, Abs format (unit mm)*
G04 Created by KiCad (PCBNEW 4.0.7) date Friday, July 13, 2018 'AMt' 11:01:13 AM*
%MOMM*%
%LPD*%
G01*
G04 APERTURE LIST*
%ADD10C,0.100000*%
%ADD11C,0.300000*%
%ADD12C,0.120000*%
%ADD13C,0.150000*%
%ADD14C,0.850000*%
%ADD15C,0.010000*%
G04 APERTURE END LIST*
D10*
D11*
X115140000Y-138432857D02*
X115354286Y-138504286D01*
X115425714Y-138575714D01*
X115497143Y-138718571D01*
X115497143Y-138932857D01*
X115425714Y-139075714D01*
X115354286Y-139147143D01*
X115211428Y-139218571D01*
X114640000Y-139218571D01*
X114640000Y-137718571D01*
X115140000Y-137718571D01*
X115282857Y-137790000D01*
X115354286Y-137861429D01*
X115425714Y-138004286D01*
X115425714Y-138147143D01*
X115354286Y-138290000D01*
X115282857Y-138361429D01*
X115140000Y-138432857D01*
X114640000Y-138432857D01*
X116782857Y-139218571D02*
X116782857Y-138432857D01*
X116711428Y-138290000D01*
X116568571Y-138218571D01*
X116282857Y-138218571D01*
X116140000Y-138290000D01*
X116782857Y-139147143D02*
X116640000Y-139218571D01*
X116282857Y-139218571D01*
X116140000Y-139147143D01*
X116068571Y-139004286D01*
X116068571Y-138861429D01*
X116140000Y-138718571D01*
X116282857Y-138647143D01*
X116640000Y-138647143D01*
X116782857Y-138575714D01*
X117425714Y-139147143D02*
X117568571Y-139218571D01*
X117854286Y-139218571D01*
X117997143Y-139147143D01*
X118068571Y-139004286D01*
X118068571Y-138932857D01*
X117997143Y-138790000D01*
X117854286Y-138718571D01*
X117640000Y-138718571D01*
X117497143Y-138647143D01*
X117425714Y-138504286D01*
X117425714Y-138432857D01*
X117497143Y-138290000D01*
X117640000Y-138218571D01*
X117854286Y-138218571D01*
X117997143Y-138290000D01*
X119282857Y-139147143D02*
X119140000Y-139218571D01*
X118854286Y-139218571D01*
X118711429Y-139147143D01*
X118640000Y-139004286D01*
X118640000Y-138432857D01*
X118711429Y-138290000D01*
X118854286Y-138218571D01*
X119140000Y-138218571D01*
X119282857Y-138290000D01*
X119354286Y-138432857D01*
X119354286Y-138575714D01*
X118640000Y-138718571D01*
X121997143Y-139075714D02*
X121925714Y-139147143D01*
X121711428Y-139218571D01*
X121568571Y-139218571D01*
X121354286Y-139147143D01*
X121211428Y-139004286D01*
X121140000Y-138861429D01*
X121068571Y-138575714D01*
X121068571Y-138361429D01*
X121140000Y-138075714D01*
X121211428Y-137932857D01*
X121354286Y-137790000D01*
X121568571Y-137718571D01*
X121711428Y-137718571D01*
X121925714Y-137790000D01*
X121997143Y-137861429D01*
X122854286Y-139218571D02*
X122711428Y-139147143D01*
X122640000Y-139075714D01*
X122568571Y-138932857D01*
X122568571Y-138504286D01*
X122640000Y-138361429D01*
X122711428Y-138290000D01*
X122854286Y-138218571D01*
X123068571Y-138218571D01*
X123211428Y-138290000D01*
X123282857Y-138361429D01*
X123354286Y-138504286D01*
X123354286Y-138932857D01*
X123282857Y-139075714D01*
X123211428Y-139147143D01*
X123068571Y-139218571D01*
X122854286Y-139218571D01*
X123997143Y-138218571D02*
X123997143Y-139218571D01*
X123997143Y-138361429D02*
X124068571Y-138290000D01*
X124211429Y-138218571D01*
X124425714Y-138218571D01*
X124568571Y-138290000D01*
X124640000Y-138432857D01*
X124640000Y-139218571D01*
X125211429Y-138218571D02*
X125568572Y-139218571D01*
X125925714Y-138218571D01*
X127068571Y-139147143D02*
X126925714Y-139218571D01*
X126640000Y-139218571D01*
X126497143Y-139147143D01*
X126425714Y-139004286D01*
X126425714Y-138432857D01*
X126497143Y-138290000D01*
X126640000Y-138218571D01*
X126925714Y-138218571D01*
X127068571Y-138290000D01*
X127140000Y-138432857D01*
X127140000Y-138575714D01*
X126425714Y-138718571D01*
X127782857Y-139218571D02*
X127782857Y-138218571D01*
X127782857Y-138504286D02*
X127854285Y-138361429D01*
X127925714Y-138290000D01*
X128068571Y-138218571D01*
X128211428Y-138218571D01*
X128497142Y-138218571D02*
X129068571Y-138218571D01*
X128711428Y-137718571D02*
X128711428Y-139004286D01*
X128782856Y-139147143D01*
X128925714Y-139218571D01*
X129068571Y-139218571D01*
X130711428Y-139218571D02*
X130711428Y-137718571D01*
X131211428Y-138790000D01*
X131711428Y-137718571D01*
X131711428Y-139218571D01*
X133068571Y-139218571D02*
X133068571Y-138432857D01*
X132997142Y-138290000D01*
X132854285Y-138218571D01*
X132568571Y-138218571D01*
X132425714Y-138290000D01*
X133068571Y-139147143D02*
X132925714Y-139218571D01*
X132568571Y-139218571D01*
X132425714Y-139147143D01*
X132354285Y-139004286D01*
X132354285Y-138861429D01*
X132425714Y-138718571D01*
X132568571Y-138647143D01*
X132925714Y-138647143D01*
X133068571Y-138575714D01*
X133782857Y-139218571D02*
X133782857Y-138218571D01*
X133782857Y-137718571D02*
X133711428Y-137790000D01*
X133782857Y-137861429D01*
X133854285Y-137790000D01*
X133782857Y-137718571D01*
X133782857Y-137861429D01*
X134497143Y-138218571D02*
X134497143Y-139218571D01*
X134497143Y-138361429D02*
X134568571Y-138290000D01*
X134711429Y-138218571D01*
X134925714Y-138218571D01*
X135068571Y-138290000D01*
X135140000Y-138432857D01*
X135140000Y-139218571D01*
X136997143Y-139218571D02*
X136997143Y-137718571D01*
X137568571Y-137718571D01*
X137711429Y-137790000D01*
X137782857Y-137861429D01*
X137854286Y-138004286D01*
X137854286Y-138218571D01*
X137782857Y-138361429D01*
X137711429Y-138432857D01*
X137568571Y-138504286D01*
X136997143Y-138504286D01*
X139354286Y-139075714D02*
X139282857Y-139147143D01*
X139068571Y-139218571D01*
X138925714Y-139218571D01*
X138711429Y-139147143D01*
X138568571Y-139004286D01*
X138497143Y-138861429D01*
X138425714Y-138575714D01*
X138425714Y-138361429D01*
X138497143Y-138075714D01*
X138568571Y-137932857D01*
X138711429Y-137790000D01*
X138925714Y-137718571D01*
X139068571Y-137718571D01*
X139282857Y-137790000D01*
X139354286Y-137861429D01*
X140497143Y-138432857D02*
X140711429Y-138504286D01*
X140782857Y-138575714D01*
X140854286Y-138718571D01*
X140854286Y-138932857D01*
X140782857Y-139075714D01*
X140711429Y-139147143D01*
X140568571Y-139218571D01*
X139997143Y-139218571D01*
X139997143Y-137718571D01*
X140497143Y-137718571D01*
X140640000Y-137790000D01*
X140711429Y-137861429D01*
X140782857Y-138004286D01*
X140782857Y-138147143D01*
X140711429Y-138290000D01*
X140640000Y-138361429D01*
X140497143Y-138432857D01*
X139997143Y-138432857D01*
X102425714Y-140768571D02*
X102425714Y-141982857D01*
X102354285Y-142125714D01*
X102282857Y-142197143D01*
X102140000Y-142268571D01*
X101925714Y-142268571D01*
X101782857Y-142197143D01*
X102425714Y-141697143D02*
X102282857Y-141768571D01*
X101997143Y-141768571D01*
X101854285Y-141697143D01*
X101782857Y-141625714D01*
X101711428Y-141482857D01*
X101711428Y-141054286D01*
X101782857Y-140911429D01*
X101854285Y-140840000D01*
X101997143Y-140768571D01*
X102282857Y-140768571D01*
X102425714Y-140840000D01*
X103140000Y-141768571D02*
X103140000Y-140768571D01*
X103140000Y-140268571D02*
X103068571Y-140340000D01*
X103140000Y-140411429D01*
X103211428Y-140340000D01*
X103140000Y-140268571D01*
X103140000Y-140411429D01*
X103640000Y-140768571D02*
X104211429Y-140768571D01*
X103854286Y-140268571D02*
X103854286Y-141554286D01*
X103925714Y-141697143D01*
X104068572Y-141768571D01*
X104211429Y-141768571D01*
X104711429Y-141768571D02*
X104711429Y-140268571D01*
X105354286Y-141768571D02*
X105354286Y-140982857D01*
X105282857Y-140840000D01*
X105140000Y-140768571D01*
X104925715Y-140768571D01*
X104782857Y-140840000D01*
X104711429Y-140911429D01*
X106711429Y-140768571D02*
X106711429Y-141768571D01*
X106068572Y-140768571D02*
X106068572Y-141554286D01*
X106140000Y-141697143D01*
X106282858Y-141768571D01*
X106497143Y-141768571D01*
X106640000Y-141697143D01*
X106711429Y-141625714D01*
X107425715Y-141768571D02*
X107425715Y-140268571D01*
X107425715Y-140840000D02*
X107568572Y-140768571D01*
X107854286Y-140768571D01*
X107997143Y-140840000D01*
X108068572Y-140911429D01*
X108140001Y-141054286D01*
X108140001Y-141482857D01*
X108068572Y-141625714D01*
X107997143Y-141697143D01*
X107854286Y-141768571D01*
X107568572Y-141768571D01*
X107425715Y-141697143D01*
X108782858Y-141625714D02*
X108854286Y-141697143D01*
X108782858Y-141768571D01*
X108711429Y-141697143D01*
X108782858Y-141625714D01*
X108782858Y-141768571D01*
X110140001Y-141697143D02*
X109997144Y-141768571D01*
X109711430Y-141768571D01*
X109568572Y-141697143D01*
X109497144Y-141625714D01*
X109425715Y-141482857D01*
X109425715Y-141054286D01*
X109497144Y-140911429D01*
X109568572Y-140840000D01*
X109711430Y-140768571D01*
X109997144Y-140768571D01*
X110140001Y-140840000D01*
X110997144Y-141768571D02*
X110854286Y-141697143D01*
X110782858Y-141625714D01*
X110711429Y-141482857D01*
X110711429Y-141054286D01*
X110782858Y-140911429D01*
X110854286Y-140840000D01*
X110997144Y-140768571D01*
X111211429Y-140768571D01*
X111354286Y-140840000D01*
X111425715Y-140911429D01*
X111497144Y-141054286D01*
X111497144Y-141482857D01*
X111425715Y-141625714D01*
X111354286Y-141697143D01*
X111211429Y-141768571D01*
X110997144Y-141768571D01*
X112140001Y-141768571D02*
X112140001Y-140768571D01*
X112140001Y-140911429D02*
X112211429Y-140840000D01*
X112354287Y-140768571D01*
X112568572Y-140768571D01*
X112711429Y-140840000D01*
X112782858Y-140982857D01*
X112782858Y-141768571D01*
X112782858Y-140982857D02*
X112854287Y-140840000D01*
X112997144Y-140768571D01*
X113211429Y-140768571D01*
X113354287Y-140840000D01*
X113425715Y-140982857D01*
X113425715Y-141768571D01*
X115211429Y-140197143D02*
X113925715Y-142125714D01*
X115640001Y-141697143D02*
X115782858Y-141768571D01*
X116068573Y-141768571D01*
X116211430Y-141697143D01*
X116282858Y-141554286D01*
X116282858Y-141482857D01*
X116211430Y-141340000D01*
X116068573Y-141268571D01*
X115854287Y-141268571D01*
X115711430Y-141197143D01*
X115640001Y-141054286D01*
X115640001Y-140982857D01*
X115711430Y-140840000D01*
X115854287Y-140768571D01*
X116068573Y-140768571D01*
X116211430Y-140840000D01*
X117568573Y-141768571D02*
X117568573Y-140268571D01*
X117568573Y-141697143D02*
X117425716Y-141768571D01*
X117140002Y-141768571D01*
X116997144Y-141697143D01*
X116925716Y-141625714D01*
X116854287Y-141482857D01*
X116854287Y-141054286D01*
X116925716Y-140911429D01*
X116997144Y-140840000D01*
X117140002Y-140768571D01*
X117425716Y-140768571D01*
X117568573Y-140840000D01*
X118282859Y-140768571D02*
X118282859Y-142268571D01*
X118282859Y-140840000D02*
X118425716Y-140768571D01*
X118711430Y-140768571D01*
X118854287Y-140840000D01*
X118925716Y-140911429D01*
X118997145Y-141054286D01*
X118997145Y-141482857D01*
X118925716Y-141625714D01*
X118854287Y-141697143D01*
X118711430Y-141768571D01*
X118425716Y-141768571D01*
X118282859Y-141697143D01*
X119854288Y-140911429D02*
X119711430Y-140840000D01*
X119640002Y-140768571D01*
X119568573Y-140625714D01*
X119568573Y-140554286D01*
X119640002Y-140411429D01*
X119711430Y-140340000D01*
X119854288Y-140268571D01*
X120140002Y-140268571D01*
X120282859Y-140340000D01*
X120354288Y-140411429D01*
X120425716Y-140554286D01*
X120425716Y-140625714D01*
X120354288Y-140768571D01*
X120282859Y-140840000D01*
X120140002Y-140911429D01*
X119854288Y-140911429D01*
X119711430Y-140982857D01*
X119640002Y-141054286D01*
X119568573Y-141197143D01*
X119568573Y-141482857D01*
X119640002Y-141625714D01*
X119711430Y-141697143D01*
X119854288Y-141768571D01*
X120140002Y-141768571D01*
X120282859Y-141697143D01*
X120354288Y-141625714D01*
X120425716Y-141482857D01*
X120425716Y-141197143D01*
X120354288Y-141054286D01*
X120282859Y-140982857D01*
X120140002Y-140911429D01*
X121711430Y-140768571D02*
X121711430Y-141768571D01*
X121354287Y-140197143D02*
X120997144Y-141268571D01*
X121925716Y-141268571D01*
X122711430Y-140911429D02*
X122568572Y-140840000D01*
X122497144Y-140768571D01*
X122425715Y-140625714D01*
X122425715Y-140554286D01*
X122497144Y-140411429D01*
X122568572Y-140340000D01*
X122711430Y-140268571D01*
X122997144Y-140268571D01*
X123140001Y-140340000D01*
X123211430Y-140411429D01*
X123282858Y-140554286D01*
X123282858Y-140625714D01*
X123211430Y-140768571D01*
X123140001Y-140840000D01*
X122997144Y-140911429D01*
X122711430Y-140911429D01*
X122568572Y-140982857D01*
X122497144Y-141054286D01*
X122425715Y-141197143D01*
X122425715Y-141482857D01*
X122497144Y-141625714D01*
X122568572Y-141697143D01*
X122711430Y-141768571D01*
X122997144Y-141768571D01*
X123140001Y-141697143D01*
X123211430Y-141625714D01*
X123282858Y-141482857D01*
X123282858Y-141197143D01*
X123211430Y-141054286D01*
X123140001Y-140982857D01*
X122997144Y-140911429D01*
X123782858Y-140268571D02*
X124711429Y-140268571D01*
X124211429Y-140840000D01*
X124425715Y-140840000D01*
X124568572Y-140911429D01*
X124640001Y-140982857D01*
X124711429Y-141125714D01*
X124711429Y-141482857D01*
X124640001Y-141625714D01*
X124568572Y-141697143D01*
X124425715Y-141768571D01*
X123997143Y-141768571D01*
X123854286Y-141697143D01*
X123782858Y-141625714D01*
X126425714Y-140197143D02*
X125140000Y-142125714D01*
X126925715Y-141768571D02*
X126925715Y-140268571D01*
X126925715Y-140840000D02*
X127068572Y-140768571D01*
X127354286Y-140768571D01*
X127497143Y-140840000D01*
X127568572Y-140911429D01*
X127640001Y-141054286D01*
X127640001Y-141482857D01*
X127568572Y-141625714D01*
X127497143Y-141697143D01*
X127354286Y-141768571D01*
X127068572Y-141768571D01*
X126925715Y-141697143D01*
X128925715Y-141768571D02*
X128925715Y-140982857D01*
X128854286Y-140840000D01*
X128711429Y-140768571D01*
X128425715Y-140768571D01*
X128282858Y-140840000D01*
X128925715Y-141697143D02*
X128782858Y-141768571D01*
X128425715Y-141768571D01*
X128282858Y-141697143D01*
X128211429Y-141554286D01*
X128211429Y-141411429D01*
X128282858Y-141268571D01*
X128425715Y-141197143D01*
X128782858Y-141197143D01*
X128925715Y-141125714D01*
X129568572Y-141697143D02*
X129711429Y-141768571D01*
X129997144Y-141768571D01*
X130140001Y-141697143D01*
X130211429Y-141554286D01*
X130211429Y-141482857D01*
X130140001Y-141340000D01*
X129997144Y-141268571D01*
X129782858Y-141268571D01*
X129640001Y-141197143D01*
X129568572Y-141054286D01*
X129568572Y-140982857D01*
X129640001Y-140840000D01*
X129782858Y-140768571D01*
X129997144Y-140768571D01*
X130140001Y-140840000D01*
X131425715Y-141697143D02*
X131282858Y-141768571D01*
X130997144Y-141768571D01*
X130854287Y-141697143D01*
X130782858Y-141554286D01*
X130782858Y-140982857D01*
X130854287Y-140840000D01*
X130997144Y-140768571D01*
X131282858Y-140768571D01*
X131425715Y-140840000D01*
X131497144Y-140982857D01*
X131497144Y-141125714D01*
X130782858Y-141268571D01*
X131782858Y-141911429D02*
X132925715Y-141911429D01*
X133925715Y-141697143D02*
X133782858Y-141768571D01*
X133497144Y-141768571D01*
X133354286Y-141697143D01*
X133282858Y-141625714D01*
X133211429Y-141482857D01*
X133211429Y-141054286D01*
X133282858Y-140911429D01*
X133354286Y-140840000D01*
X133497144Y-140768571D01*
X133782858Y-140768571D01*
X133925715Y-140840000D01*
X134782858Y-141768571D02*
X134640000Y-141697143D01*
X134568572Y-141625714D01*
X134497143Y-141482857D01*
X134497143Y-141054286D01*
X134568572Y-140911429D01*
X134640000Y-140840000D01*
X134782858Y-140768571D01*
X134997143Y-140768571D01*
X135140000Y-140840000D01*
X135211429Y-140911429D01*
X135282858Y-141054286D01*
X135282858Y-141482857D01*
X135211429Y-141625714D01*
X135140000Y-141697143D01*
X134997143Y-141768571D01*
X134782858Y-141768571D01*
X135925715Y-140768571D02*
X135925715Y-141768571D01*
X135925715Y-140911429D02*
X135997143Y-140840000D01*
X136140001Y-140768571D01*
X136354286Y-140768571D01*
X136497143Y-140840000D01*
X136568572Y-140982857D01*
X136568572Y-141768571D01*
X137140001Y-140768571D02*
X137497144Y-141768571D01*
X137854286Y-140768571D01*
X138997143Y-141697143D02*
X138854286Y-141768571D01*
X138568572Y-141768571D01*
X138425715Y-141697143D01*
X138354286Y-141554286D01*
X138354286Y-140982857D01*
X138425715Y-140840000D01*
X138568572Y-140768571D01*
X138854286Y-140768571D01*
X138997143Y-140840000D01*
X139068572Y-140982857D01*
X139068572Y-141125714D01*
X138354286Y-141268571D01*
X139711429Y-141768571D02*
X139711429Y-140768571D01*
X139711429Y-141054286D02*
X139782857Y-140911429D01*
X139854286Y-140840000D01*
X139997143Y-140768571D01*
X140140000Y-140768571D01*
X140425714Y-140768571D02*
X140997143Y-140768571D01*
X140640000Y-140268571D02*
X140640000Y-141554286D01*
X140711428Y-141697143D01*
X140854286Y-141768571D01*
X140997143Y-141768571D01*
X113854290Y-144247143D02*
X114068576Y-144318571D01*
X114425719Y-144318571D01*
X114568576Y-144247143D01*
X114640005Y-144175714D01*
X114711433Y-144032857D01*
X114711433Y-143890000D01*
X114640005Y-143747143D01*
X114568576Y-143675714D01*
X114425719Y-143604286D01*
X114140005Y-143532857D01*
X113997147Y-143461429D01*
X113925719Y-143390000D01*
X113854290Y-143247143D01*
X113854290Y-143104286D01*
X113925719Y-142961429D01*
X113997147Y-142890000D01*
X114140005Y-142818571D01*
X114497147Y-142818571D01*
X114711433Y-142890000D01*
X115997147Y-144318571D02*
X115997147Y-143532857D01*
X115925718Y-143390000D01*
X115782861Y-143318571D01*
X115497147Y-143318571D01*
X115354290Y-143390000D01*
X115997147Y-144247143D02*
X115854290Y-144318571D01*
X115497147Y-144318571D01*
X115354290Y-144247143D01*
X115282861Y-144104286D01*
X115282861Y-143961429D01*
X115354290Y-143818571D01*
X115497147Y-143747143D01*
X115854290Y-143747143D01*
X115997147Y-143675714D01*
X116711433Y-144318571D02*
X116711433Y-143318571D01*
X116711433Y-143461429D02*
X116782861Y-143390000D01*
X116925719Y-143318571D01*
X117140004Y-143318571D01*
X117282861Y-143390000D01*
X117354290Y-143532857D01*
X117354290Y-144318571D01*
X117354290Y-143532857D02*
X117425719Y-143390000D01*
X117568576Y-143318571D01*
X117782861Y-143318571D01*
X117925719Y-143390000D01*
X117997147Y-143532857D01*
X117997147Y-144318571D01*
X119854290Y-144318571D02*
X119854290Y-142818571D01*
X120425718Y-142818571D01*
X120568576Y-142890000D01*
X120640004Y-142961429D01*
X120711433Y-143104286D01*
X120711433Y-143318571D01*
X120640004Y-143461429D01*
X120568576Y-143532857D01*
X120425718Y-143604286D01*
X119854290Y-143604286D01*
X121925718Y-144247143D02*
X121782861Y-144318571D01*
X121497147Y-144318571D01*
X121354290Y-144247143D01*
X121282861Y-144104286D01*
X121282861Y-143532857D01*
X121354290Y-143390000D01*
X121497147Y-143318571D01*
X121782861Y-143318571D01*
X121925718Y-143390000D01*
X121997147Y-143532857D01*
X121997147Y-143675714D01*
X121282861Y-143818571D01*
X122640004Y-144318571D02*
X122640004Y-143318571D01*
X122640004Y-143604286D02*
X122711432Y-143461429D01*
X122782861Y-143390000D01*
X122925718Y-143318571D01*
X123068575Y-143318571D01*
X123568575Y-144318571D02*
X123568575Y-143318571D01*
X123568575Y-143604286D02*
X123640003Y-143461429D01*
X123711432Y-143390000D01*
X123854289Y-143318571D01*
X123997146Y-143318571D01*
X124354289Y-143318571D02*
X124711432Y-144318571D01*
X125068574Y-143318571D02*
X124711432Y-144318571D01*
X124568574Y-144675714D01*
X124497146Y-144747143D01*
X124354289Y-144818571D01*
X130640002Y-142818571D02*
X130640002Y-143890000D01*
X130568574Y-144104286D01*
X130425717Y-144247143D01*
X130211431Y-144318571D01*
X130068574Y-144318571D01*
X131997145Y-143318571D02*
X131997145Y-144318571D01*
X131354288Y-143318571D02*
X131354288Y-144104286D01*
X131425716Y-144247143D01*
X131568574Y-144318571D01*
X131782859Y-144318571D01*
X131925716Y-144247143D01*
X131997145Y-144175714D01*
X132925717Y-144318571D02*
X132782859Y-144247143D01*
X132711431Y-144104286D01*
X132711431Y-142818571D01*
X133354288Y-143318571D02*
X133711431Y-144318571D01*
X134068573Y-143318571D02*
X133711431Y-144318571D01*
X133568573Y-144675714D01*
X133497145Y-144747143D01*
X133354288Y-144818571D01*
X135711430Y-142961429D02*
X135782859Y-142890000D01*
X135925716Y-142818571D01*
X136282859Y-142818571D01*
X136425716Y-142890000D01*
X136497145Y-142961429D01*
X136568573Y-143104286D01*
X136568573Y-143247143D01*
X136497145Y-143461429D01*
X135640002Y-144318571D01*
X136568573Y-144318571D01*
X137497144Y-142818571D02*
X137640001Y-142818571D01*
X137782858Y-142890000D01*
X137854287Y-142961429D01*
X137925716Y-143104286D01*
X137997144Y-143390000D01*
X137997144Y-143747143D01*
X137925716Y-144032857D01*
X137854287Y-144175714D01*
X137782858Y-144247143D01*
X137640001Y-144318571D01*
X137497144Y-144318571D01*
X137354287Y-144247143D01*
X137282858Y-144175714D01*
X137211430Y-144032857D01*
X137140001Y-143747143D01*
X137140001Y-143390000D01*
X137211430Y-143104286D01*
X137282858Y-142961429D01*
X137354287Y-142890000D01*
X137497144Y-142818571D01*
X139425715Y-144318571D02*
X138568572Y-144318571D01*
X138997144Y-144318571D02*
X138997144Y-142818571D01*
X138854287Y-143032857D01*
X138711429Y-143175714D01*
X138568572Y-143247143D01*
X140282858Y-143461429D02*
X140140000Y-143390000D01*
X140068572Y-143318571D01*
X139997143Y-143175714D01*
X139997143Y-143104286D01*
X140068572Y-142961429D01*
X140140000Y-142890000D01*
X140282858Y-142818571D01*
X140568572Y-142818571D01*
X140711429Y-142890000D01*
X140782858Y-142961429D01*
X140854286Y-143104286D01*
X140854286Y-143175714D01*
X140782858Y-143318571D01*
X140711429Y-143390000D01*
X140568572Y-143461429D01*
X140282858Y-143461429D01*
X140140000Y-143532857D01*
X140068572Y-143604286D01*
X139997143Y-143747143D01*
X139997143Y-144032857D01*
X140068572Y-144175714D01*
X140140000Y-144247143D01*
X140282858Y-144318571D01*
X140568572Y-144318571D01*
X140711429Y-144247143D01*
X140782858Y-144175714D01*
X140854286Y-144032857D01*
X140854286Y-143747143D01*
X140782858Y-143604286D01*
X140711429Y-143532857D01*
X140568572Y-143461429D01*
D12*
X85880000Y-84740000D02*
X85880000Y-82640000D01*
X91220000Y-84740000D02*
X91220000Y-82640000D01*
D13*
X83750000Y-116830000D02*
G75*
G03X83750000Y-116830000I-1750000J0D01*
G01*
X85000000Y-119830000D02*
X79000000Y-119830000D01*
X85000000Y-113830000D02*
X85000000Y-119830000D01*
X79000000Y-113830000D02*
X85000000Y-113830000D01*
X79000000Y-119830000D02*
X79000000Y-113830000D01*
D12*
X76080000Y-141200000D02*
X76080000Y-142200000D01*
X77780000Y-142200000D02*
X77780000Y-141200000D01*
X70430000Y-141200000D02*
X70430000Y-142200000D01*
X72130000Y-142200000D02*
X72130000Y-141200000D01*
X65650000Y-137150000D02*
X66650000Y-137150000D01*
X66650000Y-135450000D02*
X65650000Y-135450000D01*
X65680000Y-138910000D02*
X66680000Y-138910000D01*
X66680000Y-137210000D02*
X65680000Y-137210000D01*
D13*
X121900000Y-71080000D02*
X125600000Y-71080000D01*
X125600000Y-71080000D02*
X125600000Y-74780000D01*
X124900000Y-75480000D02*
X121200000Y-75480000D01*
X121200000Y-75480000D02*
X121200000Y-71780000D01*
D12*
X122700000Y-75080000D02*
X124100000Y-75080000D01*
X124100000Y-75080000D02*
X124100000Y-72280000D01*
X122700000Y-75080000D02*
X122700000Y-72280000D01*
D13*
X101100000Y-71080000D02*
X104800000Y-71080000D01*
X104800000Y-71080000D02*
X104800000Y-74780000D01*
X104100000Y-75480000D02*
X100400000Y-75480000D01*
X100400000Y-75480000D02*
X100400000Y-71780000D01*
D12*
X101900000Y-75080000D02*
X103300000Y-75080000D01*
X103300000Y-75080000D02*
X103300000Y-72280000D01*
X101900000Y-75080000D02*
X101900000Y-72280000D01*
D13*
X80300000Y-71080000D02*
X84000000Y-71080000D01*
X84000000Y-71080000D02*
X84000000Y-74780000D01*
X83300000Y-75480000D02*
X79600000Y-75480000D01*
X79600000Y-75480000D02*
X79600000Y-71780000D01*
D12*
X81100000Y-75080000D02*
X82500000Y-75080000D01*
X82500000Y-75080000D02*
X82500000Y-72280000D01*
X81100000Y-75080000D02*
X81100000Y-72280000D01*
D13*
X59500000Y-71080000D02*
X63200000Y-71080000D01*
X63200000Y-71080000D02*
X63200000Y-74780000D01*
X62500000Y-75480000D02*
X58800000Y-75480000D01*
X58800000Y-75480000D02*
X58800000Y-71780000D01*
D12*
X60300000Y-75080000D02*
X61700000Y-75080000D01*
X61700000Y-75080000D02*
X61700000Y-72280000D01*
X60300000Y-75080000D02*
X60300000Y-72280000D01*
D13*
X127100000Y-71080000D02*
X130800000Y-71080000D01*
X130800000Y-71080000D02*
X130800000Y-74780000D01*
X130100000Y-75480000D02*
X126400000Y-75480000D01*
X126400000Y-75480000D02*
X126400000Y-71780000D01*
D12*
X127900000Y-75080000D02*
X129300000Y-75080000D01*
X129300000Y-75080000D02*
X129300000Y-72280000D01*
X127900000Y-75080000D02*
X127900000Y-72280000D01*
D13*
X106300000Y-71080000D02*
X110000000Y-71080000D01*
X110000000Y-71080000D02*
X110000000Y-74780000D01*
X109300000Y-75480000D02*
X105600000Y-75480000D01*
X105600000Y-75480000D02*
X105600000Y-71780000D01*
D12*
X107100000Y-75080000D02*
X108500000Y-75080000D01*
X108500000Y-75080000D02*
X108500000Y-72280000D01*
X107100000Y-75080000D02*
X107100000Y-72280000D01*
D13*
X85500000Y-71080000D02*
X89200000Y-71080000D01*
X89200000Y-71080000D02*
X89200000Y-74780000D01*
X88500000Y-75480000D02*
X84800000Y-75480000D01*
X84800000Y-75480000D02*
X84800000Y-71780000D01*
D12*
X86300000Y-75080000D02*
X87700000Y-75080000D01*
X87700000Y-75080000D02*
X87700000Y-72280000D01*
X86300000Y-75080000D02*
X86300000Y-72280000D01*
D13*
X64700000Y-71080000D02*
X68400000Y-71080000D01*
X68400000Y-71080000D02*
X68400000Y-74780000D01*
X67700000Y-75480000D02*
X64000000Y-75480000D01*
X64000000Y-75480000D02*
X64000000Y-71780000D01*
D12*
X65500000Y-75080000D02*
X66900000Y-75080000D01*
X66900000Y-75080000D02*
X66900000Y-72280000D01*
X65500000Y-75080000D02*
X65500000Y-72280000D01*
D13*
X132300000Y-71080000D02*
X136000000Y-71080000D01*
X136000000Y-71080000D02*
X136000000Y-74780000D01*
X135300000Y-75480000D02*
X131600000Y-75480000D01*
X131600000Y-75480000D02*
X131600000Y-71780000D01*
D12*
X133100000Y-75080000D02*
X134500000Y-75080000D01*
X134500000Y-75080000D02*
X134500000Y-72280000D01*
X133100000Y-75080000D02*
X133100000Y-72280000D01*
D13*
X111500000Y-71080000D02*
X115200000Y-71080000D01*
X115200000Y-71080000D02*
X115200000Y-74780000D01*
X114500000Y-75480000D02*
X110800000Y-75480000D01*
X110800000Y-75480000D02*
X110800000Y-71780000D01*
D12*
X112300000Y-75080000D02*
X113700000Y-75080000D01*
X113700000Y-75080000D02*
X113700000Y-72280000D01*
X112300000Y-75080000D02*
X112300000Y-72280000D01*
D13*
X90700000Y-71080000D02*
X94400000Y-71080000D01*
X94400000Y-71080000D02*
X94400000Y-74780000D01*
X93700000Y-75480000D02*
X90000000Y-75480000D01*
X90000000Y-75480000D02*
X90000000Y-71780000D01*
D12*
X91500000Y-75080000D02*
X92900000Y-75080000D01*
X92900000Y-75080000D02*
X92900000Y-72280000D01*
X91500000Y-75080000D02*
X91500000Y-72280000D01*
D13*
X69900000Y-71080000D02*
X73600000Y-71080000D01*
X73600000Y-71080000D02*
X73600000Y-74780000D01*
X72900000Y-75480000D02*
X69200000Y-75480000D01*
X69200000Y-75480000D02*
X69200000Y-71780000D01*
D12*
X70700000Y-75080000D02*
X72100000Y-75080000D01*
X72100000Y-75080000D02*
X72100000Y-72280000D01*
X70700000Y-75080000D02*
X70700000Y-72280000D01*
D13*
X137500000Y-71080000D02*
X141200000Y-71080000D01*
X141200000Y-71080000D02*
X141200000Y-74780000D01*
X140500000Y-75480000D02*
X136800000Y-75480000D01*
X136800000Y-75480000D02*
X136800000Y-71780000D01*
D12*
X138300000Y-75080000D02*
X139700000Y-75080000D01*
X139700000Y-75080000D02*
X139700000Y-72280000D01*
X138300000Y-75080000D02*
X138300000Y-72280000D01*
D13*
X116700000Y-71080000D02*
X120400000Y-71080000D01*
X120400000Y-71080000D02*
X120400000Y-74780000D01*
X119700000Y-75480000D02*
X116000000Y-75480000D01*
X116000000Y-75480000D02*
X116000000Y-71780000D01*
D12*
X117500000Y-75080000D02*
X118900000Y-75080000D01*
X118900000Y-75080000D02*
X118900000Y-72280000D01*
X117500000Y-75080000D02*
X117500000Y-72280000D01*
D13*
X95900000Y-71080000D02*
X99600000Y-71080000D01*
X99600000Y-71080000D02*
X99600000Y-74780000D01*
X98900000Y-75480000D02*
X95200000Y-75480000D01*
X95200000Y-75480000D02*
X95200000Y-71780000D01*
D12*
X96700000Y-75080000D02*
X98100000Y-75080000D01*
X98100000Y-75080000D02*
X98100000Y-72280000D01*
X96700000Y-75080000D02*
X96700000Y-72280000D01*
D13*
X75100000Y-71080000D02*
X78800000Y-71080000D01*
X78800000Y-71080000D02*
X78800000Y-74780000D01*
X78100000Y-75480000D02*
X74400000Y-75480000D01*
X74400000Y-75480000D02*
X74400000Y-71780000D01*
D12*
X75900000Y-75080000D02*
X77300000Y-75080000D01*
X77300000Y-75080000D02*
X77300000Y-72280000D01*
X75900000Y-75080000D02*
X75900000Y-72280000D01*
D14*
X71810000Y-64930000D02*
X71810000Y-63630000D01*
X67810000Y-64930000D02*
X67810000Y-63630000D01*
X67810000Y-60930000D02*
X67810000Y-62230000D01*
X71810000Y-60930000D02*
X71810000Y-62230000D01*
X71110000Y-65530000D02*
X68510000Y-65530000D01*
X68510000Y-60330000D02*
X71110000Y-60330000D01*
X68510000Y-62930000D02*
X71110000Y-62930000D01*
D13*
X58490000Y-57930000D02*
X73510000Y-57930000D01*
X73510000Y-57930000D02*
X73510000Y-67930000D01*
X73510000Y-67930000D02*
X58490000Y-67930000D01*
X58490000Y-67930000D02*
X58490000Y-57930000D01*
D14*
X60190000Y-60930000D02*
X60190000Y-62230000D01*
X60890000Y-60330000D02*
X63490000Y-60330000D01*
X60190000Y-64930000D02*
X60190000Y-63630000D01*
X60890000Y-62930000D02*
X63490000Y-62930000D01*
X63490000Y-65530000D02*
X60890000Y-65530000D01*
X64190000Y-60930000D02*
X64190000Y-62230000D01*
X64190000Y-64930000D02*
X64190000Y-63630000D01*
X87480000Y-64930000D02*
X87480000Y-63630000D01*
X83480000Y-64930000D02*
X83480000Y-63630000D01*
X83480000Y-60930000D02*
X83480000Y-62230000D01*
X87480000Y-60930000D02*
X87480000Y-62230000D01*
X86780000Y-65530000D02*
X84180000Y-65530000D01*
X84180000Y-60330000D02*
X86780000Y-60330000D01*
X84180000Y-62930000D02*
X86780000Y-62930000D01*
D13*
X74160000Y-57930000D02*
X89180000Y-57930000D01*
X89180000Y-57930000D02*
X89180000Y-67930000D01*
X89180000Y-67930000D02*
X74160000Y-67930000D01*
X74160000Y-67930000D02*
X74160000Y-57930000D01*
D14*
X75860000Y-60930000D02*
X75860000Y-62230000D01*
X76560000Y-60330000D02*
X79160000Y-60330000D01*
X75860000Y-64930000D02*
X75860000Y-63630000D01*
X76560000Y-62930000D02*
X79160000Y-62930000D01*
X79160000Y-65530000D02*
X76560000Y-65530000D01*
X79860000Y-60930000D02*
X79860000Y-62230000D01*
X79860000Y-64930000D02*
X79860000Y-63630000D01*
X108470000Y-64930000D02*
X108470000Y-63630000D01*
X104470000Y-64930000D02*
X104470000Y-63630000D01*
X104470000Y-60930000D02*
X104470000Y-62230000D01*
X108470000Y-60930000D02*
X108470000Y-62230000D01*
X107770000Y-65530000D02*
X105170000Y-65530000D01*
X105170000Y-60330000D02*
X107770000Y-60330000D01*
X105170000Y-62930000D02*
X107770000Y-62930000D01*
D13*
X95150000Y-57930000D02*
X110170000Y-57930000D01*
X110170000Y-57930000D02*
X110170000Y-67930000D01*
X110170000Y-67930000D02*
X95150000Y-67930000D01*
X95150000Y-67930000D02*
X95150000Y-57930000D01*
D14*
X96850000Y-60930000D02*
X96850000Y-62230000D01*
X97550000Y-60330000D02*
X100150000Y-60330000D01*
X96850000Y-64930000D02*
X96850000Y-63630000D01*
X97550000Y-62930000D02*
X100150000Y-62930000D01*
X100150000Y-65530000D02*
X97550000Y-65530000D01*
X100850000Y-60930000D02*
X100850000Y-62230000D01*
X100850000Y-64930000D02*
X100850000Y-63630000D01*
X124140000Y-64930000D02*
X124140000Y-63630000D01*
X120140000Y-64930000D02*
X120140000Y-63630000D01*
X120140000Y-60930000D02*
X120140000Y-62230000D01*
X124140000Y-60930000D02*
X124140000Y-62230000D01*
X123440000Y-65530000D02*
X120840000Y-65530000D01*
X120840000Y-60330000D02*
X123440000Y-60330000D01*
X120840000Y-62930000D02*
X123440000Y-62930000D01*
D13*
X110820000Y-57930000D02*
X125840000Y-57930000D01*
X125840000Y-57930000D02*
X125840000Y-67930000D01*
X125840000Y-67930000D02*
X110820000Y-67930000D01*
X110820000Y-67930000D02*
X110820000Y-57930000D01*
D14*
X112520000Y-60930000D02*
X112520000Y-62230000D01*
X113220000Y-60330000D02*
X115820000Y-60330000D01*
X112520000Y-64930000D02*
X112520000Y-63630000D01*
X113220000Y-62930000D02*
X115820000Y-62930000D01*
X115820000Y-65530000D02*
X113220000Y-65530000D01*
X116520000Y-60930000D02*
X116520000Y-62230000D01*
X116520000Y-64930000D02*
X116520000Y-63630000D01*
X139810000Y-64930000D02*
X139810000Y-63630000D01*
X135810000Y-64930000D02*
X135810000Y-63630000D01*
X135810000Y-60930000D02*
X135810000Y-62230000D01*
X139810000Y-60930000D02*
X139810000Y-62230000D01*
X139110000Y-65530000D02*
X136510000Y-65530000D01*
X136510000Y-60330000D02*
X139110000Y-60330000D01*
X136510000Y-62930000D02*
X139110000Y-62930000D01*
D13*
X126490000Y-57930000D02*
X141510000Y-57930000D01*
X141510000Y-57930000D02*
X141510000Y-67930000D01*
X141510000Y-67930000D02*
X126490000Y-67930000D01*
X126490000Y-67930000D02*
X126490000Y-57930000D01*
D14*
X128190000Y-60930000D02*
X128190000Y-62230000D01*
X128890000Y-60330000D02*
X131490000Y-60330000D01*
X128190000Y-64930000D02*
X128190000Y-63630000D01*
X128890000Y-62930000D02*
X131490000Y-62930000D01*
X131490000Y-65530000D02*
X128890000Y-65530000D01*
X132190000Y-60930000D02*
X132190000Y-62230000D01*
X132190000Y-64930000D02*
X132190000Y-63630000D01*
D12*
X60320000Y-142700000D02*
X62980000Y-142700000D01*
X60320000Y-135020000D02*
X60320000Y-142700000D01*
X62980000Y-135020000D02*
X62980000Y-142700000D01*
X60320000Y-135020000D02*
X62980000Y-135020000D01*
X60320000Y-133750000D02*
X60320000Y-132420000D01*
X60320000Y-132420000D02*
X61650000Y-132420000D01*
X66780000Y-141170000D02*
X64780000Y-141170000D01*
X64780000Y-139030000D02*
X66780000Y-139030000D01*
X136670000Y-87460000D02*
X136670000Y-88390000D01*
X136670000Y-90620000D02*
X136670000Y-89690000D01*
X136670000Y-90620000D02*
X138830000Y-90620000D01*
X136670000Y-87460000D02*
X138130000Y-87460000D01*
X92960000Y-78100000D02*
X92960000Y-79030000D01*
X92960000Y-81260000D02*
X92960000Y-80330000D01*
X92960000Y-81260000D02*
X95120000Y-81260000D01*
X92960000Y-78100000D02*
X94420000Y-78100000D01*
X89510000Y-78100000D02*
X89510000Y-79030000D01*
X89510000Y-81260000D02*
X89510000Y-80330000D01*
X89510000Y-81260000D02*
X91670000Y-81260000D01*
X89510000Y-78100000D02*
X90970000Y-78100000D01*
X86060000Y-78100000D02*
X86060000Y-79030000D01*
X86060000Y-81260000D02*
X86060000Y-80330000D01*
X86060000Y-81260000D02*
X88220000Y-81260000D01*
X86060000Y-78100000D02*
X87520000Y-78100000D01*
X82610000Y-78100000D02*
X82610000Y-79030000D01*
X82610000Y-81260000D02*
X82610000Y-80330000D01*
X82610000Y-81260000D02*
X84770000Y-81260000D01*
X82610000Y-78100000D02*
X84070000Y-78100000D01*
X75840000Y-80610000D02*
X75840000Y-81540000D01*
X75840000Y-83770000D02*
X75840000Y-82840000D01*
X75840000Y-83770000D02*
X78000000Y-83770000D01*
X75840000Y-80610000D02*
X77300000Y-80610000D01*
X72390000Y-80610000D02*
X72390000Y-81540000D01*
X72390000Y-83770000D02*
X72390000Y-82840000D01*
X72390000Y-83770000D02*
X74550000Y-83770000D01*
X72390000Y-80610000D02*
X73850000Y-80610000D01*
X68940000Y-80610000D02*
X68940000Y-81540000D01*
X68940000Y-83770000D02*
X68940000Y-82840000D01*
X68940000Y-83770000D02*
X71100000Y-83770000D01*
X68940000Y-80610000D02*
X70400000Y-80610000D01*
X65490000Y-80610000D02*
X65490000Y-81540000D01*
X65490000Y-83770000D02*
X65490000Y-82840000D01*
X65490000Y-83770000D02*
X67650000Y-83770000D01*
X65490000Y-80610000D02*
X66950000Y-80610000D01*
X97240000Y-88260000D02*
X97240000Y-89190000D01*
X97240000Y-91420000D02*
X97240000Y-90490000D01*
X97240000Y-91420000D02*
X99400000Y-91420000D01*
X97240000Y-88260000D02*
X98700000Y-88260000D01*
X100690000Y-88260000D02*
X100690000Y-89190000D01*
X100690000Y-91420000D02*
X100690000Y-90490000D01*
X100690000Y-91420000D02*
X102850000Y-91420000D01*
X100690000Y-88260000D02*
X102150000Y-88260000D01*
X104140000Y-88260000D02*
X104140000Y-89190000D01*
X104140000Y-91420000D02*
X104140000Y-90490000D01*
X104140000Y-91420000D02*
X106300000Y-91420000D01*
X104140000Y-88260000D02*
X105600000Y-88260000D01*
X107590000Y-88260000D02*
X107590000Y-89190000D01*
X107590000Y-91420000D02*
X107590000Y-90490000D01*
X107590000Y-91420000D02*
X109750000Y-91420000D01*
X107590000Y-88260000D02*
X109050000Y-88260000D01*
X111040000Y-88260000D02*
X111040000Y-89190000D01*
X111040000Y-91420000D02*
X111040000Y-90490000D01*
X111040000Y-91420000D02*
X113200000Y-91420000D01*
X111040000Y-88260000D02*
X112500000Y-88260000D01*
X114490000Y-88260000D02*
X114490000Y-89190000D01*
X114490000Y-91420000D02*
X114490000Y-90490000D01*
X114490000Y-91420000D02*
X116650000Y-91420000D01*
X114490000Y-88260000D02*
X115950000Y-88260000D01*
X117940000Y-88260000D02*
X117940000Y-89190000D01*
X117940000Y-91420000D02*
X117940000Y-90490000D01*
X117940000Y-91420000D02*
X120100000Y-91420000D01*
X117940000Y-88260000D02*
X119400000Y-88260000D01*
X121390000Y-88260000D02*
X121390000Y-89190000D01*
X121390000Y-91420000D02*
X121390000Y-90490000D01*
X121390000Y-91420000D02*
X123550000Y-91420000D01*
X121390000Y-88260000D02*
X122850000Y-88260000D01*
X124840000Y-88260000D02*
X124840000Y-89190000D01*
X124840000Y-91420000D02*
X124840000Y-90490000D01*
X124840000Y-91420000D02*
X127000000Y-91420000D01*
X124840000Y-88260000D02*
X126300000Y-88260000D01*
X128290000Y-88260000D02*
X128290000Y-89190000D01*
X128290000Y-91420000D02*
X128290000Y-90490000D01*
X128290000Y-91420000D02*
X130450000Y-91420000D01*
X128290000Y-88260000D02*
X129750000Y-88260000D01*
X72140000Y-96080000D02*
X72140000Y-97010000D01*
X72140000Y-99240000D02*
X72140000Y-98310000D01*
X72140000Y-99240000D02*
X74300000Y-99240000D01*
X72140000Y-96080000D02*
X73600000Y-96080000D01*
X68690000Y-96080000D02*
X68690000Y-97010000D01*
X68690000Y-99240000D02*
X68690000Y-98310000D01*
X68690000Y-99240000D02*
X70850000Y-99240000D01*
X68690000Y-96080000D02*
X70150000Y-96080000D01*
X65240000Y-96080000D02*
X65240000Y-97010000D01*
X65240000Y-99240000D02*
X65240000Y-98310000D01*
X65240000Y-99240000D02*
X67400000Y-99240000D01*
X65240000Y-96080000D02*
X66700000Y-96080000D01*
X61790000Y-96080000D02*
X61790000Y-97010000D01*
X61790000Y-99240000D02*
X61790000Y-98310000D01*
X61790000Y-99240000D02*
X63950000Y-99240000D01*
X61790000Y-96080000D02*
X63250000Y-96080000D01*
X69840000Y-85070000D02*
X69840000Y-86000000D01*
X69840000Y-88230000D02*
X69840000Y-87300000D01*
X69840000Y-88230000D02*
X72000000Y-88230000D01*
X69840000Y-85070000D02*
X71300000Y-85070000D01*
X66390000Y-85070000D02*
X66390000Y-86000000D01*
X66390000Y-88230000D02*
X66390000Y-87300000D01*
X66390000Y-88230000D02*
X68550000Y-88230000D01*
X66390000Y-85070000D02*
X67850000Y-85070000D01*
X62940000Y-85070000D02*
X62940000Y-86000000D01*
X62940000Y-88230000D02*
X62940000Y-87300000D01*
X62940000Y-88230000D02*
X65100000Y-88230000D01*
X62940000Y-85070000D02*
X64400000Y-85070000D01*
X59490000Y-85070000D02*
X59490000Y-86000000D01*
X59490000Y-88230000D02*
X59490000Y-87300000D01*
X59490000Y-88230000D02*
X61650000Y-88230000D01*
X59490000Y-85070000D02*
X60950000Y-85070000D01*
X74250000Y-137420000D02*
X75250000Y-137420000D01*
X75250000Y-138780000D02*
X74250000Y-138780000D01*
X75250000Y-136830000D02*
X74250000Y-136830000D01*
X74250000Y-135470000D02*
X75250000Y-135470000D01*
D13*
X119750000Y-121830000D02*
G75*
G03X119750000Y-121830000I-1750000J0D01*
G01*
X121000000Y-124830000D02*
X115000000Y-124830000D01*
X121000000Y-118830000D02*
X121000000Y-124830000D01*
X115000000Y-118830000D02*
X121000000Y-118830000D01*
X115000000Y-124830000D02*
X115000000Y-118830000D01*
X119750000Y-111830000D02*
G75*
G03X119750000Y-111830000I-1750000J0D01*
G01*
X121000000Y-114830000D02*
X115000000Y-114830000D01*
X121000000Y-108830000D02*
X121000000Y-114830000D01*
X115000000Y-108830000D02*
X121000000Y-108830000D01*
X115000000Y-114830000D02*
X115000000Y-108830000D01*
X119750000Y-101830000D02*
G75*
G03X119750000Y-101830000I-1750000J0D01*
G01*
X121000000Y-104830000D02*
X115000000Y-104830000D01*
X121000000Y-98830000D02*
X121000000Y-104830000D01*
X115000000Y-98830000D02*
X121000000Y-98830000D01*
X115000000Y-104830000D02*
X115000000Y-98830000D01*
X83750000Y-86830000D02*
G75*
G03X83750000Y-86830000I-1750000J0D01*
G01*
X85000000Y-89830000D02*
X79000000Y-89830000D01*
X85000000Y-83830000D02*
X85000000Y-89830000D01*
X79000000Y-83830000D02*
X85000000Y-83830000D01*
X79000000Y-89830000D02*
X79000000Y-83830000D01*
X107750000Y-121830000D02*
G75*
G03X107750000Y-121830000I-1750000J0D01*
G01*
X109000000Y-124830000D02*
X103000000Y-124830000D01*
X109000000Y-118830000D02*
X109000000Y-124830000D01*
X103000000Y-118830000D02*
X109000000Y-118830000D01*
X103000000Y-124830000D02*
X103000000Y-118830000D01*
X107750000Y-111830000D02*
G75*
G03X107750000Y-111830000I-1750000J0D01*
G01*
X109000000Y-114830000D02*
X103000000Y-114830000D01*
X109000000Y-108830000D02*
X109000000Y-114830000D01*
X103000000Y-108830000D02*
X109000000Y-108830000D01*
X103000000Y-114830000D02*
X103000000Y-108830000D01*
X107750000Y-101830000D02*
G75*
G03X107750000Y-101830000I-1750000J0D01*
G01*
X109000000Y-104830000D02*
X103000000Y-104830000D01*
X109000000Y-98830000D02*
X109000000Y-104830000D01*
X103000000Y-98830000D02*
X109000000Y-98830000D01*
X103000000Y-104830000D02*
X103000000Y-98830000D01*
X107750000Y-131830000D02*
G75*
G03X107750000Y-131830000I-1750000J0D01*
G01*
X109000000Y-134830000D02*
X103000000Y-134830000D01*
X109000000Y-128830000D02*
X109000000Y-134830000D01*
X103000000Y-128830000D02*
X109000000Y-128830000D01*
X103000000Y-134830000D02*
X103000000Y-128830000D01*
X95750000Y-121830000D02*
G75*
G03X95750000Y-121830000I-1750000J0D01*
G01*
X97000000Y-124830000D02*
X91000000Y-124830000D01*
X97000000Y-118830000D02*
X97000000Y-124830000D01*
X91000000Y-118830000D02*
X97000000Y-118830000D01*
X91000000Y-124830000D02*
X91000000Y-118830000D01*
X95750000Y-111830000D02*
G75*
G03X95750000Y-111830000I-1750000J0D01*
G01*
X97000000Y-114830000D02*
X91000000Y-114830000D01*
X97000000Y-108830000D02*
X97000000Y-114830000D01*
X91000000Y-108830000D02*
X97000000Y-108830000D01*
X91000000Y-114830000D02*
X91000000Y-108830000D01*
X95750000Y-101830000D02*
G75*
G03X95750000Y-101830000I-1750000J0D01*
G01*
X97000000Y-104830000D02*
X91000000Y-104830000D01*
X97000000Y-98830000D02*
X97000000Y-104830000D01*
X91000000Y-98830000D02*
X97000000Y-98830000D01*
X91000000Y-104830000D02*
X91000000Y-98830000D01*
X83750000Y-136830000D02*
G75*
G03X83750000Y-136830000I-1750000J0D01*
G01*
X79000000Y-133830000D02*
X85000000Y-133830000D01*
X79000000Y-139830000D02*
X79000000Y-133830000D01*
X85000000Y-139830000D02*
X79000000Y-139830000D01*
X85000000Y-133830000D02*
X85000000Y-139830000D01*
X119750000Y-131830000D02*
G75*
G03X119750000Y-131830000I-1750000J0D01*
G01*
X121000000Y-134830000D02*
X115000000Y-134830000D01*
X121000000Y-128830000D02*
X121000000Y-134830000D01*
X115000000Y-128830000D02*
X121000000Y-128830000D01*
X115000000Y-134830000D02*
X115000000Y-128830000D01*
X83750000Y-126830000D02*
G75*
G03X83750000Y-126830000I-1750000J0D01*
G01*
X85000000Y-129830000D02*
X79000000Y-129830000D01*
X85000000Y-123830000D02*
X85000000Y-129830000D01*
X79000000Y-123830000D02*
X85000000Y-123830000D01*
X79000000Y-129830000D02*
X79000000Y-123830000D01*
X83750000Y-106830000D02*
G75*
G03X83750000Y-106830000I-1750000J0D01*
G01*
X85000000Y-109830000D02*
X79000000Y-109830000D01*
X85000000Y-103830000D02*
X85000000Y-109830000D01*
X79000000Y-103830000D02*
X85000000Y-103830000D01*
X79000000Y-109830000D02*
X79000000Y-103830000D01*
X83750000Y-96830000D02*
G75*
G03X83750000Y-96830000I-1750000J0D01*
G01*
X85000000Y-99830000D02*
X79000000Y-99830000D01*
X85000000Y-93830000D02*
X85000000Y-99830000D01*
X79000000Y-93830000D02*
X85000000Y-93830000D01*
X79000000Y-99830000D02*
X79000000Y-93830000D01*
D12*
X75000000Y-140040000D02*
X73200000Y-140040000D01*
X73200000Y-143260000D02*
X75650000Y-143260000D01*
D13*
X59805000Y-130625000D02*
X60805000Y-130625000D01*
X59805000Y-120275000D02*
X60880000Y-120275000D01*
X70155000Y-120275000D02*
X69080000Y-120275000D01*
X70155000Y-130625000D02*
X69080000Y-130625000D01*
X59805000Y-130625000D02*
X59805000Y-129550000D01*
X70155000Y-130625000D02*
X70155000Y-129550000D01*
X70155000Y-120275000D02*
X70155000Y-121350000D01*
X59805000Y-120275000D02*
X59805000Y-121350000D01*
X60805000Y-130625000D02*
X60805000Y-131650000D01*
D12*
X66130000Y-79240000D02*
X66130000Y-77140000D01*
X71470000Y-79240000D02*
X71470000Y-77140000D01*
X72780000Y-87250000D02*
X72780000Y-85150000D01*
X78120000Y-87250000D02*
X78120000Y-85150000D01*
X105840000Y-92790000D02*
X105840000Y-94890000D01*
X100500000Y-92790000D02*
X100500000Y-94890000D01*
X119650000Y-92790000D02*
X119650000Y-94890000D01*
X114310000Y-92790000D02*
X114310000Y-94890000D01*
X130570000Y-92790000D02*
X130570000Y-94890000D01*
X125230000Y-92790000D02*
X125230000Y-94890000D01*
X61030000Y-94710000D02*
X61030000Y-92610000D01*
X66370000Y-94710000D02*
X66370000Y-92610000D01*
X58730000Y-83200000D02*
X58730000Y-81100000D01*
X64070000Y-83200000D02*
X64070000Y-81100000D01*
X65060000Y-102720000D02*
X65060000Y-100620000D01*
X70400000Y-102720000D02*
X70400000Y-100620000D01*
X66780000Y-91710000D02*
X66780000Y-89610000D01*
X72120000Y-91710000D02*
X72120000Y-89610000D01*
D15*
G36*
X140416840Y-106466120D02*
X131417303Y-106468665D01*
X130886306Y-106468811D01*
X130375289Y-106468940D01*
X129883915Y-106469054D01*
X129411844Y-106469150D01*
X128958736Y-106469231D01*
X128524253Y-106469293D01*
X128108057Y-106469338D01*
X127709806Y-106469366D01*
X127329164Y-106469374D01*
X126965790Y-106469364D01*
X126619347Y-106469335D01*
X126289493Y-106469286D01*
X125975892Y-106469217D01*
X125678203Y-106469128D01*
X125396087Y-106469018D01*
X125129206Y-106468887D01*
X124877221Y-106468734D01*
X124639792Y-106468560D01*
X124416580Y-106468363D01*
X124207247Y-106468144D01*
X124011454Y-106467902D01*
X123828860Y-106467636D01*
X123659128Y-106467347D01*
X123501919Y-106467033D01*
X123356892Y-106466695D01*
X123223710Y-106466332D01*
X123102033Y-106465944D01*
X122991522Y-106465530D01*
X122891839Y-106465090D01*
X122802643Y-106464623D01*
X122723597Y-106464130D01*
X122654360Y-106463609D01*
X122594595Y-106463061D01*
X122543961Y-106462485D01*
X122502121Y-106461880D01*
X122468734Y-106461247D01*
X122443463Y-106460585D01*
X122425967Y-106459893D01*
X122415908Y-106459171D01*
X122412937Y-106458505D01*
X122412465Y-106447217D01*
X122412032Y-106416591D01*
X122411639Y-106367606D01*
X122411287Y-106301246D01*
X122410977Y-106218489D01*
X122410710Y-106120319D01*
X122410487Y-106007715D01*
X122410309Y-105881660D01*
X122410178Y-105743134D01*
X122410095Y-105593118D01*
X122410060Y-105432593D01*
X122410075Y-105262541D01*
X122410141Y-105083943D01*
X122410258Y-104897780D01*
X122410428Y-104705033D01*
X122410653Y-104506684D01*
X122410714Y-104459520D01*
X122413320Y-102473240D01*
X140416840Y-102473240D01*
X140416840Y-106466120D01*
X140416840Y-106466120D01*
G37*
X140416840Y-106466120D02*
X131417303Y-106468665D01*
X130886306Y-106468811D01*
X130375289Y-106468940D01*
X129883915Y-106469054D01*
X129411844Y-106469150D01*
X128958736Y-106469231D01*
X128524253Y-106469293D01*
X128108057Y-106469338D01*
X127709806Y-106469366D01*
X127329164Y-106469374D01*
X126965790Y-106469364D01*
X126619347Y-106469335D01*
X126289493Y-106469286D01*
X125975892Y-106469217D01*
X125678203Y-106469128D01*
X125396087Y-106469018D01*
X125129206Y-106468887D01*
X124877221Y-106468734D01*
X124639792Y-106468560D01*
X124416580Y-106468363D01*
X124207247Y-106468144D01*
X124011454Y-106467902D01*
X123828860Y-106467636D01*
X123659128Y-106467347D01*
X123501919Y-106467033D01*
X123356892Y-106466695D01*
X123223710Y-106466332D01*
X123102033Y-106465944D01*
X122991522Y-106465530D01*
X122891839Y-106465090D01*
X122802643Y-106464623D01*
X122723597Y-106464130D01*
X122654360Y-106463609D01*
X122594595Y-106463061D01*
X122543961Y-106462485D01*
X122502121Y-106461880D01*
X122468734Y-106461247D01*
X122443463Y-106460585D01*
X122425967Y-106459893D01*
X122415908Y-106459171D01*
X122412937Y-106458505D01*
X122412465Y-106447217D01*
X122412032Y-106416591D01*
X122411639Y-106367606D01*
X122411287Y-106301246D01*
X122410977Y-106218489D01*
X122410710Y-106120319D01*
X122410487Y-106007715D01*
X122410309Y-105881660D01*
X122410178Y-105743134D01*
X122410095Y-105593118D01*
X122410060Y-105432593D01*
X122410075Y-105262541D01*
X122410141Y-105083943D01*
X122410258Y-104897780D01*
X122410428Y-104705033D01*
X122410653Y-104506684D01*
X122410714Y-104459520D01*
X122413320Y-102473240D01*
X140416840Y-102473240D01*
X140416840Y-106466120D01*
G36*
X123150905Y-99980723D02*
X123210880Y-99982287D01*
X123318663Y-99987515D01*
X123413207Y-99996953D01*
X123501367Y-100011797D01*
X123589998Y-100033247D01*
X123685956Y-100062499D01*
X123703640Y-100068384D01*
X123815400Y-100105960D01*
X123818229Y-100252482D01*
X123818695Y-100305254D01*
X123818053Y-100350758D01*
X123816437Y-100385143D01*
X123813982Y-100404555D01*
X123812839Y-100407224D01*
X123800953Y-100406145D01*
X123778283Y-100395087D01*
X123754129Y-100379460D01*
X123673617Y-100330293D01*
X123578493Y-100285990D01*
X123474292Y-100248765D01*
X123366550Y-100220836D01*
X123349158Y-100217340D01*
X123289300Y-100208776D01*
X123220116Y-100203591D01*
X123147417Y-100201787D01*
X123077017Y-100203366D01*
X123014725Y-100208330D01*
X122966355Y-100216682D01*
X122964329Y-100217209D01*
X122877269Y-100247824D01*
X122806173Y-100288761D01*
X122751726Y-100339296D01*
X122714613Y-100398707D01*
X122695520Y-100466270D01*
X122692943Y-100503462D01*
X122700721Y-100579762D01*
X122724889Y-100644184D01*
X122765805Y-100697344D01*
X122823833Y-100739854D01*
X122835685Y-100746198D01*
X122862976Y-100758899D01*
X122893973Y-100770495D01*
X122931524Y-100781703D01*
X122978479Y-100793237D01*
X123037686Y-100805812D01*
X123111994Y-100820144D01*
X123179654Y-100832530D01*
X123286560Y-100852588D01*
X123376131Y-100871254D01*
X123451235Y-100889298D01*
X123514743Y-100907489D01*
X123569523Y-100926594D01*
X123618445Y-100947383D01*
X123631217Y-100953480D01*
X123717619Y-101004792D01*
X123786267Y-101065886D01*
X123837497Y-101137300D01*
X123871645Y-101219572D01*
X123889045Y-101313240D01*
X123891600Y-101370880D01*
X123881954Y-101476064D01*
X123853543Y-101574253D01*
X123807158Y-101663978D01*
X123743586Y-101743768D01*
X123663619Y-101812154D01*
X123649262Y-101822001D01*
X123558518Y-101874363D01*
X123461620Y-101914169D01*
X123356217Y-101941906D01*
X123239955Y-101958061D01*
X123110480Y-101963121D01*
X122987360Y-101959006D01*
X122848656Y-101943481D01*
X122706547Y-101914578D01*
X122568787Y-101874160D01*
X122461580Y-101832447D01*
X122408240Y-101808878D01*
X122408240Y-101650839D01*
X122408930Y-101581062D01*
X122411005Y-101531504D01*
X122414468Y-101502106D01*
X122419119Y-101492800D01*
X122432161Y-101498336D01*
X122456639Y-101512964D01*
X122487638Y-101533712D01*
X122492779Y-101537333D01*
X122617938Y-101613793D01*
X122752469Y-101672778D01*
X122894383Y-101713661D01*
X123041689Y-101735814D01*
X123134680Y-101739866D01*
X123246744Y-101735000D01*
X123342998Y-101719295D01*
X123425134Y-101692235D01*
X123494844Y-101653305D01*
X123539400Y-101616574D01*
X123586304Y-101558053D01*
X123615743Y-101490605D01*
X123627006Y-101416808D01*
X123619377Y-101339237D01*
X123617935Y-101332974D01*
X123605935Y-101294651D01*
X123588493Y-101261054D01*
X123563996Y-101231453D01*
X123530827Y-101205116D01*
X123487372Y-101181315D01*
X123432015Y-101159316D01*
X123363142Y-101138391D01*
X123279136Y-101117808D01*
X123178384Y-101096837D01*
X123059269Y-101074747D01*
X123039302Y-101071218D01*
X122979392Y-101060076D01*
X122921090Y-101048145D01*
X122869857Y-101036616D01*
X122831150Y-101026681D01*
X122820862Y-101023571D01*
X122712666Y-100980914D01*
X122622370Y-100928845D01*
X122549671Y-100866987D01*
X122494267Y-100794961D01*
X122455854Y-100712388D01*
X122434131Y-100618891D01*
X122428560Y-100532845D01*
X122432084Y-100456666D01*
X122443260Y-100392552D01*
X122448988Y-100372160D01*
X122484117Y-100291866D01*
X122537080Y-100217347D01*
X122605828Y-100150190D01*
X122688311Y-100091980D01*
X122782480Y-100044303D01*
X122886286Y-100008747D01*
X122932848Y-99997687D01*
X122973810Y-99989830D01*
X123011169Y-99984477D01*
X123049852Y-99981358D01*
X123094788Y-99980197D01*
X123150905Y-99980723D01*
X123150905Y-99980723D01*
G37*
X123150905Y-99980723D02*
X123210880Y-99982287D01*
X123318663Y-99987515D01*
X123413207Y-99996953D01*
X123501367Y-100011797D01*
X123589998Y-100033247D01*
X123685956Y-100062499D01*
X123703640Y-100068384D01*
X123815400Y-100105960D01*
X123818229Y-100252482D01*
X123818695Y-100305254D01*
X123818053Y-100350758D01*
X123816437Y-100385143D01*
X123813982Y-100404555D01*
X123812839Y-100407224D01*
X123800953Y-100406145D01*
X123778283Y-100395087D01*
X123754129Y-100379460D01*
X123673617Y-100330293D01*
X123578493Y-100285990D01*
X123474292Y-100248765D01*
X123366550Y-100220836D01*
X123349158Y-100217340D01*
X123289300Y-100208776D01*
X123220116Y-100203591D01*
X123147417Y-100201787D01*
X123077017Y-100203366D01*
X123014725Y-100208330D01*
X122966355Y-100216682D01*
X122964329Y-100217209D01*
X122877269Y-100247824D01*
X122806173Y-100288761D01*
X122751726Y-100339296D01*
X122714613Y-100398707D01*
X122695520Y-100466270D01*
X122692943Y-100503462D01*
X122700721Y-100579762D01*
X122724889Y-100644184D01*
X122765805Y-100697344D01*
X122823833Y-100739854D01*
X122835685Y-100746198D01*
X122862976Y-100758899D01*
X122893973Y-100770495D01*
X122931524Y-100781703D01*
X122978479Y-100793237D01*
X123037686Y-100805812D01*
X123111994Y-100820144D01*
X123179654Y-100832530D01*
X123286560Y-100852588D01*
X123376131Y-100871254D01*
X123451235Y-100889298D01*
X123514743Y-100907489D01*
X123569523Y-100926594D01*
X123618445Y-100947383D01*
X123631217Y-100953480D01*
X123717619Y-101004792D01*
X123786267Y-101065886D01*
X123837497Y-101137300D01*
X123871645Y-101219572D01*
X123889045Y-101313240D01*
X123891600Y-101370880D01*
X123881954Y-101476064D01*
X123853543Y-101574253D01*
X123807158Y-101663978D01*
X123743586Y-101743768D01*
X123663619Y-101812154D01*
X123649262Y-101822001D01*
X123558518Y-101874363D01*
X123461620Y-101914169D01*
X123356217Y-101941906D01*
X123239955Y-101958061D01*
X123110480Y-101963121D01*
X122987360Y-101959006D01*
X122848656Y-101943481D01*
X122706547Y-101914578D01*
X122568787Y-101874160D01*
X122461580Y-101832447D01*
X122408240Y-101808878D01*
X122408240Y-101650839D01*
X122408930Y-101581062D01*
X122411005Y-101531504D01*
X122414468Y-101502106D01*
X122419119Y-101492800D01*
X122432161Y-101498336D01*
X122456639Y-101512964D01*
X122487638Y-101533712D01*
X122492779Y-101537333D01*
X122617938Y-101613793D01*
X122752469Y-101672778D01*
X122894383Y-101713661D01*
X123041689Y-101735814D01*
X123134680Y-101739866D01*
X123246744Y-101735000D01*
X123342998Y-101719295D01*
X123425134Y-101692235D01*
X123494844Y-101653305D01*
X123539400Y-101616574D01*
X123586304Y-101558053D01*
X123615743Y-101490605D01*
X123627006Y-101416808D01*
X123619377Y-101339237D01*
X123617935Y-101332974D01*
X123605935Y-101294651D01*
X123588493Y-101261054D01*
X123563996Y-101231453D01*
X123530827Y-101205116D01*
X123487372Y-101181315D01*
X123432015Y-101159316D01*
X123363142Y-101138391D01*
X123279136Y-101117808D01*
X123178384Y-101096837D01*
X123059269Y-101074747D01*
X123039302Y-101071218D01*
X122979392Y-101060076D01*
X122921090Y-101048145D01*
X122869857Y-101036616D01*
X122831150Y-101026681D01*
X122820862Y-101023571D01*
X122712666Y-100980914D01*
X122622370Y-100928845D01*
X122549671Y-100866987D01*
X122494267Y-100794961D01*
X122455854Y-100712388D01*
X122434131Y-100618891D01*
X122428560Y-100532845D01*
X122432084Y-100456666D01*
X122443260Y-100392552D01*
X122448988Y-100372160D01*
X122484117Y-100291866D01*
X122537080Y-100217347D01*
X122605828Y-100150190D01*
X122688311Y-100091980D01*
X122782480Y-100044303D01*
X122886286Y-100008747D01*
X122932848Y-99997687D01*
X122973810Y-99989830D01*
X123011169Y-99984477D01*
X123049852Y-99981358D01*
X123094788Y-99980197D01*
X123150905Y-99980723D01*
G36*
X135986994Y-99977859D02*
X136074665Y-99986838D01*
X136154261Y-100003556D01*
X136231550Y-100029223D01*
X136312200Y-100065002D01*
X136412133Y-100122194D01*
X136497391Y-100189691D01*
X136570579Y-100270133D01*
X136634302Y-100366160D01*
X136663466Y-100420920D01*
X136714353Y-100543278D01*
X136750834Y-100674480D01*
X136773110Y-100811660D01*
X136781385Y-100951953D01*
X136775858Y-101092496D01*
X136756733Y-101230424D01*
X136724211Y-101362871D01*
X136678493Y-101486974D01*
X136619782Y-101599868D01*
X136575888Y-101664376D01*
X136504566Y-101743408D01*
X136417755Y-101814147D01*
X136319475Y-101873998D01*
X136213743Y-101920364D01*
X136148402Y-101940630D01*
X136096467Y-101950812D01*
X136030401Y-101958756D01*
X135956299Y-101964189D01*
X135880254Y-101966838D01*
X135808361Y-101966431D01*
X135746713Y-101962693D01*
X135722920Y-101959694D01*
X135595709Y-101930115D01*
X135477493Y-101883188D01*
X135369690Y-101819926D01*
X135273716Y-101741343D01*
X135190989Y-101648454D01*
X135122926Y-101542274D01*
X135113069Y-101523280D01*
X135064615Y-101406664D01*
X135029258Y-101278185D01*
X135007017Y-101141530D01*
X134997912Y-101000387D01*
X134998829Y-100968217D01*
X135265916Y-100968217D01*
X135269568Y-101074790D01*
X135279918Y-101176634D01*
X135296950Y-101267777D01*
X135296956Y-101267802D01*
X135333282Y-101378817D01*
X135384842Y-101477660D01*
X135450640Y-101563264D01*
X135529682Y-101634556D01*
X135620971Y-101690467D01*
X135723514Y-101729928D01*
X135728000Y-101731195D01*
X135781462Y-101740829D01*
X135847796Y-101744964D01*
X135920396Y-101743900D01*
X135992658Y-101737936D01*
X136057978Y-101727373D01*
X136105735Y-101714046D01*
X136203369Y-101667518D01*
X136288412Y-101605156D01*
X136360574Y-101527298D01*
X136419569Y-101434281D01*
X136465110Y-101326443D01*
X136480976Y-101273770D01*
X136489810Y-101236108D01*
X136496431Y-101195515D01*
X136501270Y-101147680D01*
X136504761Y-101088294D01*
X136507336Y-101013047D01*
X136507411Y-101010200D01*
X136508927Y-100939958D01*
X136509095Y-100885090D01*
X136507628Y-100840678D01*
X136504237Y-100801803D01*
X136498635Y-100763546D01*
X136490533Y-100720991D01*
X136490462Y-100720640D01*
X136457619Y-100600761D01*
X136411261Y-100495153D01*
X136352025Y-100404378D01*
X136280552Y-100328998D01*
X136197482Y-100269577D01*
X136103452Y-100226677D01*
X135999105Y-100200861D01*
X135890560Y-100192672D01*
X135775643Y-100201503D01*
X135670998Y-100227758D01*
X135577063Y-100271078D01*
X135494273Y-100331108D01*
X135423066Y-100407489D01*
X135363878Y-100499864D01*
X135317145Y-100607875D01*
X135295314Y-100679850D01*
X135278772Y-100764774D01*
X135268978Y-100862887D01*
X135265916Y-100968217D01*
X134998829Y-100968217D01*
X135001960Y-100858443D01*
X135019180Y-100719386D01*
X135049591Y-100586902D01*
X135093210Y-100464680D01*
X135107611Y-100433177D01*
X135172081Y-100320708D01*
X135249740Y-100223664D01*
X135340696Y-100141959D01*
X135445056Y-100075504D01*
X135562929Y-100024210D01*
X135635913Y-100001800D01*
X135679284Y-99991074D01*
X135718432Y-99983693D01*
X135759146Y-99979044D01*
X135807216Y-99976516D01*
X135868432Y-99975495D01*
X135885480Y-99975408D01*
X135986994Y-99977859D01*
X135986994Y-99977859D01*
G37*
X135986994Y-99977859D02*
X136074665Y-99986838D01*
X136154261Y-100003556D01*
X136231550Y-100029223D01*
X136312200Y-100065002D01*
X136412133Y-100122194D01*
X136497391Y-100189691D01*
X136570579Y-100270133D01*
X136634302Y-100366160D01*
X136663466Y-100420920D01*
X136714353Y-100543278D01*
X136750834Y-100674480D01*
X136773110Y-100811660D01*
X136781385Y-100951953D01*
X136775858Y-101092496D01*
X136756733Y-101230424D01*
X136724211Y-101362871D01*
X136678493Y-101486974D01*
X136619782Y-101599868D01*
X136575888Y-101664376D01*
X136504566Y-101743408D01*
X136417755Y-101814147D01*
X136319475Y-101873998D01*
X136213743Y-101920364D01*
X136148402Y-101940630D01*
X136096467Y-101950812D01*
X136030401Y-101958756D01*
X135956299Y-101964189D01*
X135880254Y-101966838D01*
X135808361Y-101966431D01*
X135746713Y-101962693D01*
X135722920Y-101959694D01*
X135595709Y-101930115D01*
X135477493Y-101883188D01*
X135369690Y-101819926D01*
X135273716Y-101741343D01*
X135190989Y-101648454D01*
X135122926Y-101542274D01*
X135113069Y-101523280D01*
X135064615Y-101406664D01*
X135029258Y-101278185D01*
X135007017Y-101141530D01*
X134997912Y-101000387D01*
X134998829Y-100968217D01*
X135265916Y-100968217D01*
X135269568Y-101074790D01*
X135279918Y-101176634D01*
X135296950Y-101267777D01*
X135296956Y-101267802D01*
X135333282Y-101378817D01*
X135384842Y-101477660D01*
X135450640Y-101563264D01*
X135529682Y-101634556D01*
X135620971Y-101690467D01*
X135723514Y-101729928D01*
X135728000Y-101731195D01*
X135781462Y-101740829D01*
X135847796Y-101744964D01*
X135920396Y-101743900D01*
X135992658Y-101737936D01*
X136057978Y-101727373D01*
X136105735Y-101714046D01*
X136203369Y-101667518D01*
X136288412Y-101605156D01*
X136360574Y-101527298D01*
X136419569Y-101434281D01*
X136465110Y-101326443D01*
X136480976Y-101273770D01*
X136489810Y-101236108D01*
X136496431Y-101195515D01*
X136501270Y-101147680D01*
X136504761Y-101088294D01*
X136507336Y-101013047D01*
X136507411Y-101010200D01*
X136508927Y-100939958D01*
X136509095Y-100885090D01*
X136507628Y-100840678D01*
X136504237Y-100801803D01*
X136498635Y-100763546D01*
X136490533Y-100720991D01*
X136490462Y-100720640D01*
X136457619Y-100600761D01*
X136411261Y-100495153D01*
X136352025Y-100404378D01*
X136280552Y-100328998D01*
X136197482Y-100269577D01*
X136103452Y-100226677D01*
X135999105Y-100200861D01*
X135890560Y-100192672D01*
X135775643Y-100201503D01*
X135670998Y-100227758D01*
X135577063Y-100271078D01*
X135494273Y-100331108D01*
X135423066Y-100407489D01*
X135363878Y-100499864D01*
X135317145Y-100607875D01*
X135295314Y-100679850D01*
X135278772Y-100764774D01*
X135268978Y-100862887D01*
X135265916Y-100968217D01*
X134998829Y-100968217D01*
X135001960Y-100858443D01*
X135019180Y-100719386D01*
X135049591Y-100586902D01*
X135093210Y-100464680D01*
X135107611Y-100433177D01*
X135172081Y-100320708D01*
X135249740Y-100223664D01*
X135340696Y-100141959D01*
X135445056Y-100075504D01*
X135562929Y-100024210D01*
X135635913Y-100001800D01*
X135679284Y-99991074D01*
X135718432Y-99983693D01*
X135759146Y-99979044D01*
X135807216Y-99976516D01*
X135868432Y-99975495D01*
X135885480Y-99975408D01*
X135986994Y-99977859D01*
G36*
X125568000Y-100243120D02*
X124562160Y-100243120D01*
X124562160Y-100761280D01*
X125568000Y-100761280D01*
X125568000Y-100994960D01*
X124562160Y-100994960D01*
X124562160Y-101706160D01*
X125568000Y-101706160D01*
X125568000Y-101929680D01*
X124308160Y-101929680D01*
X124308160Y-100009440D01*
X125568000Y-100009440D01*
X125568000Y-100243120D01*
X125568000Y-100243120D01*
G37*
X125568000Y-100243120D02*
X124562160Y-100243120D01*
X124562160Y-100761280D01*
X125568000Y-100761280D01*
X125568000Y-100994960D01*
X124562160Y-100994960D01*
X124562160Y-101706160D01*
X125568000Y-101706160D01*
X125568000Y-101929680D01*
X124308160Y-101929680D01*
X124308160Y-100009440D01*
X125568000Y-100009440D01*
X125568000Y-100243120D01*
G36*
X126352860Y-100012276D02*
X126463998Y-100013902D01*
X126557187Y-100015859D01*
X126634794Y-100018434D01*
X126699191Y-100021917D01*
X126752746Y-100026597D01*
X126797829Y-100032762D01*
X126836809Y-100040702D01*
X126872057Y-100050705D01*
X126905941Y-100063061D01*
X126940832Y-100078058D01*
X126958217Y-100086084D01*
X127023550Y-100124425D01*
X127086030Y-100175143D01*
X127140291Y-100233115D01*
X127180968Y-100293217D01*
X127186537Y-100304080D01*
X127216646Y-100387702D01*
X127231888Y-100480607D01*
X127232395Y-100578366D01*
X127218295Y-100676549D01*
X127189720Y-100770728D01*
X127171638Y-100811713D01*
X127131398Y-100876127D01*
X127076166Y-100939511D01*
X127010903Y-100996998D01*
X126940570Y-101043718D01*
X126928567Y-101050188D01*
X126893681Y-101068451D01*
X126866439Y-101082938D01*
X126851290Y-101091273D01*
X126849686Y-101092283D01*
X126855415Y-101100313D01*
X126873194Y-101122290D01*
X126901805Y-101156770D01*
X126940028Y-101202310D01*
X126986646Y-101257464D01*
X127040441Y-101320789D01*
X127100195Y-101390842D01*
X127164689Y-101466178D01*
X127189130Y-101494660D01*
X127255722Y-101572216D01*
X127318631Y-101645485D01*
X127376552Y-101712948D01*
X127428179Y-101773084D01*
X127472209Y-101824374D01*
X127507336Y-101865297D01*
X127532256Y-101894335D01*
X127545664Y-101909967D01*
X127547318Y-101911900D01*
X127551849Y-101918464D01*
X127550731Y-101923168D01*
X127541369Y-101926309D01*
X127521163Y-101928185D01*
X127487517Y-101929093D01*
X127437833Y-101929331D01*
X127395834Y-101929268D01*
X127229160Y-101928857D01*
X126909972Y-101548268D01*
X126590784Y-101167680D01*
X126228400Y-101167680D01*
X126228400Y-101929680D01*
X125974400Y-101929680D01*
X125974400Y-100954320D01*
X126228400Y-100954320D01*
X126403660Y-100953965D01*
X126473765Y-100952942D01*
X126540811Y-100950351D01*
X126599601Y-100946480D01*
X126644939Y-100941619D01*
X126655756Y-100939902D01*
X126744474Y-100916058D01*
X126818007Y-100878746D01*
X126876614Y-100827710D01*
X126920551Y-100762689D01*
X126950076Y-100683427D01*
X126960170Y-100634280D01*
X126965821Y-100547591D01*
X126955293Y-100468211D01*
X126929409Y-100398137D01*
X126888991Y-100339365D01*
X126834861Y-100293892D01*
X126815459Y-100282826D01*
X126779674Y-100266726D01*
X126740411Y-100254305D01*
X126694616Y-100245159D01*
X126639233Y-100238884D01*
X126571208Y-100235077D01*
X126487484Y-100233333D01*
X126439220Y-100233110D01*
X126228400Y-100232960D01*
X126228400Y-100954320D01*
X125974400Y-100954320D01*
X125974400Y-100007399D01*
X126352860Y-100012276D01*
X126352860Y-100012276D01*
G37*
X126352860Y-100012276D02*
X126463998Y-100013902D01*
X126557187Y-100015859D01*
X126634794Y-100018434D01*
X126699191Y-100021917D01*
X126752746Y-100026597D01*
X126797829Y-100032762D01*
X126836809Y-100040702D01*
X126872057Y-100050705D01*
X126905941Y-100063061D01*
X126940832Y-100078058D01*
X126958217Y-100086084D01*
X127023550Y-100124425D01*
X127086030Y-100175143D01*
X127140291Y-100233115D01*
X127180968Y-100293217D01*
X127186537Y-100304080D01*
X127216646Y-100387702D01*
X127231888Y-100480607D01*
X127232395Y-100578366D01*
X127218295Y-100676549D01*
X127189720Y-100770728D01*
X127171638Y-100811713D01*
X127131398Y-100876127D01*
X127076166Y-100939511D01*
X127010903Y-100996998D01*
X126940570Y-101043718D01*
X126928567Y-101050188D01*
X126893681Y-101068451D01*
X126866439Y-101082938D01*
X126851290Y-101091273D01*
X126849686Y-101092283D01*
X126855415Y-101100313D01*
X126873194Y-101122290D01*
X126901805Y-101156770D01*
X126940028Y-101202310D01*
X126986646Y-101257464D01*
X127040441Y-101320789D01*
X127100195Y-101390842D01*
X127164689Y-101466178D01*
X127189130Y-101494660D01*
X127255722Y-101572216D01*
X127318631Y-101645485D01*
X127376552Y-101712948D01*
X127428179Y-101773084D01*
X127472209Y-101824374D01*
X127507336Y-101865297D01*
X127532256Y-101894335D01*
X127545664Y-101909967D01*
X127547318Y-101911900D01*
X127551849Y-101918464D01*
X127550731Y-101923168D01*
X127541369Y-101926309D01*
X127521163Y-101928185D01*
X127487517Y-101929093D01*
X127437833Y-101929331D01*
X127395834Y-101929268D01*
X127229160Y-101928857D01*
X126909972Y-101548268D01*
X126590784Y-101167680D01*
X126228400Y-101167680D01*
X126228400Y-101929680D01*
X125974400Y-101929680D01*
X125974400Y-100954320D01*
X126228400Y-100954320D01*
X126403660Y-100953965D01*
X126473765Y-100952942D01*
X126540811Y-100950351D01*
X126599601Y-100946480D01*
X126644939Y-100941619D01*
X126655756Y-100939902D01*
X126744474Y-100916058D01*
X126818007Y-100878746D01*
X126876614Y-100827710D01*
X126920551Y-100762689D01*
X126950076Y-100683427D01*
X126960170Y-100634280D01*
X126965821Y-100547591D01*
X126955293Y-100468211D01*
X126929409Y-100398137D01*
X126888991Y-100339365D01*
X126834861Y-100293892D01*
X126815459Y-100282826D01*
X126779674Y-100266726D01*
X126740411Y-100254305D01*
X126694616Y-100245159D01*
X126639233Y-100238884D01*
X126571208Y-100235077D01*
X126487484Y-100233333D01*
X126439220Y-100233110D01*
X126228400Y-100232960D01*
X126228400Y-100954320D01*
X125974400Y-100954320D01*
X125974400Y-100007399D01*
X126352860Y-100012276D01*
G36*
X128489000Y-100014520D02*
X128494842Y-100202480D01*
X128240080Y-100202480D01*
X128240080Y-101736640D01*
X128494080Y-101736640D01*
X128494080Y-101929680D01*
X127732080Y-101929680D01*
X127732080Y-101737265D01*
X127856540Y-101734412D01*
X127981000Y-101731560D01*
X127981000Y-100207560D01*
X127732080Y-100201854D01*
X127732080Y-100009192D01*
X128489000Y-100014520D01*
X128489000Y-100014520D01*
G37*
X128489000Y-100014520D02*
X128494842Y-100202480D01*
X128240080Y-100202480D01*
X128240080Y-101736640D01*
X128494080Y-101736640D01*
X128494080Y-101929680D01*
X127732080Y-101929680D01*
X127732080Y-101737265D01*
X127856540Y-101734412D01*
X127981000Y-101731560D01*
X127981000Y-100207560D01*
X127732080Y-100201854D01*
X127732080Y-100009192D01*
X128489000Y-100014520D01*
G36*
X129757236Y-100052619D02*
X129769521Y-100085626D01*
X129787372Y-100134065D01*
X129810215Y-100196357D01*
X129837479Y-100270925D01*
X129868592Y-100356190D01*
X129902982Y-100450575D01*
X129940076Y-100552500D01*
X129979303Y-100660390D01*
X130020090Y-100772664D01*
X130061866Y-100887745D01*
X130104058Y-101004055D01*
X130146094Y-101120016D01*
X130187402Y-101234050D01*
X130227410Y-101344578D01*
X130265545Y-101450023D01*
X130301237Y-101548807D01*
X130333913Y-101639350D01*
X130363000Y-101720076D01*
X130387927Y-101789407D01*
X130408121Y-101845763D01*
X130423011Y-101887567D01*
X130432024Y-101913242D01*
X130434640Y-101921237D01*
X130425109Y-101924367D01*
X130399006Y-101926594D01*
X130360066Y-101927745D01*
X130312024Y-101927650D01*
X130300144Y-101927434D01*
X130165648Y-101924600D01*
X129980114Y-101396280D01*
X129149400Y-101396280D01*
X128964082Y-101924600D01*
X128835761Y-101927443D01*
X128787396Y-101927888D01*
X128747367Y-101927062D01*
X128719497Y-101925133D01*
X128707611Y-101922267D01*
X128707440Y-101921832D01*
X128710846Y-101911299D01*
X128720753Y-101882975D01*
X128736692Y-101838159D01*
X128758194Y-101778146D01*
X128784792Y-101704236D01*
X128816015Y-101617724D01*
X128851397Y-101519909D01*
X128890467Y-101412087D01*
X128932759Y-101295557D01*
X128975539Y-101177840D01*
X129226501Y-101177840D01*
X129561330Y-101177840D01*
X129641505Y-101177634D01*
X129714794Y-101177049D01*
X129778830Y-101176136D01*
X129831241Y-101174945D01*
X129869660Y-101173525D01*
X129891716Y-101171926D01*
X129896160Y-101170780D01*
X129892821Y-101157198D01*
X129883349Y-101127487D01*
X129868559Y-101083864D01*
X129849266Y-101028552D01*
X129826286Y-100963769D01*
X129800435Y-100891736D01*
X129772529Y-100814673D01*
X129743382Y-100734799D01*
X129713810Y-100654334D01*
X129684629Y-100575499D01*
X129656654Y-100500513D01*
X129630701Y-100431596D01*
X129607586Y-100370969D01*
X129588123Y-100320851D01*
X129573129Y-100283462D01*
X129563419Y-100261022D01*
X129559885Y-100255418D01*
X129554991Y-100267508D01*
X129544004Y-100296710D01*
X129527662Y-100341000D01*
X129506702Y-100398352D01*
X129481863Y-100466741D01*
X129453883Y-100544144D01*
X129423502Y-100628535D01*
X129403184Y-100685146D01*
X129371312Y-100774059D01*
X129341137Y-100858235D01*
X129313441Y-100935490D01*
X129289007Y-101003640D01*
X129268619Y-101060500D01*
X129253060Y-101103887D01*
X129243113Y-101131616D01*
X129240196Y-101139740D01*
X129226501Y-101177840D01*
X128975539Y-101177840D01*
X128977802Y-101171614D01*
X129025130Y-101041557D01*
X129052880Y-100965375D01*
X129101274Y-100832524D01*
X129147654Y-100705129D01*
X129191550Y-100584480D01*
X129232496Y-100471865D01*
X129270023Y-100368573D01*
X129303663Y-100275895D01*
X129332949Y-100195120D01*
X129357412Y-100127537D01*
X129376584Y-100074435D01*
X129389999Y-100037104D01*
X129397187Y-100016834D01*
X129398320Y-100013405D01*
X129407927Y-100012099D01*
X129434543Y-100010974D01*
X129474853Y-100010106D01*
X129525547Y-100009574D01*
X129569659Y-100009439D01*
X129740999Y-100009439D01*
X129757236Y-100052619D01*
X129757236Y-100052619D01*
G37*
X129757236Y-100052619D02*
X129769521Y-100085626D01*
X129787372Y-100134065D01*
X129810215Y-100196357D01*
X129837479Y-100270925D01*
X129868592Y-100356190D01*
X129902982Y-100450575D01*
X129940076Y-100552500D01*
X129979303Y-100660390D01*
X130020090Y-100772664D01*
X130061866Y-100887745D01*
X130104058Y-101004055D01*
X130146094Y-101120016D01*
X130187402Y-101234050D01*
X130227410Y-101344578D01*
X130265545Y-101450023D01*
X130301237Y-101548807D01*
X130333913Y-101639350D01*
X130363000Y-101720076D01*
X130387927Y-101789407D01*
X130408121Y-101845763D01*
X130423011Y-101887567D01*
X130432024Y-101913242D01*
X130434640Y-101921237D01*
X130425109Y-101924367D01*
X130399006Y-101926594D01*
X130360066Y-101927745D01*
X130312024Y-101927650D01*
X130300144Y-101927434D01*
X130165648Y-101924600D01*
X129980114Y-101396280D01*
X129149400Y-101396280D01*
X128964082Y-101924600D01*
X128835761Y-101927443D01*
X128787396Y-101927888D01*
X128747367Y-101927062D01*
X128719497Y-101925133D01*
X128707611Y-101922267D01*
X128707440Y-101921832D01*
X128710846Y-101911299D01*
X128720753Y-101882975D01*
X128736692Y-101838159D01*
X128758194Y-101778146D01*
X128784792Y-101704236D01*
X128816015Y-101617724D01*
X128851397Y-101519909D01*
X128890467Y-101412087D01*
X128932759Y-101295557D01*
X128975539Y-101177840D01*
X129226501Y-101177840D01*
X129561330Y-101177840D01*
X129641505Y-101177634D01*
X129714794Y-101177049D01*
X129778830Y-101176136D01*
X129831241Y-101174945D01*
X129869660Y-101173525D01*
X129891716Y-101171926D01*
X129896160Y-101170780D01*
X129892821Y-101157198D01*
X129883349Y-101127487D01*
X129868559Y-101083864D01*
X129849266Y-101028552D01*
X129826286Y-100963769D01*
X129800435Y-100891736D01*
X129772529Y-100814673D01*
X129743382Y-100734799D01*
X129713810Y-100654334D01*
X129684629Y-100575499D01*
X129656654Y-100500513D01*
X129630701Y-100431596D01*
X129607586Y-100370969D01*
X129588123Y-100320851D01*
X129573129Y-100283462D01*
X129563419Y-100261022D01*
X129559885Y-100255418D01*
X129554991Y-100267508D01*
X129544004Y-100296710D01*
X129527662Y-100341000D01*
X129506702Y-100398352D01*
X129481863Y-100466741D01*
X129453883Y-100544144D01*
X129423502Y-100628535D01*
X129403184Y-100685146D01*
X129371312Y-100774059D01*
X129341137Y-100858235D01*
X129313441Y-100935490D01*
X129289007Y-101003640D01*
X129268619Y-101060500D01*
X129253060Y-101103887D01*
X129243113Y-101131616D01*
X129240196Y-101139740D01*
X129226501Y-101177840D01*
X128975539Y-101177840D01*
X128977802Y-101171614D01*
X129025130Y-101041557D01*
X129052880Y-100965375D01*
X129101274Y-100832524D01*
X129147654Y-100705129D01*
X129191550Y-100584480D01*
X129232496Y-100471865D01*
X129270023Y-100368573D01*
X129303663Y-100275895D01*
X129332949Y-100195120D01*
X129357412Y-100127537D01*
X129376584Y-100074435D01*
X129389999Y-100037104D01*
X129397187Y-100016834D01*
X129398320Y-100013405D01*
X129407927Y-100012099D01*
X129434543Y-100010974D01*
X129474853Y-100010106D01*
X129525547Y-100009574D01*
X129569659Y-100009439D01*
X129740999Y-100009439D01*
X129757236Y-100052619D01*
G36*
X130985761Y-100855260D02*
X130988360Y-101701080D01*
X131948480Y-101706358D01*
X131948480Y-101929680D01*
X130729280Y-101929680D01*
X130729280Y-100009440D01*
X130856221Y-100009439D01*
X130983163Y-100009439D01*
X130985761Y-100855260D01*
X130985761Y-100855260D01*
G37*
X130985761Y-100855260D02*
X130988360Y-101701080D01*
X131948480Y-101706358D01*
X131948480Y-101929680D01*
X130729280Y-101929680D01*
X130729280Y-100009440D01*
X130856221Y-100009439D01*
X130983163Y-100009439D01*
X130985761Y-100855260D01*
G36*
X134600240Y-101929680D02*
X134279565Y-101929680D01*
X133827762Y-101077579D01*
X133375960Y-100225478D01*
X133370764Y-101929680D01*
X133127040Y-101929680D01*
X133127040Y-100009440D01*
X133327700Y-100009671D01*
X133528360Y-100009903D01*
X133939840Y-100787506D01*
X134351320Y-101565110D01*
X134356526Y-100009440D01*
X134600240Y-100009440D01*
X134600240Y-101929680D01*
X134600240Y-101929680D01*
G37*
X134600240Y-101929680D02*
X134279565Y-101929680D01*
X133827762Y-101077579D01*
X133375960Y-100225478D01*
X133370764Y-101929680D01*
X133127040Y-101929680D01*
X133127040Y-100009440D01*
X133327700Y-100009671D01*
X133528360Y-100009903D01*
X133939840Y-100787506D01*
X134351320Y-101565110D01*
X134356526Y-100009440D01*
X134600240Y-100009440D01*
X134600240Y-101929680D01*
G36*
X137678720Y-101929680D02*
X137373920Y-101929680D01*
X137373920Y-101563920D01*
X137678720Y-101563920D01*
X137678720Y-101929680D01*
X137678720Y-101929680D01*
G37*
X137678720Y-101929680D02*
X137373920Y-101929680D01*
X137373920Y-101563920D01*
X137678720Y-101563920D01*
X137678720Y-101929680D01*
G36*
X137678720Y-100862880D02*
X137533093Y-100862880D01*
X137480626Y-100862430D01*
X137435585Y-100861196D01*
X137401790Y-100859346D01*
X137383057Y-100857050D01*
X137380693Y-100856106D01*
X137378511Y-100844223D01*
X137376621Y-100815404D01*
X137375146Y-100773033D01*
X137374206Y-100720492D01*
X137373920Y-100668146D01*
X137373920Y-100486960D01*
X137678720Y-100486960D01*
X137678720Y-100862880D01*
X137678720Y-100862880D01*
G37*
X137678720Y-100862880D02*
X137533093Y-100862880D01*
X137480626Y-100862430D01*
X137435585Y-100861196D01*
X137401790Y-100859346D01*
X137383057Y-100857050D01*
X137380693Y-100856106D01*
X137378511Y-100844223D01*
X137376621Y-100815404D01*
X137375146Y-100773033D01*
X137374206Y-100720492D01*
X137373920Y-100668146D01*
X137373920Y-100486960D01*
X137678720Y-100486960D01*
X137678720Y-100862880D01*
G36*
X139965224Y-126674674D02*
X140066135Y-126739667D01*
X140177161Y-126838049D01*
X140289243Y-126961711D01*
X140393320Y-127102545D01*
X140401155Y-127114505D01*
X140529737Y-127348886D01*
X140618034Y-127598062D01*
X140669698Y-127874494D01*
X140685839Y-128086178D01*
X140682978Y-128369376D01*
X140649807Y-128647055D01*
X140583730Y-128929378D01*
X140482151Y-129226509D01*
X140342474Y-129548614D01*
X140278901Y-129679608D01*
X140121335Y-129977405D01*
X139956911Y-130247355D01*
X139775512Y-130503650D01*
X139567017Y-130760482D01*
X139321309Y-131032045D01*
X139294299Y-131060561D01*
X139158210Y-131210186D01*
X139048704Y-131348169D01*
X138952653Y-131493389D01*
X138856930Y-131664728D01*
X138808489Y-131759316D01*
X138750710Y-131868672D01*
X138697148Y-131960012D01*
X138655896Y-132019960D01*
X138642260Y-132034097D01*
X138623643Y-132059272D01*
X138608779Y-132109524D01*
X138596527Y-132192740D01*
X138585746Y-132316803D01*
X138575297Y-132489598D01*
X138574680Y-132501235D01*
X138562681Y-132667883D01*
X138542897Y-132873591D01*
X138517273Y-133101178D01*
X138487751Y-133333460D01*
X138456275Y-133553254D01*
X138454038Y-133567802D01*
X138423118Y-133769858D01*
X138393038Y-133970167D01*
X138365687Y-134155874D01*
X138342953Y-134314123D01*
X138326725Y-134432059D01*
X138323902Y-134453761D01*
X138292251Y-134653753D01*
X138246735Y-134876680D01*
X138191053Y-135108827D01*
X138128902Y-135336481D01*
X138063978Y-135545929D01*
X137999978Y-135723456D01*
X137952056Y-135833023D01*
X137878651Y-135969677D01*
X137807319Y-136071441D01*
X137723210Y-136157936D01*
X137675408Y-136198597D01*
X137583923Y-136270052D01*
X137499139Y-136331077D01*
X137439988Y-136368127D01*
X137334439Y-136407573D01*
X137222643Y-136426136D01*
X137129023Y-136420420D01*
X137109522Y-136414062D01*
X137055723Y-136377014D01*
X136977422Y-136305332D01*
X136884588Y-136209876D01*
X136787190Y-136101505D01*
X136695196Y-135991078D01*
X136618577Y-135889456D01*
X136592972Y-135851376D01*
X136547734Y-135773751D01*
X136485119Y-135656779D01*
X136411577Y-135512985D01*
X136333555Y-135354891D01*
X136283030Y-135249417D01*
X136133224Y-134908036D01*
X136019871Y-134590454D01*
X135938425Y-134280753D01*
X135884341Y-133963017D01*
X135865231Y-133786067D01*
X135855581Y-133633697D01*
X135849959Y-133448727D01*
X135848164Y-133244355D01*
X135849993Y-133033778D01*
X135855245Y-132830194D01*
X135861444Y-132696002D01*
X136388523Y-132696002D01*
X136388585Y-132934733D01*
X136391757Y-133143932D01*
X136396435Y-133359132D01*
X136401581Y-133528172D01*
X136408297Y-133661969D01*
X136417684Y-133771438D01*
X136430840Y-133867495D01*
X136448868Y-133961056D01*
X136472867Y-134063036D01*
X136492001Y-134138276D01*
X136544518Y-134310852D01*
X136620089Y-134517725D01*
X136712285Y-134744317D01*
X136814680Y-134976049D01*
X136920844Y-135198343D01*
X137024352Y-135396621D01*
X137113782Y-135548545D01*
X137185240Y-135651812D01*
X137263742Y-135751915D01*
X137340596Y-135839321D01*
X137407109Y-135904500D01*
X137454589Y-135937918D01*
X137469886Y-135939051D01*
X137488849Y-135906367D01*
X137518005Y-135832452D01*
X137552127Y-135731032D01*
X137564842Y-135689690D01*
X137640200Y-135420453D01*
X137704769Y-135147798D01*
X137762174Y-134854674D01*
X137816040Y-134524031D01*
X137823880Y-134471230D01*
X137854129Y-134265027D01*
X137888809Y-134028232D01*
X137924132Y-133786736D01*
X137956308Y-133566431D01*
X137963818Y-133514943D01*
X138001557Y-133225110D01*
X138032367Y-132917823D01*
X138056600Y-132586279D01*
X138074611Y-132223674D01*
X138086753Y-131823204D01*
X138093378Y-131378066D01*
X138094944Y-130988674D01*
X138094944Y-130033907D01*
X137989556Y-130190493D01*
X137931778Y-130266181D01*
X137840391Y-130373566D01*
X137722847Y-130504694D01*
X137586595Y-130651611D01*
X137439086Y-130806363D01*
X137287770Y-130960995D01*
X137140097Y-131107555D01*
X137043529Y-131200472D01*
X136961093Y-131284056D01*
X136858406Y-131396164D01*
X136750295Y-131520291D01*
X136676156Y-131609395D01*
X136461210Y-131873917D01*
X136419958Y-132180722D01*
X136403925Y-132328709D01*
X136393542Y-132497231D01*
X136388523Y-132696002D01*
X135861444Y-132696002D01*
X135863717Y-132646803D01*
X135875207Y-132496801D01*
X135886288Y-132410570D01*
X135904389Y-132305073D01*
X135608374Y-132430273D01*
X135453407Y-132492382D01*
X135283426Y-132555063D01*
X135124971Y-132608727D01*
X135055506Y-132630013D01*
X134929004Y-132663180D01*
X134781977Y-132696200D01*
X134627238Y-132726836D01*
X134477597Y-132752849D01*
X134345866Y-132772002D01*
X134244857Y-132782057D01*
X134189634Y-132781265D01*
X134188077Y-132763240D01*
X134225307Y-132723406D01*
X134290993Y-132669028D01*
X134374802Y-132607374D01*
X134466404Y-132545709D01*
X134555467Y-132491299D01*
X134631660Y-132451411D01*
X134684290Y-132433359D01*
X134995080Y-132387288D01*
X135266541Y-132336774D01*
X135495067Y-132282777D01*
X135677054Y-132226257D01*
X135808898Y-132168175D01*
X135883002Y-132113975D01*
X135912014Y-132072949D01*
X135937105Y-132012150D01*
X135960933Y-131921872D01*
X135986157Y-131792404D01*
X136009368Y-131652575D01*
X136060153Y-131374494D01*
X136550960Y-131374494D01*
X136953626Y-130966110D01*
X137156840Y-130753862D01*
X137323334Y-130564583D01*
X137461727Y-130386567D01*
X137580638Y-130208107D01*
X137688687Y-130017498D01*
X137766638Y-129861910D01*
X137832831Y-129707363D01*
X137904050Y-129513017D01*
X137975125Y-129295233D01*
X138040886Y-129070375D01*
X138096164Y-128854802D01*
X138122183Y-128736553D01*
X138153316Y-128614943D01*
X138189751Y-128542130D01*
X138236621Y-128509835D01*
X138264943Y-128506292D01*
X138311896Y-128490642D01*
X138388016Y-128449614D01*
X138476761Y-128392134D01*
X138562477Y-128335038D01*
X138631967Y-128294100D01*
X138670488Y-128277987D01*
X138670912Y-128277977D01*
X138679797Y-128305214D01*
X138685277Y-128381940D01*
X138687529Y-128500679D01*
X138686726Y-128653953D01*
X138683044Y-128834285D01*
X138676658Y-129034198D01*
X138667743Y-129246215D01*
X138656475Y-129462860D01*
X138643027Y-129676654D01*
X138635833Y-129776292D01*
X138628777Y-129894378D01*
X138622725Y-130043530D01*
X138617730Y-130215266D01*
X138613850Y-130401106D01*
X138611141Y-130592569D01*
X138609659Y-130781174D01*
X138609459Y-130958440D01*
X138610598Y-131115885D01*
X138613132Y-131245030D01*
X138617116Y-131337393D01*
X138622608Y-131384494D01*
X138625175Y-131388764D01*
X138652403Y-131369990D01*
X138706192Y-131321289D01*
X138760736Y-131267471D01*
X138937685Y-131078155D01*
X139118197Y-130869151D01*
X139284526Y-130661518D01*
X139379296Y-130533515D01*
X139497357Y-130351915D01*
X139623031Y-130132255D01*
X139747967Y-129891274D01*
X139863814Y-129645712D01*
X139962218Y-129412309D01*
X140024488Y-129240355D01*
X140068207Y-129101559D01*
X140098525Y-128988103D01*
X140118457Y-128881722D01*
X140131019Y-128764156D01*
X140139226Y-128617143D01*
X140142727Y-128524352D01*
X140145694Y-128296185D01*
X140135036Y-128107736D01*
X140107757Y-127942641D01*
X140060861Y-127784535D01*
X139991350Y-127617057D01*
X139967193Y-127565771D01*
X139896055Y-127440983D01*
X139804066Y-127312376D01*
X139702374Y-127192794D01*
X139602126Y-127095082D01*
X139514471Y-127032088D01*
X139496722Y-127023635D01*
X139455620Y-127012693D01*
X139404545Y-127012861D01*
X139337545Y-127026292D01*
X139248670Y-127055135D01*
X139131969Y-127101540D01*
X138981491Y-127167659D01*
X138791286Y-127255641D01*
X138588284Y-127351919D01*
X138402716Y-127442945D01*
X138259612Y-127519370D01*
X138148362Y-127587601D01*
X138058359Y-127654044D01*
X137993551Y-127711139D01*
X137811704Y-127911910D01*
X137633351Y-128165695D01*
X137460777Y-128468446D01*
X137296272Y-128816109D01*
X137142123Y-129204635D01*
X137128107Y-129243503D01*
X137052370Y-129463776D01*
X136973497Y-129708298D01*
X136894267Y-129967115D01*
X136817458Y-130230272D01*
X136745850Y-130487811D01*
X136682219Y-130729780D01*
X136629345Y-130946222D01*
X136590006Y-131127181D01*
X136569227Y-131246067D01*
X136550960Y-131374494D01*
X136060153Y-131374494D01*
X136065243Y-131346623D01*
X136139385Y-131010976D01*
X136228458Y-130656712D01*
X136329124Y-130294910D01*
X136438046Y-129936647D01*
X136551887Y-129593000D01*
X136667311Y-129275049D01*
X136780980Y-128993871D01*
X136866887Y-128805955D01*
X137019293Y-128514474D01*
X137170910Y-128269842D01*
X137329981Y-128062547D01*
X137504748Y-127883080D01*
X137703455Y-127721928D01*
X137934344Y-127569581D01*
X137942773Y-127564494D01*
X138131450Y-127454643D01*
X138339123Y-127340182D01*
X138558716Y-127224442D01*
X138783147Y-127110755D01*
X139005340Y-127002451D01*
X139218215Y-126902862D01*
X139414694Y-126815319D01*
X139587697Y-126743154D01*
X139730147Y-126689697D01*
X139834964Y-126658281D01*
X139883487Y-126651178D01*
X139965224Y-126674674D01*
X139965224Y-126674674D01*
G37*
X139965224Y-126674674D02*
X140066135Y-126739667D01*
X140177161Y-126838049D01*
X140289243Y-126961711D01*
X140393320Y-127102545D01*
X140401155Y-127114505D01*
X140529737Y-127348886D01*
X140618034Y-127598062D01*
X140669698Y-127874494D01*
X140685839Y-128086178D01*
X140682978Y-128369376D01*
X140649807Y-128647055D01*
X140583730Y-128929378D01*
X140482151Y-129226509D01*
X140342474Y-129548614D01*
X140278901Y-129679608D01*
X140121335Y-129977405D01*
X139956911Y-130247355D01*
X139775512Y-130503650D01*
X139567017Y-130760482D01*
X139321309Y-131032045D01*
X139294299Y-131060561D01*
X139158210Y-131210186D01*
X139048704Y-131348169D01*
X138952653Y-131493389D01*
X138856930Y-131664728D01*
X138808489Y-131759316D01*
X138750710Y-131868672D01*
X138697148Y-131960012D01*
X138655896Y-132019960D01*
X138642260Y-132034097D01*
X138623643Y-132059272D01*
X138608779Y-132109524D01*
X138596527Y-132192740D01*
X138585746Y-132316803D01*
X138575297Y-132489598D01*
X138574680Y-132501235D01*
X138562681Y-132667883D01*
X138542897Y-132873591D01*
X138517273Y-133101178D01*
X138487751Y-133333460D01*
X138456275Y-133553254D01*
X138454038Y-133567802D01*
X138423118Y-133769858D01*
X138393038Y-133970167D01*
X138365687Y-134155874D01*
X138342953Y-134314123D01*
X138326725Y-134432059D01*
X138323902Y-134453761D01*
X138292251Y-134653753D01*
X138246735Y-134876680D01*
X138191053Y-135108827D01*
X138128902Y-135336481D01*
X138063978Y-135545929D01*
X137999978Y-135723456D01*
X137952056Y-135833023D01*
X137878651Y-135969677D01*
X137807319Y-136071441D01*
X137723210Y-136157936D01*
X137675408Y-136198597D01*
X137583923Y-136270052D01*
X137499139Y-136331077D01*
X137439988Y-136368127D01*
X137334439Y-136407573D01*
X137222643Y-136426136D01*
X137129023Y-136420420D01*
X137109522Y-136414062D01*
X137055723Y-136377014D01*
X136977422Y-136305332D01*
X136884588Y-136209876D01*
X136787190Y-136101505D01*
X136695196Y-135991078D01*
X136618577Y-135889456D01*
X136592972Y-135851376D01*
X136547734Y-135773751D01*
X136485119Y-135656779D01*
X136411577Y-135512985D01*
X136333555Y-135354891D01*
X136283030Y-135249417D01*
X136133224Y-134908036D01*
X136019871Y-134590454D01*
X135938425Y-134280753D01*
X135884341Y-133963017D01*
X135865231Y-133786067D01*
X135855581Y-133633697D01*
X135849959Y-133448727D01*
X135848164Y-133244355D01*
X135849993Y-133033778D01*
X135855245Y-132830194D01*
X135861444Y-132696002D01*
X136388523Y-132696002D01*
X136388585Y-132934733D01*
X136391757Y-133143932D01*
X136396435Y-133359132D01*
X136401581Y-133528172D01*
X136408297Y-133661969D01*
X136417684Y-133771438D01*
X136430840Y-133867495D01*
X136448868Y-133961056D01*
X136472867Y-134063036D01*
X136492001Y-134138276D01*
X136544518Y-134310852D01*
X136620089Y-134517725D01*
X136712285Y-134744317D01*
X136814680Y-134976049D01*
X136920844Y-135198343D01*
X137024352Y-135396621D01*
X137113782Y-135548545D01*
X137185240Y-135651812D01*
X137263742Y-135751915D01*
X137340596Y-135839321D01*
X137407109Y-135904500D01*
X137454589Y-135937918D01*
X137469886Y-135939051D01*
X137488849Y-135906367D01*
X137518005Y-135832452D01*
X137552127Y-135731032D01*
X137564842Y-135689690D01*
X137640200Y-135420453D01*
X137704769Y-135147798D01*
X137762174Y-134854674D01*
X137816040Y-134524031D01*
X137823880Y-134471230D01*
X137854129Y-134265027D01*
X137888809Y-134028232D01*
X137924132Y-133786736D01*
X137956308Y-133566431D01*
X137963818Y-133514943D01*
X138001557Y-133225110D01*
X138032367Y-132917823D01*
X138056600Y-132586279D01*
X138074611Y-132223674D01*
X138086753Y-131823204D01*
X138093378Y-131378066D01*
X138094944Y-130988674D01*
X138094944Y-130033907D01*
X137989556Y-130190493D01*
X137931778Y-130266181D01*
X137840391Y-130373566D01*
X137722847Y-130504694D01*
X137586595Y-130651611D01*
X137439086Y-130806363D01*
X137287770Y-130960995D01*
X137140097Y-131107555D01*
X137043529Y-131200472D01*
X136961093Y-131284056D01*
X136858406Y-131396164D01*
X136750295Y-131520291D01*
X136676156Y-131609395D01*
X136461210Y-131873917D01*
X136419958Y-132180722D01*
X136403925Y-132328709D01*
X136393542Y-132497231D01*
X136388523Y-132696002D01*
X135861444Y-132696002D01*
X135863717Y-132646803D01*
X135875207Y-132496801D01*
X135886288Y-132410570D01*
X135904389Y-132305073D01*
X135608374Y-132430273D01*
X135453407Y-132492382D01*
X135283426Y-132555063D01*
X135124971Y-132608727D01*
X135055506Y-132630013D01*
X134929004Y-132663180D01*
X134781977Y-132696200D01*
X134627238Y-132726836D01*
X134477597Y-132752849D01*
X134345866Y-132772002D01*
X134244857Y-132782057D01*
X134189634Y-132781265D01*
X134188077Y-132763240D01*
X134225307Y-132723406D01*
X134290993Y-132669028D01*
X134374802Y-132607374D01*
X134466404Y-132545709D01*
X134555467Y-132491299D01*
X134631660Y-132451411D01*
X134684290Y-132433359D01*
X134995080Y-132387288D01*
X135266541Y-132336774D01*
X135495067Y-132282777D01*
X135677054Y-132226257D01*
X135808898Y-132168175D01*
X135883002Y-132113975D01*
X135912014Y-132072949D01*
X135937105Y-132012150D01*
X135960933Y-131921872D01*
X135986157Y-131792404D01*
X136009368Y-131652575D01*
X136060153Y-131374494D01*
X136550960Y-131374494D01*
X136953626Y-130966110D01*
X137156840Y-130753862D01*
X137323334Y-130564583D01*
X137461727Y-130386567D01*
X137580638Y-130208107D01*
X137688687Y-130017498D01*
X137766638Y-129861910D01*
X137832831Y-129707363D01*
X137904050Y-129513017D01*
X137975125Y-129295233D01*
X138040886Y-129070375D01*
X138096164Y-128854802D01*
X138122183Y-128736553D01*
X138153316Y-128614943D01*
X138189751Y-128542130D01*
X138236621Y-128509835D01*
X138264943Y-128506292D01*
X138311896Y-128490642D01*
X138388016Y-128449614D01*
X138476761Y-128392134D01*
X138562477Y-128335038D01*
X138631967Y-128294100D01*
X138670488Y-128277987D01*
X138670912Y-128277977D01*
X138679797Y-128305214D01*
X138685277Y-128381940D01*
X138687529Y-128500679D01*
X138686726Y-128653953D01*
X138683044Y-128834285D01*
X138676658Y-129034198D01*
X138667743Y-129246215D01*
X138656475Y-129462860D01*
X138643027Y-129676654D01*
X138635833Y-129776292D01*
X138628777Y-129894378D01*
X138622725Y-130043530D01*
X138617730Y-130215266D01*
X138613850Y-130401106D01*
X138611141Y-130592569D01*
X138609659Y-130781174D01*
X138609459Y-130958440D01*
X138610598Y-131115885D01*
X138613132Y-131245030D01*
X138617116Y-131337393D01*
X138622608Y-131384494D01*
X138625175Y-131388764D01*
X138652403Y-131369990D01*
X138706192Y-131321289D01*
X138760736Y-131267471D01*
X138937685Y-131078155D01*
X139118197Y-130869151D01*
X139284526Y-130661518D01*
X139379296Y-130533515D01*
X139497357Y-130351915D01*
X139623031Y-130132255D01*
X139747967Y-129891274D01*
X139863814Y-129645712D01*
X139962218Y-129412309D01*
X140024488Y-129240355D01*
X140068207Y-129101559D01*
X140098525Y-128988103D01*
X140118457Y-128881722D01*
X140131019Y-128764156D01*
X140139226Y-128617143D01*
X140142727Y-128524352D01*
X140145694Y-128296185D01*
X140135036Y-128107736D01*
X140107757Y-127942641D01*
X140060861Y-127784535D01*
X139991350Y-127617057D01*
X139967193Y-127565771D01*
X139896055Y-127440983D01*
X139804066Y-127312376D01*
X139702374Y-127192794D01*
X139602126Y-127095082D01*
X139514471Y-127032088D01*
X139496722Y-127023635D01*
X139455620Y-127012693D01*
X139404545Y-127012861D01*
X139337545Y-127026292D01*
X139248670Y-127055135D01*
X139131969Y-127101540D01*
X138981491Y-127167659D01*
X138791286Y-127255641D01*
X138588284Y-127351919D01*
X138402716Y-127442945D01*
X138259612Y-127519370D01*
X138148362Y-127587601D01*
X138058359Y-127654044D01*
X137993551Y-127711139D01*
X137811704Y-127911910D01*
X137633351Y-128165695D01*
X137460777Y-128468446D01*
X137296272Y-128816109D01*
X137142123Y-129204635D01*
X137128107Y-129243503D01*
X137052370Y-129463776D01*
X136973497Y-129708298D01*
X136894267Y-129967115D01*
X136817458Y-130230272D01*
X136745850Y-130487811D01*
X136682219Y-130729780D01*
X136629345Y-130946222D01*
X136590006Y-131127181D01*
X136569227Y-131246067D01*
X136550960Y-131374494D01*
X136060153Y-131374494D01*
X136065243Y-131346623D01*
X136139385Y-131010976D01*
X136228458Y-130656712D01*
X136329124Y-130294910D01*
X136438046Y-129936647D01*
X136551887Y-129593000D01*
X136667311Y-129275049D01*
X136780980Y-128993871D01*
X136866887Y-128805955D01*
X137019293Y-128514474D01*
X137170910Y-128269842D01*
X137329981Y-128062547D01*
X137504748Y-127883080D01*
X137703455Y-127721928D01*
X137934344Y-127569581D01*
X137942773Y-127564494D01*
X138131450Y-127454643D01*
X138339123Y-127340182D01*
X138558716Y-127224442D01*
X138783147Y-127110755D01*
X139005340Y-127002451D01*
X139218215Y-126902862D01*
X139414694Y-126815319D01*
X139587697Y-126743154D01*
X139730147Y-126689697D01*
X139834964Y-126658281D01*
X139883487Y-126651178D01*
X139965224Y-126674674D01*
D13*
X92502381Y-84380476D02*
X92026190Y-84713810D01*
X92502381Y-84951905D02*
X91502381Y-84951905D01*
X91502381Y-84570952D01*
X91550000Y-84475714D01*
X91597619Y-84428095D01*
X91692857Y-84380476D01*
X91835714Y-84380476D01*
X91930952Y-84428095D01*
X91978571Y-84475714D01*
X92026190Y-84570952D01*
X92026190Y-84951905D01*
X92502381Y-83951905D02*
X91502381Y-83951905D01*
X92502381Y-83380476D01*
X91502381Y-83380476D01*
X92502381Y-82380476D02*
X92502381Y-82951905D01*
X92502381Y-82666191D02*
X91502381Y-82666191D01*
X91645238Y-82761429D01*
X91740476Y-82856667D01*
X91788095Y-82951905D01*
X80552381Y-117153810D02*
X80666667Y-117191905D01*
X80857143Y-117191905D01*
X80933333Y-117153810D01*
X80971429Y-117115714D01*
X81009524Y-117039524D01*
X81009524Y-116963333D01*
X80971429Y-116887143D01*
X80933333Y-116849048D01*
X80857143Y-116810952D01*
X80704762Y-116772857D01*
X80628571Y-116734762D01*
X80590476Y-116696667D01*
X80552381Y-116620476D01*
X80552381Y-116544286D01*
X80590476Y-116468095D01*
X80628571Y-116430000D01*
X80704762Y-116391905D01*
X80895238Y-116391905D01*
X81009524Y-116430000D01*
X81276191Y-116391905D02*
X81466667Y-117191905D01*
X81619048Y-116620476D01*
X81771429Y-117191905D01*
X81961905Y-116391905D01*
X82685715Y-117191905D02*
X82228572Y-117191905D01*
X82457143Y-117191905D02*
X82457143Y-116391905D01*
X82380953Y-116506190D01*
X82304762Y-116582381D01*
X82228572Y-116620476D01*
X83371429Y-116391905D02*
X83219048Y-116391905D01*
X83142858Y-116430000D01*
X83104763Y-116468095D01*
X83028572Y-116582381D01*
X82990477Y-116734762D01*
X82990477Y-117039524D01*
X83028572Y-117115714D01*
X83066667Y-117153810D01*
X83142858Y-117191905D01*
X83295239Y-117191905D01*
X83371429Y-117153810D01*
X83409525Y-117115714D01*
X83447620Y-117039524D01*
X83447620Y-116849048D01*
X83409525Y-116772857D01*
X83371429Y-116734762D01*
X83295239Y-116696667D01*
X83142858Y-116696667D01*
X83066667Y-116734762D01*
X83028572Y-116772857D01*
X82990477Y-116849048D01*
X78847143Y-141866666D02*
X78894762Y-141914285D01*
X78942381Y-142057142D01*
X78942381Y-142152380D01*
X78894762Y-142295238D01*
X78799524Y-142390476D01*
X78704286Y-142438095D01*
X78513810Y-142485714D01*
X78370952Y-142485714D01*
X78180476Y-142438095D01*
X78085238Y-142390476D01*
X77990000Y-142295238D01*
X77942381Y-142152380D01*
X77942381Y-142057142D01*
X77990000Y-141914285D01*
X78037619Y-141866666D01*
X78942381Y-140914285D02*
X78942381Y-141485714D01*
X78942381Y-141200000D02*
X77942381Y-141200000D01*
X78085238Y-141295238D01*
X78180476Y-141390476D01*
X78228095Y-141485714D01*
X70137143Y-141866666D02*
X70184762Y-141914285D01*
X70232381Y-142057142D01*
X70232381Y-142152380D01*
X70184762Y-142295238D01*
X70089524Y-142390476D01*
X69994286Y-142438095D01*
X69803810Y-142485714D01*
X69660952Y-142485714D01*
X69470476Y-142438095D01*
X69375238Y-142390476D01*
X69280000Y-142295238D01*
X69232381Y-142152380D01*
X69232381Y-142057142D01*
X69280000Y-141914285D01*
X69327619Y-141866666D01*
X69327619Y-141485714D02*
X69280000Y-141438095D01*
X69232381Y-141342857D01*
X69232381Y-141104761D01*
X69280000Y-141009523D01*
X69327619Y-140961904D01*
X69422857Y-140914285D01*
X69518095Y-140914285D01*
X69660952Y-140961904D01*
X70232381Y-141533333D01*
X70232381Y-140914285D01*
X68623334Y-136657143D02*
X68575715Y-136704762D01*
X68432858Y-136752381D01*
X68337620Y-136752381D01*
X68194762Y-136704762D01*
X68099524Y-136609524D01*
X68051905Y-136514286D01*
X68004286Y-136323810D01*
X68004286Y-136180952D01*
X68051905Y-135990476D01*
X68099524Y-135895238D01*
X68194762Y-135800000D01*
X68337620Y-135752381D01*
X68432858Y-135752381D01*
X68575715Y-135800000D01*
X68623334Y-135847619D01*
X68956667Y-135752381D02*
X69575715Y-135752381D01*
X69242381Y-136133333D01*
X69385239Y-136133333D01*
X69480477Y-136180952D01*
X69528096Y-136228571D01*
X69575715Y-136323810D01*
X69575715Y-136561905D01*
X69528096Y-136657143D01*
X69480477Y-136704762D01*
X69385239Y-136752381D01*
X69099524Y-136752381D01*
X69004286Y-136704762D01*
X68956667Y-136657143D01*
X68653334Y-138417143D02*
X68605715Y-138464762D01*
X68462858Y-138512381D01*
X68367620Y-138512381D01*
X68224762Y-138464762D01*
X68129524Y-138369524D01*
X68081905Y-138274286D01*
X68034286Y-138083810D01*
X68034286Y-137940952D01*
X68081905Y-137750476D01*
X68129524Y-137655238D01*
X68224762Y-137560000D01*
X68367620Y-137512381D01*
X68462858Y-137512381D01*
X68605715Y-137560000D01*
X68653334Y-137607619D01*
X69510477Y-137845714D02*
X69510477Y-138512381D01*
X69272381Y-137464762D02*
X69034286Y-138179048D01*
X69653334Y-138179048D01*
X122402381Y-74018095D02*
X121402381Y-74018095D01*
X121402381Y-73780000D01*
X121450000Y-73637142D01*
X121545238Y-73541904D01*
X121640476Y-73494285D01*
X121830952Y-73446666D01*
X121973810Y-73446666D01*
X122164286Y-73494285D01*
X122259524Y-73541904D01*
X122354762Y-73637142D01*
X122402381Y-73780000D01*
X122402381Y-74018095D01*
X122402381Y-72494285D02*
X122402381Y-73065714D01*
X122402381Y-72780000D02*
X121402381Y-72780000D01*
X121545238Y-72875238D01*
X121640476Y-72970476D01*
X121688095Y-73065714D01*
X101602381Y-74018095D02*
X100602381Y-74018095D01*
X100602381Y-73780000D01*
X100650000Y-73637142D01*
X100745238Y-73541904D01*
X100840476Y-73494285D01*
X101030952Y-73446666D01*
X101173810Y-73446666D01*
X101364286Y-73494285D01*
X101459524Y-73541904D01*
X101554762Y-73637142D01*
X101602381Y-73780000D01*
X101602381Y-74018095D01*
X100697619Y-73065714D02*
X100650000Y-73018095D01*
X100602381Y-72922857D01*
X100602381Y-72684761D01*
X100650000Y-72589523D01*
X100697619Y-72541904D01*
X100792857Y-72494285D01*
X100888095Y-72494285D01*
X101030952Y-72541904D01*
X101602381Y-73113333D01*
X101602381Y-72494285D01*
X80802381Y-74018095D02*
X79802381Y-74018095D01*
X79802381Y-73780000D01*
X79850000Y-73637142D01*
X79945238Y-73541904D01*
X80040476Y-73494285D01*
X80230952Y-73446666D01*
X80373810Y-73446666D01*
X80564286Y-73494285D01*
X80659524Y-73541904D01*
X80754762Y-73637142D01*
X80802381Y-73780000D01*
X80802381Y-74018095D01*
X79802381Y-73113333D02*
X79802381Y-72494285D01*
X80183333Y-72827619D01*
X80183333Y-72684761D01*
X80230952Y-72589523D01*
X80278571Y-72541904D01*
X80373810Y-72494285D01*
X80611905Y-72494285D01*
X80707143Y-72541904D01*
X80754762Y-72589523D01*
X80802381Y-72684761D01*
X80802381Y-72970476D01*
X80754762Y-73065714D01*
X80707143Y-73113333D01*
X60002381Y-74018095D02*
X59002381Y-74018095D01*
X59002381Y-73780000D01*
X59050000Y-73637142D01*
X59145238Y-73541904D01*
X59240476Y-73494285D01*
X59430952Y-73446666D01*
X59573810Y-73446666D01*
X59764286Y-73494285D01*
X59859524Y-73541904D01*
X59954762Y-73637142D01*
X60002381Y-73780000D01*
X60002381Y-74018095D01*
X59335714Y-72589523D02*
X60002381Y-72589523D01*
X58954762Y-72827619D02*
X59669048Y-73065714D01*
X59669048Y-72446666D01*
X127602381Y-74018095D02*
X126602381Y-74018095D01*
X126602381Y-73780000D01*
X126650000Y-73637142D01*
X126745238Y-73541904D01*
X126840476Y-73494285D01*
X127030952Y-73446666D01*
X127173810Y-73446666D01*
X127364286Y-73494285D01*
X127459524Y-73541904D01*
X127554762Y-73637142D01*
X127602381Y-73780000D01*
X127602381Y-74018095D01*
X126602381Y-72541904D02*
X126602381Y-73018095D01*
X127078571Y-73065714D01*
X127030952Y-73018095D01*
X126983333Y-72922857D01*
X126983333Y-72684761D01*
X127030952Y-72589523D01*
X127078571Y-72541904D01*
X127173810Y-72494285D01*
X127411905Y-72494285D01*
X127507143Y-72541904D01*
X127554762Y-72589523D01*
X127602381Y-72684761D01*
X127602381Y-72922857D01*
X127554762Y-73018095D01*
X127507143Y-73065714D01*
X106802381Y-74018095D02*
X105802381Y-74018095D01*
X105802381Y-73780000D01*
X105850000Y-73637142D01*
X105945238Y-73541904D01*
X106040476Y-73494285D01*
X106230952Y-73446666D01*
X106373810Y-73446666D01*
X106564286Y-73494285D01*
X106659524Y-73541904D01*
X106754762Y-73637142D01*
X106802381Y-73780000D01*
X106802381Y-74018095D01*
X105802381Y-72589523D02*
X105802381Y-72780000D01*
X105850000Y-72875238D01*
X105897619Y-72922857D01*
X106040476Y-73018095D01*
X106230952Y-73065714D01*
X106611905Y-73065714D01*
X106707143Y-73018095D01*
X106754762Y-72970476D01*
X106802381Y-72875238D01*
X106802381Y-72684761D01*
X106754762Y-72589523D01*
X106707143Y-72541904D01*
X106611905Y-72494285D01*
X106373810Y-72494285D01*
X106278571Y-72541904D01*
X106230952Y-72589523D01*
X106183333Y-72684761D01*
X106183333Y-72875238D01*
X106230952Y-72970476D01*
X106278571Y-73018095D01*
X106373810Y-73065714D01*
X86002381Y-74018095D02*
X85002381Y-74018095D01*
X85002381Y-73780000D01*
X85050000Y-73637142D01*
X85145238Y-73541904D01*
X85240476Y-73494285D01*
X85430952Y-73446666D01*
X85573810Y-73446666D01*
X85764286Y-73494285D01*
X85859524Y-73541904D01*
X85954762Y-73637142D01*
X86002381Y-73780000D01*
X86002381Y-74018095D01*
X85002381Y-73113333D02*
X85002381Y-72446666D01*
X86002381Y-72875238D01*
X65202381Y-74018095D02*
X64202381Y-74018095D01*
X64202381Y-73780000D01*
X64250000Y-73637142D01*
X64345238Y-73541904D01*
X64440476Y-73494285D01*
X64630952Y-73446666D01*
X64773810Y-73446666D01*
X64964286Y-73494285D01*
X65059524Y-73541904D01*
X65154762Y-73637142D01*
X65202381Y-73780000D01*
X65202381Y-74018095D01*
X64630952Y-72875238D02*
X64583333Y-72970476D01*
X64535714Y-73018095D01*
X64440476Y-73065714D01*
X64392857Y-73065714D01*
X64297619Y-73018095D01*
X64250000Y-72970476D01*
X64202381Y-72875238D01*
X64202381Y-72684761D01*
X64250000Y-72589523D01*
X64297619Y-72541904D01*
X64392857Y-72494285D01*
X64440476Y-72494285D01*
X64535714Y-72541904D01*
X64583333Y-72589523D01*
X64630952Y-72684761D01*
X64630952Y-72875238D01*
X64678571Y-72970476D01*
X64726190Y-73018095D01*
X64821429Y-73065714D01*
X65011905Y-73065714D01*
X65107143Y-73018095D01*
X65154762Y-72970476D01*
X65202381Y-72875238D01*
X65202381Y-72684761D01*
X65154762Y-72589523D01*
X65107143Y-72541904D01*
X65011905Y-72494285D01*
X64821429Y-72494285D01*
X64726190Y-72541904D01*
X64678571Y-72589523D01*
X64630952Y-72684761D01*
X132802381Y-74018095D02*
X131802381Y-74018095D01*
X131802381Y-73780000D01*
X131850000Y-73637142D01*
X131945238Y-73541904D01*
X132040476Y-73494285D01*
X132230952Y-73446666D01*
X132373810Y-73446666D01*
X132564286Y-73494285D01*
X132659524Y-73541904D01*
X132754762Y-73637142D01*
X132802381Y-73780000D01*
X132802381Y-74018095D01*
X132802381Y-72970476D02*
X132802381Y-72780000D01*
X132754762Y-72684761D01*
X132707143Y-72637142D01*
X132564286Y-72541904D01*
X132373810Y-72494285D01*
X131992857Y-72494285D01*
X131897619Y-72541904D01*
X131850000Y-72589523D01*
X131802381Y-72684761D01*
X131802381Y-72875238D01*
X131850000Y-72970476D01*
X131897619Y-73018095D01*
X131992857Y-73065714D01*
X132230952Y-73065714D01*
X132326190Y-73018095D01*
X132373810Y-72970476D01*
X132421429Y-72875238D01*
X132421429Y-72684761D01*
X132373810Y-72589523D01*
X132326190Y-72541904D01*
X132230952Y-72494285D01*
X112002381Y-74494286D02*
X111002381Y-74494286D01*
X111002381Y-74256191D01*
X111050000Y-74113333D01*
X111145238Y-74018095D01*
X111240476Y-73970476D01*
X111430952Y-73922857D01*
X111573810Y-73922857D01*
X111764286Y-73970476D01*
X111859524Y-74018095D01*
X111954762Y-74113333D01*
X112002381Y-74256191D01*
X112002381Y-74494286D01*
X112002381Y-72970476D02*
X112002381Y-73541905D01*
X112002381Y-73256191D02*
X111002381Y-73256191D01*
X111145238Y-73351429D01*
X111240476Y-73446667D01*
X111288095Y-73541905D01*
X111002381Y-72351429D02*
X111002381Y-72256190D01*
X111050000Y-72160952D01*
X111097619Y-72113333D01*
X111192857Y-72065714D01*
X111383333Y-72018095D01*
X111621429Y-72018095D01*
X111811905Y-72065714D01*
X111907143Y-72113333D01*
X111954762Y-72160952D01*
X112002381Y-72256190D01*
X112002381Y-72351429D01*
X111954762Y-72446667D01*
X111907143Y-72494286D01*
X111811905Y-72541905D01*
X111621429Y-72589524D01*
X111383333Y-72589524D01*
X111192857Y-72541905D01*
X111097619Y-72494286D01*
X111050000Y-72446667D01*
X111002381Y-72351429D01*
X91202381Y-74494286D02*
X90202381Y-74494286D01*
X90202381Y-74256191D01*
X90250000Y-74113333D01*
X90345238Y-74018095D01*
X90440476Y-73970476D01*
X90630952Y-73922857D01*
X90773810Y-73922857D01*
X90964286Y-73970476D01*
X91059524Y-74018095D01*
X91154762Y-74113333D01*
X91202381Y-74256191D01*
X91202381Y-74494286D01*
X91202381Y-72970476D02*
X91202381Y-73541905D01*
X91202381Y-73256191D02*
X90202381Y-73256191D01*
X90345238Y-73351429D01*
X90440476Y-73446667D01*
X90488095Y-73541905D01*
X91202381Y-72018095D02*
X91202381Y-72589524D01*
X91202381Y-72303810D02*
X90202381Y-72303810D01*
X90345238Y-72399048D01*
X90440476Y-72494286D01*
X90488095Y-72589524D01*
X70402381Y-74494286D02*
X69402381Y-74494286D01*
X69402381Y-74256191D01*
X69450000Y-74113333D01*
X69545238Y-74018095D01*
X69640476Y-73970476D01*
X69830952Y-73922857D01*
X69973810Y-73922857D01*
X70164286Y-73970476D01*
X70259524Y-74018095D01*
X70354762Y-74113333D01*
X70402381Y-74256191D01*
X70402381Y-74494286D01*
X70402381Y-72970476D02*
X70402381Y-73541905D01*
X70402381Y-73256191D02*
X69402381Y-73256191D01*
X69545238Y-73351429D01*
X69640476Y-73446667D01*
X69688095Y-73541905D01*
X69497619Y-72589524D02*
X69450000Y-72541905D01*
X69402381Y-72446667D01*
X69402381Y-72208571D01*
X69450000Y-72113333D01*
X69497619Y-72065714D01*
X69592857Y-72018095D01*
X69688095Y-72018095D01*
X69830952Y-72065714D01*
X70402381Y-72637143D01*
X70402381Y-72018095D01*
X138002381Y-74494286D02*
X137002381Y-74494286D01*
X137002381Y-74256191D01*
X137050000Y-74113333D01*
X137145238Y-74018095D01*
X137240476Y-73970476D01*
X137430952Y-73922857D01*
X137573810Y-73922857D01*
X137764286Y-73970476D01*
X137859524Y-74018095D01*
X137954762Y-74113333D01*
X138002381Y-74256191D01*
X138002381Y-74494286D01*
X138002381Y-72970476D02*
X138002381Y-73541905D01*
X138002381Y-73256191D02*
X137002381Y-73256191D01*
X137145238Y-73351429D01*
X137240476Y-73446667D01*
X137288095Y-73541905D01*
X137002381Y-72637143D02*
X137002381Y-72018095D01*
X137383333Y-72351429D01*
X137383333Y-72208571D01*
X137430952Y-72113333D01*
X137478571Y-72065714D01*
X137573810Y-72018095D01*
X137811905Y-72018095D01*
X137907143Y-72065714D01*
X137954762Y-72113333D01*
X138002381Y-72208571D01*
X138002381Y-72494286D01*
X137954762Y-72589524D01*
X137907143Y-72637143D01*
X117202381Y-74494286D02*
X116202381Y-74494286D01*
X116202381Y-74256191D01*
X116250000Y-74113333D01*
X116345238Y-74018095D01*
X116440476Y-73970476D01*
X116630952Y-73922857D01*
X116773810Y-73922857D01*
X116964286Y-73970476D01*
X117059524Y-74018095D01*
X117154762Y-74113333D01*
X117202381Y-74256191D01*
X117202381Y-74494286D01*
X117202381Y-72970476D02*
X117202381Y-73541905D01*
X117202381Y-73256191D02*
X116202381Y-73256191D01*
X116345238Y-73351429D01*
X116440476Y-73446667D01*
X116488095Y-73541905D01*
X116535714Y-72113333D02*
X117202381Y-72113333D01*
X116154762Y-72351429D02*
X116869048Y-72589524D01*
X116869048Y-71970476D01*
X96402381Y-74494286D02*
X95402381Y-74494286D01*
X95402381Y-74256191D01*
X95450000Y-74113333D01*
X95545238Y-74018095D01*
X95640476Y-73970476D01*
X95830952Y-73922857D01*
X95973810Y-73922857D01*
X96164286Y-73970476D01*
X96259524Y-74018095D01*
X96354762Y-74113333D01*
X96402381Y-74256191D01*
X96402381Y-74494286D01*
X96402381Y-72970476D02*
X96402381Y-73541905D01*
X96402381Y-73256191D02*
X95402381Y-73256191D01*
X95545238Y-73351429D01*
X95640476Y-73446667D01*
X95688095Y-73541905D01*
X95402381Y-72065714D02*
X95402381Y-72541905D01*
X95878571Y-72589524D01*
X95830952Y-72541905D01*
X95783333Y-72446667D01*
X95783333Y-72208571D01*
X95830952Y-72113333D01*
X95878571Y-72065714D01*
X95973810Y-72018095D01*
X96211905Y-72018095D01*
X96307143Y-72065714D01*
X96354762Y-72113333D01*
X96402381Y-72208571D01*
X96402381Y-72446667D01*
X96354762Y-72541905D01*
X96307143Y-72589524D01*
X75602381Y-74494286D02*
X74602381Y-74494286D01*
X74602381Y-74256191D01*
X74650000Y-74113333D01*
X74745238Y-74018095D01*
X74840476Y-73970476D01*
X75030952Y-73922857D01*
X75173810Y-73922857D01*
X75364286Y-73970476D01*
X75459524Y-74018095D01*
X75554762Y-74113333D01*
X75602381Y-74256191D01*
X75602381Y-74494286D01*
X75602381Y-72970476D02*
X75602381Y-73541905D01*
X75602381Y-73256191D02*
X74602381Y-73256191D01*
X74745238Y-73351429D01*
X74840476Y-73446667D01*
X74888095Y-73541905D01*
X74602381Y-72113333D02*
X74602381Y-72303810D01*
X74650000Y-72399048D01*
X74697619Y-72446667D01*
X74840476Y-72541905D01*
X75030952Y-72589524D01*
X75411905Y-72589524D01*
X75507143Y-72541905D01*
X75554762Y-72494286D01*
X75602381Y-72399048D01*
X75602381Y-72208571D01*
X75554762Y-72113333D01*
X75507143Y-72065714D01*
X75411905Y-72018095D01*
X75173810Y-72018095D01*
X75078571Y-72065714D01*
X75030952Y-72113333D01*
X74983333Y-72208571D01*
X74983333Y-72399048D01*
X75030952Y-72494286D01*
X75078571Y-72541905D01*
X75173810Y-72589524D01*
X70285714Y-69182381D02*
X70285714Y-68182381D01*
X70523809Y-68182381D01*
X70666667Y-68230000D01*
X70761905Y-68325238D01*
X70809524Y-68420476D01*
X70857143Y-68610952D01*
X70857143Y-68753810D01*
X70809524Y-68944286D01*
X70761905Y-69039524D01*
X70666667Y-69134762D01*
X70523809Y-69182381D01*
X70285714Y-69182381D01*
X71238095Y-69134762D02*
X71380952Y-69182381D01*
X71619048Y-69182381D01*
X71714286Y-69134762D01*
X71761905Y-69087143D01*
X71809524Y-68991905D01*
X71809524Y-68896667D01*
X71761905Y-68801429D01*
X71714286Y-68753810D01*
X71619048Y-68706190D01*
X71428571Y-68658571D01*
X71333333Y-68610952D01*
X71285714Y-68563333D01*
X71238095Y-68468095D01*
X71238095Y-68372857D01*
X71285714Y-68277619D01*
X71333333Y-68230000D01*
X71428571Y-68182381D01*
X71666667Y-68182381D01*
X71809524Y-68230000D01*
X72761905Y-69182381D02*
X72190476Y-69182381D01*
X72476190Y-69182381D02*
X72476190Y-68182381D01*
X72380952Y-68325238D01*
X72285714Y-68420476D01*
X72190476Y-68468095D01*
X85955714Y-69182381D02*
X85955714Y-68182381D01*
X86193809Y-68182381D01*
X86336667Y-68230000D01*
X86431905Y-68325238D01*
X86479524Y-68420476D01*
X86527143Y-68610952D01*
X86527143Y-68753810D01*
X86479524Y-68944286D01*
X86431905Y-69039524D01*
X86336667Y-69134762D01*
X86193809Y-69182381D01*
X85955714Y-69182381D01*
X86908095Y-69134762D02*
X87050952Y-69182381D01*
X87289048Y-69182381D01*
X87384286Y-69134762D01*
X87431905Y-69087143D01*
X87479524Y-68991905D01*
X87479524Y-68896667D01*
X87431905Y-68801429D01*
X87384286Y-68753810D01*
X87289048Y-68706190D01*
X87098571Y-68658571D01*
X87003333Y-68610952D01*
X86955714Y-68563333D01*
X86908095Y-68468095D01*
X86908095Y-68372857D01*
X86955714Y-68277619D01*
X87003333Y-68230000D01*
X87098571Y-68182381D01*
X87336667Y-68182381D01*
X87479524Y-68230000D01*
X87860476Y-68277619D02*
X87908095Y-68230000D01*
X88003333Y-68182381D01*
X88241429Y-68182381D01*
X88336667Y-68230000D01*
X88384286Y-68277619D01*
X88431905Y-68372857D01*
X88431905Y-68468095D01*
X88384286Y-68610952D01*
X87812857Y-69182381D01*
X88431905Y-69182381D01*
X106945714Y-69182381D02*
X106945714Y-68182381D01*
X107183809Y-68182381D01*
X107326667Y-68230000D01*
X107421905Y-68325238D01*
X107469524Y-68420476D01*
X107517143Y-68610952D01*
X107517143Y-68753810D01*
X107469524Y-68944286D01*
X107421905Y-69039524D01*
X107326667Y-69134762D01*
X107183809Y-69182381D01*
X106945714Y-69182381D01*
X107898095Y-69134762D02*
X108040952Y-69182381D01*
X108279048Y-69182381D01*
X108374286Y-69134762D01*
X108421905Y-69087143D01*
X108469524Y-68991905D01*
X108469524Y-68896667D01*
X108421905Y-68801429D01*
X108374286Y-68753810D01*
X108279048Y-68706190D01*
X108088571Y-68658571D01*
X107993333Y-68610952D01*
X107945714Y-68563333D01*
X107898095Y-68468095D01*
X107898095Y-68372857D01*
X107945714Y-68277619D01*
X107993333Y-68230000D01*
X108088571Y-68182381D01*
X108326667Y-68182381D01*
X108469524Y-68230000D01*
X108802857Y-68182381D02*
X109421905Y-68182381D01*
X109088571Y-68563333D01*
X109231429Y-68563333D01*
X109326667Y-68610952D01*
X109374286Y-68658571D01*
X109421905Y-68753810D01*
X109421905Y-68991905D01*
X109374286Y-69087143D01*
X109326667Y-69134762D01*
X109231429Y-69182381D01*
X108945714Y-69182381D01*
X108850476Y-69134762D01*
X108802857Y-69087143D01*
X122615714Y-69182381D02*
X122615714Y-68182381D01*
X122853809Y-68182381D01*
X122996667Y-68230000D01*
X123091905Y-68325238D01*
X123139524Y-68420476D01*
X123187143Y-68610952D01*
X123187143Y-68753810D01*
X123139524Y-68944286D01*
X123091905Y-69039524D01*
X122996667Y-69134762D01*
X122853809Y-69182381D01*
X122615714Y-69182381D01*
X123568095Y-69134762D02*
X123710952Y-69182381D01*
X123949048Y-69182381D01*
X124044286Y-69134762D01*
X124091905Y-69087143D01*
X124139524Y-68991905D01*
X124139524Y-68896667D01*
X124091905Y-68801429D01*
X124044286Y-68753810D01*
X123949048Y-68706190D01*
X123758571Y-68658571D01*
X123663333Y-68610952D01*
X123615714Y-68563333D01*
X123568095Y-68468095D01*
X123568095Y-68372857D01*
X123615714Y-68277619D01*
X123663333Y-68230000D01*
X123758571Y-68182381D01*
X123996667Y-68182381D01*
X124139524Y-68230000D01*
X124996667Y-68515714D02*
X124996667Y-69182381D01*
X124758571Y-68134762D02*
X124520476Y-68849048D01*
X125139524Y-68849048D01*
X138285714Y-69182381D02*
X138285714Y-68182381D01*
X138523809Y-68182381D01*
X138666667Y-68230000D01*
X138761905Y-68325238D01*
X138809524Y-68420476D01*
X138857143Y-68610952D01*
X138857143Y-68753810D01*
X138809524Y-68944286D01*
X138761905Y-69039524D01*
X138666667Y-69134762D01*
X138523809Y-69182381D01*
X138285714Y-69182381D01*
X139238095Y-69134762D02*
X139380952Y-69182381D01*
X139619048Y-69182381D01*
X139714286Y-69134762D01*
X139761905Y-69087143D01*
X139809524Y-68991905D01*
X139809524Y-68896667D01*
X139761905Y-68801429D01*
X139714286Y-68753810D01*
X139619048Y-68706190D01*
X139428571Y-68658571D01*
X139333333Y-68610952D01*
X139285714Y-68563333D01*
X139238095Y-68468095D01*
X139238095Y-68372857D01*
X139285714Y-68277619D01*
X139333333Y-68230000D01*
X139428571Y-68182381D01*
X139666667Y-68182381D01*
X139809524Y-68230000D01*
X140714286Y-68182381D02*
X140238095Y-68182381D01*
X140190476Y-68658571D01*
X140238095Y-68610952D01*
X140333333Y-68563333D01*
X140571429Y-68563333D01*
X140666667Y-68610952D01*
X140714286Y-68658571D01*
X140761905Y-68753810D01*
X140761905Y-68991905D01*
X140714286Y-69087143D01*
X140666667Y-69134762D01*
X140571429Y-69182381D01*
X140333333Y-69182381D01*
X140238095Y-69134762D01*
X140190476Y-69087143D01*
X61316667Y-130872381D02*
X61316667Y-131586667D01*
X61269047Y-131729524D01*
X61173809Y-131824762D01*
X61030952Y-131872381D01*
X60935714Y-131872381D01*
X62316667Y-131872381D02*
X61745238Y-131872381D01*
X62030952Y-131872381D02*
X62030952Y-130872381D01*
X61935714Y-131015238D01*
X61840476Y-131110476D01*
X61745238Y-131158095D01*
X64946667Y-141372381D02*
X64946667Y-142086667D01*
X64899047Y-142229524D01*
X64803809Y-142324762D01*
X64660952Y-142372381D01*
X64565714Y-142372381D01*
X65422857Y-142372381D02*
X65422857Y-141372381D01*
X65803810Y-141372381D01*
X65899048Y-141420000D01*
X65946667Y-141467619D01*
X65994286Y-141562857D01*
X65994286Y-141705714D01*
X65946667Y-141800952D01*
X65899048Y-141848571D01*
X65803810Y-141896190D01*
X65422857Y-141896190D01*
X66946667Y-142372381D02*
X66375238Y-142372381D01*
X66660952Y-142372381D02*
X66660952Y-141372381D01*
X66565714Y-141515238D01*
X66470476Y-141610476D01*
X66375238Y-141658095D01*
X137334762Y-87187619D02*
X137239524Y-87140000D01*
X137144286Y-87044762D01*
X137001429Y-86901905D01*
X136906190Y-86854286D01*
X136810952Y-86854286D01*
X136858571Y-87092381D02*
X136763333Y-87044762D01*
X136668095Y-86949524D01*
X136620476Y-86759048D01*
X136620476Y-86425714D01*
X136668095Y-86235238D01*
X136763333Y-86140000D01*
X136858571Y-86092381D01*
X137049048Y-86092381D01*
X137144286Y-86140000D01*
X137239524Y-86235238D01*
X137287143Y-86425714D01*
X137287143Y-86759048D01*
X137239524Y-86949524D01*
X137144286Y-87044762D01*
X137049048Y-87092381D01*
X136858571Y-87092381D01*
X138239524Y-87092381D02*
X137668095Y-87092381D01*
X137953809Y-87092381D02*
X137953809Y-86092381D01*
X137858571Y-86235238D01*
X137763333Y-86330476D01*
X137668095Y-86378095D01*
X93624762Y-77827619D02*
X93529524Y-77780000D01*
X93434286Y-77684762D01*
X93291429Y-77541905D01*
X93196190Y-77494286D01*
X93100952Y-77494286D01*
X93148571Y-77732381D02*
X93053333Y-77684762D01*
X92958095Y-77589524D01*
X92910476Y-77399048D01*
X92910476Y-77065714D01*
X92958095Y-76875238D01*
X93053333Y-76780000D01*
X93148571Y-76732381D01*
X93339048Y-76732381D01*
X93434286Y-76780000D01*
X93529524Y-76875238D01*
X93577143Y-77065714D01*
X93577143Y-77399048D01*
X93529524Y-77589524D01*
X93434286Y-77684762D01*
X93339048Y-77732381D01*
X93148571Y-77732381D01*
X93958095Y-76827619D02*
X94005714Y-76780000D01*
X94100952Y-76732381D01*
X94339048Y-76732381D01*
X94434286Y-76780000D01*
X94481905Y-76827619D01*
X94529524Y-76922857D01*
X94529524Y-77018095D01*
X94481905Y-77160952D01*
X93910476Y-77732381D01*
X94529524Y-77732381D01*
X90174762Y-77827619D02*
X90079524Y-77780000D01*
X89984286Y-77684762D01*
X89841429Y-77541905D01*
X89746190Y-77494286D01*
X89650952Y-77494286D01*
X89698571Y-77732381D02*
X89603333Y-77684762D01*
X89508095Y-77589524D01*
X89460476Y-77399048D01*
X89460476Y-77065714D01*
X89508095Y-76875238D01*
X89603333Y-76780000D01*
X89698571Y-76732381D01*
X89889048Y-76732381D01*
X89984286Y-76780000D01*
X90079524Y-76875238D01*
X90127143Y-77065714D01*
X90127143Y-77399048D01*
X90079524Y-77589524D01*
X89984286Y-77684762D01*
X89889048Y-77732381D01*
X89698571Y-77732381D01*
X90460476Y-76732381D02*
X91079524Y-76732381D01*
X90746190Y-77113333D01*
X90889048Y-77113333D01*
X90984286Y-77160952D01*
X91031905Y-77208571D01*
X91079524Y-77303810D01*
X91079524Y-77541905D01*
X91031905Y-77637143D01*
X90984286Y-77684762D01*
X90889048Y-77732381D01*
X90603333Y-77732381D01*
X90508095Y-77684762D01*
X90460476Y-77637143D01*
X86724762Y-77827619D02*
X86629524Y-77780000D01*
X86534286Y-77684762D01*
X86391429Y-77541905D01*
X86296190Y-77494286D01*
X86200952Y-77494286D01*
X86248571Y-77732381D02*
X86153333Y-77684762D01*
X86058095Y-77589524D01*
X86010476Y-77399048D01*
X86010476Y-77065714D01*
X86058095Y-76875238D01*
X86153333Y-76780000D01*
X86248571Y-76732381D01*
X86439048Y-76732381D01*
X86534286Y-76780000D01*
X86629524Y-76875238D01*
X86677143Y-77065714D01*
X86677143Y-77399048D01*
X86629524Y-77589524D01*
X86534286Y-77684762D01*
X86439048Y-77732381D01*
X86248571Y-77732381D01*
X87534286Y-77065714D02*
X87534286Y-77732381D01*
X87296190Y-76684762D02*
X87058095Y-77399048D01*
X87677143Y-77399048D01*
X83274762Y-77827619D02*
X83179524Y-77780000D01*
X83084286Y-77684762D01*
X82941429Y-77541905D01*
X82846190Y-77494286D01*
X82750952Y-77494286D01*
X82798571Y-77732381D02*
X82703333Y-77684762D01*
X82608095Y-77589524D01*
X82560476Y-77399048D01*
X82560476Y-77065714D01*
X82608095Y-76875238D01*
X82703333Y-76780000D01*
X82798571Y-76732381D01*
X82989048Y-76732381D01*
X83084286Y-76780000D01*
X83179524Y-76875238D01*
X83227143Y-77065714D01*
X83227143Y-77399048D01*
X83179524Y-77589524D01*
X83084286Y-77684762D01*
X82989048Y-77732381D01*
X82798571Y-77732381D01*
X84131905Y-76732381D02*
X83655714Y-76732381D01*
X83608095Y-77208571D01*
X83655714Y-77160952D01*
X83750952Y-77113333D01*
X83989048Y-77113333D01*
X84084286Y-77160952D01*
X84131905Y-77208571D01*
X84179524Y-77303810D01*
X84179524Y-77541905D01*
X84131905Y-77637143D01*
X84084286Y-77684762D01*
X83989048Y-77732381D01*
X83750952Y-77732381D01*
X83655714Y-77684762D01*
X83608095Y-77637143D01*
X76504762Y-80337619D02*
X76409524Y-80290000D01*
X76314286Y-80194762D01*
X76171429Y-80051905D01*
X76076190Y-80004286D01*
X75980952Y-80004286D01*
X76028571Y-80242381D02*
X75933333Y-80194762D01*
X75838095Y-80099524D01*
X75790476Y-79909048D01*
X75790476Y-79575714D01*
X75838095Y-79385238D01*
X75933333Y-79290000D01*
X76028571Y-79242381D01*
X76219048Y-79242381D01*
X76314286Y-79290000D01*
X76409524Y-79385238D01*
X76457143Y-79575714D01*
X76457143Y-79909048D01*
X76409524Y-80099524D01*
X76314286Y-80194762D01*
X76219048Y-80242381D01*
X76028571Y-80242381D01*
X77314286Y-79242381D02*
X77123809Y-79242381D01*
X77028571Y-79290000D01*
X76980952Y-79337619D01*
X76885714Y-79480476D01*
X76838095Y-79670952D01*
X76838095Y-80051905D01*
X76885714Y-80147143D01*
X76933333Y-80194762D01*
X77028571Y-80242381D01*
X77219048Y-80242381D01*
X77314286Y-80194762D01*
X77361905Y-80147143D01*
X77409524Y-80051905D01*
X77409524Y-79813810D01*
X77361905Y-79718571D01*
X77314286Y-79670952D01*
X77219048Y-79623333D01*
X77028571Y-79623333D01*
X76933333Y-79670952D01*
X76885714Y-79718571D01*
X76838095Y-79813810D01*
X73054762Y-80337619D02*
X72959524Y-80290000D01*
X72864286Y-80194762D01*
X72721429Y-80051905D01*
X72626190Y-80004286D01*
X72530952Y-80004286D01*
X72578571Y-80242381D02*
X72483333Y-80194762D01*
X72388095Y-80099524D01*
X72340476Y-79909048D01*
X72340476Y-79575714D01*
X72388095Y-79385238D01*
X72483333Y-79290000D01*
X72578571Y-79242381D01*
X72769048Y-79242381D01*
X72864286Y-79290000D01*
X72959524Y-79385238D01*
X73007143Y-79575714D01*
X73007143Y-79909048D01*
X72959524Y-80099524D01*
X72864286Y-80194762D01*
X72769048Y-80242381D01*
X72578571Y-80242381D01*
X73340476Y-79242381D02*
X74007143Y-79242381D01*
X73578571Y-80242381D01*
X68718095Y-83506190D02*
X68680000Y-83582381D01*
X68603810Y-83658571D01*
X68489524Y-83772857D01*
X68451429Y-83849048D01*
X68451429Y-83925238D01*
X68641905Y-83887143D02*
X68603810Y-83963333D01*
X68527619Y-84039524D01*
X68375238Y-84077619D01*
X68108571Y-84077619D01*
X67956190Y-84039524D01*
X67880000Y-83963333D01*
X67841905Y-83887143D01*
X67841905Y-83734762D01*
X67880000Y-83658571D01*
X67956190Y-83582381D01*
X68108571Y-83544286D01*
X68375238Y-83544286D01*
X68527619Y-83582381D01*
X68603810Y-83658571D01*
X68641905Y-83734762D01*
X68641905Y-83887143D01*
X68184762Y-83087143D02*
X68146667Y-83163334D01*
X68108571Y-83201429D01*
X68032381Y-83239524D01*
X67994286Y-83239524D01*
X67918095Y-83201429D01*
X67880000Y-83163334D01*
X67841905Y-83087143D01*
X67841905Y-82934762D01*
X67880000Y-82858572D01*
X67918095Y-82820476D01*
X67994286Y-82782381D01*
X68032381Y-82782381D01*
X68108571Y-82820476D01*
X68146667Y-82858572D01*
X68184762Y-82934762D01*
X68184762Y-83087143D01*
X68222857Y-83163334D01*
X68260952Y-83201429D01*
X68337143Y-83239524D01*
X68489524Y-83239524D01*
X68565714Y-83201429D01*
X68603810Y-83163334D01*
X68641905Y-83087143D01*
X68641905Y-82934762D01*
X68603810Y-82858572D01*
X68565714Y-82820476D01*
X68489524Y-82782381D01*
X68337143Y-82782381D01*
X68260952Y-82820476D01*
X68222857Y-82858572D01*
X68184762Y-82934762D01*
X65228095Y-83506190D02*
X65190000Y-83582381D01*
X65113810Y-83658571D01*
X64999524Y-83772857D01*
X64961429Y-83849048D01*
X64961429Y-83925238D01*
X65151905Y-83887143D02*
X65113810Y-83963333D01*
X65037619Y-84039524D01*
X64885238Y-84077619D01*
X64618571Y-84077619D01*
X64466190Y-84039524D01*
X64390000Y-83963333D01*
X64351905Y-83887143D01*
X64351905Y-83734762D01*
X64390000Y-83658571D01*
X64466190Y-83582381D01*
X64618571Y-83544286D01*
X64885238Y-83544286D01*
X65037619Y-83582381D01*
X65113810Y-83658571D01*
X65151905Y-83734762D01*
X65151905Y-83887143D01*
X65151905Y-83163334D02*
X65151905Y-83010953D01*
X65113810Y-82934762D01*
X65075714Y-82896667D01*
X64961429Y-82820476D01*
X64809048Y-82782381D01*
X64504286Y-82782381D01*
X64428095Y-82820476D01*
X64390000Y-82858572D01*
X64351905Y-82934762D01*
X64351905Y-83087143D01*
X64390000Y-83163334D01*
X64428095Y-83201429D01*
X64504286Y-83239524D01*
X64694762Y-83239524D01*
X64770952Y-83201429D01*
X64809048Y-83163334D01*
X64847143Y-83087143D01*
X64847143Y-82934762D01*
X64809048Y-82858572D01*
X64770952Y-82820476D01*
X64694762Y-82782381D01*
X97542858Y-87878095D02*
X97466667Y-87840000D01*
X97390477Y-87763810D01*
X97276191Y-87649524D01*
X97200000Y-87611429D01*
X97123810Y-87611429D01*
X97161905Y-87801905D02*
X97085715Y-87763810D01*
X97009524Y-87687619D01*
X96971429Y-87535238D01*
X96971429Y-87268571D01*
X97009524Y-87116190D01*
X97085715Y-87040000D01*
X97161905Y-87001905D01*
X97314286Y-87001905D01*
X97390477Y-87040000D01*
X97466667Y-87116190D01*
X97504762Y-87268571D01*
X97504762Y-87535238D01*
X97466667Y-87687619D01*
X97390477Y-87763810D01*
X97314286Y-87801905D01*
X97161905Y-87801905D01*
X98266667Y-87801905D02*
X97809524Y-87801905D01*
X98038095Y-87801905D02*
X98038095Y-87001905D01*
X97961905Y-87116190D01*
X97885714Y-87192381D01*
X97809524Y-87230476D01*
X98761905Y-87001905D02*
X98838096Y-87001905D01*
X98914286Y-87040000D01*
X98952381Y-87078095D01*
X98990477Y-87154286D01*
X99028572Y-87306667D01*
X99028572Y-87497143D01*
X98990477Y-87649524D01*
X98952381Y-87725714D01*
X98914286Y-87763810D01*
X98838096Y-87801905D01*
X98761905Y-87801905D01*
X98685715Y-87763810D01*
X98647619Y-87725714D01*
X98609524Y-87649524D01*
X98571429Y-87497143D01*
X98571429Y-87306667D01*
X98609524Y-87154286D01*
X98647619Y-87078095D01*
X98685715Y-87040000D01*
X98761905Y-87001905D01*
X100992858Y-87878095D02*
X100916667Y-87840000D01*
X100840477Y-87763810D01*
X100726191Y-87649524D01*
X100650000Y-87611429D01*
X100573810Y-87611429D01*
X100611905Y-87801905D02*
X100535715Y-87763810D01*
X100459524Y-87687619D01*
X100421429Y-87535238D01*
X100421429Y-87268571D01*
X100459524Y-87116190D01*
X100535715Y-87040000D01*
X100611905Y-87001905D01*
X100764286Y-87001905D01*
X100840477Y-87040000D01*
X100916667Y-87116190D01*
X100954762Y-87268571D01*
X100954762Y-87535238D01*
X100916667Y-87687619D01*
X100840477Y-87763810D01*
X100764286Y-87801905D01*
X100611905Y-87801905D01*
X101716667Y-87801905D02*
X101259524Y-87801905D01*
X101488095Y-87801905D02*
X101488095Y-87001905D01*
X101411905Y-87116190D01*
X101335714Y-87192381D01*
X101259524Y-87230476D01*
X102478572Y-87801905D02*
X102021429Y-87801905D01*
X102250000Y-87801905D02*
X102250000Y-87001905D01*
X102173810Y-87116190D01*
X102097619Y-87192381D01*
X102021429Y-87230476D01*
X104442858Y-87878095D02*
X104366667Y-87840000D01*
X104290477Y-87763810D01*
X104176191Y-87649524D01*
X104100000Y-87611429D01*
X104023810Y-87611429D01*
X104061905Y-87801905D02*
X103985715Y-87763810D01*
X103909524Y-87687619D01*
X103871429Y-87535238D01*
X103871429Y-87268571D01*
X103909524Y-87116190D01*
X103985715Y-87040000D01*
X104061905Y-87001905D01*
X104214286Y-87001905D01*
X104290477Y-87040000D01*
X104366667Y-87116190D01*
X104404762Y-87268571D01*
X104404762Y-87535238D01*
X104366667Y-87687619D01*
X104290477Y-87763810D01*
X104214286Y-87801905D01*
X104061905Y-87801905D01*
X105166667Y-87801905D02*
X104709524Y-87801905D01*
X104938095Y-87801905D02*
X104938095Y-87001905D01*
X104861905Y-87116190D01*
X104785714Y-87192381D01*
X104709524Y-87230476D01*
X105471429Y-87078095D02*
X105509524Y-87040000D01*
X105585715Y-87001905D01*
X105776191Y-87001905D01*
X105852381Y-87040000D01*
X105890477Y-87078095D01*
X105928572Y-87154286D01*
X105928572Y-87230476D01*
X105890477Y-87344762D01*
X105433334Y-87801905D01*
X105928572Y-87801905D01*
X107892858Y-87878095D02*
X107816667Y-87840000D01*
X107740477Y-87763810D01*
X107626191Y-87649524D01*
X107550000Y-87611429D01*
X107473810Y-87611429D01*
X107511905Y-87801905D02*
X107435715Y-87763810D01*
X107359524Y-87687619D01*
X107321429Y-87535238D01*
X107321429Y-87268571D01*
X107359524Y-87116190D01*
X107435715Y-87040000D01*
X107511905Y-87001905D01*
X107664286Y-87001905D01*
X107740477Y-87040000D01*
X107816667Y-87116190D01*
X107854762Y-87268571D01*
X107854762Y-87535238D01*
X107816667Y-87687619D01*
X107740477Y-87763810D01*
X107664286Y-87801905D01*
X107511905Y-87801905D01*
X108616667Y-87801905D02*
X108159524Y-87801905D01*
X108388095Y-87801905D02*
X108388095Y-87001905D01*
X108311905Y-87116190D01*
X108235714Y-87192381D01*
X108159524Y-87230476D01*
X108883334Y-87001905D02*
X109378572Y-87001905D01*
X109111905Y-87306667D01*
X109226191Y-87306667D01*
X109302381Y-87344762D01*
X109340477Y-87382857D01*
X109378572Y-87459048D01*
X109378572Y-87649524D01*
X109340477Y-87725714D01*
X109302381Y-87763810D01*
X109226191Y-87801905D01*
X108997619Y-87801905D01*
X108921429Y-87763810D01*
X108883334Y-87725714D01*
X111342858Y-87878095D02*
X111266667Y-87840000D01*
X111190477Y-87763810D01*
X111076191Y-87649524D01*
X111000000Y-87611429D01*
X110923810Y-87611429D01*
X110961905Y-87801905D02*
X110885715Y-87763810D01*
X110809524Y-87687619D01*
X110771429Y-87535238D01*
X110771429Y-87268571D01*
X110809524Y-87116190D01*
X110885715Y-87040000D01*
X110961905Y-87001905D01*
X111114286Y-87001905D01*
X111190477Y-87040000D01*
X111266667Y-87116190D01*
X111304762Y-87268571D01*
X111304762Y-87535238D01*
X111266667Y-87687619D01*
X111190477Y-87763810D01*
X111114286Y-87801905D01*
X110961905Y-87801905D01*
X112066667Y-87801905D02*
X111609524Y-87801905D01*
X111838095Y-87801905D02*
X111838095Y-87001905D01*
X111761905Y-87116190D01*
X111685714Y-87192381D01*
X111609524Y-87230476D01*
X112752381Y-87268571D02*
X112752381Y-87801905D01*
X112561905Y-86963810D02*
X112371429Y-87535238D01*
X112866667Y-87535238D01*
X114792858Y-87878095D02*
X114716667Y-87840000D01*
X114640477Y-87763810D01*
X114526191Y-87649524D01*
X114450000Y-87611429D01*
X114373810Y-87611429D01*
X114411905Y-87801905D02*
X114335715Y-87763810D01*
X114259524Y-87687619D01*
X114221429Y-87535238D01*
X114221429Y-87268571D01*
X114259524Y-87116190D01*
X114335715Y-87040000D01*
X114411905Y-87001905D01*
X114564286Y-87001905D01*
X114640477Y-87040000D01*
X114716667Y-87116190D01*
X114754762Y-87268571D01*
X114754762Y-87535238D01*
X114716667Y-87687619D01*
X114640477Y-87763810D01*
X114564286Y-87801905D01*
X114411905Y-87801905D01*
X115516667Y-87801905D02*
X115059524Y-87801905D01*
X115288095Y-87801905D02*
X115288095Y-87001905D01*
X115211905Y-87116190D01*
X115135714Y-87192381D01*
X115059524Y-87230476D01*
X116240477Y-87001905D02*
X115859524Y-87001905D01*
X115821429Y-87382857D01*
X115859524Y-87344762D01*
X115935715Y-87306667D01*
X116126191Y-87306667D01*
X116202381Y-87344762D01*
X116240477Y-87382857D01*
X116278572Y-87459048D01*
X116278572Y-87649524D01*
X116240477Y-87725714D01*
X116202381Y-87763810D01*
X116126191Y-87801905D01*
X115935715Y-87801905D01*
X115859524Y-87763810D01*
X115821429Y-87725714D01*
X118242858Y-87878095D02*
X118166667Y-87840000D01*
X118090477Y-87763810D01*
X117976191Y-87649524D01*
X117900000Y-87611429D01*
X117823810Y-87611429D01*
X117861905Y-87801905D02*
X117785715Y-87763810D01*
X117709524Y-87687619D01*
X117671429Y-87535238D01*
X117671429Y-87268571D01*
X117709524Y-87116190D01*
X117785715Y-87040000D01*
X117861905Y-87001905D01*
X118014286Y-87001905D01*
X118090477Y-87040000D01*
X118166667Y-87116190D01*
X118204762Y-87268571D01*
X118204762Y-87535238D01*
X118166667Y-87687619D01*
X118090477Y-87763810D01*
X118014286Y-87801905D01*
X117861905Y-87801905D01*
X118966667Y-87801905D02*
X118509524Y-87801905D01*
X118738095Y-87801905D02*
X118738095Y-87001905D01*
X118661905Y-87116190D01*
X118585714Y-87192381D01*
X118509524Y-87230476D01*
X119652381Y-87001905D02*
X119500000Y-87001905D01*
X119423810Y-87040000D01*
X119385715Y-87078095D01*
X119309524Y-87192381D01*
X119271429Y-87344762D01*
X119271429Y-87649524D01*
X119309524Y-87725714D01*
X119347619Y-87763810D01*
X119423810Y-87801905D01*
X119576191Y-87801905D01*
X119652381Y-87763810D01*
X119690477Y-87725714D01*
X119728572Y-87649524D01*
X119728572Y-87459048D01*
X119690477Y-87382857D01*
X119652381Y-87344762D01*
X119576191Y-87306667D01*
X119423810Y-87306667D01*
X119347619Y-87344762D01*
X119309524Y-87382857D01*
X119271429Y-87459048D01*
X121692858Y-87878095D02*
X121616667Y-87840000D01*
X121540477Y-87763810D01*
X121426191Y-87649524D01*
X121350000Y-87611429D01*
X121273810Y-87611429D01*
X121311905Y-87801905D02*
X121235715Y-87763810D01*
X121159524Y-87687619D01*
X121121429Y-87535238D01*
X121121429Y-87268571D01*
X121159524Y-87116190D01*
X121235715Y-87040000D01*
X121311905Y-87001905D01*
X121464286Y-87001905D01*
X121540477Y-87040000D01*
X121616667Y-87116190D01*
X121654762Y-87268571D01*
X121654762Y-87535238D01*
X121616667Y-87687619D01*
X121540477Y-87763810D01*
X121464286Y-87801905D01*
X121311905Y-87801905D01*
X122416667Y-87801905D02*
X121959524Y-87801905D01*
X122188095Y-87801905D02*
X122188095Y-87001905D01*
X122111905Y-87116190D01*
X122035714Y-87192381D01*
X121959524Y-87230476D01*
X122683334Y-87001905D02*
X123216667Y-87001905D01*
X122873810Y-87801905D01*
X125142858Y-87878095D02*
X125066667Y-87840000D01*
X124990477Y-87763810D01*
X124876191Y-87649524D01*
X124800000Y-87611429D01*
X124723810Y-87611429D01*
X124761905Y-87801905D02*
X124685715Y-87763810D01*
X124609524Y-87687619D01*
X124571429Y-87535238D01*
X124571429Y-87268571D01*
X124609524Y-87116190D01*
X124685715Y-87040000D01*
X124761905Y-87001905D01*
X124914286Y-87001905D01*
X124990477Y-87040000D01*
X125066667Y-87116190D01*
X125104762Y-87268571D01*
X125104762Y-87535238D01*
X125066667Y-87687619D01*
X124990477Y-87763810D01*
X124914286Y-87801905D01*
X124761905Y-87801905D01*
X125866667Y-87801905D02*
X125409524Y-87801905D01*
X125638095Y-87801905D02*
X125638095Y-87001905D01*
X125561905Y-87116190D01*
X125485714Y-87192381D01*
X125409524Y-87230476D01*
X126323810Y-87344762D02*
X126247619Y-87306667D01*
X126209524Y-87268571D01*
X126171429Y-87192381D01*
X126171429Y-87154286D01*
X126209524Y-87078095D01*
X126247619Y-87040000D01*
X126323810Y-87001905D01*
X126476191Y-87001905D01*
X126552381Y-87040000D01*
X126590477Y-87078095D01*
X126628572Y-87154286D01*
X126628572Y-87192381D01*
X126590477Y-87268571D01*
X126552381Y-87306667D01*
X126476191Y-87344762D01*
X126323810Y-87344762D01*
X126247619Y-87382857D01*
X126209524Y-87420952D01*
X126171429Y-87497143D01*
X126171429Y-87649524D01*
X126209524Y-87725714D01*
X126247619Y-87763810D01*
X126323810Y-87801905D01*
X126476191Y-87801905D01*
X126552381Y-87763810D01*
X126590477Y-87725714D01*
X126628572Y-87649524D01*
X126628572Y-87497143D01*
X126590477Y-87420952D01*
X126552381Y-87382857D01*
X126476191Y-87344762D01*
X128592858Y-87878095D02*
X128516667Y-87840000D01*
X128440477Y-87763810D01*
X128326191Y-87649524D01*
X128250000Y-87611429D01*
X128173810Y-87611429D01*
X128211905Y-87801905D02*
X128135715Y-87763810D01*
X128059524Y-87687619D01*
X128021429Y-87535238D01*
X128021429Y-87268571D01*
X128059524Y-87116190D01*
X128135715Y-87040000D01*
X128211905Y-87001905D01*
X128364286Y-87001905D01*
X128440477Y-87040000D01*
X128516667Y-87116190D01*
X128554762Y-87268571D01*
X128554762Y-87535238D01*
X128516667Y-87687619D01*
X128440477Y-87763810D01*
X128364286Y-87801905D01*
X128211905Y-87801905D01*
X129316667Y-87801905D02*
X128859524Y-87801905D01*
X129088095Y-87801905D02*
X129088095Y-87001905D01*
X129011905Y-87116190D01*
X128935714Y-87192381D01*
X128859524Y-87230476D01*
X129697619Y-87801905D02*
X129850000Y-87801905D01*
X129926191Y-87763810D01*
X129964286Y-87725714D01*
X130040477Y-87611429D01*
X130078572Y-87459048D01*
X130078572Y-87154286D01*
X130040477Y-87078095D01*
X130002381Y-87040000D01*
X129926191Y-87001905D01*
X129773810Y-87001905D01*
X129697619Y-87040000D01*
X129659524Y-87078095D01*
X129621429Y-87154286D01*
X129621429Y-87344762D01*
X129659524Y-87420952D01*
X129697619Y-87459048D01*
X129773810Y-87497143D01*
X129926191Y-87497143D01*
X130002381Y-87459048D01*
X130040477Y-87420952D01*
X130078572Y-87344762D01*
X72328572Y-95807619D02*
X72233334Y-95760000D01*
X72138096Y-95664762D01*
X71995239Y-95521905D01*
X71900000Y-95474286D01*
X71804762Y-95474286D01*
X71852381Y-95712381D02*
X71757143Y-95664762D01*
X71661905Y-95569524D01*
X71614286Y-95379048D01*
X71614286Y-95045714D01*
X71661905Y-94855238D01*
X71757143Y-94760000D01*
X71852381Y-94712381D01*
X72042858Y-94712381D01*
X72138096Y-94760000D01*
X72233334Y-94855238D01*
X72280953Y-95045714D01*
X72280953Y-95379048D01*
X72233334Y-95569524D01*
X72138096Y-95664762D01*
X72042858Y-95712381D01*
X71852381Y-95712381D01*
X72661905Y-94807619D02*
X72709524Y-94760000D01*
X72804762Y-94712381D01*
X73042858Y-94712381D01*
X73138096Y-94760000D01*
X73185715Y-94807619D01*
X73233334Y-94902857D01*
X73233334Y-94998095D01*
X73185715Y-95140952D01*
X72614286Y-95712381D01*
X73233334Y-95712381D01*
X73852381Y-94712381D02*
X73947620Y-94712381D01*
X74042858Y-94760000D01*
X74090477Y-94807619D01*
X74138096Y-94902857D01*
X74185715Y-95093333D01*
X74185715Y-95331429D01*
X74138096Y-95521905D01*
X74090477Y-95617143D01*
X74042858Y-95664762D01*
X73947620Y-95712381D01*
X73852381Y-95712381D01*
X73757143Y-95664762D01*
X73709524Y-95617143D01*
X73661905Y-95521905D01*
X73614286Y-95331429D01*
X73614286Y-95093333D01*
X73661905Y-94902857D01*
X73709524Y-94807619D01*
X73757143Y-94760000D01*
X73852381Y-94712381D01*
X68878572Y-95807619D02*
X68783334Y-95760000D01*
X68688096Y-95664762D01*
X68545239Y-95521905D01*
X68450000Y-95474286D01*
X68354762Y-95474286D01*
X68402381Y-95712381D02*
X68307143Y-95664762D01*
X68211905Y-95569524D01*
X68164286Y-95379048D01*
X68164286Y-95045714D01*
X68211905Y-94855238D01*
X68307143Y-94760000D01*
X68402381Y-94712381D01*
X68592858Y-94712381D01*
X68688096Y-94760000D01*
X68783334Y-94855238D01*
X68830953Y-95045714D01*
X68830953Y-95379048D01*
X68783334Y-95569524D01*
X68688096Y-95664762D01*
X68592858Y-95712381D01*
X68402381Y-95712381D01*
X69211905Y-94807619D02*
X69259524Y-94760000D01*
X69354762Y-94712381D01*
X69592858Y-94712381D01*
X69688096Y-94760000D01*
X69735715Y-94807619D01*
X69783334Y-94902857D01*
X69783334Y-94998095D01*
X69735715Y-95140952D01*
X69164286Y-95712381D01*
X69783334Y-95712381D01*
X70735715Y-95712381D02*
X70164286Y-95712381D01*
X70450000Y-95712381D02*
X70450000Y-94712381D01*
X70354762Y-94855238D01*
X70259524Y-94950476D01*
X70164286Y-94998095D01*
X67758095Y-95547142D02*
X67720000Y-95623333D01*
X67643810Y-95699523D01*
X67529524Y-95813809D01*
X67491429Y-95890000D01*
X67491429Y-95966190D01*
X67681905Y-95928095D02*
X67643810Y-96004285D01*
X67567619Y-96080476D01*
X67415238Y-96118571D01*
X67148571Y-96118571D01*
X66996190Y-96080476D01*
X66920000Y-96004285D01*
X66881905Y-95928095D01*
X66881905Y-95775714D01*
X66920000Y-95699523D01*
X66996190Y-95623333D01*
X67148571Y-95585238D01*
X67415238Y-95585238D01*
X67567619Y-95623333D01*
X67643810Y-95699523D01*
X67681905Y-95775714D01*
X67681905Y-95928095D01*
X66958095Y-95280476D02*
X66920000Y-95242381D01*
X66881905Y-95166190D01*
X66881905Y-94975714D01*
X66920000Y-94899524D01*
X66958095Y-94861428D01*
X67034286Y-94823333D01*
X67110476Y-94823333D01*
X67224762Y-94861428D01*
X67681905Y-95318571D01*
X67681905Y-94823333D01*
X66958095Y-94518571D02*
X66920000Y-94480476D01*
X66881905Y-94404285D01*
X66881905Y-94213809D01*
X66920000Y-94137619D01*
X66958095Y-94099523D01*
X67034286Y-94061428D01*
X67110476Y-94061428D01*
X67224762Y-94099523D01*
X67681905Y-94556666D01*
X67681905Y-94061428D01*
X61978572Y-100707619D02*
X61883334Y-100660000D01*
X61788096Y-100564762D01*
X61645239Y-100421905D01*
X61550000Y-100374286D01*
X61454762Y-100374286D01*
X61502381Y-100612381D02*
X61407143Y-100564762D01*
X61311905Y-100469524D01*
X61264286Y-100279048D01*
X61264286Y-99945714D01*
X61311905Y-99755238D01*
X61407143Y-99660000D01*
X61502381Y-99612381D01*
X61692858Y-99612381D01*
X61788096Y-99660000D01*
X61883334Y-99755238D01*
X61930953Y-99945714D01*
X61930953Y-100279048D01*
X61883334Y-100469524D01*
X61788096Y-100564762D01*
X61692858Y-100612381D01*
X61502381Y-100612381D01*
X62311905Y-99707619D02*
X62359524Y-99660000D01*
X62454762Y-99612381D01*
X62692858Y-99612381D01*
X62788096Y-99660000D01*
X62835715Y-99707619D01*
X62883334Y-99802857D01*
X62883334Y-99898095D01*
X62835715Y-100040952D01*
X62264286Y-100612381D01*
X62883334Y-100612381D01*
X63216667Y-99612381D02*
X63835715Y-99612381D01*
X63502381Y-99993333D01*
X63645239Y-99993333D01*
X63740477Y-100040952D01*
X63788096Y-100088571D01*
X63835715Y-100183810D01*
X63835715Y-100421905D01*
X63788096Y-100517143D01*
X63740477Y-100564762D01*
X63645239Y-100612381D01*
X63359524Y-100612381D01*
X63264286Y-100564762D01*
X63216667Y-100517143D01*
X71038095Y-87107142D02*
X71000000Y-87183333D01*
X70923810Y-87259523D01*
X70809524Y-87373809D01*
X70771429Y-87450000D01*
X70771429Y-87526190D01*
X70961905Y-87488095D02*
X70923810Y-87564285D01*
X70847619Y-87640476D01*
X70695238Y-87678571D01*
X70428571Y-87678571D01*
X70276190Y-87640476D01*
X70200000Y-87564285D01*
X70161905Y-87488095D01*
X70161905Y-87335714D01*
X70200000Y-87259523D01*
X70276190Y-87183333D01*
X70428571Y-87145238D01*
X70695238Y-87145238D01*
X70847619Y-87183333D01*
X70923810Y-87259523D01*
X70961905Y-87335714D01*
X70961905Y-87488095D01*
X70238095Y-86840476D02*
X70200000Y-86802381D01*
X70161905Y-86726190D01*
X70161905Y-86535714D01*
X70200000Y-86459524D01*
X70238095Y-86421428D01*
X70314286Y-86383333D01*
X70390476Y-86383333D01*
X70504762Y-86421428D01*
X70961905Y-86878571D01*
X70961905Y-86383333D01*
X70428571Y-85697619D02*
X70961905Y-85697619D01*
X70123810Y-85888095D02*
X70695238Y-86078571D01*
X70695238Y-85583333D01*
X66042858Y-84928095D02*
X65966667Y-84890000D01*
X65890477Y-84813810D01*
X65776191Y-84699524D01*
X65700000Y-84661429D01*
X65623810Y-84661429D01*
X65661905Y-84851905D02*
X65585715Y-84813810D01*
X65509524Y-84737619D01*
X65471429Y-84585238D01*
X65471429Y-84318571D01*
X65509524Y-84166190D01*
X65585715Y-84090000D01*
X65661905Y-84051905D01*
X65814286Y-84051905D01*
X65890477Y-84090000D01*
X65966667Y-84166190D01*
X66004762Y-84318571D01*
X66004762Y-84585238D01*
X65966667Y-84737619D01*
X65890477Y-84813810D01*
X65814286Y-84851905D01*
X65661905Y-84851905D01*
X66309524Y-84128095D02*
X66347619Y-84090000D01*
X66423810Y-84051905D01*
X66614286Y-84051905D01*
X66690476Y-84090000D01*
X66728572Y-84128095D01*
X66766667Y-84204286D01*
X66766667Y-84280476D01*
X66728572Y-84394762D01*
X66271429Y-84851905D01*
X66766667Y-84851905D01*
X67490477Y-84051905D02*
X67109524Y-84051905D01*
X67071429Y-84432857D01*
X67109524Y-84394762D01*
X67185715Y-84356667D01*
X67376191Y-84356667D01*
X67452381Y-84394762D01*
X67490477Y-84432857D01*
X67528572Y-84509048D01*
X67528572Y-84699524D01*
X67490477Y-84775714D01*
X67452381Y-84813810D01*
X67376191Y-84851905D01*
X67185715Y-84851905D01*
X67109524Y-84813810D01*
X67071429Y-84775714D01*
X63128572Y-89697619D02*
X63033334Y-89650000D01*
X62938096Y-89554762D01*
X62795239Y-89411905D01*
X62700000Y-89364286D01*
X62604762Y-89364286D01*
X62652381Y-89602381D02*
X62557143Y-89554762D01*
X62461905Y-89459524D01*
X62414286Y-89269048D01*
X62414286Y-88935714D01*
X62461905Y-88745238D01*
X62557143Y-88650000D01*
X62652381Y-88602381D01*
X62842858Y-88602381D01*
X62938096Y-88650000D01*
X63033334Y-88745238D01*
X63080953Y-88935714D01*
X63080953Y-89269048D01*
X63033334Y-89459524D01*
X62938096Y-89554762D01*
X62842858Y-89602381D01*
X62652381Y-89602381D01*
X63461905Y-88697619D02*
X63509524Y-88650000D01*
X63604762Y-88602381D01*
X63842858Y-88602381D01*
X63938096Y-88650000D01*
X63985715Y-88697619D01*
X64033334Y-88792857D01*
X64033334Y-88888095D01*
X63985715Y-89030952D01*
X63414286Y-89602381D01*
X64033334Y-89602381D01*
X64890477Y-88602381D02*
X64700000Y-88602381D01*
X64604762Y-88650000D01*
X64557143Y-88697619D01*
X64461905Y-88840476D01*
X64414286Y-89030952D01*
X64414286Y-89411905D01*
X64461905Y-89507143D01*
X64509524Y-89554762D01*
X64604762Y-89602381D01*
X64795239Y-89602381D01*
X64890477Y-89554762D01*
X64938096Y-89507143D01*
X64985715Y-89411905D01*
X64985715Y-89173810D01*
X64938096Y-89078571D01*
X64890477Y-89030952D01*
X64795239Y-88983333D01*
X64604762Y-88983333D01*
X64509524Y-89030952D01*
X64461905Y-89078571D01*
X64414286Y-89173810D01*
X59678572Y-89697619D02*
X59583334Y-89650000D01*
X59488096Y-89554762D01*
X59345239Y-89411905D01*
X59250000Y-89364286D01*
X59154762Y-89364286D01*
X59202381Y-89602381D02*
X59107143Y-89554762D01*
X59011905Y-89459524D01*
X58964286Y-89269048D01*
X58964286Y-88935714D01*
X59011905Y-88745238D01*
X59107143Y-88650000D01*
X59202381Y-88602381D01*
X59392858Y-88602381D01*
X59488096Y-88650000D01*
X59583334Y-88745238D01*
X59630953Y-88935714D01*
X59630953Y-89269048D01*
X59583334Y-89459524D01*
X59488096Y-89554762D01*
X59392858Y-89602381D01*
X59202381Y-89602381D01*
X60011905Y-88697619D02*
X60059524Y-88650000D01*
X60154762Y-88602381D01*
X60392858Y-88602381D01*
X60488096Y-88650000D01*
X60535715Y-88697619D01*
X60583334Y-88792857D01*
X60583334Y-88888095D01*
X60535715Y-89030952D01*
X59964286Y-89602381D01*
X60583334Y-89602381D01*
X60916667Y-88602381D02*
X61583334Y-88602381D01*
X61154762Y-89602381D01*
X72443334Y-138552381D02*
X72110000Y-138076190D01*
X71871905Y-138552381D02*
X71871905Y-137552381D01*
X72252858Y-137552381D01*
X72348096Y-137600000D01*
X72395715Y-137647619D01*
X72443334Y-137742857D01*
X72443334Y-137885714D01*
X72395715Y-137980952D01*
X72348096Y-138028571D01*
X72252858Y-138076190D01*
X71871905Y-138076190D01*
X73395715Y-138552381D02*
X72824286Y-138552381D01*
X73110000Y-138552381D02*
X73110000Y-137552381D01*
X73014762Y-137695238D01*
X72919524Y-137790476D01*
X72824286Y-137838095D01*
X72443334Y-136602381D02*
X72110000Y-136126190D01*
X71871905Y-136602381D02*
X71871905Y-135602381D01*
X72252858Y-135602381D01*
X72348096Y-135650000D01*
X72395715Y-135697619D01*
X72443334Y-135792857D01*
X72443334Y-135935714D01*
X72395715Y-136030952D01*
X72348096Y-136078571D01*
X72252858Y-136126190D01*
X71871905Y-136126190D01*
X72824286Y-135697619D02*
X72871905Y-135650000D01*
X72967143Y-135602381D01*
X73205239Y-135602381D01*
X73300477Y-135650000D01*
X73348096Y-135697619D01*
X73395715Y-135792857D01*
X73395715Y-135888095D01*
X73348096Y-136030952D01*
X72776667Y-136602381D01*
X73395715Y-136602381D01*
X104666667Y-83234762D02*
X104809524Y-83282381D01*
X105047620Y-83282381D01*
X105142858Y-83234762D01*
X105190477Y-83187143D01*
X105238096Y-83091905D01*
X105238096Y-82996667D01*
X105190477Y-82901429D01*
X105142858Y-82853810D01*
X105047620Y-82806190D01*
X104857143Y-82758571D01*
X104761905Y-82710952D01*
X104714286Y-82663333D01*
X104666667Y-82568095D01*
X104666667Y-82472857D01*
X104714286Y-82377619D01*
X104761905Y-82330000D01*
X104857143Y-82282381D01*
X105095239Y-82282381D01*
X105238096Y-82330000D01*
X105571429Y-82282381D02*
X105809524Y-83282381D01*
X106000001Y-82568095D01*
X106190477Y-83282381D01*
X106428572Y-82282381D01*
X107333334Y-83282381D02*
X106761905Y-83282381D01*
X107047619Y-83282381D02*
X107047619Y-82282381D01*
X106952381Y-82425238D01*
X106857143Y-82520476D01*
X106761905Y-82568095D01*
X116666667Y-122234762D02*
X116809524Y-122282381D01*
X117047620Y-122282381D01*
X117142858Y-122234762D01*
X117190477Y-122187143D01*
X117238096Y-122091905D01*
X117238096Y-121996667D01*
X117190477Y-121901429D01*
X117142858Y-121853810D01*
X117047620Y-121806190D01*
X116857143Y-121758571D01*
X116761905Y-121710952D01*
X116714286Y-121663333D01*
X116666667Y-121568095D01*
X116666667Y-121472857D01*
X116714286Y-121377619D01*
X116761905Y-121330000D01*
X116857143Y-121282381D01*
X117095239Y-121282381D01*
X117238096Y-121330000D01*
X117571429Y-121282381D02*
X117809524Y-122282381D01*
X118000001Y-121568095D01*
X118190477Y-122282381D01*
X118428572Y-121282381D01*
X118761905Y-121377619D02*
X118809524Y-121330000D01*
X118904762Y-121282381D01*
X119142858Y-121282381D01*
X119238096Y-121330000D01*
X119285715Y-121377619D01*
X119333334Y-121472857D01*
X119333334Y-121568095D01*
X119285715Y-121710952D01*
X118714286Y-122282381D01*
X119333334Y-122282381D01*
X116666667Y-112234762D02*
X116809524Y-112282381D01*
X117047620Y-112282381D01*
X117142858Y-112234762D01*
X117190477Y-112187143D01*
X117238096Y-112091905D01*
X117238096Y-111996667D01*
X117190477Y-111901429D01*
X117142858Y-111853810D01*
X117047620Y-111806190D01*
X116857143Y-111758571D01*
X116761905Y-111710952D01*
X116714286Y-111663333D01*
X116666667Y-111568095D01*
X116666667Y-111472857D01*
X116714286Y-111377619D01*
X116761905Y-111330000D01*
X116857143Y-111282381D01*
X117095239Y-111282381D01*
X117238096Y-111330000D01*
X117571429Y-111282381D02*
X117809524Y-112282381D01*
X118000001Y-111568095D01*
X118190477Y-112282381D01*
X118428572Y-111282381D01*
X118714286Y-111282381D02*
X119333334Y-111282381D01*
X119000000Y-111663333D01*
X119142858Y-111663333D01*
X119238096Y-111710952D01*
X119285715Y-111758571D01*
X119333334Y-111853810D01*
X119333334Y-112091905D01*
X119285715Y-112187143D01*
X119238096Y-112234762D01*
X119142858Y-112282381D01*
X118857143Y-112282381D01*
X118761905Y-112234762D01*
X118714286Y-112187143D01*
X116666667Y-102234762D02*
X116809524Y-102282381D01*
X117047620Y-102282381D01*
X117142858Y-102234762D01*
X117190477Y-102187143D01*
X117238096Y-102091905D01*
X117238096Y-101996667D01*
X117190477Y-101901429D01*
X117142858Y-101853810D01*
X117047620Y-101806190D01*
X116857143Y-101758571D01*
X116761905Y-101710952D01*
X116714286Y-101663333D01*
X116666667Y-101568095D01*
X116666667Y-101472857D01*
X116714286Y-101377619D01*
X116761905Y-101330000D01*
X116857143Y-101282381D01*
X117095239Y-101282381D01*
X117238096Y-101330000D01*
X117571429Y-101282381D02*
X117809524Y-102282381D01*
X118000001Y-101568095D01*
X118190477Y-102282381D01*
X118428572Y-101282381D01*
X119238096Y-101615714D02*
X119238096Y-102282381D01*
X119000000Y-101234762D02*
X118761905Y-101949048D01*
X119380953Y-101949048D01*
X80666667Y-87234762D02*
X80809524Y-87282381D01*
X81047620Y-87282381D01*
X81142858Y-87234762D01*
X81190477Y-87187143D01*
X81238096Y-87091905D01*
X81238096Y-86996667D01*
X81190477Y-86901429D01*
X81142858Y-86853810D01*
X81047620Y-86806190D01*
X80857143Y-86758571D01*
X80761905Y-86710952D01*
X80714286Y-86663333D01*
X80666667Y-86568095D01*
X80666667Y-86472857D01*
X80714286Y-86377619D01*
X80761905Y-86330000D01*
X80857143Y-86282381D01*
X81095239Y-86282381D01*
X81238096Y-86330000D01*
X81571429Y-86282381D02*
X81809524Y-87282381D01*
X82000001Y-86568095D01*
X82190477Y-87282381D01*
X82428572Y-86282381D01*
X83285715Y-86282381D02*
X82809524Y-86282381D01*
X82761905Y-86758571D01*
X82809524Y-86710952D01*
X82904762Y-86663333D01*
X83142858Y-86663333D01*
X83238096Y-86710952D01*
X83285715Y-86758571D01*
X83333334Y-86853810D01*
X83333334Y-87091905D01*
X83285715Y-87187143D01*
X83238096Y-87234762D01*
X83142858Y-87282381D01*
X82904762Y-87282381D01*
X82809524Y-87234762D01*
X82761905Y-87187143D01*
X104666667Y-122234762D02*
X104809524Y-122282381D01*
X105047620Y-122282381D01*
X105142858Y-122234762D01*
X105190477Y-122187143D01*
X105238096Y-122091905D01*
X105238096Y-121996667D01*
X105190477Y-121901429D01*
X105142858Y-121853810D01*
X105047620Y-121806190D01*
X104857143Y-121758571D01*
X104761905Y-121710952D01*
X104714286Y-121663333D01*
X104666667Y-121568095D01*
X104666667Y-121472857D01*
X104714286Y-121377619D01*
X104761905Y-121330000D01*
X104857143Y-121282381D01*
X105095239Y-121282381D01*
X105238096Y-121330000D01*
X105571429Y-121282381D02*
X105809524Y-122282381D01*
X106000001Y-121568095D01*
X106190477Y-122282381D01*
X106428572Y-121282381D01*
X107238096Y-121282381D02*
X107047619Y-121282381D01*
X106952381Y-121330000D01*
X106904762Y-121377619D01*
X106809524Y-121520476D01*
X106761905Y-121710952D01*
X106761905Y-122091905D01*
X106809524Y-122187143D01*
X106857143Y-122234762D01*
X106952381Y-122282381D01*
X107142858Y-122282381D01*
X107238096Y-122234762D01*
X107285715Y-122187143D01*
X107333334Y-122091905D01*
X107333334Y-121853810D01*
X107285715Y-121758571D01*
X107238096Y-121710952D01*
X107142858Y-121663333D01*
X106952381Y-121663333D01*
X106857143Y-121710952D01*
X106809524Y-121758571D01*
X106761905Y-121853810D01*
X104666667Y-112234762D02*
X104809524Y-112282381D01*
X105047620Y-112282381D01*
X105142858Y-112234762D01*
X105190477Y-112187143D01*
X105238096Y-112091905D01*
X105238096Y-111996667D01*
X105190477Y-111901429D01*
X105142858Y-111853810D01*
X105047620Y-111806190D01*
X104857143Y-111758571D01*
X104761905Y-111710952D01*
X104714286Y-111663333D01*
X104666667Y-111568095D01*
X104666667Y-111472857D01*
X104714286Y-111377619D01*
X104761905Y-111330000D01*
X104857143Y-111282381D01*
X105095239Y-111282381D01*
X105238096Y-111330000D01*
X105571429Y-111282381D02*
X105809524Y-112282381D01*
X106000001Y-111568095D01*
X106190477Y-112282381D01*
X106428572Y-111282381D01*
X106714286Y-111282381D02*
X107380953Y-111282381D01*
X106952381Y-112282381D01*
X104666667Y-102234762D02*
X104809524Y-102282381D01*
X105047620Y-102282381D01*
X105142858Y-102234762D01*
X105190477Y-102187143D01*
X105238096Y-102091905D01*
X105238096Y-101996667D01*
X105190477Y-101901429D01*
X105142858Y-101853810D01*
X105047620Y-101806190D01*
X104857143Y-101758571D01*
X104761905Y-101710952D01*
X104714286Y-101663333D01*
X104666667Y-101568095D01*
X104666667Y-101472857D01*
X104714286Y-101377619D01*
X104761905Y-101330000D01*
X104857143Y-101282381D01*
X105095239Y-101282381D01*
X105238096Y-101330000D01*
X105571429Y-101282381D02*
X105809524Y-102282381D01*
X106000001Y-101568095D01*
X106190477Y-102282381D01*
X106428572Y-101282381D01*
X106952381Y-101710952D02*
X106857143Y-101663333D01*
X106809524Y-101615714D01*
X106761905Y-101520476D01*
X106761905Y-101472857D01*
X106809524Y-101377619D01*
X106857143Y-101330000D01*
X106952381Y-101282381D01*
X107142858Y-101282381D01*
X107238096Y-101330000D01*
X107285715Y-101377619D01*
X107333334Y-101472857D01*
X107333334Y-101520476D01*
X107285715Y-101615714D01*
X107238096Y-101663333D01*
X107142858Y-101710952D01*
X106952381Y-101710952D01*
X106857143Y-101758571D01*
X106809524Y-101806190D01*
X106761905Y-101901429D01*
X106761905Y-102091905D01*
X106809524Y-102187143D01*
X106857143Y-102234762D01*
X106952381Y-102282381D01*
X107142858Y-102282381D01*
X107238096Y-102234762D01*
X107285715Y-102187143D01*
X107333334Y-102091905D01*
X107333334Y-101901429D01*
X107285715Y-101806190D01*
X107238096Y-101758571D01*
X107142858Y-101710952D01*
X104666667Y-132234762D02*
X104809524Y-132282381D01*
X105047620Y-132282381D01*
X105142858Y-132234762D01*
X105190477Y-132187143D01*
X105238096Y-132091905D01*
X105238096Y-131996667D01*
X105190477Y-131901429D01*
X105142858Y-131853810D01*
X105047620Y-131806190D01*
X104857143Y-131758571D01*
X104761905Y-131710952D01*
X104714286Y-131663333D01*
X104666667Y-131568095D01*
X104666667Y-131472857D01*
X104714286Y-131377619D01*
X104761905Y-131330000D01*
X104857143Y-131282381D01*
X105095239Y-131282381D01*
X105238096Y-131330000D01*
X105571429Y-131282381D02*
X105809524Y-132282381D01*
X106000001Y-131568095D01*
X106190477Y-132282381D01*
X106428572Y-131282381D01*
X106857143Y-132282381D02*
X107047619Y-132282381D01*
X107142858Y-132234762D01*
X107190477Y-132187143D01*
X107285715Y-132044286D01*
X107333334Y-131853810D01*
X107333334Y-131472857D01*
X107285715Y-131377619D01*
X107238096Y-131330000D01*
X107142858Y-131282381D01*
X106952381Y-131282381D01*
X106857143Y-131330000D01*
X106809524Y-131377619D01*
X106761905Y-131472857D01*
X106761905Y-131710952D01*
X106809524Y-131806190D01*
X106857143Y-131853810D01*
X106952381Y-131901429D01*
X107142858Y-131901429D01*
X107238096Y-131853810D01*
X107285715Y-131806190D01*
X107333334Y-131710952D01*
X92552381Y-122153810D02*
X92666667Y-122191905D01*
X92857143Y-122191905D01*
X92933333Y-122153810D01*
X92971429Y-122115714D01*
X93009524Y-122039524D01*
X93009524Y-121963333D01*
X92971429Y-121887143D01*
X92933333Y-121849048D01*
X92857143Y-121810952D01*
X92704762Y-121772857D01*
X92628571Y-121734762D01*
X92590476Y-121696667D01*
X92552381Y-121620476D01*
X92552381Y-121544286D01*
X92590476Y-121468095D01*
X92628571Y-121430000D01*
X92704762Y-121391905D01*
X92895238Y-121391905D01*
X93009524Y-121430000D01*
X93276191Y-121391905D02*
X93466667Y-122191905D01*
X93619048Y-121620476D01*
X93771429Y-122191905D01*
X93961905Y-121391905D01*
X94685715Y-122191905D02*
X94228572Y-122191905D01*
X94457143Y-122191905D02*
X94457143Y-121391905D01*
X94380953Y-121506190D01*
X94304762Y-121582381D01*
X94228572Y-121620476D01*
X95180953Y-121391905D02*
X95257144Y-121391905D01*
X95333334Y-121430000D01*
X95371429Y-121468095D01*
X95409525Y-121544286D01*
X95447620Y-121696667D01*
X95447620Y-121887143D01*
X95409525Y-122039524D01*
X95371429Y-122115714D01*
X95333334Y-122153810D01*
X95257144Y-122191905D01*
X95180953Y-122191905D01*
X95104763Y-122153810D01*
X95066667Y-122115714D01*
X95028572Y-122039524D01*
X94990477Y-121887143D01*
X94990477Y-121696667D01*
X95028572Y-121544286D01*
X95066667Y-121468095D01*
X95104763Y-121430000D01*
X95180953Y-121391905D01*
X92552381Y-112153810D02*
X92666667Y-112191905D01*
X92857143Y-112191905D01*
X92933333Y-112153810D01*
X92971429Y-112115714D01*
X93009524Y-112039524D01*
X93009524Y-111963333D01*
X92971429Y-111887143D01*
X92933333Y-111849048D01*
X92857143Y-111810952D01*
X92704762Y-111772857D01*
X92628571Y-111734762D01*
X92590476Y-111696667D01*
X92552381Y-111620476D01*
X92552381Y-111544286D01*
X92590476Y-111468095D01*
X92628571Y-111430000D01*
X92704762Y-111391905D01*
X92895238Y-111391905D01*
X93009524Y-111430000D01*
X93276191Y-111391905D02*
X93466667Y-112191905D01*
X93619048Y-111620476D01*
X93771429Y-112191905D01*
X93961905Y-111391905D01*
X94685715Y-112191905D02*
X94228572Y-112191905D01*
X94457143Y-112191905D02*
X94457143Y-111391905D01*
X94380953Y-111506190D01*
X94304762Y-111582381D01*
X94228572Y-111620476D01*
X95447620Y-112191905D02*
X94990477Y-112191905D01*
X95219048Y-112191905D02*
X95219048Y-111391905D01*
X95142858Y-111506190D01*
X95066667Y-111582381D01*
X94990477Y-111620476D01*
X92552381Y-102153810D02*
X92666667Y-102191905D01*
X92857143Y-102191905D01*
X92933333Y-102153810D01*
X92971429Y-102115714D01*
X93009524Y-102039524D01*
X93009524Y-101963333D01*
X92971429Y-101887143D01*
X92933333Y-101849048D01*
X92857143Y-101810952D01*
X92704762Y-101772857D01*
X92628571Y-101734762D01*
X92590476Y-101696667D01*
X92552381Y-101620476D01*
X92552381Y-101544286D01*
X92590476Y-101468095D01*
X92628571Y-101430000D01*
X92704762Y-101391905D01*
X92895238Y-101391905D01*
X93009524Y-101430000D01*
X93276191Y-101391905D02*
X93466667Y-102191905D01*
X93619048Y-101620476D01*
X93771429Y-102191905D01*
X93961905Y-101391905D01*
X94685715Y-102191905D02*
X94228572Y-102191905D01*
X94457143Y-102191905D02*
X94457143Y-101391905D01*
X94380953Y-101506190D01*
X94304762Y-101582381D01*
X94228572Y-101620476D01*
X94990477Y-101468095D02*
X95028572Y-101430000D01*
X95104763Y-101391905D01*
X95295239Y-101391905D01*
X95371429Y-101430000D01*
X95409525Y-101468095D01*
X95447620Y-101544286D01*
X95447620Y-101620476D01*
X95409525Y-101734762D01*
X94952382Y-102191905D01*
X95447620Y-102191905D01*
X80552381Y-137153810D02*
X80666667Y-137191905D01*
X80857143Y-137191905D01*
X80933333Y-137153810D01*
X80971429Y-137115714D01*
X81009524Y-137039524D01*
X81009524Y-136963333D01*
X80971429Y-136887143D01*
X80933333Y-136849048D01*
X80857143Y-136810952D01*
X80704762Y-136772857D01*
X80628571Y-136734762D01*
X80590476Y-136696667D01*
X80552381Y-136620476D01*
X80552381Y-136544286D01*
X80590476Y-136468095D01*
X80628571Y-136430000D01*
X80704762Y-136391905D01*
X80895238Y-136391905D01*
X81009524Y-136430000D01*
X81276191Y-136391905D02*
X81466667Y-137191905D01*
X81619048Y-136620476D01*
X81771429Y-137191905D01*
X81961905Y-136391905D01*
X82685715Y-137191905D02*
X82228572Y-137191905D01*
X82457143Y-137191905D02*
X82457143Y-136391905D01*
X82380953Y-136506190D01*
X82304762Y-136582381D01*
X82228572Y-136620476D01*
X82952382Y-136391905D02*
X83447620Y-136391905D01*
X83180953Y-136696667D01*
X83295239Y-136696667D01*
X83371429Y-136734762D01*
X83409525Y-136772857D01*
X83447620Y-136849048D01*
X83447620Y-137039524D01*
X83409525Y-137115714D01*
X83371429Y-137153810D01*
X83295239Y-137191905D01*
X83066667Y-137191905D01*
X82990477Y-137153810D01*
X82952382Y-137115714D01*
X116552381Y-132153810D02*
X116666667Y-132191905D01*
X116857143Y-132191905D01*
X116933333Y-132153810D01*
X116971429Y-132115714D01*
X117009524Y-132039524D01*
X117009524Y-131963333D01*
X116971429Y-131887143D01*
X116933333Y-131849048D01*
X116857143Y-131810952D01*
X116704762Y-131772857D01*
X116628571Y-131734762D01*
X116590476Y-131696667D01*
X116552381Y-131620476D01*
X116552381Y-131544286D01*
X116590476Y-131468095D01*
X116628571Y-131430000D01*
X116704762Y-131391905D01*
X116895238Y-131391905D01*
X117009524Y-131430000D01*
X117276191Y-131391905D02*
X117466667Y-132191905D01*
X117619048Y-131620476D01*
X117771429Y-132191905D01*
X117961905Y-131391905D01*
X118685715Y-132191905D02*
X118228572Y-132191905D01*
X118457143Y-132191905D02*
X118457143Y-131391905D01*
X118380953Y-131506190D01*
X118304762Y-131582381D01*
X118228572Y-131620476D01*
X119371429Y-131658571D02*
X119371429Y-132191905D01*
X119180953Y-131353810D02*
X118990477Y-131925238D01*
X119485715Y-131925238D01*
X80552381Y-127153810D02*
X80666667Y-127191905D01*
X80857143Y-127191905D01*
X80933333Y-127153810D01*
X80971429Y-127115714D01*
X81009524Y-127039524D01*
X81009524Y-126963333D01*
X80971429Y-126887143D01*
X80933333Y-126849048D01*
X80857143Y-126810952D01*
X80704762Y-126772857D01*
X80628571Y-126734762D01*
X80590476Y-126696667D01*
X80552381Y-126620476D01*
X80552381Y-126544286D01*
X80590476Y-126468095D01*
X80628571Y-126430000D01*
X80704762Y-126391905D01*
X80895238Y-126391905D01*
X81009524Y-126430000D01*
X81276191Y-126391905D02*
X81466667Y-127191905D01*
X81619048Y-126620476D01*
X81771429Y-127191905D01*
X81961905Y-126391905D01*
X82685715Y-127191905D02*
X82228572Y-127191905D01*
X82457143Y-127191905D02*
X82457143Y-126391905D01*
X82380953Y-126506190D01*
X82304762Y-126582381D01*
X82228572Y-126620476D01*
X83409525Y-126391905D02*
X83028572Y-126391905D01*
X82990477Y-126772857D01*
X83028572Y-126734762D01*
X83104763Y-126696667D01*
X83295239Y-126696667D01*
X83371429Y-126734762D01*
X83409525Y-126772857D01*
X83447620Y-126849048D01*
X83447620Y-127039524D01*
X83409525Y-127115714D01*
X83371429Y-127153810D01*
X83295239Y-127191905D01*
X83104763Y-127191905D01*
X83028572Y-127153810D01*
X82990477Y-127115714D01*
X80552381Y-107153810D02*
X80666667Y-107191905D01*
X80857143Y-107191905D01*
X80933333Y-107153810D01*
X80971429Y-107115714D01*
X81009524Y-107039524D01*
X81009524Y-106963333D01*
X80971429Y-106887143D01*
X80933333Y-106849048D01*
X80857143Y-106810952D01*
X80704762Y-106772857D01*
X80628571Y-106734762D01*
X80590476Y-106696667D01*
X80552381Y-106620476D01*
X80552381Y-106544286D01*
X80590476Y-106468095D01*
X80628571Y-106430000D01*
X80704762Y-106391905D01*
X80895238Y-106391905D01*
X81009524Y-106430000D01*
X81276191Y-106391905D02*
X81466667Y-107191905D01*
X81619048Y-106620476D01*
X81771429Y-107191905D01*
X81961905Y-106391905D01*
X82685715Y-107191905D02*
X82228572Y-107191905D01*
X82457143Y-107191905D02*
X82457143Y-106391905D01*
X82380953Y-106506190D01*
X82304762Y-106582381D01*
X82228572Y-106620476D01*
X82952382Y-106391905D02*
X83485715Y-106391905D01*
X83142858Y-107191905D01*
X80552381Y-97153810D02*
X80666667Y-97191905D01*
X80857143Y-97191905D01*
X80933333Y-97153810D01*
X80971429Y-97115714D01*
X81009524Y-97039524D01*
X81009524Y-96963333D01*
X80971429Y-96887143D01*
X80933333Y-96849048D01*
X80857143Y-96810952D01*
X80704762Y-96772857D01*
X80628571Y-96734762D01*
X80590476Y-96696667D01*
X80552381Y-96620476D01*
X80552381Y-96544286D01*
X80590476Y-96468095D01*
X80628571Y-96430000D01*
X80704762Y-96391905D01*
X80895238Y-96391905D01*
X81009524Y-96430000D01*
X81276191Y-96391905D02*
X81466667Y-97191905D01*
X81619048Y-96620476D01*
X81771429Y-97191905D01*
X81961905Y-96391905D01*
X82685715Y-97191905D02*
X82228572Y-97191905D01*
X82457143Y-97191905D02*
X82457143Y-96391905D01*
X82380953Y-96506190D01*
X82304762Y-96582381D01*
X82228572Y-96620476D01*
X83142858Y-96734762D02*
X83066667Y-96696667D01*
X83028572Y-96658571D01*
X82990477Y-96582381D01*
X82990477Y-96544286D01*
X83028572Y-96468095D01*
X83066667Y-96430000D01*
X83142858Y-96391905D01*
X83295239Y-96391905D01*
X83371429Y-96430000D01*
X83409525Y-96468095D01*
X83447620Y-96544286D01*
X83447620Y-96582381D01*
X83409525Y-96658571D01*
X83371429Y-96696667D01*
X83295239Y-96734762D01*
X83142858Y-96734762D01*
X83066667Y-96772857D01*
X83028572Y-96810952D01*
X82990477Y-96887143D01*
X82990477Y-97039524D01*
X83028572Y-97115714D01*
X83066667Y-97153810D01*
X83142858Y-97191905D01*
X83295239Y-97191905D01*
X83371429Y-97153810D01*
X83409525Y-97115714D01*
X83447620Y-97039524D01*
X83447620Y-96887143D01*
X83409525Y-96810952D01*
X83371429Y-96772857D01*
X83295239Y-96734762D01*
X73338095Y-143572381D02*
X73338095Y-144381905D01*
X73385714Y-144477143D01*
X73433333Y-144524762D01*
X73528571Y-144572381D01*
X73719048Y-144572381D01*
X73814286Y-144524762D01*
X73861905Y-144477143D01*
X73909524Y-144381905D01*
X73909524Y-143572381D01*
X74909524Y-144572381D02*
X74338095Y-144572381D01*
X74623809Y-144572381D02*
X74623809Y-143572381D01*
X74528571Y-143715238D01*
X74433333Y-143810476D01*
X74338095Y-143858095D01*
X69808095Y-130842381D02*
X69808095Y-131651905D01*
X69855714Y-131747143D01*
X69903333Y-131794762D01*
X69998571Y-131842381D01*
X70189048Y-131842381D01*
X70284286Y-131794762D01*
X70331905Y-131747143D01*
X70379524Y-131651905D01*
X70379524Y-130842381D01*
X70808095Y-130937619D02*
X70855714Y-130890000D01*
X70950952Y-130842381D01*
X71189048Y-130842381D01*
X71284286Y-130890000D01*
X71331905Y-130937619D01*
X71379524Y-131032857D01*
X71379524Y-131128095D01*
X71331905Y-131270952D01*
X70760476Y-131842381D01*
X71379524Y-131842381D01*
X72319524Y-77132381D02*
X71986190Y-76656190D01*
X71748095Y-77132381D02*
X71748095Y-76132381D01*
X72129048Y-76132381D01*
X72224286Y-76180000D01*
X72271905Y-76227619D01*
X72319524Y-76322857D01*
X72319524Y-76465714D01*
X72271905Y-76560952D01*
X72224286Y-76608571D01*
X72129048Y-76656190D01*
X71748095Y-76656190D01*
X72748095Y-77132381D02*
X72748095Y-76132381D01*
X73319524Y-77132381D01*
X73319524Y-76132381D01*
X73748095Y-76227619D02*
X73795714Y-76180000D01*
X73890952Y-76132381D01*
X74129048Y-76132381D01*
X74224286Y-76180000D01*
X74271905Y-76227619D01*
X74319524Y-76322857D01*
X74319524Y-76418095D01*
X74271905Y-76560952D01*
X73700476Y-77132381D01*
X74319524Y-77132381D01*
X79402381Y-86890476D02*
X78926190Y-87223810D01*
X79402381Y-87461905D02*
X78402381Y-87461905D01*
X78402381Y-87080952D01*
X78450000Y-86985714D01*
X78497619Y-86938095D01*
X78592857Y-86890476D01*
X78735714Y-86890476D01*
X78830952Y-86938095D01*
X78878571Y-86985714D01*
X78926190Y-87080952D01*
X78926190Y-87461905D01*
X79402381Y-86461905D02*
X78402381Y-86461905D01*
X79402381Y-85890476D01*
X78402381Y-85890476D01*
X78402381Y-85509524D02*
X78402381Y-84890476D01*
X78783333Y-85223810D01*
X78783333Y-85080952D01*
X78830952Y-84985714D01*
X78878571Y-84938095D01*
X78973810Y-84890476D01*
X79211905Y-84890476D01*
X79307143Y-84938095D01*
X79354762Y-84985714D01*
X79402381Y-85080952D01*
X79402381Y-85366667D01*
X79354762Y-85461905D01*
X79307143Y-85509524D01*
X100122381Y-94530476D02*
X99646190Y-94863810D01*
X100122381Y-95101905D02*
X99122381Y-95101905D01*
X99122381Y-94720952D01*
X99170000Y-94625714D01*
X99217619Y-94578095D01*
X99312857Y-94530476D01*
X99455714Y-94530476D01*
X99550952Y-94578095D01*
X99598571Y-94625714D01*
X99646190Y-94720952D01*
X99646190Y-95101905D01*
X100122381Y-94101905D02*
X99122381Y-94101905D01*
X100122381Y-93530476D01*
X99122381Y-93530476D01*
X99455714Y-92625714D02*
X100122381Y-92625714D01*
X99074762Y-92863810D02*
X99789048Y-93101905D01*
X99789048Y-92482857D01*
X113932381Y-94530476D02*
X113456190Y-94863810D01*
X113932381Y-95101905D02*
X112932381Y-95101905D01*
X112932381Y-94720952D01*
X112980000Y-94625714D01*
X113027619Y-94578095D01*
X113122857Y-94530476D01*
X113265714Y-94530476D01*
X113360952Y-94578095D01*
X113408571Y-94625714D01*
X113456190Y-94720952D01*
X113456190Y-95101905D01*
X113932381Y-94101905D02*
X112932381Y-94101905D01*
X113932381Y-93530476D01*
X112932381Y-93530476D01*
X112932381Y-92578095D02*
X112932381Y-93054286D01*
X113408571Y-93101905D01*
X113360952Y-93054286D01*
X113313333Y-92959048D01*
X113313333Y-92720952D01*
X113360952Y-92625714D01*
X113408571Y-92578095D01*
X113503810Y-92530476D01*
X113741905Y-92530476D01*
X113837143Y-92578095D01*
X113884762Y-92625714D01*
X113932381Y-92720952D01*
X113932381Y-92959048D01*
X113884762Y-93054286D01*
X113837143Y-93101905D01*
X124852381Y-94530476D02*
X124376190Y-94863810D01*
X124852381Y-95101905D02*
X123852381Y-95101905D01*
X123852381Y-94720952D01*
X123900000Y-94625714D01*
X123947619Y-94578095D01*
X124042857Y-94530476D01*
X124185714Y-94530476D01*
X124280952Y-94578095D01*
X124328571Y-94625714D01*
X124376190Y-94720952D01*
X124376190Y-95101905D01*
X124852381Y-94101905D02*
X123852381Y-94101905D01*
X124852381Y-93530476D01*
X123852381Y-93530476D01*
X123852381Y-92625714D02*
X123852381Y-92816191D01*
X123900000Y-92911429D01*
X123947619Y-92959048D01*
X124090476Y-93054286D01*
X124280952Y-93101905D01*
X124661905Y-93101905D01*
X124757143Y-93054286D01*
X124804762Y-93006667D01*
X124852381Y-92911429D01*
X124852381Y-92720952D01*
X124804762Y-92625714D01*
X124757143Y-92578095D01*
X124661905Y-92530476D01*
X124423810Y-92530476D01*
X124328571Y-92578095D01*
X124280952Y-92625714D01*
X124233333Y-92720952D01*
X124233333Y-92911429D01*
X124280952Y-93006667D01*
X124328571Y-93054286D01*
X124423810Y-93101905D01*
X60722381Y-94350476D02*
X60246190Y-94683810D01*
X60722381Y-94921905D02*
X59722381Y-94921905D01*
X59722381Y-94540952D01*
X59770000Y-94445714D01*
X59817619Y-94398095D01*
X59912857Y-94350476D01*
X60055714Y-94350476D01*
X60150952Y-94398095D01*
X60198571Y-94445714D01*
X60246190Y-94540952D01*
X60246190Y-94921905D01*
X60722381Y-93921905D02*
X59722381Y-93921905D01*
X60722381Y-93350476D01*
X59722381Y-93350476D01*
X59722381Y-92969524D02*
X59722381Y-92302857D01*
X60722381Y-92731429D01*
X60709524Y-79832381D02*
X60376190Y-79356190D01*
X60138095Y-79832381D02*
X60138095Y-78832381D01*
X60519048Y-78832381D01*
X60614286Y-78880000D01*
X60661905Y-78927619D01*
X60709524Y-79022857D01*
X60709524Y-79165714D01*
X60661905Y-79260952D01*
X60614286Y-79308571D01*
X60519048Y-79356190D01*
X60138095Y-79356190D01*
X61138095Y-79832381D02*
X61138095Y-78832381D01*
X61709524Y-79832381D01*
X61709524Y-78832381D01*
X62328571Y-79260952D02*
X62233333Y-79213333D01*
X62185714Y-79165714D01*
X62138095Y-79070476D01*
X62138095Y-79022857D01*
X62185714Y-78927619D01*
X62233333Y-78880000D01*
X62328571Y-78832381D01*
X62519048Y-78832381D01*
X62614286Y-78880000D01*
X62661905Y-78927619D01*
X62709524Y-79022857D01*
X62709524Y-79070476D01*
X62661905Y-79165714D01*
X62614286Y-79213333D01*
X62519048Y-79260952D01*
X62328571Y-79260952D01*
X62233333Y-79308571D01*
X62185714Y-79356190D01*
X62138095Y-79451429D01*
X62138095Y-79641905D01*
X62185714Y-79737143D01*
X62233333Y-79784762D01*
X62328571Y-79832381D01*
X62519048Y-79832381D01*
X62614286Y-79784762D01*
X62661905Y-79737143D01*
X62709524Y-79641905D01*
X62709524Y-79451429D01*
X62661905Y-79356190D01*
X62614286Y-79308571D01*
X62519048Y-79260952D01*
X71682381Y-102360476D02*
X71206190Y-102693810D01*
X71682381Y-102931905D02*
X70682381Y-102931905D01*
X70682381Y-102550952D01*
X70730000Y-102455714D01*
X70777619Y-102408095D01*
X70872857Y-102360476D01*
X71015714Y-102360476D01*
X71110952Y-102408095D01*
X71158571Y-102455714D01*
X71206190Y-102550952D01*
X71206190Y-102931905D01*
X71682381Y-101931905D02*
X70682381Y-101931905D01*
X71682381Y-101360476D01*
X70682381Y-101360476D01*
X71682381Y-100836667D02*
X71682381Y-100646191D01*
X71634762Y-100550952D01*
X71587143Y-100503333D01*
X71444286Y-100408095D01*
X71253810Y-100360476D01*
X70872857Y-100360476D01*
X70777619Y-100408095D01*
X70730000Y-100455714D01*
X70682381Y-100550952D01*
X70682381Y-100741429D01*
X70730000Y-100836667D01*
X70777619Y-100884286D01*
X70872857Y-100931905D01*
X71110952Y-100931905D01*
X71206190Y-100884286D01*
X71253810Y-100836667D01*
X71301429Y-100741429D01*
X71301429Y-100550952D01*
X71253810Y-100455714D01*
X71206190Y-100408095D01*
X71110952Y-100360476D01*
X73402381Y-91826666D02*
X72926190Y-92160000D01*
X73402381Y-92398095D02*
X72402381Y-92398095D01*
X72402381Y-92017142D01*
X72450000Y-91921904D01*
X72497619Y-91874285D01*
X72592857Y-91826666D01*
X72735714Y-91826666D01*
X72830952Y-91874285D01*
X72878571Y-91921904D01*
X72926190Y-92017142D01*
X72926190Y-92398095D01*
X73402381Y-91398095D02*
X72402381Y-91398095D01*
X73402381Y-90826666D01*
X72402381Y-90826666D01*
X73402381Y-89826666D02*
X73402381Y-90398095D01*
X73402381Y-90112381D02*
X72402381Y-90112381D01*
X72545238Y-90207619D01*
X72640476Y-90302857D01*
X72688095Y-90398095D01*
X72402381Y-89207619D02*
X72402381Y-89112380D01*
X72450000Y-89017142D01*
X72497619Y-88969523D01*
X72592857Y-88921904D01*
X72783333Y-88874285D01*
X73021429Y-88874285D01*
X73211905Y-88921904D01*
X73307143Y-88969523D01*
X73354762Y-89017142D01*
X73402381Y-89112380D01*
X73402381Y-89207619D01*
X73354762Y-89302857D01*
X73307143Y-89350476D01*
X73211905Y-89398095D01*
X73021429Y-89445714D01*
X72783333Y-89445714D01*
X72592857Y-89398095D01*
X72497619Y-89350476D01*
X72450000Y-89302857D01*
X72402381Y-89207619D01*
M02*
