G04 #@! TF.FileFunction,Soldermask,Bot*
%FSLAX46Y46*%
G04 Gerber Fmt 4.6, Leading zero omitted, Abs format (unit mm)*
G04 Created by KiCad (PCBNEW 4.0.7) date 05/15/18 18:49:16*
%MOMM*%
%LPD*%
G01*
G04 APERTURE LIST*
%ADD10C,0.100000*%
%ADD11R,2.200000X2.200000*%
%ADD12C,2.200000*%
%ADD13R,2.100000X2.100000*%
%ADD14O,2.100000X2.100000*%
%ADD15C,2.000000*%
%ADD16C,1.924000*%
%ADD17C,2.100000*%
G04 APERTURE END LIST*
D10*
D11*
X109170000Y-77620000D03*
D12*
X109170000Y-80160000D03*
X201995000Y-98340000D03*
X188405000Y-98340000D03*
D11*
X199170000Y-80170000D03*
D12*
X199170000Y-77630000D03*
D11*
X184170000Y-80170000D03*
D12*
X184170000Y-77630000D03*
D11*
X154170000Y-80170000D03*
D12*
X154170000Y-77630000D03*
D11*
X124170000Y-80170000D03*
D12*
X124170000Y-77630000D03*
D11*
X94170000Y-77620000D03*
D12*
X94170000Y-80160000D03*
D11*
X191670000Y-80170000D03*
D12*
X191670000Y-77630000D03*
D11*
X161670000Y-80170000D03*
D12*
X161670000Y-77630000D03*
D11*
X131670000Y-80170000D03*
D12*
X131670000Y-77630000D03*
D11*
X101670000Y-77620000D03*
D12*
X101670000Y-80160000D03*
D11*
X169170000Y-80170000D03*
D12*
X169170000Y-77630000D03*
D11*
X139170000Y-80170000D03*
D12*
X139170000Y-77630000D03*
D11*
X206670000Y-80170000D03*
D12*
X206670000Y-77630000D03*
D11*
X176670000Y-80170000D03*
D12*
X176670000Y-77630000D03*
D11*
X146670000Y-80170000D03*
D12*
X146670000Y-77630000D03*
D11*
X116670000Y-80170000D03*
D12*
X116670000Y-77630000D03*
D13*
X109550000Y-145500000D03*
D14*
X109550000Y-148040000D03*
X109550000Y-150580000D03*
X109550000Y-153120000D03*
D15*
X148900000Y-104150000D03*
X151400000Y-104150000D03*
X153900000Y-104150000D03*
X158900000Y-104150000D03*
X161400000Y-104150000D03*
X161400000Y-101650000D03*
X158900000Y-101650000D03*
X153900000Y-101650000D03*
X151400000Y-101650000D03*
X148900000Y-101650000D03*
D16*
X95920000Y-71600000D03*
X98460000Y-71600000D03*
X101000000Y-71600000D03*
X103540000Y-71600000D03*
X106080000Y-71600000D03*
X106080000Y-61600000D03*
X103540000Y-61600000D03*
X101000000Y-61600000D03*
X98460000Y-61600000D03*
X95920000Y-61600000D03*
X116420000Y-71600000D03*
X118960000Y-71600000D03*
X121500000Y-71600000D03*
X124040000Y-71600000D03*
X126580000Y-71600000D03*
X126580000Y-61600000D03*
X124040000Y-61600000D03*
X121500000Y-61600000D03*
X118960000Y-61600000D03*
X116420000Y-61600000D03*
X153970000Y-71600000D03*
X156510000Y-71600000D03*
X159050000Y-71600000D03*
X161590000Y-71600000D03*
X164130000Y-71600000D03*
X164130000Y-61600000D03*
X161590000Y-61600000D03*
X159050000Y-61600000D03*
X156510000Y-61600000D03*
X153970000Y-61600000D03*
X174470000Y-71600000D03*
X177010000Y-71600000D03*
X179550000Y-71600000D03*
X182090000Y-71600000D03*
X184630000Y-71600000D03*
X184630000Y-61600000D03*
X182090000Y-61600000D03*
X179550000Y-61600000D03*
X177010000Y-61600000D03*
X174470000Y-61600000D03*
X194970000Y-71600000D03*
X197510000Y-71600000D03*
X200050000Y-71600000D03*
X202590000Y-71600000D03*
X205130000Y-71600000D03*
X205130000Y-61600000D03*
X202590000Y-61600000D03*
X200050000Y-61600000D03*
X197510000Y-61600000D03*
X194970000Y-61600000D03*
D17*
X131500000Y-152000000D03*
X125000000Y-152000000D03*
X131500000Y-147500000D03*
X125000000Y-147500000D03*
X131500000Y-102000000D03*
X125000000Y-102000000D03*
X131500000Y-97500000D03*
X125000000Y-97500000D03*
X131500000Y-142000000D03*
X125000000Y-142000000D03*
X131500000Y-137500000D03*
X125000000Y-137500000D03*
X145500000Y-122000000D03*
X139000000Y-122000000D03*
X145500000Y-117500000D03*
X139000000Y-117500000D03*
X173500000Y-142000000D03*
X167000000Y-142000000D03*
X173500000Y-137500000D03*
X167000000Y-137500000D03*
X131500000Y-112000000D03*
X125000000Y-112000000D03*
X131500000Y-107500000D03*
X125000000Y-107500000D03*
X173500000Y-132000000D03*
X167000000Y-132000000D03*
X173500000Y-127500000D03*
X167000000Y-127500000D03*
X159500000Y-142000000D03*
X153000000Y-142000000D03*
X159500000Y-137500000D03*
X153000000Y-137500000D03*
X131500000Y-122000000D03*
X125000000Y-122000000D03*
X131500000Y-117500000D03*
X125000000Y-117500000D03*
X173500000Y-122000000D03*
X167000000Y-122000000D03*
X173500000Y-117500000D03*
X167000000Y-117500000D03*
X159500000Y-132000000D03*
X153000000Y-132000000D03*
X159500000Y-127500000D03*
X153000000Y-127500000D03*
X145500000Y-142000000D03*
X139000000Y-142000000D03*
X145500000Y-137500000D03*
X139000000Y-137500000D03*
X131500000Y-132000000D03*
X125000000Y-132000000D03*
X131500000Y-127500000D03*
X125000000Y-127500000D03*
X159500000Y-122000000D03*
X153000000Y-122000000D03*
X159500000Y-117500000D03*
X153000000Y-117500000D03*
X145500000Y-132000000D03*
X139000000Y-132000000D03*
X145500000Y-127500000D03*
X139000000Y-127500000D03*
X159500000Y-152000000D03*
X153000000Y-152000000D03*
X159500000Y-147500000D03*
X153000000Y-147500000D03*
X96400000Y-85200000D03*
X96400000Y-91700000D03*
X91900000Y-85200000D03*
X91900000Y-91700000D03*
X126400000Y-85200000D03*
X126400000Y-91700000D03*
X121900000Y-85200000D03*
X121900000Y-91700000D03*
X156400000Y-85200000D03*
X156400000Y-91700000D03*
X151900000Y-85200000D03*
X151900000Y-91700000D03*
X186400000Y-85200000D03*
X186400000Y-91700000D03*
X181900000Y-85200000D03*
X181900000Y-91700000D03*
X103900000Y-85200000D03*
X103900000Y-91700000D03*
X99400000Y-85200000D03*
X99400000Y-91700000D03*
X133900000Y-85200000D03*
X133900000Y-91700000D03*
X129400000Y-85200000D03*
X129400000Y-91700000D03*
X163900000Y-85200000D03*
X163900000Y-91700000D03*
X159400000Y-85200000D03*
X159400000Y-91700000D03*
X193900000Y-85200000D03*
X193900000Y-91700000D03*
X189400000Y-85200000D03*
X189400000Y-91700000D03*
X111400000Y-85200000D03*
X111400000Y-91700000D03*
X106900000Y-85200000D03*
X106900000Y-91700000D03*
X141400000Y-85200000D03*
X141400000Y-91700000D03*
X136900000Y-85200000D03*
X136900000Y-91700000D03*
X171400000Y-85200000D03*
X171400000Y-91700000D03*
X166900000Y-85200000D03*
X166900000Y-91700000D03*
X201400000Y-85200000D03*
X201400000Y-91700000D03*
X196900000Y-85200000D03*
X196900000Y-91700000D03*
X118900000Y-85200000D03*
X118900000Y-91700000D03*
X114400000Y-85200000D03*
X114400000Y-91700000D03*
X148900000Y-85200000D03*
X148900000Y-91700000D03*
X144400000Y-85200000D03*
X144400000Y-91700000D03*
X178900000Y-85200000D03*
X178900000Y-91700000D03*
X174400000Y-85200000D03*
X174400000Y-91700000D03*
X208900000Y-85200000D03*
X208900000Y-91700000D03*
X204400000Y-85200000D03*
X204400000Y-91700000D03*
X173500000Y-152000000D03*
X167000000Y-152000000D03*
X173500000Y-147500000D03*
X167000000Y-147500000D03*
D13*
X119410000Y-147800000D03*
D14*
X119410000Y-145260000D03*
X119410000Y-142720000D03*
X119410000Y-140180000D03*
M02*
