M48
;DRILL file {KiCad 4.0.7} date 05/15/18 18:49:25
;FORMAT={-:-/ absolute / inch / decimal}
FMAT,2
INCH,TZ
T1C0.016
T2C0.030
T3C0.035
T4C0.037
T5C0.039
T6C0.046
T7C0.140
%
G90
G05
M72
T1
X3.5984Y-4.7854
X3.6252Y-4.6437
X3.6358Y-4.9276
X3.6618Y-4.4705
X3.6736Y-4.328
X3.685Y-5.211
X3.685Y-5.3524
X3.685Y-5.4937
X3.685Y-5.6358
X3.6988Y-4.1791
X3.6993Y-3.2813
X3.7252Y-3.2508
X3.7295Y-4.0161
X3.8508Y-2.9366
X3.8937Y-4.1811
X3.8937Y-4.3228
X3.8937Y-4.465
X3.8937Y-4.6063
X3.8937Y-4.748
X3.8937Y-4.8898
X3.8937Y-5.0315
X3.8937Y-5.1732
X3.8937Y-5.315
X3.8937Y-5.4567
X3.8937Y-5.5984
X3.9071Y-3.1165
X3.9118Y-3.2106
X3.9339Y-2.9083
X3.9902Y-4.0583
X4.0126Y-2.8791
X4.0425Y-2.5228
X4.2067Y-5.502
X4.2854Y-5.4665
X4.439Y-5.8287
X4.4803Y-5.8287
X4.498Y-4.813
X4.524Y-5.5091
X4.5247Y-5.4661
X4.5272Y-5.4295
X4.5374Y-4.813
X4.572Y-5.2248
X4.5768Y-4.813
X4.6909Y-4.4311
X4.6909Y-4.4705
X4.6909Y-4.5098
X4.6909Y-4.5492
X4.6909Y-4.5886
X4.6909Y-4.628
X4.6909Y-4.6673
X4.6909Y-4.7067
X4.6909Y-4.7461
X4.6909Y-4.7854
X4.7193Y-5.3051
X4.8661Y-5.1358
X4.9409Y-4.4862
X4.9409Y-4.5256
X4.9409Y-4.565
X4.9457Y-4.1071
X4.9708Y-4.0744
X4.9708Y-4.1485
X4.9803Y-4.689
X4.9803Y-4.7283
X4.9803Y-4.8465
X4.9803Y-4.8819
X4.9803Y-4.9173
X4.9803Y-4.9528
X4.9803Y-4.9921
X4.9961Y-5.2549
X4.998Y-4.5787
X5.0276Y-4.0157
X5.0276Y-4.4094
X5.3295Y-3.7201
X5.3441Y-3.2673
X5.3449Y-5.2752
X5.3764Y-5.3224
X5.4252Y-5.7598
X5.4508Y-5.1358
X5.4681Y-4.0697
X5.4941Y-4.2283
X5.5209Y-4.0685
X5.6437Y-4.263
X5.7378Y-3.9319
X5.7933Y-4.263
X5.8189Y-4.5315
X5.8189Y-4.6673
X5.9173Y-4.5315
X5.9173Y-4.689
X5.9429Y-4.263
X6.098Y-3.7898
X6.1181Y-4.5315
X6.1181Y-4.6988
X6.2087Y-4.8681
X6.2165Y-4.5315
X6.4173Y-4.5039
X6.4173Y-4.8701
X6.6524Y-3.9618
X6.772Y-3.9098
X6.8843Y-3.963
X6.8957Y-4.3791
X6.9283Y-4.226
X6.9291Y-4.1177
X6.9291Y-4.1539
X6.9291Y-4.1898
X6.9291Y-4.2638
X6.9291Y-4.3031
X6.9309Y-4.375
X7.0079Y-4.226
X7.0079Y-4.2638
X7.0079Y-4.3031
X7.3083Y-3.9386
X8.2638Y-2.7303
X8.2638Y-2.9016
T2
X3.7764Y-2.4252
X3.7764Y-2.8189
X3.8764Y-2.4252
X3.8764Y-2.8189
X3.9764Y-2.4252
X3.9764Y-2.8189
X4.0764Y-2.4252
X4.0764Y-2.8189
X4.1764Y-2.4252
X4.1764Y-2.8189
X4.5835Y-2.4252
X4.5835Y-2.8189
X4.6835Y-2.4252
X4.6835Y-2.8189
X4.7835Y-2.4252
X4.7835Y-2.8189
X4.8835Y-2.4252
X4.8835Y-2.8189
X4.9835Y-2.4252
X4.9835Y-2.8189
X6.0618Y-2.4252
X6.0618Y-2.8189
X6.1618Y-2.4252
X6.1618Y-2.8189
X6.2618Y-2.4252
X6.2618Y-2.8189
X6.3618Y-2.4252
X6.3618Y-2.8189
X6.4618Y-2.4252
X6.4618Y-2.8189
X6.8689Y-2.4252
X6.8689Y-2.8189
X6.9689Y-2.4252
X6.9689Y-2.8189
X7.0689Y-2.4252
X7.0689Y-2.8189
X7.1689Y-2.4252
X7.1689Y-2.8189
X7.2689Y-2.4252
X7.2689Y-2.8189
X7.676Y-2.4252
X7.676Y-2.8189
X7.776Y-2.4252
X7.776Y-2.8189
X7.876Y-2.4252
X7.876Y-2.8189
X7.976Y-2.4252
X7.976Y-2.8189
X8.076Y-2.4252
X8.076Y-2.8189
T3
X3.7075Y-3.0559
X3.7075Y-3.1559
X4.0028Y-3.0559
X4.0028Y-3.1559
X4.298Y-3.0559
X4.298Y-3.1559
X4.5933Y-3.0563
X4.5933Y-3.1563
X4.8886Y-3.0563
X4.8886Y-3.1563
X5.1839Y-3.0563
X5.1839Y-3.1563
X5.4791Y-3.0563
X5.4791Y-3.1563
X5.7744Y-3.0563
X5.7744Y-3.1563
X6.0697Y-3.0563
X6.0697Y-3.1563
X6.365Y-3.0563
X6.365Y-3.1563
X6.6602Y-3.0563
X6.6602Y-3.1563
X6.9555Y-3.0563
X6.9555Y-3.1563
X7.2508Y-3.0563
X7.2508Y-3.1563
X7.5461Y-3.0563
X7.5461Y-3.1563
X7.8413Y-3.0563
X7.8413Y-3.1563
X8.1366Y-3.0563
X8.1366Y-3.1563
T4
X5.8622Y-4.002
X5.8622Y-4.1004
X5.9606Y-4.002
X5.9606Y-4.1004
X6.0591Y-4.002
X6.0591Y-4.1004
X6.2559Y-4.002
X6.2559Y-4.1004
X6.3543Y-4.002
X6.3543Y-4.1004
T5
X3.6181Y-3.3543
X3.6181Y-3.6102
X3.7953Y-3.3543
X3.7953Y-3.6102
X3.9134Y-3.3543
X3.9134Y-3.6102
X4.0906Y-3.3543
X4.0906Y-3.6102
X4.2087Y-3.3543
X4.2087Y-3.6102
X4.313Y-5.7283
X4.313Y-5.8283
X4.313Y-5.9283
X4.313Y-6.0283
X4.3858Y-3.3543
X4.3858Y-3.6102
X4.5039Y-3.3543
X4.5039Y-3.6102
X4.6811Y-3.3543
X4.6811Y-3.6102
X4.7012Y-5.5189
X4.7012Y-5.6189
X4.7012Y-5.7189
X4.7012Y-5.8189
X4.7992Y-3.3543
X4.7992Y-3.6102
X4.9213Y-3.8386
X4.9213Y-4.0157
X4.9213Y-4.2323
X4.9213Y-4.4094
X4.9213Y-4.626
X4.9213Y-4.8031
X4.9213Y-5.0197
X4.9213Y-5.1969
X4.9213Y-5.4134
X4.9213Y-5.5906
X4.9213Y-5.8071
X4.9213Y-5.9843
X4.9764Y-3.3543
X4.9764Y-3.6102
X5.0945Y-3.3543
X5.0945Y-3.6102
X5.1772Y-3.8386
X5.1772Y-4.0157
X5.1772Y-4.2323
X5.1772Y-4.4094
X5.1772Y-4.626
X5.1772Y-4.8031
X5.1772Y-5.0197
X5.1772Y-5.1969
X5.1772Y-5.4134
X5.1772Y-5.5906
X5.1772Y-5.8071
X5.1772Y-5.9843
X5.2717Y-3.3543
X5.2717Y-3.6102
X5.3898Y-3.3543
X5.3898Y-3.6102
X5.4724Y-4.626
X5.4724Y-4.8031
X5.4724Y-5.0197
X5.4724Y-5.1969
X5.4724Y-5.4134
X5.4724Y-5.5906
X5.5669Y-3.3543
X5.5669Y-3.6102
X5.685Y-3.3543
X5.685Y-3.6102
X5.7283Y-4.626
X5.7283Y-4.8031
X5.7283Y-5.0197
X5.7283Y-5.1969
X5.7283Y-5.4134
X5.7283Y-5.5906
X5.8622Y-3.3543
X5.8622Y-3.6102
X5.9803Y-3.3543
X5.9803Y-3.6102
X6.0236Y-4.626
X6.0236Y-4.8031
X6.0236Y-5.0197
X6.0236Y-5.1969
X6.0236Y-5.4134
X6.0236Y-5.5906
X6.0236Y-5.8071
X6.0236Y-5.9843
X6.1575Y-3.3543
X6.1575Y-3.6102
X6.2756Y-3.3543
X6.2756Y-3.6102
X6.2795Y-4.626
X6.2795Y-4.8031
X6.2795Y-5.0197
X6.2795Y-5.1969
X6.2795Y-5.4134
X6.2795Y-5.5906
X6.2795Y-5.8071
X6.2795Y-5.9843
X6.4528Y-3.3543
X6.4528Y-3.6102
X6.5709Y-3.3543
X6.5709Y-3.6102
X6.5748Y-4.626
X6.5748Y-4.8031
X6.5748Y-5.0197
X6.5748Y-5.1969
X6.5748Y-5.4134
X6.5748Y-5.5906
X6.5748Y-5.8071
X6.5748Y-5.9843
X6.748Y-3.3543
X6.748Y-3.6102
X6.8307Y-4.626
X6.8307Y-4.8031
X6.8307Y-5.0197
X6.8307Y-5.1969
X6.8307Y-5.4134
X6.8307Y-5.5906
X6.8307Y-5.8071
X6.8307Y-5.9843
X6.8661Y-3.3543
X6.8661Y-3.6102
X7.0433Y-3.3543
X7.0433Y-3.6102
X7.1614Y-3.3543
X7.1614Y-3.6102
X7.3386Y-3.3543
X7.3386Y-3.6102
X7.4567Y-3.3543
X7.4567Y-3.6102
X7.6339Y-3.3543
X7.6339Y-3.6102
X7.752Y-3.3543
X7.752Y-3.6102
X7.9291Y-3.3543
X7.9291Y-3.6102
X8.0472Y-3.3543
X8.0472Y-3.6102
X8.2244Y-3.3543
X8.2244Y-3.6102
T6
X7.4175Y-3.8717
X7.9526Y-3.8717
T7
X7.685Y-4.9016
T0
M30
