G04 #@! TF.FileFunction,Legend,Bot*
%FSLAX46Y46*%
G04 Gerber Fmt 4.6, Leading zero omitted, Abs format (unit mm)*
G04 Created by KiCad (PCBNEW 4.0.7) date Friday, July 13, 2018 'AMt' 11:01:13 AM*
%MOMM*%
%LPD*%
G01*
G04 APERTURE LIST*
%ADD10C,0.100000*%
%ADD11C,0.150000*%
%ADD12C,0.120000*%
G04 APERTURE END LIST*
D10*
D11*
X132900000Y-143070000D02*
X132900000Y-86070000D01*
X71800000Y-143070000D02*
X132900000Y-143070000D01*
X71800000Y-86070000D02*
X71800000Y-143070000D01*
X132900000Y-86070000D02*
X71800000Y-86070000D01*
X105500000Y-93570000D02*
X105500000Y-94570000D01*
X112500000Y-93570000D02*
X105500000Y-93570000D01*
X112500000Y-94570000D02*
X112500000Y-93570000D01*
X119500000Y-135570000D02*
X119500000Y-134570000D01*
X125500000Y-135570000D02*
X119500000Y-135570000D01*
X125500000Y-134570000D02*
X125500000Y-135570000D01*
X92500000Y-135570000D02*
X92500000Y-134570000D01*
X98500000Y-135570000D02*
X92500000Y-135570000D01*
X98500000Y-134570000D02*
X98500000Y-135570000D01*
X79500000Y-93570000D02*
X79500000Y-94570000D01*
X85500000Y-93570000D02*
X79500000Y-93570000D01*
X85500000Y-94570000D02*
X85500000Y-93570000D01*
X87500000Y-134570000D02*
X87500000Y-94570000D01*
X77500000Y-94570000D02*
X77500000Y-134570000D01*
X87500000Y-94570000D02*
X77500000Y-94570000D01*
X77500000Y-134570000D02*
X87500000Y-134570000D01*
X90800000Y-134570000D02*
X100800000Y-134570000D01*
X104100000Y-134570000D02*
X114100000Y-134570000D01*
X117400000Y-134570000D02*
X127400000Y-134570000D01*
X100800000Y-134570000D02*
X100800000Y-94570000D01*
X114100000Y-134570000D02*
X114100000Y-94570000D01*
X127400000Y-134570000D02*
X127400000Y-94570000D01*
X90800000Y-94570000D02*
X90800000Y-134570000D01*
X104100000Y-94570000D02*
X104100000Y-134570000D01*
X117400000Y-94570000D02*
X117400000Y-134570000D01*
X100800000Y-94570000D02*
X90800000Y-94570000D01*
X114100000Y-94570000D02*
X104100000Y-94570000D01*
X127400000Y-94570000D02*
X117400000Y-94570000D01*
D12*
X136930000Y-86320000D02*
X136930000Y-90670000D01*
X136930000Y-90670000D02*
X137930000Y-90670000D01*
X137930000Y-90670000D02*
X137930000Y-86320000D01*
X135630000Y-92520000D02*
X135280000Y-92520000D01*
X135280000Y-92520000D02*
X135280000Y-94120000D01*
X135280000Y-94120000D02*
X134380000Y-94120000D01*
X134380000Y-94120000D02*
X134380000Y-86320000D01*
X134380000Y-86320000D02*
X140480000Y-86320000D01*
X140480000Y-86320000D02*
X140480000Y-94120000D01*
X140480000Y-94120000D02*
X139580000Y-94120000D01*
X139580000Y-94120000D02*
X139580000Y-92520000D01*
X139580000Y-92520000D02*
X139230000Y-92520000D01*
X134380000Y-92520000D02*
X135280000Y-92520000D01*
X140480000Y-92520000D02*
X139580000Y-92520000D01*
X135130000Y-90170000D02*
X135130000Y-88570000D01*
X135130000Y-88570000D02*
X136130000Y-88570000D01*
X136130000Y-88570000D02*
X136130000Y-90170000D01*
X136130000Y-90170000D02*
X135130000Y-90170000D01*
X139730000Y-90170000D02*
X139730000Y-88570000D01*
X139730000Y-88570000D02*
X138730000Y-88570000D01*
X138730000Y-88570000D02*
X138730000Y-90170000D01*
X138730000Y-90170000D02*
X139730000Y-90170000D01*
X136130000Y-88570000D02*
X136130000Y-86320000D01*
X135630000Y-88570000D02*
X135630000Y-86320000D01*
X135630000Y-92520000D02*
X135630000Y-93720000D01*
D11*
X103178571Y-113784286D02*
X103226190Y-113927143D01*
X103273810Y-113974762D01*
X103369048Y-114022381D01*
X103511905Y-114022381D01*
X103607143Y-113974762D01*
X103654762Y-113927143D01*
X103702381Y-113831905D01*
X103702381Y-113450952D01*
X102702381Y-113450952D01*
X102702381Y-113784286D01*
X102750000Y-113879524D01*
X102797619Y-113927143D01*
X102892857Y-113974762D01*
X102988095Y-113974762D01*
X103083333Y-113927143D01*
X103130952Y-113879524D01*
X103178571Y-113784286D01*
X103178571Y-113450952D01*
X102702381Y-114308095D02*
X102702381Y-114879524D01*
X103702381Y-114593809D02*
X102702381Y-114593809D01*
X103702381Y-115736667D02*
X103702381Y-115165238D01*
X103702381Y-115450952D02*
X102702381Y-115450952D01*
X102845238Y-115355714D01*
X102940476Y-115260476D01*
X102988095Y-115165238D01*
X101678571Y-103879522D02*
X101726190Y-104022379D01*
X101773810Y-104069998D01*
X101869048Y-104117617D01*
X102011905Y-104117617D01*
X102107143Y-104069998D01*
X102154762Y-104022379D01*
X102202381Y-103927141D01*
X102202381Y-103546188D01*
X101202381Y-103546188D01*
X101202381Y-103879522D01*
X101250000Y-103974760D01*
X101297619Y-104022379D01*
X101392857Y-104069998D01*
X101488095Y-104069998D01*
X101583333Y-104022379D01*
X101630952Y-103974760D01*
X101678571Y-103879522D01*
X101678571Y-103546188D01*
X102107143Y-105117617D02*
X102154762Y-105069998D01*
X102202381Y-104927141D01*
X102202381Y-104831903D01*
X102154762Y-104689045D01*
X102059524Y-104593807D01*
X101964286Y-104546188D01*
X101773810Y-104498569D01*
X101630952Y-104498569D01*
X101440476Y-104546188D01*
X101345238Y-104593807D01*
X101250000Y-104689045D01*
X101202381Y-104831903D01*
X101202381Y-104927141D01*
X101250000Y-105069998D01*
X101297619Y-105117617D01*
X101535714Y-105974760D02*
X102202381Y-105974760D01*
X101154762Y-105736664D02*
X101869048Y-105498569D01*
X101869048Y-106117617D01*
X101916667Y-106450950D02*
X101916667Y-106927141D01*
X102202381Y-106355712D02*
X101202381Y-106689045D01*
X102202381Y-107022379D01*
X101916667Y-107308093D02*
X101916667Y-107784284D01*
X102202381Y-107212855D02*
X101202381Y-107546188D01*
X102202381Y-107879522D01*
X102202381Y-108212855D02*
X101202381Y-108212855D01*
X101202381Y-108593808D01*
X101250000Y-108689046D01*
X101297619Y-108736665D01*
X101392857Y-108784284D01*
X101535714Y-108784284D01*
X101630952Y-108736665D01*
X101678571Y-108689046D01*
X101726190Y-108593808D01*
X101726190Y-108212855D01*
X102107143Y-109784284D02*
X102154762Y-109736665D01*
X102202381Y-109593808D01*
X102202381Y-109498570D01*
X102154762Y-109355712D01*
X102059524Y-109260474D01*
X101964286Y-109212855D01*
X101773810Y-109165236D01*
X101630952Y-109165236D01*
X101440476Y-109212855D01*
X101345238Y-109260474D01*
X101250000Y-109355712D01*
X101202381Y-109498570D01*
X101202381Y-109593808D01*
X101250000Y-109736665D01*
X101297619Y-109784284D01*
X101535714Y-111403332D02*
X102202381Y-111403332D01*
X101154762Y-111165236D02*
X101869048Y-110927141D01*
X101869048Y-111546189D01*
X101916667Y-112641427D02*
X101916667Y-113117618D01*
X102202381Y-112546189D02*
X101202381Y-112879522D01*
X102202381Y-113212856D01*
X101916667Y-113498570D02*
X101916667Y-113974761D01*
X102202381Y-113403332D02*
X101202381Y-113736665D01*
X102202381Y-114069999D01*
X101678571Y-115498571D02*
X101726190Y-115641428D01*
X101773810Y-115689047D01*
X101869048Y-115736666D01*
X102011905Y-115736666D01*
X102107143Y-115689047D01*
X102154762Y-115641428D01*
X102202381Y-115546190D01*
X102202381Y-115165237D01*
X101202381Y-115165237D01*
X101202381Y-115498571D01*
X101250000Y-115593809D01*
X101297619Y-115641428D01*
X101392857Y-115689047D01*
X101488095Y-115689047D01*
X101583333Y-115641428D01*
X101630952Y-115593809D01*
X101678571Y-115498571D01*
X101678571Y-115165237D01*
X102202381Y-116593809D02*
X101678571Y-116593809D01*
X101583333Y-116546190D01*
X101535714Y-116450952D01*
X101535714Y-116260475D01*
X101583333Y-116165237D01*
X102154762Y-116593809D02*
X102202381Y-116498571D01*
X102202381Y-116260475D01*
X102154762Y-116165237D01*
X102059524Y-116117618D01*
X101964286Y-116117618D01*
X101869048Y-116165237D01*
X101821429Y-116260475D01*
X101821429Y-116498571D01*
X101773810Y-116593809D01*
X101535714Y-116927142D02*
X101535714Y-117308094D01*
X101202381Y-117069999D02*
X102059524Y-117069999D01*
X102154762Y-117117618D01*
X102202381Y-117212856D01*
X102202381Y-117308094D01*
X101535714Y-117498571D02*
X101535714Y-117879523D01*
X101202381Y-117641428D02*
X102059524Y-117641428D01*
X102154762Y-117689047D01*
X102202381Y-117784285D01*
X102202381Y-117879523D01*
X102154762Y-118593810D02*
X102202381Y-118498572D01*
X102202381Y-118308095D01*
X102154762Y-118212857D01*
X102059524Y-118165238D01*
X101678571Y-118165238D01*
X101583333Y-118212857D01*
X101535714Y-118308095D01*
X101535714Y-118498572D01*
X101583333Y-118593810D01*
X101678571Y-118641429D01*
X101773810Y-118641429D01*
X101869048Y-118165238D01*
X102202381Y-119070000D02*
X101535714Y-119070000D01*
X101726190Y-119070000D02*
X101630952Y-119117619D01*
X101583333Y-119165238D01*
X101535714Y-119260476D01*
X101535714Y-119355715D01*
X101535714Y-119593810D02*
X102202381Y-119831905D01*
X101535714Y-120070001D02*
X102202381Y-119831905D01*
X102440476Y-119736667D01*
X102488095Y-119689048D01*
X102535714Y-119593810D01*
X102202381Y-121212858D02*
X101202381Y-121212858D01*
X101678571Y-121212858D02*
X101678571Y-121784287D01*
X102202381Y-121784287D02*
X101202381Y-121784287D01*
X102202381Y-122403334D02*
X102154762Y-122308096D01*
X102107143Y-122260477D01*
X102011905Y-122212858D01*
X101726190Y-122212858D01*
X101630952Y-122260477D01*
X101583333Y-122308096D01*
X101535714Y-122403334D01*
X101535714Y-122546192D01*
X101583333Y-122641430D01*
X101630952Y-122689049D01*
X101726190Y-122736668D01*
X102011905Y-122736668D01*
X102107143Y-122689049D01*
X102154762Y-122641430D01*
X102202381Y-122546192D01*
X102202381Y-122403334D01*
X102202381Y-123308096D02*
X102154762Y-123212858D01*
X102059524Y-123165239D01*
X101202381Y-123165239D01*
X102202381Y-124117621D02*
X101202381Y-124117621D01*
X102154762Y-124117621D02*
X102202381Y-124022383D01*
X102202381Y-123831906D01*
X102154762Y-123736668D01*
X102107143Y-123689049D01*
X102011905Y-123641430D01*
X101726190Y-123641430D01*
X101630952Y-123689049D01*
X101583333Y-123736668D01*
X101535714Y-123831906D01*
X101535714Y-124022383D01*
X101583333Y-124117621D01*
X102154762Y-124974764D02*
X102202381Y-124879526D01*
X102202381Y-124689049D01*
X102154762Y-124593811D01*
X102059524Y-124546192D01*
X101678571Y-124546192D01*
X101583333Y-124593811D01*
X101535714Y-124689049D01*
X101535714Y-124879526D01*
X101583333Y-124974764D01*
X101678571Y-125022383D01*
X101773810Y-125022383D01*
X101869048Y-124546192D01*
X102202381Y-125450954D02*
X101535714Y-125450954D01*
X101726190Y-125450954D02*
X101630952Y-125498573D01*
X101583333Y-125546192D01*
X101535714Y-125641430D01*
X101535714Y-125736669D01*
X82952381Y-110046190D02*
X82952381Y-109474761D01*
X82952381Y-109760475D02*
X81952381Y-109760475D01*
X82095238Y-109665237D01*
X82190476Y-109569999D01*
X82238095Y-109474761D01*
X82857143Y-110474761D02*
X82904762Y-110522380D01*
X82952381Y-110474761D01*
X82904762Y-110427142D01*
X82857143Y-110474761D01*
X82952381Y-110474761D01*
X81952381Y-111427142D02*
X81952381Y-110950951D01*
X82428571Y-110903332D01*
X82380952Y-110950951D01*
X82333333Y-111046189D01*
X82333333Y-111284285D01*
X82380952Y-111379523D01*
X82428571Y-111427142D01*
X82523810Y-111474761D01*
X82761905Y-111474761D01*
X82857143Y-111427142D01*
X82904762Y-111379523D01*
X82952381Y-111284285D01*
X82952381Y-111046189D01*
X82904762Y-110950951D01*
X82857143Y-110903332D01*
X81952381Y-111760475D02*
X82952381Y-112093808D01*
X81952381Y-112427142D01*
X82666667Y-113474761D02*
X82666667Y-113950952D01*
X82952381Y-113379523D02*
X81952381Y-113712856D01*
X82952381Y-114046190D01*
X82666667Y-114331904D02*
X82666667Y-114808095D01*
X82952381Y-114236666D02*
X81952381Y-114569999D01*
X82952381Y-114903333D01*
X83333333Y-116284286D02*
X83285714Y-116236666D01*
X83142857Y-116141428D01*
X83047619Y-116093809D01*
X82904762Y-116046190D01*
X82666667Y-115998571D01*
X82476190Y-115998571D01*
X82238095Y-116046190D01*
X82095238Y-116093809D01*
X82000000Y-116141428D01*
X81857143Y-116236666D01*
X81809524Y-116284286D01*
X82952381Y-117141429D02*
X82952381Y-116665238D01*
X81952381Y-116665238D01*
X82952381Y-118046191D02*
X82476190Y-117712857D01*
X82952381Y-117474762D02*
X81952381Y-117474762D01*
X81952381Y-117855715D01*
X82000000Y-117950953D01*
X82047619Y-117998572D01*
X82142857Y-118046191D01*
X82285714Y-118046191D01*
X82380952Y-117998572D01*
X82428571Y-117950953D01*
X82476190Y-117855715D01*
X82476190Y-117474762D01*
X81952381Y-118903334D02*
X81952381Y-118712857D01*
X82000000Y-118617619D01*
X82047619Y-118570000D01*
X82190476Y-118474762D01*
X82380952Y-118427143D01*
X82761905Y-118427143D01*
X82857143Y-118474762D01*
X82904762Y-118522381D01*
X82952381Y-118617619D01*
X82952381Y-118808096D01*
X82904762Y-118903334D01*
X82857143Y-118950953D01*
X82761905Y-118998572D01*
X82523810Y-118998572D01*
X82428571Y-118950953D01*
X82380952Y-118903334D01*
X82333333Y-118808096D01*
X82333333Y-118617619D01*
X82380952Y-118522381D01*
X82428571Y-118474762D01*
X82523810Y-118427143D01*
X83333333Y-119331905D02*
X83285714Y-119379524D01*
X83142857Y-119474762D01*
X83047619Y-119522381D01*
X82904762Y-119570000D01*
X82666667Y-119617619D01*
X82476190Y-119617619D01*
X82238095Y-119570000D01*
X82095238Y-119522381D01*
X82000000Y-119474762D01*
X81857143Y-119379524D01*
X81809524Y-119331905D01*
X96252381Y-110046190D02*
X96252381Y-109474761D01*
X96252381Y-109760475D02*
X95252381Y-109760475D01*
X95395238Y-109665237D01*
X95490476Y-109569999D01*
X95538095Y-109474761D01*
X96157143Y-110474761D02*
X96204762Y-110522380D01*
X96252381Y-110474761D01*
X96204762Y-110427142D01*
X96157143Y-110474761D01*
X96252381Y-110474761D01*
X95252381Y-111427142D02*
X95252381Y-110950951D01*
X95728571Y-110903332D01*
X95680952Y-110950951D01*
X95633333Y-111046189D01*
X95633333Y-111284285D01*
X95680952Y-111379523D01*
X95728571Y-111427142D01*
X95823810Y-111474761D01*
X96061905Y-111474761D01*
X96157143Y-111427142D01*
X96204762Y-111379523D01*
X96252381Y-111284285D01*
X96252381Y-111046189D01*
X96204762Y-110950951D01*
X96157143Y-110903332D01*
X95252381Y-111760475D02*
X96252381Y-112093808D01*
X95252381Y-112427142D01*
X95966667Y-113474761D02*
X95966667Y-113950952D01*
X96252381Y-113379523D02*
X95252381Y-113712856D01*
X96252381Y-114046190D01*
X95966667Y-114331904D02*
X95966667Y-114808095D01*
X96252381Y-114236666D02*
X95252381Y-114569999D01*
X96252381Y-114903333D01*
X96633333Y-116284286D02*
X96585714Y-116236666D01*
X96442857Y-116141428D01*
X96347619Y-116093809D01*
X96204762Y-116046190D01*
X95966667Y-115998571D01*
X95776190Y-115998571D01*
X95538095Y-116046190D01*
X95395238Y-116093809D01*
X95300000Y-116141428D01*
X95157143Y-116236666D01*
X95109524Y-116284286D01*
X96252381Y-117141429D02*
X96252381Y-116665238D01*
X95252381Y-116665238D01*
X96252381Y-118046191D02*
X95776190Y-117712857D01*
X96252381Y-117474762D02*
X95252381Y-117474762D01*
X95252381Y-117855715D01*
X95300000Y-117950953D01*
X95347619Y-117998572D01*
X95442857Y-118046191D01*
X95585714Y-118046191D01*
X95680952Y-117998572D01*
X95728571Y-117950953D01*
X95776190Y-117855715D01*
X95776190Y-117474762D01*
X95252381Y-118903334D02*
X95252381Y-118712857D01*
X95300000Y-118617619D01*
X95347619Y-118570000D01*
X95490476Y-118474762D01*
X95680952Y-118427143D01*
X96061905Y-118427143D01*
X96157143Y-118474762D01*
X96204762Y-118522381D01*
X96252381Y-118617619D01*
X96252381Y-118808096D01*
X96204762Y-118903334D01*
X96157143Y-118950953D01*
X96061905Y-118998572D01*
X95823810Y-118998572D01*
X95728571Y-118950953D01*
X95680952Y-118903334D01*
X95633333Y-118808096D01*
X95633333Y-118617619D01*
X95680952Y-118522381D01*
X95728571Y-118474762D01*
X95823810Y-118427143D01*
X96633333Y-119331905D02*
X96585714Y-119379524D01*
X96442857Y-119474762D01*
X96347619Y-119522381D01*
X96204762Y-119570000D01*
X95966667Y-119617619D01*
X95776190Y-119617619D01*
X95538095Y-119570000D01*
X95395238Y-119522381D01*
X95300000Y-119474762D01*
X95157143Y-119379524D01*
X95109524Y-119331905D01*
X109552381Y-110046190D02*
X109552381Y-109474761D01*
X109552381Y-109760475D02*
X108552381Y-109760475D01*
X108695238Y-109665237D01*
X108790476Y-109569999D01*
X108838095Y-109474761D01*
X109457143Y-110474761D02*
X109504762Y-110522380D01*
X109552381Y-110474761D01*
X109504762Y-110427142D01*
X109457143Y-110474761D01*
X109552381Y-110474761D01*
X108552381Y-111427142D02*
X108552381Y-110950951D01*
X109028571Y-110903332D01*
X108980952Y-110950951D01*
X108933333Y-111046189D01*
X108933333Y-111284285D01*
X108980952Y-111379523D01*
X109028571Y-111427142D01*
X109123810Y-111474761D01*
X109361905Y-111474761D01*
X109457143Y-111427142D01*
X109504762Y-111379523D01*
X109552381Y-111284285D01*
X109552381Y-111046189D01*
X109504762Y-110950951D01*
X109457143Y-110903332D01*
X108552381Y-111760475D02*
X109552381Y-112093808D01*
X108552381Y-112427142D01*
X109266667Y-113474761D02*
X109266667Y-113950952D01*
X109552381Y-113379523D02*
X108552381Y-113712856D01*
X109552381Y-114046190D01*
X109266667Y-114331904D02*
X109266667Y-114808095D01*
X109552381Y-114236666D02*
X108552381Y-114569999D01*
X109552381Y-114903333D01*
X109933333Y-116284286D02*
X109885714Y-116236666D01*
X109742857Y-116141428D01*
X109647619Y-116093809D01*
X109504762Y-116046190D01*
X109266667Y-115998571D01*
X109076190Y-115998571D01*
X108838095Y-116046190D01*
X108695238Y-116093809D01*
X108600000Y-116141428D01*
X108457143Y-116236666D01*
X108409524Y-116284286D01*
X109552381Y-117141429D02*
X109552381Y-116665238D01*
X108552381Y-116665238D01*
X109552381Y-118046191D02*
X109076190Y-117712857D01*
X109552381Y-117474762D02*
X108552381Y-117474762D01*
X108552381Y-117855715D01*
X108600000Y-117950953D01*
X108647619Y-117998572D01*
X108742857Y-118046191D01*
X108885714Y-118046191D01*
X108980952Y-117998572D01*
X109028571Y-117950953D01*
X109076190Y-117855715D01*
X109076190Y-117474762D01*
X108552381Y-118903334D02*
X108552381Y-118712857D01*
X108600000Y-118617619D01*
X108647619Y-118570000D01*
X108790476Y-118474762D01*
X108980952Y-118427143D01*
X109361905Y-118427143D01*
X109457143Y-118474762D01*
X109504762Y-118522381D01*
X109552381Y-118617619D01*
X109552381Y-118808096D01*
X109504762Y-118903334D01*
X109457143Y-118950953D01*
X109361905Y-118998572D01*
X109123810Y-118998572D01*
X109028571Y-118950953D01*
X108980952Y-118903334D01*
X108933333Y-118808096D01*
X108933333Y-118617619D01*
X108980952Y-118522381D01*
X109028571Y-118474762D01*
X109123810Y-118427143D01*
X109933333Y-119331905D02*
X109885714Y-119379524D01*
X109742857Y-119474762D01*
X109647619Y-119522381D01*
X109504762Y-119570000D01*
X109266667Y-119617619D01*
X109076190Y-119617619D01*
X108838095Y-119570000D01*
X108695238Y-119522381D01*
X108600000Y-119474762D01*
X108457143Y-119379524D01*
X108409524Y-119331905D01*
X122852381Y-110046190D02*
X122852381Y-109474761D01*
X122852381Y-109760475D02*
X121852381Y-109760475D01*
X121995238Y-109665237D01*
X122090476Y-109569999D01*
X122138095Y-109474761D01*
X122757143Y-110474761D02*
X122804762Y-110522380D01*
X122852381Y-110474761D01*
X122804762Y-110427142D01*
X122757143Y-110474761D01*
X122852381Y-110474761D01*
X121852381Y-111427142D02*
X121852381Y-110950951D01*
X122328571Y-110903332D01*
X122280952Y-110950951D01*
X122233333Y-111046189D01*
X122233333Y-111284285D01*
X122280952Y-111379523D01*
X122328571Y-111427142D01*
X122423810Y-111474761D01*
X122661905Y-111474761D01*
X122757143Y-111427142D01*
X122804762Y-111379523D01*
X122852381Y-111284285D01*
X122852381Y-111046189D01*
X122804762Y-110950951D01*
X122757143Y-110903332D01*
X121852381Y-111760475D02*
X122852381Y-112093808D01*
X121852381Y-112427142D01*
X122566667Y-113474761D02*
X122566667Y-113950952D01*
X122852381Y-113379523D02*
X121852381Y-113712856D01*
X122852381Y-114046190D01*
X122566667Y-114331904D02*
X122566667Y-114808095D01*
X122852381Y-114236666D02*
X121852381Y-114569999D01*
X122852381Y-114903333D01*
X123233333Y-116284286D02*
X123185714Y-116236666D01*
X123042857Y-116141428D01*
X122947619Y-116093809D01*
X122804762Y-116046190D01*
X122566667Y-115998571D01*
X122376190Y-115998571D01*
X122138095Y-116046190D01*
X121995238Y-116093809D01*
X121900000Y-116141428D01*
X121757143Y-116236666D01*
X121709524Y-116284286D01*
X122852381Y-117141429D02*
X122852381Y-116665238D01*
X121852381Y-116665238D01*
X122852381Y-118046191D02*
X122376190Y-117712857D01*
X122852381Y-117474762D02*
X121852381Y-117474762D01*
X121852381Y-117855715D01*
X121900000Y-117950953D01*
X121947619Y-117998572D01*
X122042857Y-118046191D01*
X122185714Y-118046191D01*
X122280952Y-117998572D01*
X122328571Y-117950953D01*
X122376190Y-117855715D01*
X122376190Y-117474762D01*
X121852381Y-118903334D02*
X121852381Y-118712857D01*
X121900000Y-118617619D01*
X121947619Y-118570000D01*
X122090476Y-118474762D01*
X122280952Y-118427143D01*
X122661905Y-118427143D01*
X122757143Y-118474762D01*
X122804762Y-118522381D01*
X122852381Y-118617619D01*
X122852381Y-118808096D01*
X122804762Y-118903334D01*
X122757143Y-118950953D01*
X122661905Y-118998572D01*
X122423810Y-118998572D01*
X122328571Y-118950953D01*
X122280952Y-118903334D01*
X122233333Y-118808096D01*
X122233333Y-118617619D01*
X122280952Y-118522381D01*
X122328571Y-118474762D01*
X122423810Y-118427143D01*
X123233333Y-119331905D02*
X123185714Y-119379524D01*
X123042857Y-119474762D01*
X122947619Y-119522381D01*
X122804762Y-119570000D01*
X122566667Y-119617619D01*
X122376190Y-119617619D01*
X122138095Y-119570000D01*
X121995238Y-119522381D01*
X121900000Y-119474762D01*
X121757143Y-119379524D01*
X121709524Y-119331905D01*
X138263333Y-94572381D02*
X138263333Y-95286667D01*
X138310953Y-95429524D01*
X138406191Y-95524762D01*
X138549048Y-95572381D01*
X138644286Y-95572381D01*
X137882381Y-94572381D02*
X137263333Y-94572381D01*
X137596667Y-94953333D01*
X137453809Y-94953333D01*
X137358571Y-95000952D01*
X137310952Y-95048571D01*
X137263333Y-95143810D01*
X137263333Y-95381905D01*
X137310952Y-95477143D01*
X137358571Y-95524762D01*
X137453809Y-95572381D01*
X137739524Y-95572381D01*
X137834762Y-95524762D01*
X137882381Y-95477143D01*
M02*
