G04 #@! TF.FileFunction,Legend,Bot*
%FSLAX46Y46*%
G04 Gerber Fmt 4.6, Leading zero omitted, Abs format (unit mm)*
G04 Created by KiCad (PCBNEW 4.0.7) date Friday, July 13, 2018 'AMt' 10:56:13 AM*
%MOMM*%
%LPD*%
G01*
G04 APERTURE LIST*
%ADD10C,0.100000*%
%ADD11C,0.300000*%
%ADD12C,0.450000*%
G04 APERTURE END LIST*
D10*
D11*
X138714286Y-102607143D02*
X138500000Y-102678571D01*
X138142857Y-102678571D01*
X138000000Y-102607143D01*
X137928571Y-102535714D01*
X137857143Y-102392857D01*
X137857143Y-102250000D01*
X137928571Y-102107143D01*
X138000000Y-102035714D01*
X138142857Y-101964286D01*
X138428571Y-101892857D01*
X138571429Y-101821429D01*
X138642857Y-101750000D01*
X138714286Y-101607143D01*
X138714286Y-101464286D01*
X138642857Y-101321429D01*
X138571429Y-101250000D01*
X138428571Y-101178571D01*
X138071429Y-101178571D01*
X137857143Y-101250000D01*
X136571429Y-102678571D02*
X136571429Y-101892857D01*
X136642858Y-101750000D01*
X136785715Y-101678571D01*
X137071429Y-101678571D01*
X137214286Y-101750000D01*
X136571429Y-102607143D02*
X136714286Y-102678571D01*
X137071429Y-102678571D01*
X137214286Y-102607143D01*
X137285715Y-102464286D01*
X137285715Y-102321429D01*
X137214286Y-102178571D01*
X137071429Y-102107143D01*
X136714286Y-102107143D01*
X136571429Y-102035714D01*
X135857143Y-102678571D02*
X135857143Y-101678571D01*
X135857143Y-101821429D02*
X135785715Y-101750000D01*
X135642857Y-101678571D01*
X135428572Y-101678571D01*
X135285715Y-101750000D01*
X135214286Y-101892857D01*
X135214286Y-102678571D01*
X135214286Y-101892857D02*
X135142857Y-101750000D01*
X135000000Y-101678571D01*
X134785715Y-101678571D01*
X134642857Y-101750000D01*
X134571429Y-101892857D01*
X134571429Y-102678571D01*
X132714286Y-102678571D02*
X132714286Y-101178571D01*
X132142858Y-101178571D01*
X132000000Y-101250000D01*
X131928572Y-101321429D01*
X131857143Y-101464286D01*
X131857143Y-101678571D01*
X131928572Y-101821429D01*
X132000000Y-101892857D01*
X132142858Y-101964286D01*
X132714286Y-101964286D01*
X130642858Y-102607143D02*
X130785715Y-102678571D01*
X131071429Y-102678571D01*
X131214286Y-102607143D01*
X131285715Y-102464286D01*
X131285715Y-101892857D01*
X131214286Y-101750000D01*
X131071429Y-101678571D01*
X130785715Y-101678571D01*
X130642858Y-101750000D01*
X130571429Y-101892857D01*
X130571429Y-102035714D01*
X131285715Y-102178571D01*
X129928572Y-102678571D02*
X129928572Y-101678571D01*
X129928572Y-101964286D02*
X129857144Y-101821429D01*
X129785715Y-101750000D01*
X129642858Y-101678571D01*
X129500001Y-101678571D01*
X129000001Y-102678571D02*
X129000001Y-101678571D01*
X129000001Y-101964286D02*
X128928573Y-101821429D01*
X128857144Y-101750000D01*
X128714287Y-101678571D01*
X128571430Y-101678571D01*
X128214287Y-101678571D02*
X127857144Y-102678571D01*
X127500002Y-101678571D02*
X127857144Y-102678571D01*
X128000002Y-103035714D01*
X128071430Y-103107143D01*
X128214287Y-103178571D01*
X124214288Y-101178571D02*
X124214288Y-102250000D01*
X124285716Y-102464286D01*
X124428573Y-102607143D01*
X124642859Y-102678571D01*
X124785716Y-102678571D01*
X122857145Y-101678571D02*
X122857145Y-102678571D01*
X123500002Y-101678571D02*
X123500002Y-102464286D01*
X123428574Y-102607143D01*
X123285716Y-102678571D01*
X123071431Y-102678571D01*
X122928574Y-102607143D01*
X122857145Y-102535714D01*
X121928573Y-102678571D02*
X122071431Y-102607143D01*
X122142859Y-102464286D01*
X122142859Y-101178571D01*
X121500002Y-101678571D02*
X121142859Y-102678571D01*
X120785717Y-101678571D02*
X121142859Y-102678571D01*
X121285717Y-103035714D01*
X121357145Y-103107143D01*
X121500002Y-103178571D01*
X119142860Y-101321429D02*
X119071431Y-101250000D01*
X118928574Y-101178571D01*
X118571431Y-101178571D01*
X118428574Y-101250000D01*
X118357145Y-101321429D01*
X118285717Y-101464286D01*
X118285717Y-101607143D01*
X118357145Y-101821429D01*
X119214288Y-102678571D01*
X118285717Y-102678571D01*
X117357146Y-101178571D02*
X117214289Y-101178571D01*
X117071432Y-101250000D01*
X117000003Y-101321429D01*
X116928574Y-101464286D01*
X116857146Y-101750000D01*
X116857146Y-102107143D01*
X116928574Y-102392857D01*
X117000003Y-102535714D01*
X117071432Y-102607143D01*
X117214289Y-102678571D01*
X117357146Y-102678571D01*
X117500003Y-102607143D01*
X117571432Y-102535714D01*
X117642860Y-102392857D01*
X117714289Y-102107143D01*
X117714289Y-101750000D01*
X117642860Y-101464286D01*
X117571432Y-101321429D01*
X117500003Y-101250000D01*
X117357146Y-101178571D01*
X115428575Y-102678571D02*
X116285718Y-102678571D01*
X115857146Y-102678571D02*
X115857146Y-101178571D01*
X116000003Y-101392857D01*
X116142861Y-101535714D01*
X116285718Y-101607143D01*
X114571432Y-101821429D02*
X114714290Y-101750000D01*
X114785718Y-101678571D01*
X114857147Y-101535714D01*
X114857147Y-101464286D01*
X114785718Y-101321429D01*
X114714290Y-101250000D01*
X114571432Y-101178571D01*
X114285718Y-101178571D01*
X114142861Y-101250000D01*
X114071432Y-101321429D01*
X114000004Y-101464286D01*
X114000004Y-101535714D01*
X114071432Y-101678571D01*
X114142861Y-101750000D01*
X114285718Y-101821429D01*
X114571432Y-101821429D01*
X114714290Y-101892857D01*
X114785718Y-101964286D01*
X114857147Y-102107143D01*
X114857147Y-102392857D01*
X114785718Y-102535714D01*
X114714290Y-102607143D01*
X114571432Y-102678571D01*
X114285718Y-102678571D01*
X114142861Y-102607143D01*
X114071432Y-102535714D01*
X114000004Y-102392857D01*
X114000004Y-102107143D01*
X114071432Y-101964286D01*
X114142861Y-101892857D01*
X114285718Y-101821429D01*
D12*
X138514286Y-98800000D02*
X138142857Y-98933333D01*
X138019048Y-99066667D01*
X137895238Y-99333333D01*
X137895238Y-99733333D01*
X138019048Y-100000000D01*
X138142857Y-100133333D01*
X138390476Y-100266667D01*
X139380952Y-100266667D01*
X139380952Y-97466667D01*
X138514286Y-97466667D01*
X138266667Y-97600000D01*
X138142857Y-97733333D01*
X138019048Y-98000000D01*
X138019048Y-98266667D01*
X138142857Y-98533333D01*
X138266667Y-98666667D01*
X138514286Y-98800000D01*
X139380952Y-98800000D01*
X135666667Y-100266667D02*
X135666667Y-98800000D01*
X135790476Y-98533333D01*
X136038095Y-98400000D01*
X136533333Y-98400000D01*
X136780952Y-98533333D01*
X135666667Y-100133333D02*
X135914286Y-100266667D01*
X136533333Y-100266667D01*
X136780952Y-100133333D01*
X136904762Y-99866667D01*
X136904762Y-99600000D01*
X136780952Y-99333333D01*
X136533333Y-99200000D01*
X135914286Y-99200000D01*
X135666667Y-99066667D01*
X134552381Y-100133333D02*
X134304762Y-100266667D01*
X133809524Y-100266667D01*
X133561905Y-100133333D01*
X133438095Y-99866667D01*
X133438095Y-99733333D01*
X133561905Y-99466667D01*
X133809524Y-99333333D01*
X134180952Y-99333333D01*
X134428571Y-99200000D01*
X134552381Y-98933333D01*
X134552381Y-98800000D01*
X134428571Y-98533333D01*
X134180952Y-98400000D01*
X133809524Y-98400000D01*
X133561905Y-98533333D01*
X131333333Y-100133333D02*
X131580952Y-100266667D01*
X132076190Y-100266667D01*
X132323809Y-100133333D01*
X132447619Y-99866667D01*
X132447619Y-98800000D01*
X132323809Y-98533333D01*
X132076190Y-98400000D01*
X131580952Y-98400000D01*
X131333333Y-98533333D01*
X131209524Y-98800000D01*
X131209524Y-99066667D01*
X132447619Y-99333333D01*
X126628572Y-100000000D02*
X126752382Y-100133333D01*
X127123810Y-100266667D01*
X127371429Y-100266667D01*
X127742858Y-100133333D01*
X127990477Y-99866667D01*
X128114286Y-99600000D01*
X128238096Y-99066667D01*
X128238096Y-98666667D01*
X128114286Y-98133333D01*
X127990477Y-97866667D01*
X127742858Y-97600000D01*
X127371429Y-97466667D01*
X127123810Y-97466667D01*
X126752382Y-97600000D01*
X126628572Y-97733333D01*
X125142858Y-100266667D02*
X125390477Y-100133333D01*
X125514286Y-100000000D01*
X125638096Y-99733333D01*
X125638096Y-98933333D01*
X125514286Y-98666667D01*
X125390477Y-98533333D01*
X125142858Y-98400000D01*
X124771429Y-98400000D01*
X124523810Y-98533333D01*
X124400001Y-98666667D01*
X124276191Y-98933333D01*
X124276191Y-99733333D01*
X124400001Y-100000000D01*
X124523810Y-100133333D01*
X124771429Y-100266667D01*
X125142858Y-100266667D01*
X123161905Y-98400000D02*
X123161905Y-100266667D01*
X123161905Y-98666667D02*
X123038096Y-98533333D01*
X122790477Y-98400000D01*
X122419048Y-98400000D01*
X122171429Y-98533333D01*
X122047620Y-98800000D01*
X122047620Y-100266667D01*
X121057143Y-98400000D02*
X120438096Y-100266667D01*
X119819048Y-98400000D01*
X117838096Y-100133333D02*
X118085715Y-100266667D01*
X118580953Y-100266667D01*
X118828572Y-100133333D01*
X118952382Y-99866667D01*
X118952382Y-98800000D01*
X118828572Y-98533333D01*
X118580953Y-98400000D01*
X118085715Y-98400000D01*
X117838096Y-98533333D01*
X117714287Y-98800000D01*
X117714287Y-99066667D01*
X118952382Y-99333333D01*
X116600001Y-100266667D02*
X116600001Y-98400000D01*
X116600001Y-98933333D02*
X116476192Y-98666667D01*
X116352382Y-98533333D01*
X116104763Y-98400000D01*
X115857144Y-98400000D01*
X115361906Y-98400000D02*
X114371430Y-98400000D01*
X114990477Y-97466667D02*
X114990477Y-99866667D01*
X114866668Y-100133333D01*
X114619049Y-100266667D01*
X114371430Y-100266667D01*
M02*
