G04 #@! TF.FileFunction,Copper,L1,Top,Signal*
%FSLAX46Y46*%
G04 Gerber Fmt 4.6, Leading zero omitted, Abs format (unit mm)*
G04 Created by KiCad (PCBNEW 4.0.7) date Friday, July 13, 2018 'AMt' 10:56:13 AM*
%MOMM*%
%LPD*%
G01*
G04 APERTURE LIST*
%ADD10C,0.100000*%
%ADD11C,0.500000*%
G04 APERTURE END LIST*
D10*
D11*
G36*
X143879741Y-50806640D02*
X144350824Y-50948869D01*
X144785309Y-51179888D01*
X145166651Y-51490904D01*
X145480318Y-51870062D01*
X145714367Y-52302927D01*
X145859881Y-52773006D01*
X145915000Y-53297430D01*
X145915000Y-146683071D01*
X145863360Y-147209741D01*
X145721132Y-147680820D01*
X145490111Y-148115309D01*
X145179098Y-148496649D01*
X144799940Y-148810317D01*
X144367073Y-149044367D01*
X143896994Y-149189881D01*
X143372570Y-149245000D01*
X56646929Y-149245000D01*
X56120259Y-149193360D01*
X55649180Y-149051132D01*
X55214691Y-148820111D01*
X54833351Y-148509098D01*
X54519683Y-148129940D01*
X54285633Y-147697073D01*
X54140119Y-147226994D01*
X54105391Y-146896574D01*
X54507240Y-146896574D01*
X54581583Y-147301639D01*
X54733188Y-147684550D01*
X54956281Y-148030722D01*
X55242363Y-148326968D01*
X55580538Y-148562006D01*
X55957924Y-148726882D01*
X56360149Y-148815317D01*
X56771890Y-148823942D01*
X57177464Y-148752428D01*
X57561424Y-148603500D01*
X57909145Y-148382830D01*
X58207381Y-148098823D01*
X58444774Y-147762297D01*
X58612281Y-147386070D01*
X58703522Y-146984473D01*
X58704749Y-146896574D01*
X97897240Y-146896574D01*
X97971583Y-147301639D01*
X98123188Y-147684550D01*
X98346281Y-148030722D01*
X98632363Y-148326968D01*
X98970538Y-148562006D01*
X99347924Y-148726882D01*
X99750149Y-148815317D01*
X100161890Y-148823942D01*
X100567464Y-148752428D01*
X100951424Y-148603500D01*
X101299145Y-148382830D01*
X101597381Y-148098823D01*
X101834774Y-147762297D01*
X102002281Y-147386070D01*
X102093522Y-146984473D01*
X102094749Y-146896574D01*
X141287240Y-146896574D01*
X141361583Y-147301639D01*
X141513188Y-147684550D01*
X141736281Y-148030722D01*
X142022363Y-148326968D01*
X142360538Y-148562006D01*
X142737924Y-148726882D01*
X143140149Y-148815317D01*
X143551890Y-148823942D01*
X143957464Y-148752428D01*
X144341424Y-148603500D01*
X144689145Y-148382830D01*
X144987381Y-148098823D01*
X145224774Y-147762297D01*
X145392281Y-147386070D01*
X145483522Y-146984473D01*
X145490090Y-146514084D01*
X145410098Y-146110096D01*
X145253162Y-145729339D01*
X145025258Y-145386316D01*
X144735067Y-145094093D01*
X144393644Y-144863800D01*
X144013992Y-144704209D01*
X143610572Y-144621399D01*
X143198751Y-144618524D01*
X142794214Y-144695693D01*
X142412371Y-144849968D01*
X142067765Y-145075471D01*
X141773523Y-145363615D01*
X141540852Y-145703422D01*
X141378614Y-146081951D01*
X141292990Y-146484783D01*
X141287240Y-146896574D01*
X102094749Y-146896574D01*
X102100090Y-146514084D01*
X102020098Y-146110096D01*
X101863162Y-145729339D01*
X101635258Y-145386316D01*
X101345067Y-145094093D01*
X101003644Y-144863800D01*
X100623992Y-144704209D01*
X100220572Y-144621399D01*
X99808751Y-144618524D01*
X99404214Y-144695693D01*
X99022371Y-144849968D01*
X98677765Y-145075471D01*
X98383523Y-145363615D01*
X98150852Y-145703422D01*
X97988614Y-146081951D01*
X97902990Y-146484783D01*
X97897240Y-146896574D01*
X58704749Y-146896574D01*
X58710090Y-146514084D01*
X58630098Y-146110096D01*
X58473162Y-145729339D01*
X58245258Y-145386316D01*
X57955067Y-145094093D01*
X57613644Y-144863800D01*
X57233992Y-144704209D01*
X56830572Y-144621399D01*
X56418751Y-144618524D01*
X56014214Y-144695693D01*
X55632371Y-144849968D01*
X55287765Y-145075471D01*
X54993523Y-145363615D01*
X54760852Y-145703422D01*
X54598614Y-146081951D01*
X54512990Y-146484783D01*
X54507240Y-146896574D01*
X54105391Y-146896574D01*
X54085000Y-146702570D01*
X54085000Y-100176574D01*
X54507240Y-100176574D01*
X54581583Y-100581639D01*
X54733188Y-100964550D01*
X54956281Y-101310722D01*
X55242363Y-101606968D01*
X55580538Y-101842006D01*
X55957924Y-102006882D01*
X56360149Y-102095317D01*
X56771890Y-102103942D01*
X57177464Y-102032428D01*
X57561424Y-101883500D01*
X57909145Y-101662830D01*
X58207381Y-101378823D01*
X58444774Y-101042297D01*
X58612281Y-100666070D01*
X58703522Y-100264473D01*
X58704749Y-100176574D01*
X141287240Y-100176574D01*
X141361583Y-100581639D01*
X141513188Y-100964550D01*
X141736281Y-101310722D01*
X142022363Y-101606968D01*
X142360538Y-101842006D01*
X142737924Y-102006882D01*
X143140149Y-102095317D01*
X143551890Y-102103942D01*
X143957464Y-102032428D01*
X144341424Y-101883500D01*
X144689145Y-101662830D01*
X144987381Y-101378823D01*
X145224774Y-101042297D01*
X145392281Y-100666070D01*
X145483522Y-100264473D01*
X145490090Y-99794084D01*
X145410098Y-99390096D01*
X145253162Y-99009339D01*
X145025258Y-98666316D01*
X144735067Y-98374093D01*
X144393644Y-98143800D01*
X144013992Y-97984209D01*
X143610572Y-97901399D01*
X143198751Y-97898524D01*
X142794214Y-97975693D01*
X142412371Y-98129968D01*
X142067765Y-98355471D01*
X141773523Y-98643615D01*
X141540852Y-98983422D01*
X141378614Y-99361951D01*
X141292990Y-99764783D01*
X141287240Y-100176574D01*
X58704749Y-100176574D01*
X58710090Y-99794084D01*
X58630098Y-99390096D01*
X58473162Y-99009339D01*
X58245258Y-98666316D01*
X57955067Y-98374093D01*
X57613644Y-98143800D01*
X57233992Y-97984209D01*
X56830572Y-97901399D01*
X56418751Y-97898524D01*
X56014214Y-97975693D01*
X55632371Y-98129968D01*
X55287765Y-98355471D01*
X54993523Y-98643615D01*
X54760852Y-98983422D01*
X54598614Y-99361951D01*
X54512990Y-99764783D01*
X54507240Y-100176574D01*
X54085000Y-100176574D01*
X54085000Y-53456574D01*
X54507240Y-53456574D01*
X54581583Y-53861639D01*
X54733188Y-54244550D01*
X54956281Y-54590722D01*
X55242363Y-54886968D01*
X55580538Y-55122006D01*
X55957924Y-55286882D01*
X56360149Y-55375317D01*
X56771890Y-55383942D01*
X57177464Y-55312428D01*
X57561424Y-55163500D01*
X57909145Y-54942830D01*
X58207381Y-54658823D01*
X58444774Y-54322297D01*
X58612281Y-53946070D01*
X58703522Y-53544473D01*
X58704749Y-53456574D01*
X97897240Y-53456574D01*
X97971583Y-53861639D01*
X98123188Y-54244550D01*
X98346281Y-54590722D01*
X98632363Y-54886968D01*
X98970538Y-55122006D01*
X99347924Y-55286882D01*
X99750149Y-55375317D01*
X100161890Y-55383942D01*
X100567464Y-55312428D01*
X100951424Y-55163500D01*
X101299145Y-54942830D01*
X101597381Y-54658823D01*
X101834774Y-54322297D01*
X102002281Y-53946070D01*
X102093522Y-53544473D01*
X102094749Y-53456574D01*
X141287240Y-53456574D01*
X141361583Y-53861639D01*
X141513188Y-54244550D01*
X141736281Y-54590722D01*
X142022363Y-54886968D01*
X142360538Y-55122006D01*
X142737924Y-55286882D01*
X143140149Y-55375317D01*
X143551890Y-55383942D01*
X143957464Y-55312428D01*
X144341424Y-55163500D01*
X144689145Y-54942830D01*
X144987381Y-54658823D01*
X145224774Y-54322297D01*
X145392281Y-53946070D01*
X145483522Y-53544473D01*
X145490090Y-53074084D01*
X145410098Y-52670096D01*
X145253162Y-52289339D01*
X145025258Y-51946316D01*
X144735067Y-51654093D01*
X144393644Y-51423800D01*
X144013992Y-51264209D01*
X143610572Y-51181399D01*
X143198751Y-51178524D01*
X142794214Y-51255693D01*
X142412371Y-51409968D01*
X142067765Y-51635471D01*
X141773523Y-51923615D01*
X141540852Y-52263422D01*
X141378614Y-52641951D01*
X141292990Y-53044783D01*
X141287240Y-53456574D01*
X102094749Y-53456574D01*
X102100090Y-53074084D01*
X102020098Y-52670096D01*
X101863162Y-52289339D01*
X101635258Y-51946316D01*
X101345067Y-51654093D01*
X101003644Y-51423800D01*
X100623992Y-51264209D01*
X100220572Y-51181399D01*
X99808751Y-51178524D01*
X99404214Y-51255693D01*
X99022371Y-51409968D01*
X98677765Y-51635471D01*
X98383523Y-51923615D01*
X98150852Y-52263422D01*
X97988614Y-52641951D01*
X97902990Y-53044783D01*
X97897240Y-53456574D01*
X58704749Y-53456574D01*
X58710090Y-53074084D01*
X58630098Y-52670096D01*
X58473162Y-52289339D01*
X58245258Y-51946316D01*
X57955067Y-51654093D01*
X57613644Y-51423800D01*
X57233992Y-51264209D01*
X56830572Y-51181399D01*
X56418751Y-51178524D01*
X56014214Y-51255693D01*
X55632371Y-51409968D01*
X55287765Y-51635471D01*
X54993523Y-51923615D01*
X54760852Y-52263422D01*
X54598614Y-52641951D01*
X54512990Y-53044783D01*
X54507240Y-53456574D01*
X54085000Y-53456574D01*
X54085000Y-53316929D01*
X54136640Y-52790259D01*
X54278869Y-52319176D01*
X54509888Y-51884691D01*
X54820904Y-51503349D01*
X55200062Y-51189682D01*
X55632927Y-50955633D01*
X56103006Y-50810119D01*
X56627430Y-50755000D01*
X143353071Y-50755000D01*
X143879741Y-50806640D01*
X143879741Y-50806640D01*
G37*
X143879741Y-50806640D02*
X144350824Y-50948869D01*
X144785309Y-51179888D01*
X145166651Y-51490904D01*
X145480318Y-51870062D01*
X145714367Y-52302927D01*
X145859881Y-52773006D01*
X145915000Y-53297430D01*
X145915000Y-146683071D01*
X145863360Y-147209741D01*
X145721132Y-147680820D01*
X145490111Y-148115309D01*
X145179098Y-148496649D01*
X144799940Y-148810317D01*
X144367073Y-149044367D01*
X143896994Y-149189881D01*
X143372570Y-149245000D01*
X56646929Y-149245000D01*
X56120259Y-149193360D01*
X55649180Y-149051132D01*
X55214691Y-148820111D01*
X54833351Y-148509098D01*
X54519683Y-148129940D01*
X54285633Y-147697073D01*
X54140119Y-147226994D01*
X54105391Y-146896574D01*
X54507240Y-146896574D01*
X54581583Y-147301639D01*
X54733188Y-147684550D01*
X54956281Y-148030722D01*
X55242363Y-148326968D01*
X55580538Y-148562006D01*
X55957924Y-148726882D01*
X56360149Y-148815317D01*
X56771890Y-148823942D01*
X57177464Y-148752428D01*
X57561424Y-148603500D01*
X57909145Y-148382830D01*
X58207381Y-148098823D01*
X58444774Y-147762297D01*
X58612281Y-147386070D01*
X58703522Y-146984473D01*
X58704749Y-146896574D01*
X97897240Y-146896574D01*
X97971583Y-147301639D01*
X98123188Y-147684550D01*
X98346281Y-148030722D01*
X98632363Y-148326968D01*
X98970538Y-148562006D01*
X99347924Y-148726882D01*
X99750149Y-148815317D01*
X100161890Y-148823942D01*
X100567464Y-148752428D01*
X100951424Y-148603500D01*
X101299145Y-148382830D01*
X101597381Y-148098823D01*
X101834774Y-147762297D01*
X102002281Y-147386070D01*
X102093522Y-146984473D01*
X102094749Y-146896574D01*
X141287240Y-146896574D01*
X141361583Y-147301639D01*
X141513188Y-147684550D01*
X141736281Y-148030722D01*
X142022363Y-148326968D01*
X142360538Y-148562006D01*
X142737924Y-148726882D01*
X143140149Y-148815317D01*
X143551890Y-148823942D01*
X143957464Y-148752428D01*
X144341424Y-148603500D01*
X144689145Y-148382830D01*
X144987381Y-148098823D01*
X145224774Y-147762297D01*
X145392281Y-147386070D01*
X145483522Y-146984473D01*
X145490090Y-146514084D01*
X145410098Y-146110096D01*
X145253162Y-145729339D01*
X145025258Y-145386316D01*
X144735067Y-145094093D01*
X144393644Y-144863800D01*
X144013992Y-144704209D01*
X143610572Y-144621399D01*
X143198751Y-144618524D01*
X142794214Y-144695693D01*
X142412371Y-144849968D01*
X142067765Y-145075471D01*
X141773523Y-145363615D01*
X141540852Y-145703422D01*
X141378614Y-146081951D01*
X141292990Y-146484783D01*
X141287240Y-146896574D01*
X102094749Y-146896574D01*
X102100090Y-146514084D01*
X102020098Y-146110096D01*
X101863162Y-145729339D01*
X101635258Y-145386316D01*
X101345067Y-145094093D01*
X101003644Y-144863800D01*
X100623992Y-144704209D01*
X100220572Y-144621399D01*
X99808751Y-144618524D01*
X99404214Y-144695693D01*
X99022371Y-144849968D01*
X98677765Y-145075471D01*
X98383523Y-145363615D01*
X98150852Y-145703422D01*
X97988614Y-146081951D01*
X97902990Y-146484783D01*
X97897240Y-146896574D01*
X58704749Y-146896574D01*
X58710090Y-146514084D01*
X58630098Y-146110096D01*
X58473162Y-145729339D01*
X58245258Y-145386316D01*
X57955067Y-145094093D01*
X57613644Y-144863800D01*
X57233992Y-144704209D01*
X56830572Y-144621399D01*
X56418751Y-144618524D01*
X56014214Y-144695693D01*
X55632371Y-144849968D01*
X55287765Y-145075471D01*
X54993523Y-145363615D01*
X54760852Y-145703422D01*
X54598614Y-146081951D01*
X54512990Y-146484783D01*
X54507240Y-146896574D01*
X54105391Y-146896574D01*
X54085000Y-146702570D01*
X54085000Y-100176574D01*
X54507240Y-100176574D01*
X54581583Y-100581639D01*
X54733188Y-100964550D01*
X54956281Y-101310722D01*
X55242363Y-101606968D01*
X55580538Y-101842006D01*
X55957924Y-102006882D01*
X56360149Y-102095317D01*
X56771890Y-102103942D01*
X57177464Y-102032428D01*
X57561424Y-101883500D01*
X57909145Y-101662830D01*
X58207381Y-101378823D01*
X58444774Y-101042297D01*
X58612281Y-100666070D01*
X58703522Y-100264473D01*
X58704749Y-100176574D01*
X141287240Y-100176574D01*
X141361583Y-100581639D01*
X141513188Y-100964550D01*
X141736281Y-101310722D01*
X142022363Y-101606968D01*
X142360538Y-101842006D01*
X142737924Y-102006882D01*
X143140149Y-102095317D01*
X143551890Y-102103942D01*
X143957464Y-102032428D01*
X144341424Y-101883500D01*
X144689145Y-101662830D01*
X144987381Y-101378823D01*
X145224774Y-101042297D01*
X145392281Y-100666070D01*
X145483522Y-100264473D01*
X145490090Y-99794084D01*
X145410098Y-99390096D01*
X145253162Y-99009339D01*
X145025258Y-98666316D01*
X144735067Y-98374093D01*
X144393644Y-98143800D01*
X144013992Y-97984209D01*
X143610572Y-97901399D01*
X143198751Y-97898524D01*
X142794214Y-97975693D01*
X142412371Y-98129968D01*
X142067765Y-98355471D01*
X141773523Y-98643615D01*
X141540852Y-98983422D01*
X141378614Y-99361951D01*
X141292990Y-99764783D01*
X141287240Y-100176574D01*
X58704749Y-100176574D01*
X58710090Y-99794084D01*
X58630098Y-99390096D01*
X58473162Y-99009339D01*
X58245258Y-98666316D01*
X57955067Y-98374093D01*
X57613644Y-98143800D01*
X57233992Y-97984209D01*
X56830572Y-97901399D01*
X56418751Y-97898524D01*
X56014214Y-97975693D01*
X55632371Y-98129968D01*
X55287765Y-98355471D01*
X54993523Y-98643615D01*
X54760852Y-98983422D01*
X54598614Y-99361951D01*
X54512990Y-99764783D01*
X54507240Y-100176574D01*
X54085000Y-100176574D01*
X54085000Y-53456574D01*
X54507240Y-53456574D01*
X54581583Y-53861639D01*
X54733188Y-54244550D01*
X54956281Y-54590722D01*
X55242363Y-54886968D01*
X55580538Y-55122006D01*
X55957924Y-55286882D01*
X56360149Y-55375317D01*
X56771890Y-55383942D01*
X57177464Y-55312428D01*
X57561424Y-55163500D01*
X57909145Y-54942830D01*
X58207381Y-54658823D01*
X58444774Y-54322297D01*
X58612281Y-53946070D01*
X58703522Y-53544473D01*
X58704749Y-53456574D01*
X97897240Y-53456574D01*
X97971583Y-53861639D01*
X98123188Y-54244550D01*
X98346281Y-54590722D01*
X98632363Y-54886968D01*
X98970538Y-55122006D01*
X99347924Y-55286882D01*
X99750149Y-55375317D01*
X100161890Y-55383942D01*
X100567464Y-55312428D01*
X100951424Y-55163500D01*
X101299145Y-54942830D01*
X101597381Y-54658823D01*
X101834774Y-54322297D01*
X102002281Y-53946070D01*
X102093522Y-53544473D01*
X102094749Y-53456574D01*
X141287240Y-53456574D01*
X141361583Y-53861639D01*
X141513188Y-54244550D01*
X141736281Y-54590722D01*
X142022363Y-54886968D01*
X142360538Y-55122006D01*
X142737924Y-55286882D01*
X143140149Y-55375317D01*
X143551890Y-55383942D01*
X143957464Y-55312428D01*
X144341424Y-55163500D01*
X144689145Y-54942830D01*
X144987381Y-54658823D01*
X145224774Y-54322297D01*
X145392281Y-53946070D01*
X145483522Y-53544473D01*
X145490090Y-53074084D01*
X145410098Y-52670096D01*
X145253162Y-52289339D01*
X145025258Y-51946316D01*
X144735067Y-51654093D01*
X144393644Y-51423800D01*
X144013992Y-51264209D01*
X143610572Y-51181399D01*
X143198751Y-51178524D01*
X142794214Y-51255693D01*
X142412371Y-51409968D01*
X142067765Y-51635471D01*
X141773523Y-51923615D01*
X141540852Y-52263422D01*
X141378614Y-52641951D01*
X141292990Y-53044783D01*
X141287240Y-53456574D01*
X102094749Y-53456574D01*
X102100090Y-53074084D01*
X102020098Y-52670096D01*
X101863162Y-52289339D01*
X101635258Y-51946316D01*
X101345067Y-51654093D01*
X101003644Y-51423800D01*
X100623992Y-51264209D01*
X100220572Y-51181399D01*
X99808751Y-51178524D01*
X99404214Y-51255693D01*
X99022371Y-51409968D01*
X98677765Y-51635471D01*
X98383523Y-51923615D01*
X98150852Y-52263422D01*
X97988614Y-52641951D01*
X97902990Y-53044783D01*
X97897240Y-53456574D01*
X58704749Y-53456574D01*
X58710090Y-53074084D01*
X58630098Y-52670096D01*
X58473162Y-52289339D01*
X58245258Y-51946316D01*
X57955067Y-51654093D01*
X57613644Y-51423800D01*
X57233992Y-51264209D01*
X56830572Y-51181399D01*
X56418751Y-51178524D01*
X56014214Y-51255693D01*
X55632371Y-51409968D01*
X55287765Y-51635471D01*
X54993523Y-51923615D01*
X54760852Y-52263422D01*
X54598614Y-52641951D01*
X54512990Y-53044783D01*
X54507240Y-53456574D01*
X54085000Y-53456574D01*
X54085000Y-53316929D01*
X54136640Y-52790259D01*
X54278869Y-52319176D01*
X54509888Y-51884691D01*
X54820904Y-51503349D01*
X55200062Y-51189682D01*
X55632927Y-50955633D01*
X56103006Y-50810119D01*
X56627430Y-50755000D01*
X143353071Y-50755000D01*
X143879741Y-50806640D01*
M02*
