G04 #@! TF.FileFunction,Soldermask,Bot*
%FSLAX46Y46*%
G04 Gerber Fmt 4.6, Leading zero omitted, Abs format (unit mm)*
G04 Created by KiCad (PCBNEW 4.0.7) date Friday, July 13, 2018 'AMt' 11:01:13 AM*
%MOMM*%
%LPD*%
G01*
G04 APERTURE LIST*
%ADD10C,0.100000*%
%ADD11C,3.100000*%
%ADD12C,3.300000*%
%ADD13C,1.100000*%
%ADD14C,1.924000*%
%ADD15R,2.100000X2.100000*%
%ADD16O,2.100000X2.100000*%
%ADD17C,2.000000*%
%ADD18R,1.600000X2.100000*%
%ADD19O,1.600000X2.100000*%
G04 APERTURE END LIST*
D10*
D11*
X56610000Y-100000000D03*
X56610000Y-146720000D03*
X100000000Y-146720000D03*
X143390000Y-146720000D03*
X143390000Y-100000000D03*
X143390000Y-53280000D03*
X100000000Y-53280000D03*
D12*
X75000000Y-114570000D03*
X130000000Y-114570000D03*
D13*
X121350000Y-71230000D03*
X125450000Y-75330000D03*
X100550000Y-71230000D03*
X104650000Y-75330000D03*
X79750000Y-71230000D03*
X83850000Y-75330000D03*
X58950000Y-71230000D03*
X63050000Y-75330000D03*
X126550000Y-71230000D03*
X130650000Y-75330000D03*
X105750000Y-71230000D03*
X109850000Y-75330000D03*
X84950000Y-71230000D03*
X89050000Y-75330000D03*
X64150000Y-71230000D03*
X68250000Y-75330000D03*
X131750000Y-71230000D03*
X135850000Y-75330000D03*
X110950000Y-71230000D03*
X115050000Y-75330000D03*
X90150000Y-71230000D03*
X94250000Y-75330000D03*
X69350000Y-71230000D03*
X73450000Y-75330000D03*
X136950000Y-71230000D03*
X141050000Y-75330000D03*
X116150000Y-71230000D03*
X120250000Y-75330000D03*
X95350000Y-71230000D03*
X99450000Y-75330000D03*
X74550000Y-71230000D03*
X78650000Y-75330000D03*
D14*
X60920000Y-66740000D03*
X63460000Y-66740000D03*
X66000000Y-66740000D03*
X68540000Y-66740000D03*
X71080000Y-66740000D03*
X71080000Y-59120000D03*
X68540000Y-59120000D03*
X66000000Y-59120000D03*
X63460000Y-59120000D03*
X60920000Y-59120000D03*
X76590000Y-66740000D03*
X79130000Y-66740000D03*
X81670000Y-66740000D03*
X84210000Y-66740000D03*
X86750000Y-66740000D03*
X86750000Y-59120000D03*
X84210000Y-59120000D03*
X81670000Y-59120000D03*
X79130000Y-59120000D03*
X76590000Y-59120000D03*
X97580000Y-66740000D03*
X100120000Y-66740000D03*
X102660000Y-66740000D03*
X105200000Y-66740000D03*
X107740000Y-66740000D03*
X107740000Y-59120000D03*
X105200000Y-59120000D03*
X102660000Y-59120000D03*
X100120000Y-59120000D03*
X97580000Y-59120000D03*
X113250000Y-66740000D03*
X115790000Y-66740000D03*
X118330000Y-66740000D03*
X120870000Y-66740000D03*
X123410000Y-66740000D03*
X123410000Y-59120000D03*
X120870000Y-59120000D03*
X118330000Y-59120000D03*
X115790000Y-59120000D03*
X113250000Y-59120000D03*
X128920000Y-66740000D03*
X131460000Y-66740000D03*
X134000000Y-66740000D03*
X136540000Y-66740000D03*
X139080000Y-66740000D03*
X139080000Y-59120000D03*
X136540000Y-59120000D03*
X134000000Y-59120000D03*
X131460000Y-59120000D03*
X128920000Y-59120000D03*
D15*
X61650000Y-133750000D03*
D16*
X61650000Y-136290000D03*
X61650000Y-138830000D03*
X61650000Y-141370000D03*
D17*
X98600000Y-84080000D03*
X101100000Y-84080000D03*
X103600000Y-84080000D03*
X108600000Y-84080000D03*
X111100000Y-84080000D03*
X111100000Y-81580000D03*
X108600000Y-81580000D03*
X103600000Y-81580000D03*
X101100000Y-81580000D03*
X98600000Y-81580000D03*
D18*
X136430000Y-92670000D03*
D19*
X138430000Y-92670000D03*
D11*
X56610000Y-53280000D03*
M02*
