M48
;DRILL file {KiCad 4.0.7} date Friday, July 13, 2018 'AMt' 11:01:18 AM
;FORMAT={-:-/ absolute / inch / decimal}
FMAT,2
INCH,TZ
T1C0.016
T2C0.030
T3C0.030
T4C0.031
T5C0.037
T6C0.039
T7C0.028
T8C0.106
T9C0.114
%
G90
G05
M72
T1
X2.2016Y-2.698
X2.2069Y-2.7484
X2.2797Y-3.2071
X2.2957Y-3.1744
X2.4071Y-5.1201
X2.4102Y-5.0846
X2.4114Y-3.4039
X2.4433Y-5.0709
X2.4724Y-5.0492
X2.5051Y-5.0287
X2.5201Y-5.261
X2.5213Y-5.2252
X2.5236Y-5.4354
X2.535Y-3.8075
X2.5398Y-4.8319
X2.5398Y-5.0138
X2.5617Y-4.8606
X2.5681Y-4.9909
X2.5791Y-3.3724
X2.5912Y-4.8802
X2.5949Y-5.2252
X2.5978Y-4.9703
X2.5984Y-2.2441
X2.6105Y-4.9325
X2.6228Y-5.2555
X2.624Y-4.894
X2.6378Y-3.8378
X2.6465Y-4.1228
X2.6476Y-3.228
X2.6823Y-3.0535
X2.6878Y-4.1256
X2.7154Y-3.3732
X2.7358Y-3.0559
X2.7736Y-3.8398
X2.7835Y-3.2287
X2.8067Y-5.5059
X2.8126Y-3.6768
X2.828Y-4.1004
X2.8488Y-4.0626
X2.8508Y-3.3732
X2.8626Y-3.802
X2.8913Y-3.4996
X2.9197Y-3.2291
X2.9374Y-3.4909
X2.9695Y-3.5168
X2.9953Y-5.5768
X2.9961Y-5.3598
X3.0049Y-3.5146
X3.0283Y-5.5055
X3.0382Y-3.0102
X3.0461Y-2.9736
X3.0555Y-3.2287
X3.0764Y-4.3626
X3.0764Y-4.7559
X3.0785Y-3.9689
X3.0913Y-5.1496
X3.1709Y-2.8457
X3.1831Y-5.2291
X3.1897Y-4.9954
X3.1906Y-3.5803
X3.2176Y-5.0174
X3.2252Y-3.95
X3.2433Y-3.1075
X3.2447Y-5.0402
X3.2571Y-3.9693
X3.2665Y-3.5728
X3.276Y-4.7559
X3.2768Y-4.3606
X3.2772Y-4.1004
X3.289Y-4.502
X3.289Y-5.0594
X3.3472Y-3.137
X3.3799Y-2.8417
X3.4079Y-3.402
X3.4252Y-2.9685
X3.4252Y-3.0244
X3.4602Y-3.3969
X3.4776Y-2.7799
X3.4823Y-3.1378
X3.5126Y-3.3972
X3.5437Y-4.5591
X3.5441Y-4.1654
X3.5618Y-5.2256
X3.5634Y-4.9528
X3.565Y-3.3929
X3.6091Y-2.9681
X3.6154Y-3.0421
X3.8193Y-3.5665
X3.839Y-2.9677
X3.8398Y-3.0606
X3.9551Y-3.5669
X3.9827Y-4.3154
X3.9831Y-3.7874
X4.0193Y-4.1657
X4.0197Y-4.5598
X4.0201Y-4.9531
X4.0339Y-5.3457
X4.0354Y-3.7941
X4.0467Y-4.3001
X4.0766Y-4.3323
X4.0783Y-3.5685
X4.0882Y-3.7874
X4.1386Y-4.3567
X4.1406Y-3.7866
X4.2189Y-3.5677
X4.2406Y-3.026
X4.2429Y-2.9697
X4.3484Y-4.6811
X4.3663Y-3.5724
X4.3768Y-4.7114
X4.4142Y-4.7394
X4.4465Y-3.0437
X4.4469Y-2.9681
X4.4886Y-3.9004
X4.4953Y-4.5594
X4.4957Y-4.1657
X4.4984Y-3.5665
X4.5102Y-4.9531
X4.5177Y-5.3472
X4.5287Y-3.7929
X4.5307Y-4.3236
X4.5715Y-4.3539
X4.5795Y-3.7858
X4.6151Y-4.3877
X4.6256Y-3.5669
X4.6315Y-3.7937
X4.652Y-3.0626
X4.6528Y-2.9677
X4.6783Y-4.4134
X4.6843Y-3.7937
X4.7701Y-3.5669
X4.7917Y-2.8417
X4.7917Y-3.0819
X4.9063Y-3.5673
X5.0417Y-3.5665
T2
X5.3713Y-3.6484
X5.45Y-3.6484
T3
X2.3984Y-2.3276
X2.3984Y-2.6276
X2.4984Y-2.3276
X2.4984Y-2.6276
X2.5984Y-2.3276
X2.5984Y-2.6276
X2.6984Y-2.3276
X2.6984Y-2.6276
X2.7984Y-2.3276
X2.7984Y-2.6276
X3.0154Y-2.3276
X3.0154Y-2.6276
X3.1154Y-2.3276
X3.1154Y-2.6276
X3.2154Y-2.3276
X3.2154Y-2.6276
X3.3154Y-2.3276
X3.3154Y-2.6276
X3.4154Y-2.3276
X3.4154Y-2.6276
X3.8417Y-2.3276
X3.8417Y-2.6276
X3.9417Y-2.3276
X3.9417Y-2.6276
X4.0417Y-2.3276
X4.0417Y-2.6276
X4.1417Y-2.3276
X4.1417Y-2.6276
X4.2417Y-2.3276
X4.2417Y-2.6276
X4.4587Y-2.3276
X4.4587Y-2.6276
X4.5587Y-2.3276
X4.5587Y-2.6276
X4.6587Y-2.3276
X4.6587Y-2.6276
X4.7587Y-2.3276
X4.7587Y-2.6276
X4.8587Y-2.3276
X4.8587Y-2.6276
X5.0756Y-2.3276
X5.0756Y-2.6276
X5.1756Y-2.3276
X5.1756Y-2.6276
X5.2756Y-2.3276
X5.2756Y-2.6276
X5.3756Y-2.3276
X5.3756Y-2.6276
X5.4756Y-2.3276
X5.4756Y-2.6276
T4
X3.8976Y-3.0937
T5
X3.8819Y-3.2118
X3.8819Y-3.3102
X3.9803Y-3.2118
X3.9803Y-3.3102
X4.0787Y-3.2118
X4.0787Y-3.3102
X4.2756Y-3.2118
X4.2756Y-3.3102
X4.374Y-3.2118
X4.374Y-3.3102
T6
X2.4272Y-5.2657
X2.4272Y-5.3657
X2.4272Y-5.4657
X2.4272Y-5.5657
T7
X2.3209Y-2.8043
X2.4823Y-2.9657
X2.5256Y-2.8043
X2.687Y-2.9657
X2.7303Y-2.8043
X2.8917Y-2.9657
X2.935Y-2.8043
X3.0965Y-2.9657
X3.1398Y-2.8043
X3.3012Y-2.9657
X3.3445Y-2.8043
X3.5059Y-2.9657
X3.5492Y-2.8043
X3.7106Y-2.9657
X3.7539Y-2.8043
X3.9154Y-2.9657
X3.9587Y-2.8043
X4.1201Y-2.9657
X4.1634Y-2.8043
X4.3248Y-2.9657
X4.3681Y-2.8043
X4.5295Y-2.9657
X4.5728Y-2.8043
X4.7343Y-2.9657
X4.7776Y-2.8043
X4.939Y-2.9657
X4.9823Y-2.8043
X5.1437Y-2.9657
X5.187Y-2.8043
X5.3484Y-2.9657
X5.3917Y-2.8043
X5.5531Y-2.9657
T8
X2.2287Y-2.0976
X2.2287Y-3.937
X2.2287Y-5.7764
X3.937Y-2.0976
X3.937Y-5.7764
X5.6453Y-2.0976
X5.6453Y-3.937
X5.6453Y-5.7764
T9
X2.9528Y-4.5106
X5.1181Y-4.5106
T0
M30
